<svg fill="none" height="81" viewBox="0 0 1198 81" width="1198" xmlns="http://www.w3.org/2000/svg"><g fill="#fff"><path d="m.81604 1.24002h18.62396c6.592 0 11.296 1.792 14.112 5.376 2.88 3.58398 4.32 8.67198 4.32 15.26398 0 6.016-1.504 10.912-4.512 14.688-2.944 3.776-7.552 5.664-13.824 5.664h-11.42396v36.768h-7.296zm16.60796 35.51998c4.8 0 8.192-1.088 10.176-3.264 2.048-2.24 3.072-6.112 3.072-11.616 0-4.032-.384-7.104-1.152-9.216-.768-2.176-2.08-3.71198-3.936-4.60798s-4.544-1.344-8.064-1.344h-9.40796v30.04798z"/><path d="m65.6543 79.96c-7.296 0-12.48-2.08-15.552-6.24-3.008-4.16-4.512-10.048-4.512-17.664v-32.256c0-7.552 1.536-13.312 4.608-17.27998 3.072-4.032 8.224-6.047997 15.456-6.047997 7.104 0 12.192 2.015997 15.264 6.047997 3.072 4.03198 4.608 9.79198 4.608 17.27998v32.352c0 7.616-1.504 13.504-4.512 17.664-3.008 4.096-8.128 6.144-15.36 6.144zm0-5.856c4.736 0 8-1.376 9.792-4.128 1.792-2.816 2.688-6.912 2.688-12.288v-35.232c0-5.376-.896-9.408-2.688-12.096-1.728-2.68798-4.992-4.03198-9.792-4.03198-4.864 0-8.192 1.344-9.984 4.03198-1.792 2.624-2.688 6.656-2.688 12.096v35.232c0 5.44.896 9.536 2.688 12.288s5.12 4.128 9.984 4.128z"/><path d="m97.6598 1.24002h17.5682c6.976 0 11.936 1.696 14.88 5.088 2.944 3.328 4.416 8.22398 4.416 14.68798 0 4.928-.8 8.992-2.4 12.192s-4.384 5.216-8.352 6.048l11.904 39.744h-7.104l-11.424-38.208h-12.192v38.208h-7.2962zm17.1842 34.17598c4.672 0 7.936-1.152 9.792-3.456s2.784-5.952 2.784-10.944c0-5.056-.896-8.704-2.688-10.944-1.728-2.23998-4.96-3.35998-9.696-3.35998h-10.08v28.70398z"/><path d="m155.447 6.90402h-14.688v-5.664h36.288v5.664h-14.304v72.09598h-7.296z"/><path d="m202.109 79.96c-6.08 0-10.72-1.856-13.92-5.568-3.2-3.776-5.024-8.96-5.472-15.552l6.432-1.92c.576 5.504 1.792 9.728 3.648 12.672 1.92 2.944 5.056 4.416 9.408 4.416 7.296 0 10.944-3.744 10.944-11.232 0-3.2-.768-6.016-2.304-8.448-1.472-2.432-3.872-5.216-7.2-8.352l-13.728-13.152c-2.496-2.304-4.32-4.704-5.472-7.2-1.088-2.56-1.632-5.376-1.632-8.448 0-5.312 1.568-9.40798 4.704-12.28798 3.2-2.944 7.488-4.415997 12.864-4.415997 5.76 0 10.176 1.535997 13.248 4.607997s4.864 8.09598 5.376 15.07198l-6.24 1.632c-.384-5.248-1.504-9.152-3.36-11.712-1.792-2.55998-4.8-3.83998-9.024-3.83998-3.328 0-5.984.864-7.968 2.592-1.984 1.72798-2.976 4.28798-2.976 7.67998 0 2.176.416 4.128 1.248 5.856s2.24 3.552 4.224 5.472l13.728 12.96c3.52 3.328 6.272 6.752 8.256 10.272 2.048 3.456 3.072 7.2 3.072 11.232 0 5.632-1.632 9.984-4.896 13.056s-7.584 4.608-12.96 4.608z"/><path d="m267.779 79.96c-7.296 0-12.48-2.08-15.552-6.24-3.008-4.16-4.512-10.048-4.512-17.664v-32.256c0-7.552 1.536-13.312 4.608-17.27998 3.072-4.032 8.224-6.047997 15.456-6.047997 7.104 0 12.192 2.015997 15.264 6.047997 3.072 4.03198 4.608 9.79198 4.608 17.27998v32.352c0 7.616-1.504 13.504-4.512 17.664-3.008 4.096-8.128 6.144-15.36 6.144zm0-5.856c4.736 0 8-1.376 9.792-4.128 1.792-2.816 2.688-6.912 2.688-12.288v-35.232c0-5.376-.896-9.408-2.688-12.096-1.728-2.68798-4.992-4.03198-9.792-4.03198-4.864 0-8.192 1.344-9.984 4.03198-1.792 2.624-2.688 6.656-2.688 12.096v35.232c0 5.44.896 9.536 2.688 12.288s5.12 4.128 9.984 4.128z"/><path d="m299.785 1.24002h27.936v5.472h-20.64v29.27998h17.184v5.376h-17.184v37.632h-7.296z"/><path d="m355.354 1.24002h34.944v11.71198h-17.76v19.296h13.536v11.904h-13.536v23.232h17.952v11.616h-35.136z"/><path d="m408.275 37.144-14.4-35.90398h16.224l8.544 21.02398 6.912-21.02398h14.304l-13.632 40.41598 15.168 37.344h-16.128l-9.504-23.232-8.352 23.232h-14.208z"/><path d="m447.794 1.24002h17.184v77.75998h-17.184z"/><path d="m476.573 1.24002h17.184v66.14398h17.856v11.616h-35.04z"/><path d="m539.689 1.24002h7.392v34.46398h24.48v-34.46398h7.296v77.75998h-7.296v-37.824h-24.48v37.824h-7.392z"/><path d="m610.904 79.96c-7.296 0-12.48-2.08-15.552-6.24-3.008-4.16-4.512-10.048-4.512-17.664v-32.256c0-7.552 1.536-13.312 4.608-17.27998 3.072-4.032 8.224-6.047997 15.456-6.047997 7.104 0 12.192 2.015997 15.264 6.047997 3.072 4.03198 4.608 9.79198 4.608 17.27998v32.352c0 7.616-1.504 13.504-4.512 17.664-3.008 4.096-8.128 6.144-15.36 6.144zm0-5.856c4.736 0 8-1.376 9.792-4.128 1.792-2.816 2.688-6.912 2.688-12.288v-35.232c0-5.376-.896-9.408-2.688-12.096-1.728-2.68798-4.992-4.03198-9.792-4.03198-4.864 0-8.192 1.344-9.984 4.03198-1.792 2.624-2.688 6.656-2.688 12.096v35.232c0 5.44.896 9.536 2.688 12.288s5.12 4.128 9.984 4.128z"/><path d="m644.158 1.24002h7.296l15.36 67.48798 15.648-67.48798h7.296l1.92 77.75998h-6.048l-1.536-61.92-14.88 61.92h-4.704l-14.688-61.824-1.536 61.824h-6.048z"/><path d="m704.501 1.24002h28.128v5.664h-20.736v29.18398h16.896v5.376h-16.896v32.064h20.928v5.472h-28.32z"/><path d="m761.673 1.24002h17.184v31.48798h12v-31.48798h17.28v77.75998h-17.28v-33.984h-12v33.984h-17.184z"/><path d="m830.923 1.24002h19.584l14.496 77.75998h-15.84l-2.592-16.416h-11.424l-2.688 16.416h-16.224zm14.016 51.07198-4.128-30.336-4.128 30.336z"/><path d="m872.854 1.24002h21.408c8.512 0 14.944 1.504 19.296 4.512s6.528 8.35198 6.528 16.03198c0 5.184-.672 9.312-2.016 12.384s-3.84 5.472-7.488 7.2l10.656 37.632h-17.76l-8.544-34.848h-4.896v34.848h-17.184zm21.984 33.02398c3.456 0 5.856-.896 7.2-2.688 1.408-1.856 2.112-4.608 2.112-8.256 0-3.52-.64-6.144-1.92-7.872-1.28-1.792-3.488-2.688-6.624-2.688h-5.568v21.504z"/><path d="m930.416 1.24002h20.256c5.056 0 9.344.544 12.864 1.632 3.584 1.024 6.464 3.04 8.64 6.048 2.176 3.00798 3.264 7.23198 3.264 12.67198 0 4.608-.992 8.192-2.976 10.752s-4.8 4.192-8.448 4.896c4.48.576 7.904 2.464 10.272 5.664s3.552 7.552 3.552 13.056c0 15.36-7.84 23.04-23.52 23.04h-23.904zm20.544 31.10398c3.648 0 6.112-.832 7.392-2.496 1.344-1.664 2.016-4.256 2.016-7.776 0-3.072-.832-5.376-2.496-6.912-1.664-1.6-4.096-2.4-7.296-2.4h-2.976v19.584zm.288 34.656c3.648 0 6.208-.896 7.68-2.688 1.536-1.856 2.304-4.736 2.304-8.64 0-4.416-.768-7.52-2.304-9.312-1.472-1.792-4.064-2.688-7.776-2.688h-3.552v23.328z"/><path d="m1009.13 80.152c-8.39 0-14.372-2.144-17.956-6.432-3.584-4.352-5.376-10.752-5.376-19.2v-28.896c0-8.448 1.792-14.784 5.376-19.00798 3.584-4.288 9.566-6.431999 17.956-6.431999 8.44 0 14.46 2.143999 18.04 6.431999 3.65 4.28798 5.48 10.62398 5.48 19.00798v28.896c0 8.448-1.83 14.848-5.48 19.2-3.58 4.288-9.6 6.432-18.04 6.432zm0-12.192c2.43 0 4.03-.8 4.8-2.4.76-1.664 1.15-3.904 1.15-6.72v-37.44c0-2.88-.39-5.12-1.15-6.72-.77-1.6-2.37-2.4-4.8-2.4-2.31 0-3.84.832-4.61 2.496-.77 1.6-1.15 3.808-1.15 6.624v37.44c0 2.816.35 5.056 1.05 6.72.71 1.6 2.27 2.4 4.71 2.4z"/><path d="m1065.57 80.152c-5.83 0-10.43-.928-13.83-2.784-3.39-1.92-5.79-4.704-7.2-8.352-1.34-3.712-2.01-8.416-2.01-14.112v-53.66398h16.99v56.25598c0 3.136.38 5.632 1.15 7.488.83 1.856 2.47 2.784 4.9 2.784s4.03-.928 4.8-2.784 1.15-4.352 1.15-7.488v-56.25598h17.09v53.66398c0 5.696-.71 10.4-2.11 14.112-1.41 3.648-3.81 6.432-7.2 8.352-3.33 1.856-7.91 2.784-13.73 2.784z"/><path d="m1099.54 1.24002h21.41c8.51 0 14.94 1.504 19.3 4.512 4.35 3.008 6.52 8.35198 6.52 16.03198 0 5.184-.67 9.312-2.01 12.384-1.35 3.072-3.84 5.472-7.49 7.2l10.66 37.632h-17.76l-8.55-34.848h-4.89v34.848h-17.19zm21.99 33.02398c3.45 0 5.85-.896 7.2-2.688 1.4-1.856 2.11-4.608 2.11-8.256 0-3.52-.64-6.144-1.92-7.872-1.28-1.792-3.49-2.688-6.63-2.688h-5.56v21.504z"/><path d="m1177.37 80.152c-7.43 0-12.96-1.952-16.61-5.856-3.58-3.968-5.5-10.24-5.76-18.816l14.69-2.208c.06 4.928.64 8.48 1.73 10.656 1.15 2.112 2.84 3.168 5.08 3.168 2.88 0 4.32-1.888 4.32-5.664 0-3.008-.7-5.6-2.11-7.776-1.34-2.176-3.49-4.512-6.43-7.008l-6.72-5.856c-3.33-2.816-5.92-5.792-7.78-8.928-1.79-3.2-2.68-6.976-2.68-11.328 0-6.528 1.92-11.55198 5.76-15.07198 3.9-3.52 9.24-5.279999 16.03-5.279999 7.36 0 12.35 2.143999 14.97 6.431999 2.69 4.28798 4.13 9.50398 4.32 15.64798l-14.78 1.824c-.13-4.032-.51-6.912-1.15-8.64-.58-1.792-1.89-2.688-3.94-2.688-1.47 0-2.62.64-3.45 1.92-.77 1.216-1.16 2.592-1.16 4.128 0 2.624.58 4.832 1.73 6.624 1.22 1.792 3.14 3.84 5.76 6.144l6.43 5.664c3.84 3.264 6.82 6.72 8.93 10.368s3.17 7.968 3.17 12.96c0 3.648-.86 6.976-2.59 9.984-1.67 2.944-4.03 5.28-7.11 7.008-3.07 1.728-6.62 2.592-10.65 2.592z"/></g></svg>