<svg fill="none" height="824" viewBox="0 0 1075 824" width="1075" xmlns="http://www.w3.org/2000/svg"><g fill="#fff"><path d="m47.2471 414.842h62.9959l46.63 249.921h-50.953l-8.3378-52.761h-36.7477l-8.6466 52.761h-52.18796104zm45.0855 164.146-13.2787-97.5-13.2786 97.5z"/><path d="m191.401 455.879h-37.674v-41.037h130.624v41.037h-37.365v208.884h-55.585z"/><path d="m328.916 455.879h-37.675v-41.037h130.625v41.037h-37.366v208.884h-55.584z"/><path d="m467.933 414.842h62.996l46.63 249.921h-50.953l-8.338-52.761h-36.747l-8.647 52.761h-52.188zm45.086 164.146-13.279-97.5-13.279 97.5z"/><path d="m670.536 668.466c-27.175 0-46.527-7.097-58.056-21.29-11.323-14.398-16.984-35.071-16.984-62.017v-90.095c0-27.563 5.661-48.339 16.984-62.326 11.323-14.193 30.675-21.29 58.056-21.29 26.145 0 44.673 6.274 55.584 18.822 10.912 12.547 16.367 30.34 16.367 53.378v21.598h-54.041v-24.992c0-9.668-1.029-17.073-3.088-22.215-2.059-5.143-6.999-7.714-14.822-7.714s-12.97 2.777-15.441 8.331c-2.47 5.348-3.705 12.856-3.705 22.523v117.556c0 9.873 1.235 17.484 3.705 22.832 2.677 5.143 7.823 7.714 15.441 7.714 7.617 0 12.455-2.571 14.513-7.714 2.265-5.348 3.397-12.959 3.397-22.832v-26.226h54.041v21.598c0 23.449-5.455 41.756-16.367 54.921-10.911 12.958-29.439 19.438-55.584 19.438z"/><path d="m773.824 414.842h55.276v101.203h38.6v-101.203h55.585v249.921h-55.585v-109.224h-38.6v109.224h-55.276z"/><path d="m961.376 414.842h112.404v37.643h-57.13v62.017h43.54v38.26h-43.54v74.668h57.75v37.333h-113.024z"/><path d="m40.8139 148.916h110.0191v36.883h-55.9161v60.768h42.6171v37.488h-42.6171v73.163h56.5211v36.581h-110.6241z"/><path d="m207.435 261.985-45.338-113.069h51.081l26.9 66.209 21.762-66.209h45.035l-42.919 127.279 47.755 117.604h-50.778l-29.923-73.162-26.296 73.162h-44.733z"/><path d="m331.856 148.916h54.103v244.883h-54.103z"/><path d="m422.465 148.916h54.103v208.302h56.219v36.581h-110.322z"/><path d="m40.8139 1.42337h30.0521c10.861 0 18.5058 2.89946 22.9345 8.69833 4.5342 5.799 6.8015 13.9175 6.8015 24.3555 0 9.8054-2.32 17.9239-6.9597 24.3555-4.5341 6.326-12.0735 9.4891-22.6181 9.4891h-21.6691v61.2052h-8.5412zm28.3123 60.25603c7.9084 0 13.6552-2.056 17.2404-6.1679 3.5851-4.2174 5.3777-11.2289 5.3777-21.0343 0-6.8533-.7381-12.1777-2.2143-15.9734-1.4763-3.7956-3.8488-6.4842-7.1176-8.0657-3.1634-1.58156-7.5394-2.37232-13.1281-2.37232h-19.9292v53.61362z"/><path d="m146.526 131.266c-11.704 0-19.929-3.321-24.674-9.963-4.64-6.748-6.959-16.132-6.959-28.1513v-55.9859c0-11.8087 2.372-20.9288 7.117-27.36035 4.851-6.53697 13.023-9.80545 24.516-9.80545 11.389 0 19.508 3.26848 24.358 9.80545 4.851 6.53695 7.276 15.65705 7.276 27.36035v56.1441c0 12.0191-2.372 21.3501-7.117 27.9931-4.64 6.642-12.812 9.963-24.517 9.963zm0-7.116c8.647 0 14.605-2.478 17.873-7.434 3.375-4.955 5.062-12.177 5.062-21.6665v-59.1489c0-9.4892-1.687-16.6587-5.062-21.5087-3.268-4.85004-9.226-7.27504-17.873-7.27504-8.646 0-14.657 2.425-18.031 7.27504-3.269 4.85-4.903 12.0195-4.903 21.5087v59.1489c0 9.5945 1.634 16.8695 4.903 21.8255 3.374 4.85 9.385 7.275 18.031 7.275z"/><path d="m199.137 1.42337h31.001c10.545 0 17.873 2.79403 21.986 8.38208 4.112 5.58805 6.168 13.33755 6.168 23.24835 0 8.3294-1.37 15.1827-4.112 20.5598-2.636 5.3772-7.539 8.6457-14.71 9.8055l20.562 66.1079h-8.541l-19.929-64.5264h-23.884v64.5264h-8.541zm30.685 56.93483c7.698 0 12.97-2.056 15.817-6.1679 2.847-4.2174 4.271-10.5962 4.271-19.1365 0-8.6456-1.477-14.919-4.429-18.8201-2.847-4.0065-8.12-6.00977-15.817-6.00977h-21.986v50.13427z"/><path d="m293.91 8.38208h-25.623v-6.95871h59.155v6.95871h-24.991v121.14492h-8.541z"/><path d="m368.101 131.108c-18.875 0-29.156-11.07-30.843-33.2117l7.434-2.3723c1.266 9.489 3.533 16.606 6.801 21.351 3.375 4.744 8.963 7.116 16.766 7.116 13.603 0 20.404-6.853 20.404-20.559 0-5.2721-1.318-10.0694-3.954-14.3923-2.636-4.3228-6.854-9.3837-12.654-15.1826l-23.409-23.2484c-7.486-7.4858-11.23-15.6043-11.23-24.3554 0-8.3294 2.531-14.7609 7.593-19.29459 5.166-4.63914 12.02-6.95871 20.562-6.95871 9.173 0 16.238 2.47772 21.194 7.43317 4.956 4.85003 7.803 13.07393 8.541 24.67173l-7.276 1.7397c-.738-9.3837-2.794-16.1843-6.168-20.4017-3.269-4.32278-8.647-6.48419-16.133-6.48419-6.116 0-11.072 1.58152-14.868 4.74459-3.691 3.0576-5.536 7.6967-5.536 13.9174 0 3.3739.685 6.6424 2.056 9.8054 1.476 3.0576 3.902 6.2734 7.276 9.6473l23.093 22.7739c5.904 5.799 10.544 11.5452 13.918 17.2386 3.375 5.6935 5.062 11.6506 5.062 17.8711 0 9.278-2.584 16.29-7.751 21.034-5.166 4.745-12.126 7.117-20.878 7.117z"/><path d="m443.959 1.42337h27.996c11.916 0 20.351 3.3212 25.307 9.96363 4.956 6.5369 7.434 15.4989 7.434 26.8859v53.1391c0 12.02-2.425 21.403-7.276 28.151-4.745 6.643-12.97 9.964-24.674 9.964h-28.787zm28.312 121.30263c6.538 0 11.547-1.37 15.027-4.112 3.479-2.847 5.799-6.589 6.959-11.229 1.16-4.639 1.74-10.2795 1.74-16.9219v-51.5576c0-10.2272-1.74-17.8712-5.22-22.9321-3.374-5.0609-9.648-7.59132-18.822-7.59132h-19.455v114.34392z"/><path d="m521.083 31.3142c2.741-1.687 4.481-3.5848 5.219-5.6935.844-2.2142 1.266-5.5354 1.266-9.9636h-5.062v-14.23373h10.281v12.01953c0 5.9044-.632 10.4381-1.898 13.6012-1.265 3.0576-3.638 5.4298-7.117 7.1168z"/><path d="m582.426 263.956h30.052c10.861 0 18.506 2.9 22.934 8.699 4.534 5.799 6.802 13.917 6.802 24.355 0 9.806-2.32 17.924-6.96 24.356-4.534 6.326-12.073 9.489-22.618 9.489h-21.669v61.205h-8.541zm28.312 60.256c7.908 0 13.655-2.056 17.24-6.168 3.585-4.217 5.378-11.228 5.378-21.034 0-6.853-.738-12.178-2.214-15.973-1.477-3.796-3.849-6.484-7.118-8.066-3.163-1.582-7.539-2.372-13.128-2.372h-19.929v53.613z"/><path d="m688.138 393.799c-11.704 0-19.929-3.321-24.674-9.963-4.64-6.748-6.96-16.132-6.96-28.151v-55.986c0-11.809 2.373-20.929 7.118-27.361 4.85-6.537 13.022-9.805 24.516-9.805 11.388 0 19.508 3.268 24.358 9.805 4.851 6.537 7.276 15.657 7.276 27.361v56.144c0 12.019-2.373 21.35-7.118 27.993-4.639 6.642-12.811 9.963-24.516 9.963zm0-7.116c8.647 0 14.604-2.478 17.873-7.434 3.374-4.955 5.062-12.177 5.062-21.667v-59.148c0-9.49-1.688-16.659-5.062-21.509-3.269-4.85-9.226-7.275-17.873-7.275-8.646 0-14.657 2.425-18.031 7.275-3.269 4.85-4.903 12.019-4.903 21.509v59.148c0 9.595 1.634 16.87 4.903 21.826 3.374 4.85 9.385 7.275 18.031 7.275z"/><path d="m740.749 263.956h31.001c10.545 0 17.873 2.794 21.986 8.382 4.112 5.588 6.168 13.338 6.168 23.249 0 8.329-1.371 15.182-4.112 20.56-2.636 5.377-7.54 8.645-14.71 9.805l20.562 66.108h-8.541l-19.929-64.526h-23.884v64.526h-8.541zm30.685 56.935c7.697 0 12.97-2.056 15.817-6.168 2.847-4.217 4.27-10.596 4.27-19.136 0-8.646-1.476-14.919-4.428-18.82-2.848-4.007-8.12-6.01-15.817-6.01h-21.986v50.134z"/><path d="m835.522 270.915h-25.624v-6.959h59.156v6.959h-24.991v121.145h-8.541z"/><path d="m909.713 393.641c-18.875 0-29.156-11.07-30.843-33.212l7.434-2.372c1.265 9.489 3.532 16.606 6.801 21.351 3.374 4.744 8.963 7.116 16.766 7.116 13.603 0 20.404-6.853 20.404-20.559 0-5.272-1.318-10.069-3.954-14.392s-6.854-9.384-12.654-15.183l-23.409-23.248c-7.486-7.486-11.23-15.605-11.23-24.356 0-8.329 2.531-14.761 7.592-19.294 5.167-4.639 12.021-6.959 20.562-6.959 9.174 0 16.239 2.478 21.195 7.433 4.956 4.85 7.803 13.074 8.541 24.672l-7.276 1.74c-.738-9.384-2.794-16.185-6.168-20.402-3.269-4.323-8.647-6.484-16.134-6.484-6.115 0-11.071 1.581-14.867 4.744-3.691 3.058-5.536 7.697-5.536 13.918 0 3.374.685 6.642 2.056 9.805 1.476 3.058 3.901 6.273 7.276 9.647l23.092 22.774c5.905 5.799 10.545 11.545 13.919 17.239 3.374 5.693 5.061 11.65 5.061 17.871 0 9.278-2.583 16.29-7.75 21.034-5.167 4.745-12.126 7.117-20.878 7.117z"/><path d="m985.571 263.956h27.999c11.91 0 20.35 3.322 25.3 9.964 4.96 6.537 7.44 15.499 7.44 26.886v53.139c0 12.02-2.43 21.403-7.28 28.151-4.74 6.642-12.97 9.964-24.67 9.964h-28.789zm28.309 121.303c6.54 0 11.55-1.371 15.03-4.112 3.48-2.847 5.8-6.589 6.96-11.229 1.16-4.639 1.74-10.28 1.74-16.922v-51.558c0-10.227-1.74-17.871-5.22-22.932-3.38-5.061-9.65-7.591-18.82-7.591h-19.458v114.344z"/><path d="m1062.69 293.847c2.75-1.687 4.49-3.585 5.22-5.693.85-2.214 1.27-5.536 1.27-9.964h-5.06v-14.234h10.28v12.02c0 5.904-.63 10.438-1.9 13.601-1.26 3.058-3.64 5.43-7.12 7.117z"/></g><path d="m4.41223 728.211h42.17767v14.217h-21.4365v23.423h16.3381v14.45h-16.3381v28.2h21.6682v14.101h-42.40937z" fill="#d9aa3e"/><path d="m68.2888 771.794-17.3809-43.583h19.5825l10.3127 25.521 8.3428-25.521h17.2651l-16.454 49.06 18.308 45.331h-19.4667l-11.4714-28.201-10.0809 28.201h-17.1492z" fill="#d9aa3e"/><path d="m115.872 728.211h31.517c8.266 0 14.446 2.37 18.54 7.108 4.094 4.662 6.141 11.421 6.141 20.277 0 10.099-2.395 17.13-7.184 21.092-4.712 3.885-11.356 5.827-19.93 5.827h-8.343v40.087h-20.741zm27.693 39.737c3.631 0 6.026-.971 7.184-2.913 1.236-1.942 1.854-5.205 1.854-9.789 0-4.195-.579-7.302-1.738-9.322-1.158-2.02-3.63-3.03-7.416-3.03h-6.836v25.054z" fill="#d9aa3e"/><path d="m208.951 824c-10.12 0-17.342-2.602-21.668-7.807-4.326-5.283-6.489-13.052-6.489-23.307v-35.076c0-10.255 2.163-17.946 6.489-23.073 4.326-5.205 11.548-7.808 21.668-7.808 10.197 0 17.458 2.603 21.784 7.808 4.403 5.205 6.605 12.896 6.605 23.073v35.076c0 10.255-2.202 18.024-6.605 23.307-4.326 5.205-11.587 7.807-21.784 7.807zm0-14.799c2.935 0 4.867-.971 5.794-2.914.927-2.02 1.39-4.739 1.39-8.157v-45.447c0-3.496-.463-6.215-1.39-8.158-.927-1.942-2.859-2.913-5.794-2.913-2.781 0-4.635 1.01-5.562 3.03-.927 1.942-1.39 4.622-1.39 8.041v45.447c0 3.418.424 6.137 1.274 8.157.85 1.943 2.742 2.914 5.678 2.914z" fill="#d9aa3e"/><path d="m274.875 824c-8.961 0-15.643-2.369-20.046-7.108-4.326-4.817-6.643-12.43-6.952-22.841l17.728-2.68c.078 5.982.773 10.294 2.086 12.935 1.391 2.564 3.438 3.846 6.141 3.846 3.477 0 5.215-2.292 5.215-6.876 0-3.651-.85-6.797-2.55-9.439-1.622-2.641-4.21-5.477-7.763-8.506l-8.111-7.109c-4.017-3.418-7.146-7.031-9.386-10.837-2.163-3.885-3.244-8.468-3.244-13.751 0-7.924 2.317-14.023 6.952-18.296 4.712-4.272 11.162-6.409 19.351-6.409 8.883 0 14.909 2.603 18.076 7.808 3.244 5.205 4.982 11.536 5.214 18.995l-17.844 2.214c-.155-4.895-.618-8.391-1.391-10.488-.695-2.176-2.278-3.263-4.75-3.263-1.777 0-3.168.777-4.172 2.33-.927 1.477-1.39 3.147-1.39 5.011 0 3.186.695 5.866 2.085 8.041 1.468 2.175 3.786 4.661 6.953 7.458l7.763 6.875c4.635 3.963 8.227 8.158 10.776 12.586 2.55 4.428 3.824 9.672 3.824 15.732 0 4.428-1.043 8.468-3.128 12.119-2.009 3.574-4.867 6.409-8.575 8.507-3.708 2.097-7.995 3.146-12.862 3.146z" fill="#d9aa3e"/><path d="m309.599 728.211h20.741v94.391h-20.741z" fill="#d9aa3e"/><path d="m352.794 743.71h-14.136v-15.499h49.014v15.499h-14.021v78.892h-20.857z" fill="#d9aa3e"/><path d="m396.051 728.211h20.741v94.391h-20.741z" fill="#d9aa3e"/><path d="m457.67 824c-10.12 0-17.343-2.602-21.669-7.807-4.325-5.283-6.488-13.052-6.488-23.307v-35.076c0-10.255 2.163-17.946 6.488-23.073 4.326-5.205 11.549-7.808 21.669-7.808 10.196 0 17.458 2.603 21.784 7.808 4.403 5.205 6.604 12.896 6.604 23.073v35.076c0 10.255-2.201 18.024-6.604 23.307-4.326 5.205-11.588 7.807-21.784 7.807zm0-14.799c2.935 0 4.866-.971 5.793-2.914.927-2.02 1.391-4.739 1.391-8.157v-45.447c0-3.496-.464-6.215-1.391-8.158-.927-1.942-2.858-2.913-5.793-2.913-2.781 0-4.635 1.01-5.562 3.03-.927 1.942-1.391 4.622-1.391 8.041v45.447c0 3.418.425 6.137 1.275 8.157.85 1.943 2.742 2.914 5.678 2.914z" fill="#d9aa3e"/><path d="m498.681 728.211h14.6l19.235 45.447v-45.447h17.149v94.391h-14.02l-19.235-48.944v48.944h-17.729z" fill="#d9aa3e"/><path d="m588.877 728.211h17.729l10.081 64.093 9.385-64.093h18.772l-17.149 94.391h-21.9z" fill="#d9aa3e"/><path d="m654.388 728.211h20.741v94.391h-20.741z" fill="#d9aa3e"/><path d="m689.124 728.211h25.84c10.274 0 18.037 1.826 23.29 5.477s7.88 10.138 7.88 19.461c0 6.293-.811 11.303-2.434 15.032-1.622 3.729-4.635 6.643-9.038 8.74l12.862 45.681h-21.436l-10.313-42.301h-5.91v42.301h-20.741zm26.535 40.087c4.172 0 7.068-1.088 8.691-3.263 1.699-2.253 2.549-5.593 2.549-10.022 0-4.272-.773-7.458-2.318-9.555-1.545-2.176-4.21-3.263-7.995-3.263h-6.721v26.103z" fill="#d9aa3e"/><path d="m766.156 743.71h-14.136v-15.499h49.014v15.499h-14.021v78.892h-20.857z" fill="#d9aa3e"/><path d="m836.411 824c-7.03 0-12.591-1.126-16.686-3.379-4.094-2.331-6.991-5.71-8.69-10.139-1.622-4.505-2.433-10.215-2.433-17.13v-65.141h20.509v68.288c0 3.806.464 6.836 1.391 9.089 1.004 2.253 2.974 3.38 5.909 3.38s4.867-1.127 5.794-3.38 1.39-5.283 1.39-9.089v-68.288h20.625v65.141c0 6.915-.849 12.625-2.549 17.13-1.699 4.429-4.596 7.808-8.69 10.139-4.017 2.253-9.54 3.379-16.57 3.379z" fill="#d9aa3e"/><path d="m877.417 728.211h42.178v14.217h-21.437v23.423h16.339v14.45h-16.339v28.2h21.669v14.101h-42.41z" fill="#d9aa3e"/><path d="m929.243 728.211h20.741v80.29h21.553v14.101h-42.294z" fill="#d9aa3e"/><path d="m980.616 728.211h20.744v80.29h21.55v14.101h-42.294z" fill="#d9aa3e"/><path d="m1031.99 728.211h42.18v14.217h-21.44v23.423h16.34v14.45h-16.34v28.2h21.67v14.101h-42.41z" fill="#d9aa3e"/></svg>