<svg fill="none" height="464" viewBox="0 0 648 464" width="648" xmlns="http://www.w3.org/2000/svg"><path d="m16.427 442.553-6.6619.057s-.05694-7.798.11388-12.5c.05694-1.376.74022-2.523 2.10672-2.523h8.8826c4.2704 0 5.1245 3.039 6.3772 6.996.6832.114.7971 0 1.3665-.287-.2847-2.351-1.1388-8.028-1.2526-8.486 0-.115-.057-.172-.2278-.172-.968.172-1.4804.401-2.847.401h-16.62626c-1.70818 0-4.55515-.229-7.402113-.287-.341636.344-.341636.975 0 1.319 3.985753.172 4.725963.459 4.896783 5.218.11388 4.702.11388 7.569.11388 12.328s0 7.454-.11388 12.156c-.17082 4.759-.91103 5.046-4.896783 5.218-.341636.344-.341636.975 0 1.319 2.790033-.057 5.807813-.287 7.515993-.287h12.64058c2.733 0 7.2882.287 7.2882.287.7971-2.867 1.5943-6.823 2.0498-9.748-.5694-.344-.6263-.458-1.3665-.286-1.1388 4.128-3.1886 8.256-7.516 8.256h-8.8826c-1.2526 0-2.04978-.917-2.10672-2.465-.17082-4.817-.11388-14.851-.11388-14.851l6.6619.057c4.8398.057 5.0676 1.262 5.2384 3.842.3417.344.911.344 1.2527 0-.057-2.007-.2278-2.695-.2278-4.473 0-1.892.1708-3.211.2278-4.931-.3417-.344-.911-.344-1.2527 0-.1708 3.154-.3986 3.842-5.2384 3.842z" fill="#fff"/><path d="m36.7192 457.117c-.1139 4.53-.6263 4.702-3.9288 4.874-.3986.402-.3416 1.032 0 1.319 2.2776-.057 3.6441-.287 5.9786-.287s3.7011.23 6.0356.287c.2847-.287.3416-.917 0-1.319-3.3025-.172-3.8149-.344-3.9288-4.874-.057-2.121-.1708-7.397-.1708-12.959 0-6.307.1138-12.958.1708-15.481.0569-3.555.2277-5.161.2277-5.161 0-.401-.2277-.516-.7402-.516-1.3665.573-5.1245 1.261-7.2882 1.433-.1139.459-.1708.746.1708 1.09 2.847.172 3.2455.459 3.4733 4.472.0569 2.237.1139 7.397.1139 12.673 0 5.963-.057 12.098-.1139 14.449z" fill="#fff"/><path d="m51.2347 435.5c0 .86 0 2.294.057 4.071h-2.847c-.968 0-1.2527.344-1.2527.803v.516c0 .287.057.344.2847.344h3.815c0 5.734 0 13.475-.057 15.826-.1708 4.53-.6263 4.702-3.5302 4.931-.3416.344-.3416.975 0 1.319 2.2776-.057 3.2455-.287 5.3523-.287 2.5053 0 4.0427.23 6.3772.287.3416-.344.3416-.975 0-1.319-3.7011-.229-4.1566-.401-4.2705-4.931-.1138-2.236-.1138-9.92-.1138-15.826h5.1814c.5125 0 1.1958.057 1.1958-.459v-.86c0-.229-.1139-.344-.3986-.344h-5.9786c.0569-2.179.0569-4.014.1138-4.988.057-2.867.2847-5.046.7403-6.594.911-2.867 2.3345-3.728 3.5302-3.728 1.6512 0 2.4484 1.147 3.1886 3.04.4555.974 1.0249 1.72 2.1637 1.72.911 0 2.3345-1.032 2.3345-2.122 0-.917-.6263-1.892-1.7651-2.752-1.4235-.975-2.847-1.147-4.8968-1.147-2.6761 0-5.5231 1.319-7.3452 4.071-1.3096 2.064-2.0498 4.817-1.879 8.429z" fill="#fff"/><path d="m69.7765 448.172c1.0249-6.192 4.6121-7.855 6.6619-7.855 2.6192 0 5.1245 2.236 5.1245 6.823 0 .516-.2277.746-.7971.746zm15.032 9.748c-1.9929 2.064-3.8719 3.555-7.0036 3.555-1.9359 0-4.7829-1.147-6.491-3.956-1.0819-1.778-1.7082-4.53-1.7082-7.684l15.2597-.229c.6263 0 1.0249-.402 1.0249-.975 0-4.587-1.879-9.633-9.4519-9.633-5.1815 0-11.1601 4.644-11.1601 12.959 0 3.039.7971 6.078 2.5623 8.142 1.822 2.179 4.669 3.498 8.5978 3.498 4.0996 0 7.3452-1.892 9.5089-4.759-.1709-.574-.5125-.861-1.1388-.918z" fill="#fff"/><path d="m99.2466 463.597c2.1064 0 5.2384-1.147 7.9144-3.326.285-.229.797-.344.797.057 0 1.262.627 3.269.627 3.269.398.172.626.114 1.025 0 1.195-.975 2.733-1.835 6.035-2.237.342-.344.342-.516 0-.86-3.473-.286-3.929-1.318-3.986-4.013-.113-2.867-.113-8.945 0-11.812.057-1.663.228-5.046.228-5.046 0-.172-.114-.344-.398-.344-.285.057-1.139.114-1.936.114-1.765 0-3.189-.057-5.182-.114-.341.344-.341.974 0 1.318 2.676.172 3.189.86 3.36 4.416.113 2.867.113 8.945 0 11.812-.057 1.032-.114.86-.855 1.548-1.992 1.777-4.669 3.211-6.035 3.211-3.4165 0-3.9289-1.319-4.0997-6.193-.1139-2.867-.1139-7.855 0-10.722.0569-1.663.2277-5.046.2277-5.046 0-.172-.1708-.344-.4555-.344-.2847.057-1.0818.114-1.879.114-1.7651 0-3.1886-.057-5.1815-.114-.3416.344-.3416.974 0 1.318 2.6192.23 3.1886.746 3.3595 4.301.1138 2.867.1138 8.372 0 11.239-.1709 3.784 1.0818 7.454 6.4341 7.454z" fill="#fff"/><path d="m122.298 435.5c0 .86 0 2.294.057 4.071h-2.847c-.968 0-1.253.344-1.253.803v.516c0 .287.057.344.285.344h3.815c0 5.734 0 13.475-.057 15.826-.171 4.53-.627 4.702-3.531 4.931-.341.344-.341.975 0 1.319 2.278-.057 3.246-.287 5.353-.287 2.505 0 4.042.23 6.377.287.342-.344.342-.975 0-1.319-3.701-.229-4.157-.401-4.27-4.931-.114-2.236-.114-9.92-.114-15.826h5.181c.513 0 1.196.057 1.196-.459v-.86c0-.229-.114-.344-.399-.344h-5.978c.057-2.179.057-4.014.114-4.988.056-2.867.284-5.046.74-6.594.911-2.867 2.334-3.728 3.53-3.728 1.651 0 2.448 1.147 3.189 3.04.455.974 1.024 1.72 2.163 1.72.911 0 2.335-1.032 2.335-2.122 0-.917-.627-1.892-1.765-2.752-1.424-.975-2.847-1.147-4.897-1.147-2.676 0-5.523 1.319-7.345 4.071-1.31 2.064-2.05 4.817-1.879 8.429z" fill="#fff"/><path d="m223.853 457.209c.284 4.657.057 4.714-3.631 4.886-.34.345-.34.978 0 1.323 2.667-.058 4.596-.288 6.071-.288 1.645 0 4.595.23 6.468.288.34-.345.34-.978 0-1.323-3.858-.172-4.029-.402-4.369-5.174l-1.872-24.952c-.227-3.105.057-4.657 3.914-4.887.341-.345.341-.977 0-1.322l-7.488.287-12.028 29.149c-.34.805-.34.748-.567.748s-.284-.173-.511-.69l-11.63-29.207-7.603-.287c-.34.345-.34.977 0 1.322 3.915.23 4.312 1.15 3.858 5.404l-2.496 24.435c-.34 3.45-1.021 4.887-4.255 5.174-.34.345-.34.978 0 1.323 1.702-.058 3.631-.288 4.992-.288 1.362 0 3.178.23 4.88.288.34-.345.34-.978 0-1.323-3.745-.287-4.028-2.012-3.745-5.289l2.156-23.802h.114l11.743 29.839c.171.46.511.632.851.632.341 0 .568-.172.795-.632l12.765-30.414h.113z" fill="#fff"/><path d="m250.248 450.942-.283 6.726c-.057.69-.284 1.035-.738 1.38-1.418 1.15-3.347 2.932-4.879 2.932-2.723 0-4.198-2.414-4.198-4.139 0-2.127 1.361-4.714 5.446-5.749zm-.283 9.544c.34 1.15 1.191 3.219 4.085 3.219 2.666 0 4.595-2.184 4.595-2.472 0-.402-.567-.747-.794-.747-.341 0-.511.92-1.646.92-2.099 0-2.382-1.725-2.269-4.887l.284-8.164c.227-7.647-3.745-9.314-7.716-9.314-4.425 0-9.191 2.874-9.191 5.806 0 1.323.908 2.243 2.156 2.243 1.588 0 2.496-1.438 2.496-2.128 0-.402-.057-.747-.17-.977-.057-.172-.113-.517-.113-1.092 0-1.725 2.326-2.587 4.368-2.587 1.816 0 4.255 1.494 4.255 7.704 0 .402-.113 1.149-.284 1.207l-5.106 1.15c-5.276 1.207-8.907 3.967-8.907 7.704 0 4.197 2.95 5.634 6.751 5.634 2.497 0 3.631-.517 6.014-2.357l1.078-.862z" fill="#fff"/><path d="m265.118 445.192c.114 2.933.114 9.084 0 11.959-.227 4.542-.624 4.657-3.971 4.944-.34.345-.34.978 0 1.323 1.702-.115 4.255-.288 5.957-.288 1.645 0 4.539.173 6.411.288.34-.345.34-.978 0-1.323-3.801-.344-4.255-.402-4.425-4.944-.114-2.875-.057-7.244 0-8.336.056-1.438.737-2.99 1.305-3.968.51-.862 1.872-2.932 2.496-2.932.397 0 .851.115 1.078.518.397.747 1.135 1.782 2.269 1.782 1.305 0 2.553-1.15 2.553-2.53 0-1.035-.624-2.644-3.29-2.644-2.099 0-4.199 1.839-6.014 4.599-.397.575-.454-.23-.454-.517 0-1.783-.057-3.507-.17-3.852-.114-.173-.227-.345-.681-.345-1.532.575-2.95 1.035-6.695 1.552-.113.345-.113.632.114.977 2.893.288 3.404.748 3.517 3.737z" fill="#fff"/><path d="m282.387 455.886c.227 2.702.34 4.945.34 7.244.567-.115 1.078-.172 1.362-.172.397 0 .681 0 1.078.115 1.475.402 2.95.632 4.936.632 3.006 0 8.623-1.552 8.623-6.956 0-3.737-2.666-5.577-6.354-7.015-3.234-1.264-5.617-2.357-5.617-5.346 0-2.243 1.816-4.082 4.028-4.082 1.986 0 4.879.747 5.56 5.404.341.287.851.287 1.192-.058.17-1.954.227-3.737.283-5.519-1.702-.287-4.198-1.092-7.035-1.092-4.311 0-7.659 2.357-7.659 6.151 0 4.025 2.099 5.635 5.957 7.302 4.426 1.955 5.674 3.162 5.674 5.519 0 2.703-2.78 4.427-4.766 4.427-2.099 0-3.574-.919-4.142-1.494-1.304-1.265-2.042-3.737-2.382-5.117-.341-.345-.738-.288-1.078.057z" fill="#fff"/><path d="m307.464 448.24c1.022-6.21 4.596-7.877 6.638-7.877 2.61 0 5.106 2.242 5.106 6.842 0 .517-.227.747-.794.747zm14.978 9.773c-1.986 2.07-3.858 3.565-6.978 3.565-1.929 0-4.766-1.15-6.468-3.967-1.078-1.782-1.702-4.542-1.702-7.704l15.205-.23c.624 0 1.021-.403 1.021-.977 0-4.6-1.872-9.659-9.418-9.659-5.163 0-11.12 4.657-11.12 12.993 0 3.047.795 6.094 2.553 8.164 1.816 2.185 4.653 3.507 8.567 3.507 4.085 0 7.319-1.897 9.475-4.772-.17-.575-.511-.862-1.135-.92z" fill="#fff"/><path d="m330.19 428.692c0 1.495 1.362 2.989 2.724 2.989 1.588 0 2.95-1.494 2.95-2.759 0-1.38-1.192-2.99-2.724-2.99-1.361 0-2.95 1.38-2.95 2.76zm5.447 28.172c-.114-1.725-.114-4.6-.114-6.325 0-1.724 0-3.564.114-5.289.113-2.817.34-5.979.34-5.979 0-.23-.284-.403-.737-.403-1.646.633-3.631 1.15-7.546 1.667-.113.345 0 .69.113 1.035 3.064.345 3.518.575 3.688 3.91.057 1.725.114 3.277.114 5.002s-.114 4.657-.114 6.382c-.17 4.772-.624 4.944-4.085 5.231-.34.345-.34.978 0 1.323 1.475-.115 4.482-.288 6.184-.288 1.759 0 4.426.173 6.128.288.34-.345.34-.978 0-1.323-3.461-.229-3.915-.402-4.085-5.231z" fill="#fff"/><path d="m346.053 457.209c-.113 4.542-.624 4.714-3.914 4.886-.398.403-.341 1.035 0 1.323 2.269-.058 3.63-.288 5.957-.288 2.326 0 3.687.23 6.013.288.284-.288.341-.92 0-1.323-3.29-.172-3.801-.344-3.914-4.886-.057-2.128-.17-7.417-.17-12.994 0-6.324.113-12.993.17-15.523.056-3.565.227-5.175.227-5.175 0-.402-.227-.517-.738-.517-1.362.575-5.106 1.265-7.262 1.437-.113.46-.17.748.17 1.093 2.837.172 3.234.46 3.461 4.484.057 2.242.114 7.417.114 12.706 0 5.98-.057 12.131-.114 14.489z" fill="#fff"/><path d="m360.403 457.209c-.114 4.542-.624 4.714-3.915 4.886-.397.403-.34 1.035 0 1.323 2.27-.058 3.631-.288 5.957-.288s3.688.23 6.014.288c.284-.288.34-.92 0-1.323-3.291-.172-3.801-.344-3.915-4.886-.056-2.128-.17-7.417-.17-12.994 0-6.324.114-12.993.17-15.523.057-3.565.227-5.175.227-5.175 0-.402-.227-.517-.737-.517-1.362.575-5.106 1.265-7.262 1.437-.114.46-.17.748.17 1.093 2.837.172 3.234.46 3.461 4.484.057 2.242.113 7.417.113 12.706 0 5.98-.056 12.131-.113 14.489z" fill="#fff"/><path d="m375.944 448.24c1.021-6.21 4.595-7.877 6.638-7.877 2.61 0 5.106 2.242 5.106 6.842 0 .517-.227.747-.794.747zm14.978 9.773c-1.986 2.07-3.858 3.565-6.979 3.565-1.929 0-4.765-1.15-6.467-3.967-1.078-1.782-1.702-4.542-1.702-7.704l15.204-.23c.624 0 1.022-.403 1.022-.977 0-4.6-1.873-9.659-9.418-9.659-5.163 0-11.12 4.657-11.12 12.993 0 3.047.794 6.094 2.553 8.164 1.815 2.185 4.652 3.507 8.567 3.507 4.085 0 7.318-1.897 9.474-4.772-.17-.575-.51-.862-1.134-.92z" fill="#fff"/><path d="m477.864 457.209c.284 4.657.057 4.714-3.645 4.886-.342.345-.342.978 0 1.323 2.677-.058 4.613-.288 6.094-.288 1.651 0 4.612.23 6.492.288.341-.345.341-.978 0-1.323-3.873-.172-4.044-.402-4.385-5.174l-1.88-24.952c-.227-3.105.057-4.657 3.93-4.887.341-.345.341-.977 0-1.322l-7.517.287-12.074 29.149c-.341.805-.341.748-.569.748s-.285-.173-.513-.69l-11.674-29.207-7.631-.287c-.342.345-.342.977 0 1.322 3.929.23 4.328 1.15 3.872 5.404l-2.506 24.435c-.341 3.45-1.025 4.887-4.271 5.174-.341.345-.341.978 0 1.323 1.709-.058 3.645-.288 5.012-.288s3.189.23 4.897.288c.342-.345.342-.978 0-1.323-3.758-.287-4.043-2.012-3.758-5.289l2.164-23.802h.114l11.788 29.839c.171.46.513.632.854.632.342 0 .57-.172.798-.632l12.813-30.414h.114z" fill="#fff"/><path d="m489.951 451.919c0 5.577 3.701 11.786 11.389 11.786 3.474 0 6.094-1.265 7.973-3.104 2.449-2.415 3.531-5.865 3.531-9.199 0-5.692-3.075-12.361-11.39-12.361-3.587 0-6.492 1.494-8.485 3.852-1.993 2.357-3.018 5.577-3.018 9.026zm10.706-11.556c4.67 0 7.859 4.887 7.859 12.764 0 6.899-3.816 9.256-6.378 9.256-5.638 0-7.859-7.532-7.859-11.729 0-4.772 1.48-10.291 6.378-10.291z" fill="#fff"/><path d="m525.112 443.525c-.171.23-.512.748-.512 0 0-1.667.284-4.197.284-4.197 0-.287-.227-.402-.683-.402-1.538.575-3.417 1.035-7.176 1.552-.114.345 0 .632.114.977 2.905.288 3.417.575 3.531 3.737.057 2.99.057 9.142 0 11.959-.114 4.485-.569 4.657-3.815 4.944-.342.345-.342.978 0 1.323 2.221-.058 3.53-.288 5.865-.288 2.107 0 2.905.23 5.183.288.341-.345.341-.978 0-1.323-2.791-.287-3.133-.459-3.247-4.944-.113-2.645-.17-7.532 0-10.291.057-1.15.456-1.783.912-2.3 2.05-2.012 5.068-3.22 7.175-3.22 1.082 0 2.278.69 2.905 1.955.569 1.093.455 2.587.569 4.255.114 2.874.114 6.726 0 9.601-.228 4.485-.512 4.657-3.36 4.944-.285.345-.285.978 0 1.323 2.278-.058 3.303-.288 5.467-.288 2.221 0 3.246.23 5.581.288.285-.345.285-.978 0-1.323-3.018-.287-3.474-.459-3.645-4.944-.113-2.817-.113-5.979 0-8.854 0-.862.057-1.667.057-2.472 0-1.955-.227-3.622-1.082-4.887-.911-1.207-2.733-1.897-4.612-1.897-2.677 0-6.208.747-9.511 4.484z" fill="#fff"/><path d="m547.743 439.616c-.74 0-.968.345-.968.804v.518c0 .287.057.345.285.345h3.189c0 5.462-.285 13.511-.285 16.96 0 3.91 1.31 5.462 3.816 5.462 2.505 0 5.239-1.207 7.346-3.622-.114-.575-.228-.69-.57-.805-1.423 1.093-3.416 1.955-4.84 1.955-1.481 0-1.709-1.667-1.823-5.059-.113-2.875.057-9.774.285-14.891h5.638c.57 0 1.31-.173 1.31-.69v-.632c0-.23-.114-.345-.399-.345h-6.549l.057-3.278c.057-3.564.228-5.749.228-5.749 0-.345-.171-.517-.399-.517-.398 0-1.253.632-2.107.977-.911.403-1.879.46-1.879 1.035 0 .632.171 1.437.171 7.532z" fill="#fff"/><path d="m567.892 445.192c.114 2.933.114 9.084 0 11.959-.228 4.542-.627 4.657-3.987 4.944-.341.345-.341.978 0 1.323 1.709-.115 4.272-.288 5.98-.288 1.651 0 4.556.173 6.435.288.342-.345.342-.978 0-1.323-3.815-.344-4.271-.402-4.442-4.944-.114-2.875-.057-7.244 0-8.336.057-1.438.741-2.99 1.31-3.968.513-.862 1.879-2.932 2.506-2.932.398 0 .854.115 1.082.518.398.747 1.139 1.782 2.278 1.782 1.31 0 2.562-1.15 2.562-2.53 0-1.035-.626-2.644-3.303-2.644-2.107 0-4.214 1.839-6.036 4.599-.399.575-.456-.23-.456-.517 0-1.783-.057-3.507-.171-3.852-.114-.173-.227-.345-.683-.345-1.538.575-2.961 1.035-6.72 1.552-.114.345-.114.632.114.977 2.904.288 3.417.748 3.531 3.737z" fill="#fff"/><path d="m596.732 425.415-4.328 6.841c-.456.748-.627.978-.627 1.61 0 .403.399.748.798.748.398 0 .854-.23 1.708-1.093l6.549-6.266-.171-.633c-1.309-1.265-2.79-1.322-3.132-1.322-.285 0-.626.057-.797.115zm-7.745 22.825c1.025-6.21 4.613-7.877 6.663-7.877 2.62 0 5.125 2.242 5.125 6.842 0 .517-.228.747-.797.747zm15.034 9.773c-1.993 2.07-3.872 3.565-7.004 3.565-1.937 0-4.784-1.15-6.493-3.967-1.082-1.782-1.708-4.542-1.708-7.704l15.262-.23c.627 0 1.025-.403 1.025-.977 0-4.6-1.879-9.659-9.453-9.659-5.182 0-11.162 4.657-11.162 12.993 0 3.047.797 6.094 2.563 8.164 1.822 2.185 4.669 3.507 8.599 3.507 4.1 0 7.346-1.897 9.51-4.772-.171-.575-.512-.862-1.139-.92z" fill="#fff"/><path d="m624.207 450.942-.285 6.726c-.057.69-.284 1.035-.74 1.38-1.424 1.15-3.36 2.932-4.898 2.932-2.733 0-4.214-2.414-4.214-4.139 0-2.127 1.367-4.714 5.467-5.749zm-.285 9.544c.342 1.15 1.196 3.219 4.101 3.219 2.676 0 4.612-2.184 4.612-2.472 0-.402-.569-.747-.797-.747-.342 0-.512.92-1.651.92-2.107 0-2.392-1.725-2.278-4.887l.284-8.164c.228-7.647-3.758-9.314-7.745-9.314-4.442 0-9.225 2.874-9.225 5.806 0 1.323.911 2.243 2.164 2.243 1.594 0 2.505-1.438 2.505-2.128 0-.402-.056-.747-.17-.977-.057-.172-.114-.517-.114-1.092 0-1.725 2.335-2.587 4.385-2.587 1.822 0 4.271 1.494 4.271 7.704 0 .402-.114 1.149-.285 1.207l-5.125 1.15c-5.296 1.207-8.941 3.967-8.941 7.704 0 4.197 2.961 5.634 6.777 5.634 2.506 0 3.644-.517 6.036-2.357l1.082-.862z" fill="#fff"/><path d="m638.678 457.209c-.114 4.542-.627 4.714-3.93 4.886-.398.403-.341 1.035 0 1.323 2.278-.058 3.645-.288 5.98-.288s3.702.23 6.037.288c.284-.288.341-.92 0-1.323-3.304-.172-3.816-.344-3.93-4.886-.057-2.128-.171-7.417-.171-12.994 0-6.324.114-12.993.171-15.523.057-3.565.228-5.175.228-5.175 0-.402-.228-.517-.74-.517-1.367.575-5.126 1.265-7.29 1.437-.114.46-.171.748.171 1.093 2.847.172 3.246.46 3.474 4.484.057 2.242.114 7.417.114 12.706 0 5.98-.057 12.131-.114 14.489z" fill="#fff"/><path d="m157.465 444.424h10.7119v10.7119h-10.7119z" fill="#d9aa3e"/><path d="m411.338 444.424h10.7119v10.7119h-10.7119z" fill="#d9aa3e"/><g fill="#fff"><path d="m28.4683 249.959h37.9576l28.0962 150.587h-30.7011l-5.0238-31.79h-22.142l-5.2099 31.79h-31.4453zm27.1657 98.904-8.0008-58.747-8.0009 58.747z"/><path d="m115.327 274.685h-22.7005v-24.726h78.7065v24.726h-22.514v125.861h-33.492z"/><path d="m198.185 274.685h-22.701v-24.726h78.707v24.726h-22.514v125.861h-33.492z"/><path d="m281.948 249.959h37.958l28.096 150.587h-30.701l-5.024-31.79h-22.142l-5.21 31.79h-31.445zm27.166 98.904-8.001-58.747-8.001 58.747z"/><path d="m404.024 402.777c-16.374 0-28.034-4.276-34.98-12.828-6.823-8.676-10.234-21.131-10.234-37.368v-54.285c0-16.608 3.411-29.126 10.234-37.554 6.822-8.552 18.482-12.828 34.98-12.828 15.754 0 26.918 3.78 33.492 11.34 6.575 7.561 9.862 18.282 9.862 32.163v13.014h-32.562v-15.059c0-5.825-.62-10.287-1.861-13.386-1.24-3.098-4.217-4.647-8.931-4.647-4.713 0-7.815 1.673-9.303 5.019-1.489 3.223-2.233 7.746-2.233 13.572v70.831c0 5.95.744 10.535 2.233 13.758 1.612 3.098 4.714 4.648 9.303 4.648 4.59 0 7.505-1.55 8.745-4.648 1.365-3.223 2.047-7.808 2.047-13.758v-15.802h32.562v13.014c0 14.129-3.287 25.16-9.862 33.092-6.574 7.808-17.738 11.712-33.492 11.712z"/><path d="m466.259 249.959h33.306v60.978h23.259v-60.978h33.492v150.587h-33.492v-65.812h-23.259v65.812h-33.306z"/><path d="m579.267 249.959h67.729v22.681h-34.423v37.368h26.236v23.053h-26.236v44.99h34.795v22.495h-68.101z"/><path d="m24.5921 89.7275h66.2911v22.2235h-33.6919v36.615h25.6787v22.588h-25.6787v44.084h34.0562v22.042h-66.6554z"/><path d="m124.988 157.856-27.318-68.1285h30.778l16.209 39.8935 13.112-39.8935h27.136l-25.861 76.6905 28.775 70.862h-30.596l-18.03-44.084-15.844 44.084h-26.9539z"/><path d="m199.956 89.7275h32.6v147.5525h-32.6z"/><path d="m254.552 89.7275h32.599v125.5105h33.874v22.042h-66.473z"/><path d="m24.5921.857637h18.1076c6.5441 0 11.1504 1.747043 13.8189 5.241113 2.732 3.49408 4.098 8.38575 4.098 14.67515 0 5.9081-1.3977 10.7999-4.1933 14.6751-2.732 3.8117-7.2748 5.7176-13.6283 5.7176h-13.0565v36.8784h-5.1464zm17.0592 36.306663c4.7652 0 8.2279-1.2388 10.3881-3.7165 2.1602-2.5411 3.2403-6.7658 3.2403-12.6739 0-4.1294-.4448-7.3376-1.3343-9.6246-.8895-2.28705-2.319-3.90703-4.2886-4.85996-1.9061-.95293-4.5428-1.42939-7.9102-1.42939h-12.0081v32.30435z"/><path d="m88.288 79.0932c-7.0524 0-12.0082-2.0012-14.8673-6.0035-2.7955-4.0658-4.1933-9.7198-4.1933-16.9621v-33.7337c0-7.1153 1.4296-12.61048 4.2886-16.48573 2.9227-3.93878 7.8467-5.90817 14.772-5.90817 6.8618 0 11.754 1.96939 14.677 5.90817 2.922 3.93878 4.384 9.43403 4.384 16.48573v33.829c0 7.2422-1.43 12.8645-4.289 16.8668-2.796 4.0023-7.7196 6.0035-14.772 6.0035zm0-4.2882c5.2099 0 8.7997-1.4929 10.7693-4.4788 2.0327-2.9858 3.0497-7.3375 3.0497-13.0551v-35.6396c0-5.7176-1.017-10.0375-3.0497-12.95983-1.9696-2.92232-5.5594-4.38348-10.7693-4.38348s-8.8314 1.46116-10.8645 4.38348c-1.9696 2.92233-2.9544 7.24223-2.9544 12.95983v35.6396c0 5.7811.9848 10.1646 2.9544 13.1504 2.0331 2.9224 5.6546 4.3835 10.8645 4.3835z"/><path d="m119.988.857637h18.68c6.353 0 10.769 1.683513 13.247 5.050533s3.717 8.03633 3.717 14.00803c0 5.0188-.826 9.1482-2.478 12.3881-1.589 3.24-4.543 5.2094-8.864 5.9082l12.39 39.8325h-5.147l-12.008-38.8796h-14.39v38.8796h-5.147zm18.489 34.305463c4.638 0 7.815-1.2388 9.53-3.7164 1.716-2.5412 2.573-6.3846 2.573-11.5305 0-5.2093-.889-8.9893-2.668-11.33983-1.715-2.41409-4.892-3.62113-9.53-3.62113h-13.247v30.20786z"/><path d="m177.093 5.05053h-15.44v-4.192893h35.644v4.192893h-15.058v72.99447h-5.146z"/><path d="m221.796 78.9979c-11.373 0-17.568-6.6705-18.584-20.0115l4.479-1.4294c.762 5.7176 2.128 10.0057 4.098 12.8645 2.033 2.8588 5.4 4.2882 10.102 4.2882 8.196 0 12.294-4.1293 12.294-12.3881 0-3.1764-.794-6.067-2.383-8.6716-1.588-2.6047-4.129-5.6541-7.624-9.1482l-14.105-14.008c-4.511-4.5106-6.766-9.4023-6.766-14.6752 0-5.0187 1.525-8.89397 4.574-11.62571 3.114-2.79526 7.243-4.19289 12.39-4.19289 5.527 0 9.784 1.49293 12.77 4.47878 2.987 2.92232 4.702 7.87752 5.147 14.86572l-4.384 1.0482c-.445-5.654-1.684-9.7516-3.717-12.29279-1.97-2.60468-5.21-3.90702-9.721-3.90702-3.685 0-6.671.95293-8.958 2.85879-2.224 1.84234-3.336 4.63762-3.336 8.38582 0 2.0329.413 4.0023 1.239 5.9081.889 1.8424 2.351 3.78 4.384 5.8129l13.914 13.7222c3.558 3.4941 6.354 6.9564 8.387 10.3869 2.033 3.4306 3.049 7.02 3.049 10.7682 0 5.5905-1.556 9.8151-4.669 12.6739-3.114 2.8588-7.307 4.2882-12.58 4.2882z"/><path d="m267.503.857637h16.869c7.179 0 12.262 2.001153 15.248 6.003463 2.986 3.9388 4.479 9.3387 4.479 16.1998v32.0185c0 7.2422-1.461 12.8963-4.383 16.9621-2.86 4.0023-7.815 6.0035-14.868 6.0035h-17.345zm17.059 73.089763c3.94 0 6.957-.8259 9.054-2.4776 2.097-1.7153 3.495-3.9706 4.193-6.7658.699-2.7953 1.049-6.1941 1.049-10.1964v-31.0655c0-6.1623-1.049-10.7681-3.145-13.81751-2.033-3.04937-5.814-4.57406-11.341-4.57406h-11.723v68.89687z"/><path d="m313.973 18.868c1.652-1.0164 2.7-2.16 3.145-3.4305.508-1.3341.762-3.3353.762-6.00349h-3.049v-8.576373h6.194v7.242273c0 3.55759-.381 6.28929-1.143 8.19519-.763 1.8423-2.192 3.2717-4.289 4.2882z"/><path d="m350.935 159.044h18.107c6.544 0 11.151 1.747 13.819 5.241 2.732 3.494 4.098 8.386 4.098 14.675 0 5.908-1.398 10.8-4.193 14.675-2.732 3.812-7.275 5.718-13.629 5.718h-13.056v36.878h-5.146zm17.059 36.307c4.765 0 8.228-1.239 10.388-3.717 2.16-2.541 3.24-6.766 3.24-12.674 0-4.129-.445-7.337-1.334-9.624-.89-2.287-2.319-3.907-4.289-4.86-1.906-.953-4.543-1.43-7.91-1.43h-12.008v32.305z"/><path d="m414.63 237.28c-7.052 0-12.008-2.002-14.867-6.004-2.795-4.066-4.193-9.72-4.193-16.962v-33.734c0-7.115 1.429-12.61 4.289-16.485 2.922-3.939 7.846-5.909 14.771-5.909 6.862 0 11.755 1.97 14.677 5.909 2.923 3.938 4.384 9.434 4.384 16.485v33.829c0 7.242-1.429 12.865-4.289 16.867-2.795 4.002-7.719 6.004-14.772 6.004zm0-4.289c5.21 0 8.8-1.493 10.77-4.478 2.033-2.986 3.049-7.338 3.049-13.056v-35.639c0-5.718-1.016-10.038-3.049-12.96-1.97-2.922-5.56-4.383-10.77-4.383-5.209 0-8.831 1.461-10.864 4.383-1.97 2.922-2.954 7.242-2.954 12.96v35.639c0 5.782.984 10.165 2.954 13.151 2.033 2.922 5.655 4.383 10.864 4.383z"/><path d="m446.331 159.044h18.679c6.354 0 10.769 1.683 13.247 5.051 2.478 3.367 3.717 8.036 3.717 14.008 0 5.018-.826 9.148-2.478 12.388-1.588 3.24-4.543 5.209-8.863 5.908l12.389 39.832h-5.146l-12.008-38.879h-14.391v38.879h-5.146zm18.488 34.305c4.639 0 7.815-1.238 9.531-3.716 1.715-2.541 2.573-6.385 2.573-11.53 0-5.21-.89-8.99-2.669-11.34-1.715-2.414-4.892-3.621-9.53-3.621h-13.247v30.207z"/><path d="m503.435 163.237h-15.439v-4.193h35.643v4.193h-15.058v72.994h-5.146z"/><path d="m548.138 237.184c-11.373 0-17.567-6.67-18.584-20.011l4.479-1.43c.763 5.718 2.129 10.006 4.098 12.865 2.033 2.859 5.401 4.288 10.102 4.288 8.196 0 12.294-4.129 12.294-12.388 0-3.176-.794-6.067-2.382-8.672-1.588-2.604-4.13-5.654-7.624-9.148l-14.105-14.008c-4.511-4.51-6.767-9.402-6.767-14.675 0-5.019 1.525-8.894 4.575-11.626 3.113-2.795 7.243-4.193 12.389-4.193 5.528 0 9.785 1.493 12.771 4.479 2.986 2.922 4.701 7.878 5.146 14.866l-4.384 1.048c-.444-5.654-1.683-9.752-3.717-12.293-1.969-2.604-5.209-3.907-9.72-3.907-3.686 0-6.672.953-8.959 2.859-2.224 1.842-3.336 4.638-3.336 8.386 0 2.033.413 4.002 1.239 5.908.89 1.842 2.351 3.78 4.384 5.813l13.915 13.722c3.558 3.494 6.353 6.956 8.386 10.387s3.05 7.02 3.05 10.768c0 5.591-1.557 9.815-4.67 12.674s-7.306 4.288-12.58 4.288z"/><path d="m593.846 159.044h16.868c7.18 0 12.263 2.001 15.249 6.003 2.986 3.939 4.479 9.339 4.479 16.2v32.019c0 7.242-1.461 12.896-4.384 16.962-2.859 4.002-7.815 6.003-14.867 6.003h-17.345zm17.059 73.09c3.939 0 6.957-.826 9.054-2.478 2.096-1.715 3.494-3.97 4.193-6.766.699-2.795 1.048-6.194 1.048-10.196v-31.066c0-6.162-1.048-10.768-3.145-13.817-2.033-3.049-5.813-4.574-11.341-4.574h-11.722v68.897z"/><path d="m640.315 177.054c1.652-1.016 2.701-2.16 3.145-3.43.509-1.334.763-3.335.763-6.004h-3.05v-8.576h6.195v7.242c0 3.558-.381 6.29-1.144 8.195-.762 1.843-2.192 3.272-4.288 4.289z"/></g></svg>