<svg clip-rule="evenodd" fill-rule="evenodd" stroke-linejoin="round" stroke-miterlimit="2" viewBox="0 0 1300 729" xmlns="http://www.w3.org/2000/svg"><g fill="#595453" fill-rule="nonzero"><path d="M591.892 94.006c.192-1.488 1.313-2.792 3.358-2.792h2.975c1.488 0 2.588.75 3.15 1.867l40.905 87.746h.566l40.896-87.746c.554-1.117 1.48-1.867 3.159-1.867h2.975c2.05 0 3.15 1.304 3.35 2.792l21.937 124.933c.558 2.605-.933 4.275-3.354 4.275h-16.904c-1.68 0-3.171-1.487-3.538-2.783l-10.975-70.454h-.554l-32.53 73.058c-.382 1.113-1.49 2.042-3.166 2.042h-3.35c-1.679 0-2.604-.93-3.154-2.042l-32.92-73.058h-.543L593.38 220.43c-.175 1.296-1.663 2.783-3.338 2.783H573.31c-2.417 0-3.904-1.67-3.534-4.275zM767.113 146.996c20.817 0 37.55 17.85 37.55 38.859 0 21.37-16.733 39.216-37.55 39.216-20.83 0-37.55-17.845-37.55-39.216 0-21.009 16.72-38.859 37.55-38.859m0 62.096c11.708 0 21.013-10.416 21.013-23.237 0-12.463-9.305-22.688-21.013-22.688s-21.017 10.225-21.017 22.688c0 12.82 9.309 23.237 21.017 23.237M822.546 152.386c0-1.858 1.68-3.53 3.542-3.53h5.388c1.487 0 2.604.926 2.966 2.226l2.225 6.325c1.313-1.492 11.159-10.409 26.042-10.409 22.68 0 31.038 15.988 31.038 35.317v37.367c0 1.87-1.667 3.537-3.534 3.537h-10.591c-2.038 0-3.525-1.666-3.525-3.537v-38.113c0-11.896-5.763-18.404-15.438-18.404-11.704 0-19.7 8.558-20.637 11.154v45.363c0 2.412-1.113 3.537-4.28 3.537h-9.654c-1.862 0-3.542-1.666-3.542-3.537zM920.58 164.286h-7.804c-2.05 0-3.542-1.68-3.542-3.53v-8.366c0-2.05 1.492-3.542 3.542-3.542h7.804v-20.633c0-1.862 1.675-3.53 3.53-3.53l10.607-.19c1.85 0 3.338 1.678 3.338 3.537v20.816h18.967c2.045 0 3.537 1.492 3.537 3.542v8.367c0 1.85-1.492 3.529-3.537 3.529h-18.967v36.804c0 6.325 2.412 7.442 5.954 7.442 3.904 0 9.113-2.234 11.333-3.35 2.421-1.113 3.538 0 4.275 1.679l3.355 8.18c.925 2.05.175 3.528-1.68 4.462-1.85 1.108-12.82 5.57-21.75 5.57-14.683 0-18.962-8.924-18.962-22.112zM979.36 152.386c0-1.858 1.674-3.53 3.537-3.53h5.391c1.288 0 2.78 1.117 3.154 2.605l2.038 6.317c1.312-1.863 8.192-10.78 21.767-10.78 7.054 0 15.608 1.859 13.558 6.875l-4.454 9.113c-.938 2.042-2.788 2.412-4.463 1.667-1.12-.559-3.904-1.296-6.32-1.296-10.78 0-15.996 7.804-16.734 9.108v47.217c0 3.167-2.042 3.537-5.017 3.537h-8.92c-1.863 0-3.538-1.666-3.538-3.537zM1072.338 146.996c19.338 0 34.213 14.5 34.213 34.392 0 1.304-.183 3.72-.375 5.017-.192 1.862-1.675 3.166-3.342 3.166h-50.566c.558 10.03 9.291 19.892 21.375 19.892 6.691 0 12.833-2.975 16.545-5.396 2.238-1.3 3.53-2.037 5.017-.183l5.217 7.07c1.3 1.488 1.854 2.972-.38 4.826-5.391 4.65-15.054 9.291-27.512 9.291-22.504 0-37.38-17.658-37.38-39.037 0-21.004 14.876-39.038 37.188-39.038m16.925 30.863c-.562-8.93-7.995-16.55-17.1-16.55-10.041 0-17.845 7.25-18.97 16.55zM1148.05 176.183c7.805 0 14.68 2.234 14.68 2.234.192-11.717-2.05-16.363-11.53-16.363-8.54 0-16.9 2.234-20.816 3.342-2.225.558-3.525-.93-4.087-2.97l-1.488-6.88c-.554-2.42.738-3.717 2.425-4.28 1.288-.553 11.892-4.266 25.642-4.266 23.804 0 26.042 14.492 26.042 33.088v39.596c0 1.862-1.675 3.533-3.534 3.533h-5.216c-1.667 0-2.413-.746-3.15-2.604l-1.867-5.021c-4.08 3.904-11.338 9.483-22.87 9.483-13.934 0-23.98-9.483-23.98-24.908 0-13.567 10.783-23.984 29.75-23.984m-2.242 35.696c7.442 0 14.509-5.579 16.746-9.3v-11.896c-1.12-.745-6.33-2.975-13.02-2.975-8.917 0-15.06 4.646-15.06 12.275 0 6.688 4.463 11.896 11.334 11.896M1201.626 96.612c0-1.858 1.675-3.529 3.53-3.529h10.607c1.85 0 3.534 1.67 3.534 3.53v123.074c0 1.859-1.684 3.53-3.534 3.53h-10.608c-1.854 0-3.529-1.671-3.529-3.53zM586.305 311.534c0-1.863 1.662-3.53 3.537-3.53h17.288c2.041 0 3.529 1.667 3.529 3.53v49.262h60.6v-49.262c0-1.863 1.487-3.53 3.529-3.53h17.113c1.862 0 3.537 1.667 3.537 3.53v123.075c0 1.858-1.675 3.529-3.537 3.529h-17.113c-2.042 0-3.53-1.671-3.53-3.53v-51.316h-60.6v51.317c0 1.858-1.487 3.529-3.528 3.529h-17.288c-1.875 0-3.537-1.671-3.537-3.53zM755.734 361.917c20.817 0 37.554 17.85 37.554 38.858 0 21.371-16.737 39.221-37.554 39.221-20.825 0-37.55-17.85-37.55-39.22 0-21.009 16.725-38.859 37.55-38.859m0 62.096c11.708 0 21.017-10.417 21.017-23.238 0-12.462-9.309-22.687-21.017-22.687-11.704 0-21.013 10.225-21.013 22.687 0 12.821 9.309 23.238 21.013 23.238M811.176 311.534c0-1.863 1.675-3.53 3.537-3.53h10.6c1.85 0 3.53 1.667 3.53 3.53v123.075c0 1.858-1.68 3.529-3.53 3.529h-10.6c-1.862 0-3.537-1.671-3.537-3.53zM884.259 361.917c20.825 0 37.567 17.85 37.567 38.858 0 21.371-16.742 39.221-37.567 39.221s-37.55-17.85-37.55-39.22c0-21.009 16.725-38.859 37.55-38.859m0 62.096c11.72 0 21.017-10.417 21.017-23.238 0-12.462-9.296-22.687-21.017-22.687-11.708 0-21 10.225-21 22.687 0 12.821 9.292 23.238 21 23.238M973.172 361.917c11.341 0 20.087 4.646 26.958 13.196 1.296 1.679.933 3.904-.746 5.208l-6.125 5.58c-2.242 2.037-3.537.545-5.025-.742-3.354-3.721-8.746-7.071-14.875-7.071-12.083 0-21.567 10.225-21.567 22.87 0 12.83 9.292 23.055 21.38 23.055 9.479 0 13.383-4.842 17.283-8.546 1.683-1.68 3.35-1.68 5.025-.383l5.025 4.087c1.85 1.488 2.604 3.354 1.296 5.213-5.954 9.475-15.984 15.612-28.821 15.612-20.825 0-38.846-16.546-38.846-38.858 0-21.934 18.408-39.221 39.038-39.221M1044.038 391.105c7.821 0 14.7 2.233 14.7 2.233.171-11.716-2.05-16.362-11.533-16.362-8.558 0-16.925 2.233-20.825 3.341-2.22.559-3.53-.929-4.092-2.97l-1.487-6.88c-.554-2.42.754-3.716 2.412-4.279 1.313-.554 11.904-4.266 25.671-4.266 23.8 0 26.025 14.491 26.025 33.087v39.596c0 1.862-1.67 3.533-3.537 3.533h-5.2c-1.68 0-2.417-.746-3.167-2.604l-1.854-5.02c-4.092 3.903-11.342 9.483-22.867 9.483-13.95 0-23.992-9.484-23.992-24.909 0-13.566 10.796-23.983 29.746-23.983m-2.22 35.696c7.437 0 14.504-5.58 16.729-9.3v-11.896c-1.104-.742-6.321-2.975-13.004-2.975-8.926 0-15.071 4.646-15.071 12.275 0 6.687 4.462 11.896 11.346 11.896M1096.505 367.309c0-1.859 1.68-3.53 3.533-3.53h10.592c1.867 0 3.533 1.671 3.533 3.53v38.112c0 12.08 5.771 18.592 15.242 18.592 10.967 0 17.846-8.93 18.408-12.275v-44.43c0-2.974 1.488-3.529 4.092-3.529h9.67c1.863 0 3.526 1.671 3.526 3.53v67.296c0 1.866-1.663 3.537-3.525 3.537h-5.208c-1.859 0-2.784-1.304-3.346-2.975l-1.854-5.392c-1.675 1.488-9.48 10.221-24.542 10.221-22.317 0-30.121-15.8-30.121-35.137zM1184.126 428.475l3.904-7.25c.733-1.492 2.78-2.05 4.638-.934 0 0 8.183 4.834 17.3 4.834 5.566 0 9.104-2.221 9.104-6.317 0-5.025-4.096-7.438-14.321-12.088-11.52-5.016-21.188-12.079-21.188-24.354 0-9.3 7.613-20.446 25.467-20.446 10.408 0 18.225 3.342 21.938 5.754 1.679 1.125 2.604 3.538 1.491 5.392l-3.341 6.325c-.938 1.671-3.35 2.233-4.838 1.488 0 0-8.183-3.9-15.25-3.9-6.32 0-8.37 2.783-8.37 5.57 0 4.838 4.653 6.88 11.903 10.046 13.575 5.95 24.721 11.704 24.721 25.65 0 11.534-10.97 21.755-27.508 21.755-12.458 0-20.633-4.467-24.542-7.621-1.108-.746-1.862-2.417-1.108-3.904M1259.268 379.207h-7.804c-2.05 0-3.534-1.68-3.534-3.53v-8.366c0-2.05 1.483-3.537 3.534-3.537h7.804v-20.638c0-1.858 1.675-3.53 3.537-3.53l10.584-.19c1.866 0 3.354 1.678 3.354 3.54v20.818h18.958c2.042 0 3.533 1.487 3.533 3.537v8.367c0 1.85-1.491 3.529-3.533 3.529h-18.958v36.804c0 6.33 2.412 7.442 5.954 7.442 3.904 0 9.104-2.233 11.337-3.35 2.421-1.113 3.534 0 4.271 1.679l3.342 8.18c.937 2.05.196 3.528-1.667 4.462-1.866 1.108-12.82 5.57-21.746 5.57-14.695 0-18.966-8.924-18.966-22.112zM608.492 506.405c.175-1.488 1.3-2.792 3.342-2.792h2.975c1.487 0 2.604.75 3.15 1.867l40.912 87.745h.559l40.896-87.745c.554-1.117 1.487-1.867 3.166-1.867h2.967c2.05 0 3.167 1.304 3.35 2.792l21.942 124.933c.562 2.604-.93 4.275-3.342 4.275h-16.92c-1.68 0-3.172-1.487-3.538-2.783l-10.975-70.455h-.55l-32.534 73.059c-.379 1.112-1.491 2.042-3.166 2.042h-3.342c-1.675 0-2.613-.93-3.163-2.042l-32.904-73.059h-.558l-10.792 70.455c-.175 1.296-1.662 2.783-3.342 2.783h-16.733c-2.412 0-3.904-1.67-3.533-4.275zM750.605 564.784c0-1.859 1.679-3.53 3.541-3.53h10.584c1.875 0 3.533 1.671 3.533 3.53v38.112c0 12.08 5.771 18.592 15.242 18.592 10.966 0 17.846-8.93 18.404-12.275v-44.43c0-2.974 1.492-3.528 4.096-3.528h9.67c1.859 0 3.526 1.67 3.526 3.529v67.296c0 1.87-1.667 3.537-3.525 3.537h-5.209c-1.858 0-2.783-1.304-3.35-2.975l-1.85-5.391c-1.675 1.491-9.479 10.22-24.541 10.22-22.317 0-30.121-15.8-30.121-35.137zM838.222 625.95l3.904-7.25c.729-1.487 2.779-2.05 4.633-.933 0 0 8.196 4.833 17.304 4.833 5.563 0 9.104-2.22 9.104-6.316 0-5.025-4.095-7.438-14.312-12.084-11.53-5.02-21.2-12.079-21.2-24.358 0-9.3 7.617-20.446 25.467-20.446 10.408 0 18.229 3.342 21.941 5.759 1.68 1.12 2.604 3.537 1.488 5.387l-3.342 6.325c-.925 1.671-3.346 2.233-4.833 1.488 0 0-8.188-3.9-15.254-3.9-6.317 0-8.367 2.783-8.367 5.57 0 4.838 4.654 6.88 11.904 10.046 13.575 5.95 24.72 11.704 24.72 25.65 0 11.534-10.97 21.755-27.507 21.755-12.459 0-20.634-4.467-24.542-7.621-1.108-.746-1.863-2.417-1.108-3.904M940.313 559.396c19.321 0 34.192 14.5 34.192 34.392 0 1.304-.17 3.72-.37 5.017-.176 1.862-1.66 3.166-3.343 3.166h-50.566c.558 10.03 9.291 19.892 21.387 19.892 6.68 0 12.821-2.975 16.55-5.396 2.221-1.3 3.521-2.037 5-.183l5.217 7.07c1.3 1.488 1.854 2.972-.367 4.826-5.4 4.646-15.066 9.291-27.525 9.291-22.496 0-37.37-17.658-37.37-39.037 0-21.004 14.874-39.038 37.195-39.038m16.909 30.863c-.563-8.93-7.988-16.55-17.1-16.55-10.042 0-17.846 7.25-18.967 16.55zM990.542 564.784c0-1.859 1.675-3.53 3.538-3.53h10.583c1.867 0 3.538 1.671 3.538 3.53v38.112c0 12.08 5.77 18.592 15.237 18.592 10.967 0 17.85-8.93 18.409-12.275v-44.43c0-2.974 1.491-3.528 4.096-3.528h9.67c1.859 0 3.521 1.67 3.521 3.529v67.296c0 1.87-1.662 3.537-3.52 3.537h-5.209c-1.858 0-2.787-1.304-3.35-2.975l-1.85-5.391c-1.68 1.491-9.483 10.22-24.542 10.22-22.316 0-30.12-15.8-30.12-35.137zM1082.618 564.784c0-1.859 1.658-3.53 3.529-3.53h5.2c1.679 0 2.604.926 3.162 2.226l2.038 6.325c1.679-1.68 10.237-10.409 24.546-10.409 10.779 0 18.6 4.271 23.991 11.896 2.034-2.046 12.821-11.896 26.95-11.896 22.675 0 30.671 15.988 30.671 35.317v37.367c0 1.87-1.483 3.537-3.517 3.537h-10.425c-2.037 0-3.525-1.666-3.525-3.537v-38.113c0-11.712-5.4-18.404-15.425-18.404-11.345 0-17.85 7.996-19.166 9.112.391 1.68.562 5.2.562 8.93v38.475c0 1.87-1.662 3.537-3.537 3.537h-9.846c-2.05 0-3.542-1.666-3.542-3.537v-38.113c0-11.896-5.387-18.404-15.796-18.404-11.141 0-17.462 8.742-18.404 11.154v45.363c0 1.87-1.67 3.537-3.537 3.537h-10.4c-1.871 0-3.53-1.666-3.53-3.537zM134.703 616.205C78.916 565.413 58.091 481.042 93.02 398.7c39.8-93.837 117.567-187.679 160.13-233.85 0 0 .908-1.567 1.179-1.283.258-.284 1.179 1.283 1.179 1.283 42.554 46.171 120.32 140.013 160.125 233.85 34.933 82.342 14.1 166.713-41.692 217.505 109.504-57.521 159.284-186.542 102.634-311.942C421.737 182.858 314.579 61.442 255.949 1.7c0 0-1.258-2.025-1.62-1.646-.371-.379-1.634 1.646-1.634 1.646C194.07 61.442 86.912 182.858 32.075 304.263c-56.65 125.4-6.872 254.42 102.628 311.942"/><path d="M240.306 435.213c-1.466-2.2-2.958-5.042-5.02-6.563-2.271-1.679-15.705-.729-17.509-1.479-1.683-.696-1.929-5.175-5.183-5.92-3.292-.73-5.246.412-4.988 1.704.384 2.262.613 20.808 2.046 21.537 1.446.75 12.221-1.325 14.38-.208 2.187 1.1 6.545 4.67 6.895 7.604.35 2.925 0 39.704 0 39.704s-1.029 12.57.421 13.317c1.454.733 3.954-3.025 5.442-3.367 1.412-.362 4.662-.712 5.383-2.546.738-1.854-.737-4.679-1.462-7.608-.705-2.93 1.054-53.975-.405-56.175"/><path d="M240.306 435.213c-1.466-2.2-2.958-5.042-5.02-6.563-2.271-1.679-15.705-.729-17.509-1.479-1.683-.696-1.929-5.175-5.183-5.92-3.292-.73-5.246.412-4.988 1.704.384 2.262.613 20.808 2.046 21.537 1.446.75 12.221-1.325 14.38-.208 2.187 1.1 6.545 4.67 6.895 7.604.35 2.925 0 39.704 0 39.704s-1.029 12.57.421 13.317c1.454.733 3.954-3.025 5.442-3.367 1.412-.362 4.662-.712 5.383-2.546.738-1.854-.737-4.679-1.462-7.608-.705-2.93 1.054-53.975-.405-56.175M195.504 448.292c1.092-1.092 1.971-3.592.6-6.754-1.433-3.388-8.358-11.8-10.829-13.304-5.217-3.184-29.475-.688-32.737-1.059-3.259-.366-3.8-2.795-4.155-4.641-.37-1.834-6.687-1.7-8.358-.221-1.662 1.475 1.554 19.054 1.892 20.496.596 2.579 27.42-1.03 31.05-.288 3.612.721 9.429 6.159 11.946 10.988 2.866 5.57 2.191 32.458 1.82 35.754-.345 3.3 1.188 7.033-.65 8.88-1.795 1.837-2.212 6.095-.379 7.178 1.796 1.117 8.321-1.9 11.438-4.629.379-3.292-.404-5.075-1.875-9.096-1.45-4.029-.863-42.196.237-43.304"/><path d="M195.504 448.292c1.092-1.092 1.971-3.592.6-6.754-1.433-3.388-8.358-11.8-10.829-13.304-5.217-3.184-29.475-.688-32.737-1.059-3.259-.366-3.8-2.795-4.155-4.641-.37-1.834-6.687-1.7-8.358-.221-1.662 1.475 1.554 19.054 1.892 20.496.596 2.579 27.42-1.03 31.05-.288 3.612.721 9.429 6.159 11.946 10.988 2.866 5.57 2.191 32.458 1.82 35.754-.345 3.3 1.188 7.033-.65 8.88-1.795 1.837-2.212 6.095-.379 7.178 1.796 1.117 8.321-1.9 11.438-4.629.379-3.292-.404-5.075-1.875-9.096-1.45-4.029-.863-42.196.237-43.304M358.735 427.384c-2.888.396-11.48.212-11.48.212-3.283-.32-1.383-4.4-3.545-5.483-2.175-1.1-7.55-1.25-7.921.196-.375 1.475.638 2.612 1.367 5.55.712 2.937-1.367 14.312.096 15.362 1.195.871 7.858-.616 8.954.863 1.1 1.458.733 26.266.362 30.675-.379 4.408-3.3 29.712-1.829 29.712 3.15 0 3.992-3.341 5.77-3.712 1.83-.367 8.247.27 7.18-1.567-1.092-1.82-2.337-29.58-2.287-32.517.025-3.254-.213-22.287 1.241-23.033 1.442-.712 7.925.213 10.404 1.9 2.5 1.68 2.634-11.754.838-13.946-1.796-2.196-6.288-4.575-9.15-4.212"/><path d="M358.735 427.384c-2.888.396-11.48.212-11.48.212-3.283-.32-1.383-4.4-3.545-5.483-2.175-1.1-7.55-1.25-7.921.196-.375 1.475.638 2.612 1.367 5.55.712 2.937-1.367 14.312.096 15.362 1.195.871 7.858-.616 8.954.863 1.1 1.458.733 26.266.362 30.675-.379 4.408-3.3 29.712-1.829 29.712 3.15 0 3.992-3.341 5.77-3.712 1.83-.367 8.247.27 7.18-1.567-1.092-1.82-2.337-29.58-2.287-32.517.025-3.254-.213-22.287 1.241-23.033 1.442-.712 7.925.213 10.404 1.9 2.5 1.68 2.634-11.754.838-13.946-1.796-2.196-6.288-4.575-9.15-4.212M305.762 428.021c-3.396-1.45-27.941.838-35.033-.204-2.142-.325.033-6.208-3.963-6.562-3.929-.355-8.345 1.645-7.291 3.183 2.296 3.379 1.762 19.27 3.562 19.65 1.796.358 25.613-1.98 30.021-.671 8.321 2.542 12.913 10.163 15.017 15.22.82 2.068 4.983 24.493 2.7 27.476-2.604 3.346-47.534 1.904-47.534 1.904s-3.966-1.404-3.966 1.238c0 4.858-5.413 11.641-3.83 13.35 1.417 1.562 4.813-.25 9.863-.25 5.067 0 41.608 1.479 45.092-.5 3.929-2.221 9.858-12.505 10.583-16.18.713-3.658-1.875-35.491-3.954-43.083-1.046-3.812-7.308-12.87-11.267-14.57"/><path d="M305.762 428.021c-3.396-1.45-27.941.838-35.033-.204-2.142-.325.033-6.208-3.963-6.562-3.929-.355-8.345 1.645-7.291 3.183 2.296 3.379 1.762 19.27 3.562 19.65 1.796.358 25.613-1.98 30.021-.671 8.321 2.542 12.913 10.163 15.017 15.22.82 2.068 4.983 24.493 2.7 27.476-2.604 3.346-47.534 1.904-47.534 1.904s-3.966-1.404-3.966 1.238c0 4.858-5.413 11.641-3.83 13.35 1.417 1.562 4.813-.25 9.863-.25 5.067 0 41.608 1.479 45.092-.5 3.929-2.221 9.858-12.505 10.583-16.18.713-3.658-1.875-35.491-3.954-43.083-1.046-3.812-7.308-12.87-11.267-14.57M254.328 682.446c-88.196-.92-196.588-16.066-246.483-35.333 12.725 9.267 76.895 75.258 245.77 81.504v.063c.246-.009.467-.025.713-.034.238.009.467.025.704.034v-.063c168.871-6.246 233.042-72.237 245.771-81.504-49.9 19.267-158.283 34.413-246.475 35.333"/></g></svg>