<svg clip-rule="evenodd" fill-rule="evenodd" stroke-miterlimit="10" viewBox="0 0 1407 729" xmlns="http://www.w3.org/2000/svg"><g fill="#595453" fill-rule="nonzero"><path d="m0 147.967c-13.389-12.19-18.387-32.439-10.004-52.201 9.552-22.521 28.216-45.043 38.43-56.124 0 0 .219-.376.283-.308.063-.068.284.308.284.308 10.212 11.081 28.877 33.603 38.43 56.124 8.383 19.762 3.383 40.011-10.006 52.201 26.28-13.805 38.228-44.77 24.631-74.866-13.16-29.137-38.878-58.277-52.949-72.615 0 0-.302-.486-.39-.395-.089-.091-.391.395-.391.395-14.07 14.338-39.788 43.478-52.949 72.615-13.596 30.096-1.649 61.061 24.631 74.866" transform="matrix(4.16667 0 0 4.16667 126.860101488 -.32500026)"/><path d="m0-13.377c-.351-.528-.71-1.21-1.204-1.575-.546-.403-3.769-.175-4.202-.355-.405-.167-.464-1.242-1.244-1.421-.791-.175-1.26.099-1.197.409.091.543.146 4.994.49 5.169.347.18 2.933-.318 3.452-.05.524.264 1.571 1.121 1.654 1.825.084.702 0 9.529 0 9.529s-.247 3.017.101 3.196c.349.176.95-.726 1.307-.808.338-.087 1.119-.171 1.292-.611.176-.445-.177-1.123-.352-1.826-.169-.703.253-12.954-.097-13.482" transform="matrix(4.16667 0 0 4.16667 232.461435969 490.95039276)"/><path d="m0-13.377c-.351-.528-.71-1.21-1.204-1.575-.546-.403-3.769-.175-4.202-.355-.405-.167-.464-1.242-1.244-1.421-.791-.175-1.26.099-1.197.409.091.543.146 4.994.49 5.169.347.18 2.933-.318 3.452-.05.524.264 1.571 1.121 1.654 1.825.084.702 0 9.529 0 9.529s-.247 3.017.101 3.196c.349.176.95-.726 1.307-.808.338-.087 1.119-.171 1.292-.611.176-.445-.177-1.123-.352-1.826-.169-.703.253-12.954-.097-13.482" transform="matrix(4.16667 0 0 4.16667 232.461435969 490.95039276)"/><path d="m0-7.333c.262-.262.473-.862.145-1.621-.344-.813-2.006-2.832-2.599-3.193-1.252-.764-7.075-.165-7.857-.254-.783-.088-.912-.671-.998-1.114-.089-.44-1.605-.408-2.005-.053-.399.354.372 4.573.453 4.919.143.619 6.581-.247 7.453-.069.866.173 2.262 1.478 2.866 2.637.688 1.337.526 7.79.438 8.581-.084.792.284 1.688-.156 2.131-.432.441-.532 1.463-.092 1.723.432.268 1.997-.456 2.746-1.111.09-.79-.098-1.218-.451-2.183-.347-.967-.207-10.127.057-10.393" transform="matrix(4.16667 0 0 4.16667 187.659316794 478.84621641)"/><path d="m0-7.333c.262-.262.473-.862.145-1.621-.344-.813-2.006-2.832-2.599-3.193-1.252-.764-7.075-.165-7.857-.254-.783-.088-.912-.671-.998-1.114-.089-.44-1.605-.408-2.005-.053-.399.354.372 4.573.453 4.919.143.619 6.581-.247 7.453-.069.866.173 2.262 1.478 2.866 2.637.688 1.337.526 7.79.438 8.581-.084.792.284 1.688-.156 2.131-.432.441-.532 1.463-.092 1.723.432.268 1.997-.456 2.746-1.111.09-.79-.098-1.218-.451-2.183-.347-.967-.207-10.127.057-10.393" transform="matrix(4.16667 0 0 4.16667 187.659316794 478.84621641)"/><path d="m0-16.936c-.693.095-2.754.051-2.754.051-.789-.077-.333-1.056-.851-1.316-.523-.264-1.813-.3-1.902.047-.089.354.154.627.329 1.332.171.705-.329 3.435.022 3.687.287.209 1.887-.148 2.149.207.264.35.176 6.304.087 7.362-.091 1.058-.792 7.131-.438 7.131.755 0 .957-.802 1.384-.891.439-.088 1.98.065 1.724-.376-.263-.437-.561-7.099-.55-7.804.006-.781-.051-5.349.299-5.528.345-.171 1.901.051 2.496.456.6.403.632-2.821.201-3.347-.431-.527-1.508-1.098-2.196-1.011" transform="matrix(4.16667 0 0 4.16667 350.889864045 497.95039836)"/><path d="m0-16.936c-.693.095-2.754.051-2.754.051-.789-.077-.333-1.056-.851-1.316-.523-.264-1.813-.3-1.902.047-.089.354.154.627.329 1.332.171.705-.329 3.435.022 3.687.287.209 1.887-.148 2.149.207.264.35.176 6.304.087 7.362-.091 1.058-.792 7.131-.438 7.131.755 0 .957-.802 1.384-.891.439-.088 1.98.065 1.724-.376-.263-.437-.561-7.099-.55-7.804.006-.781-.051-5.349.299-5.528.345-.171 1.901.051 2.496.456.6.403.632-2.821.201-3.347-.431-.527-1.508-1.098-2.196-1.011" transform="matrix(4.16667 0 0 4.16667 350.889864045 497.95039836)"/><path d="m0-16.566c-.815-.348-6.706.201-8.408-.049-.515-.078.008-1.49-.952-1.575-.942-.085-2.002.395-1.749.764.55.811.423 4.625.855 4.716.431.086 6.147-.475 7.205-.161 1.997.61 3.098 2.439 3.604 3.653.197.496 1.196 5.878.648 6.594-.625.803-11.408.457-11.408.457s-.952-.337-.952.297c0 1.166-1.299 2.794-.919 3.204.34.375 1.155-.06 2.367-.06 1.215 0 9.986.355 10.822-.12.943-.533 2.366-3.001 2.54-3.883.171-.878-.45-8.518-.95-10.34-.25-.915-1.753-3.089-2.703-3.497" transform="matrix(4.16667 0 0 4.16667 297.919405002 497.04623097)"/><path d="m0-16.566c-.815-.348-6.706.201-8.408-.049-.515-.078.008-1.49-.952-1.575-.942-.085-2.002.395-1.749.764.55.811.423 4.625.855 4.716.431.086 6.147-.475 7.205-.161 1.997.61 3.098 2.439 3.604 3.653.197.496 1.196 5.878.648 6.594-.625.803-11.408.457-11.408.457s-.952-.337-.952.297c0 1.166-1.299 2.794-.919 3.204.34.375 1.155-.06 2.367-.06 1.215 0 9.986.355 10.822-.12.943-.533 2.366-3.001 2.54-3.883.171-.878-.45-8.518-.95-10.34-.25-.915-1.753-3.089-2.703-3.497" transform="matrix(4.16667 0 0 4.16667 297.919405002 497.04623097)"/><path d="m0-2.616c-21.166-.221-47.18-3.856-59.156-8.48 3.055 2.224 18.456 18.062 58.985 19.561v.015c.059-.002.112-.006.171-.008.057.002.112.006.169.008v-.015c40.53-1.499 55.93-17.337 58.985-19.561-11.976 4.624-37.988 8.259-59.154 8.48" transform="matrix(4.16667 0 0 4.16667 246.483113853 693.34638801)"/><path d="m0-30.789c.045-.357.313-.669.805-.669h.715c.357 0 .621.177.756.447l9.817 21.059h.135l9.814-21.059c.135-.27.357-.447.76-.447h.714c.492 0 .756.312.803.669l5.264 29.984c.135.625-.222 1.026-.805 1.026h-4.056c-.403 0-.76-.357-.849-.669l-2.633-16.91h-.135l-7.806 17.535c-.092.268-.357.492-.759.492h-.804c-.403 0-.625-.224-.76-.492l-7.899-17.535h-.129l-2.591 16.91c-.044.312-.399.669-.804.669h-4.013c-.58 0-.937-.401-.85-1.026z" stroke="#595453" stroke-width=".59" transform="matrix(4.16667 0 0 4.16667 599.87964657 216.061839516)"/><path d="m0-16.596c0-.447.399-.85.847-.85h2.542c.447 0 .847.403.847.85v9.146c0 2.899 1.383 4.463 3.66 4.463 2.632 0 4.283-2.143 4.417-2.944v-10.665c0-.714.358-.85.983-.85h2.317c.45 0 .85.403.85.85v16.151c0 .446-.4.849-.85.849h-1.248c-.444 0-.667-.313-.802-.714l-.448-1.294c-.398.357-2.271 2.454-5.888 2.454-5.354 0-7.227-3.793-7.227-8.434z" stroke="#595453" stroke-width=".59" transform="matrix(4.16667 0 0 4.16667 745.5422631 215.306422245)"/><path d="m0 13.206.937-1.74c.18-.357.668-.49 1.117-.224 0 0 1.963 1.163 4.149 1.163 1.339 0 2.185-.538 2.185-1.518 0-1.206-.981-1.786-3.435-2.901-2.765-1.204-5.088-2.901-5.088-5.845 0-2.23 1.831-4.909 6.115-4.909 2.499 0 4.372.804 5.262 1.383.404.27.625.849.358 1.296l-.802 1.515c-.224.401-.804.536-1.16.358 0 0-1.965-.937-3.658-.937-1.519 0-2.007.669-2.007 1.338 0 1.16 1.113 1.652 2.855 2.41 3.256 1.428 5.935 2.812 5.935 6.157 0 2.767-2.634 5.222-6.606 5.222-2.99 0-4.952-1.071-5.888-1.831-.269-.179-.45-.58-.269-.937z" stroke="#595453" stroke-width=".59" transform="matrix(4.16667 0 0 4.16667 836.67566934 152.292621834)"/><path d="m0-6.16c4.641 0 8.211 3.482 8.211 8.256 0 .311-.044.892-.09 1.204-.046.447-.402.758-.802.758h-12.136c.134 2.409 2.23 4.774 5.13 4.774 1.606 0 3.08-.714 3.971-1.294.537-.311.847-.491 1.204-.043l1.252 1.694c.31.357.445.714-.092 1.161-1.293 1.115-3.612 2.232-6.602 2.232-5.4 0-8.971-4.24-8.971-9.371 0-5.042 3.571-9.371 8.925-9.371m-4.238-6.113-.625-1.294c-.177-.355 0-.713.267-.847l7.007-4.06c.268-.18.937-.268 1.158.133l1.029 1.962c.223.449.089.893-.269 1.072l-7.496 3.212c-.625.314-.893.179-1.071-.178m8.3 13.52c-.135-2.141-1.919-3.97-4.104-3.97-2.41 0-4.283 1.741-4.554 3.97z" transform="matrix(4.16667 0 0 4.16667 942.30492051 166.425549807)"/></g><path d="m0-6.16c4.641 0 8.211 3.482 8.211 8.256 0 .311-.044.892-.09 1.204-.046.447-.402.758-.802.758h-12.136c.134 2.409 2.23 4.774 5.13 4.774 1.606 0 3.08-.714 3.971-1.294.537-.311.847-.491 1.204-.043l1.252 1.694c.31.357.445.714-.092 1.161-1.293 1.115-3.612 2.232-6.602 2.232-5.4 0-8.971-4.24-8.971-9.371 0-5.042 3.571-9.371 8.925-9.371zm-4.238-6.113-.625-1.294c-.177-.355 0-.713.267-.847l7.007-4.06c.268-.18.937-.268 1.158.133l1.029 1.962c.223.449.089.893-.269 1.072l-7.496 3.212c-.625.314-.893.179-1.071-.178zm8.3 13.52c-.135-2.141-1.919-3.97-4.104-3.97-2.41 0-4.283 1.741-4.554 3.97z" fill="none" stroke="#595453" stroke-width=".59" transform="matrix(4.16667 0 0 4.16667 942.30492051 166.425549807)"/><path d="m0-18.742c4.642 0 8.211 3.482 8.211 8.256 0 .311-.046.892-.09 1.204-.045.447-.402.758-.805.758h-12.137c.134 2.409 2.234 4.774 5.133 4.774 1.607 0 3.078-.714 3.972-1.294.534-.311.848-.491 1.204-.043l1.248 1.694c.314.357.446.714-.087 1.161-1.295 1.115-3.617 2.232-6.607 2.232-5.396 0-8.966-4.24-8.966-9.371 0-5.042 3.57-9.371 8.924-9.371m4.06 7.407c-.133-2.141-1.918-3.97-4.105-3.97-2.411 0-4.284 1.741-4.552 3.97z" fill="#595453" fill-rule="nonzero" transform="matrix(4.16667 0 0 4.16667 1028.98832319 218.850591747)"/><path d="m0-18.742c4.642 0 8.211 3.482 8.211 8.256 0 .311-.046.892-.09 1.204-.045.447-.402.758-.805.758h-12.137c.134 2.409 2.234 4.774 5.133 4.774 1.607 0 3.078-.714 3.972-1.294.534-.311.848-.491 1.204-.043l1.248 1.694c.314.357.446.714-.087 1.161-1.295 1.115-3.617 2.232-6.607 2.232-5.396 0-8.966-4.24-8.966-9.371 0-5.042 3.57-9.371 8.924-9.371zm4.06 7.407c-.133-2.141-1.918-3.97-4.105-3.97-2.411 0-4.284 1.741-4.552 3.97z" fill="none" stroke="#595453" stroke-width=".59" transform="matrix(4.16667 0 0 4.16667 1028.98832319 218.850591747)"/><path d="m0-29.536c0-.446.402-.849.847-.849h4.151c.49 0 .847.403.847.849v11.824h14.548v-11.824c0-.446.357-.849.847-.849h4.103c.447 0 .849.403.849.849v29.538c0 .446-.402.847-.849.847h-4.103c-.49 0-.847-.401-.847-.847v-12.316h-14.548v12.316c0 .446-.357.847-.847.847h-4.151c-.445 0-.847-.401-.847-.847z" fill="#595453" fill-rule="nonzero" stroke="#595453" stroke-width=".59" transform="matrix(4.16667 0 0 4.16667 577.70462883 429.43367688)"/><path d="m0-18.742c4.998 0 9.016 4.284 9.016 9.327 0 5.131-4.018 9.415-9.016 9.415s-9.012-4.284-9.012-9.415c0-5.043 4.014-9.327 9.012-9.327m0 14.905c2.813 0 5.043-2.5 5.043-5.578 0-2.99-2.23-5.444-5.043-5.444-2.81 0-5.04 2.454-5.04 5.444 0 3.078 2.23 5.578 5.04 5.578" fill="#595453" fill-rule="nonzero" transform="matrix(4.16667 0 0 4.16667 750.67143387 434.83784787)"/><path d="m0-18.742c4.998 0 9.016 4.284 9.016 9.327 0 5.131-4.018 9.415-9.016 9.415s-9.012-4.284-9.012-9.415c0-5.043 4.014-9.327 9.012-9.327zm0 14.905c2.813 0 5.043-2.5 5.043-5.578 0-2.99-2.23-5.444-5.043-5.444-2.81 0-5.04 2.454-5.04 5.444 0 3.078 2.23 5.578 5.04 5.578z" fill="none" stroke="#595453" stroke-width=".59" transform="matrix(4.16667 0 0 4.16667 750.67143387 434.83784787)"/><path d="m0-29.536c0-.446.403-.849.848-.849h2.542c.448 0 .848.403.848.849v29.538c0 .446-.4.847-.848.847h-2.542c-.445 0-.848-.401-.848-.847z" fill="#595453" fill-rule="nonzero" stroke="#595453" stroke-width=".59" transform="matrix(4.16667 0 0 4.16667 809.65481439 429.43367688)"/><path d="m0-18.742c4.996 0 9.012 4.284 9.012 9.327 0 5.131-4.016 9.415-9.012 9.415-4.997 0-9.013-4.284-9.013-9.415 0-5.043 4.016-9.327 9.013-9.327m0 14.905c2.81 0 5.043-2.5 5.043-5.578 0-2.99-2.233-5.444-5.043-5.444-2.811 0-5.044 2.454-5.044 5.444 0 3.078 2.233 5.578 5.044 5.578" fill="#595453" fill-rule="nonzero" transform="matrix(4.16667 0 0 4.16667 886.27570902 434.83784787)"/><path d="m0-18.742c4.996 0 9.012 4.284 9.012 9.327 0 5.131-4.016 9.415-9.012 9.415-4.997 0-9.013-4.284-9.013-9.415 0-5.043 4.016-9.327 9.013-9.327zm0 14.905c2.81 0 5.043-2.5 5.043-5.578 0-2.99-2.233-5.444-5.043-5.444-2.811 0-5.044 2.454-5.044 5.444 0 3.078 2.233 5.578 5.044 5.578z" fill="none" stroke="#595453" stroke-width=".59" transform="matrix(4.16667 0 0 4.16667 886.27570902 434.83784787)"/><path d="m0-18.742c2.722 0 4.817 1.117 6.47 3.168.311.401.224.939-.178 1.25l-1.475 1.34c-.534.49-.845.133-1.202-.179-.805-.892-2.099-1.696-3.569-1.696-2.901 0-5.177 2.454-5.177 5.488 0 3.077 2.23 5.534 5.131 5.534 2.275 0 3.212-1.161 4.148-2.054.404-.403.804-.403 1.207-.089l1.205.982c.444.357.625.803.311 1.248-1.429 2.276-3.84 3.75-6.917 3.75-4.998 0-9.323-3.972-9.323-9.327 0-5.264 4.417-9.415 9.369-9.415" fill="#595453" fill-rule="nonzero" transform="matrix(4.16667 0 0 4.16667 978.72161631 434.83784787)"/><path d="m0-18.742c2.722 0 4.817 1.117 6.47 3.168.311.401.224.939-.178 1.25l-1.475 1.34c-.534.49-.845.133-1.202-.179-.805-.892-2.099-1.696-3.569-1.696-2.901 0-5.177 2.454-5.177 5.488 0 3.077 2.23 5.534 5.131 5.534 2.275 0 3.212-1.161 4.148-2.054.404-.403.804-.403 1.207-.089l1.205.982c.444.357.625.803.311 1.248-1.429 2.276-3.84 3.75-6.917 3.75-4.998 0-9.323-3.972-9.323-9.327 0-5.264 4.417-9.415 9.369-9.415z" fill="none" stroke="#595453" stroke-width=".59" transform="matrix(4.16667 0 0 4.16667 978.72161631 434.83784787)"/><path d="m0-4.73c1.873 0 3.524.536 3.524.536.045-2.812-.492-3.927-2.768-3.927-2.05 0-4.058.536-4.996.802-.533.134-.845-.223-.981-.715l-.356-1.649c-.133-.581.177-.893.579-1.027.311-.133 2.857-1.026 6.157-1.026 5.712 0 6.248 3.48 6.248 7.943v9.503c0 .447-.403.848-.847.848h-1.252c-.399 0-.579-.179-.756-.623l-.448-1.207c-.979.937-2.723 2.278-5.489 2.278-3.344 0-5.754-2.278-5.754-5.98 0-3.258 2.587-5.756 7.139-5.756m-.537 8.567c1.785 0 3.481-1.339 4.019-2.232v-2.855c-.269-.179-1.519-.714-3.125-.714-2.142 0-3.615 1.117-3.615 2.944 0 1.607 1.07 2.857 2.721 2.857" fill="#595453" fill-rule="nonzero" transform="matrix(4.16667 0 0 4.16667 1053.1258425 405.647407851)"/><path d="m0-4.73c1.873 0 3.524.536 3.524.536.045-2.812-.492-3.927-2.768-3.927-2.05 0-4.058.536-4.996.802-.533.134-.845-.223-.981-.715l-.356-1.649c-.133-.581.177-.893.579-1.027.311-.133 2.857-1.026 6.157-1.026 5.712 0 6.248 3.48 6.248 7.943v9.503c0 .447-.403.848-.847.848h-1.252c-.399 0-.579-.179-.756-.623l-.448-1.207c-.979.937-2.723 2.278-5.489 2.278-3.344 0-5.754-2.278-5.754-5.98 0-3.258 2.587-5.756 7.139-5.756zm-.537 8.567c1.785 0 3.481-1.339 4.019-2.232v-2.855c-.269-.179-1.519-.714-3.125-.714-2.142 0-3.615 1.117-3.615 2.944 0 1.607 1.07 2.857 2.721 2.857z" fill="none" stroke="#595453" stroke-width=".59" transform="matrix(4.16667 0 0 4.16667 1053.1258425 405.647407851)"/><path d="m0-16.598c0-.446.402-.849.847-.849h2.542c.448 0 .849.403.849.849v9.147c0 2.899 1.385 4.462 3.657 4.462 2.632 0 4.284-2.143 4.418-2.944v-10.665c0-.714.358-.849.983-.849h2.321c.446 0 .845.403.845.849v16.151c0 .447-.399.849-.845.849h-1.25c-.446 0-.669-.313-.804-.714l-.444-1.294c-.403.358-2.276 2.455-5.891 2.455-5.355 0-7.228-3.794-7.228-8.435z" fill="#595453" fill-rule="nonzero" stroke="#595453" stroke-width=".59" transform="matrix(4.16667 0 0 4.16667 1109.13005397 431.30034504)"/><path d="m0 13.206.937-1.74c.176-.357.668-.49 1.113-.224 0 0 1.967 1.162 4.149 1.162 1.339 0 2.189-.537 2.189-1.517 0-1.207-.983-1.786-3.435-2.901-2.768-1.205-5.088-2.901-5.088-5.845 0-2.231 1.828-4.909 6.112-4.909 2.498 0 4.375.803 5.265 1.383.404.269.625.849.358 1.295l-.802 1.516c-.224.401-.804.536-1.16.357 0 0-1.965-.936-3.661-.936-1.516 0-2.008.669-2.008 1.337 0 1.161 1.117 1.653 2.857 2.411 3.258 1.428 5.933 2.811 5.933 6.156 0 2.768-2.63 5.223-6.602 5.223-2.99 0-4.954-1.072-5.89-1.831-.267-.179-.447-.58-.267-.937z" fill="#595453" fill-rule="nonzero" stroke="#595453" stroke-width=".59" transform="matrix(4.16667 0 0 4.16667 1200.27596022 368.279877957)"/><path d="m0-5.041h-1.873c-.492 0-.848-.401-.848-.847v-2.008c0-.492.356-.85.848-.85h1.873v-4.952c0-.445.398-.849.849-.849l2.54-.044c.448 0 .805.401.805.849v4.996h4.55c.49 0 .847.358.847.85v2.008c0 .446-.357.847-.847.847h-4.55v8.833c0 1.518.579 1.786 1.429 1.786.937 0 2.185-.536 2.72-.804.582-.267.849 0 1.026.403l.802 1.963c.224.492.047.849-.4 1.071-.444.268-3.077 1.339-5.219 1.339-3.527 0-4.552-2.142-4.552-5.311z" fill="#595453" fill-rule="nonzero" stroke="#595453" stroke-width=".59" transform="matrix(4.16667 0 0 4.16667 1278.93852315 395.043649368)"/><path d="m0-18.742c4.643 0 8.212 3.482 8.212 8.256 0 .311-.045.893-.091 1.204-.042.447-.399.758-.802.758h-12.136c.134 2.409 2.229 4.774 5.132 4.774 1.604 0 3.078-.714 3.968-1.294.538-.311.848-.491 1.205-.043l1.252 1.694c.312.358.445.714-.09 1.161-1.294 1.115-3.615 2.232-6.604 2.232-5.398 0-8.967-4.24-8.967-9.371 0-5.042 3.569-9.371 8.921-9.371m4.062 7.407c-.131-2.141-1.921-3.97-4.104-3.97-2.41 0-4.284 1.741-4.554 3.97z" fill="#595453" fill-rule="nonzero" transform="matrix(4.16667 0 0 4.16667 1373.03443176 434.83784787)"/><path d="m0-18.742c4.643 0 8.212 3.482 8.212 8.256 0 .311-.045.893-.091 1.204-.042.447-.399.758-.802.758h-12.136c.134 2.409 2.229 4.774 5.132 4.774 1.604 0 3.078-.714 3.968-1.294.538-.311.848-.491 1.205-.043l1.252 1.694c.312.358.445.714-.09 1.161-1.294 1.115-3.615 2.232-6.604 2.232-5.398 0-8.967-4.24-8.967-9.371 0-5.042 3.569-9.371 8.921-9.371zm4.062 7.407c-.131-2.141-1.921-3.97-4.104-3.97-2.41 0-4.284 1.741-4.554 3.97z" fill="none" stroke="#595453" stroke-width=".59" transform="matrix(4.16667 0 0 4.16667 1373.03443176 434.83784787)"/><path d="m0-30.79c.042-.357.312-.668.801-.668h.715c.357 0 .625.176.756.446l9.819 21.059h.133l9.816-21.059c.133-.27.357-.446.76-.446h.712c.492 0 .76.311.803.668l5.267 29.984c.134.625-.223 1.026-.802 1.026h-4.062c-.403 0-.76-.357-.849-.668l-2.633-16.911h-.133l-7.808 17.536c-.09.267-.357.491-.759.491h-.802c-.402 0-.627-.224-.76-.491l-7.897-17.536h-.133l-2.591 16.911c-.041.311-.399.668-.802.668h-4.015c-.58 0-.937-.401-.848-1.026z" fill="#595453" fill-rule="nonzero" stroke="#595453" stroke-width=".59" transform="matrix(4.16667 0 0 4.16667 599.89214658 640.91301273)"/><path d="m0-18.742c4.998 0 9.012 4.284 9.012 9.327 0 5.131-4.014 9.415-9.012 9.415s-9.012-4.284-9.012-9.415c0-5.043 4.014-9.327 9.012-9.327m0 14.905c2.813 0 5.043-2.5 5.043-5.578 0-2.99-2.23-5.444-5.043-5.444-2.81 0-5.04 2.454-5.04 5.444 0 3.078 2.23 5.578 5.04 5.578" fill="#595453" fill-rule="nonzero" transform="matrix(4.16667 0 0 4.16667 778.62978957 643.69634829)"/><path d="m0-18.742c4.998 0 9.012 4.284 9.012 9.327 0 5.131-4.014 9.415-9.012 9.415s-9.012-4.284-9.012-9.415c0-5.043 4.014-9.327 9.012-9.327zm0 14.905c2.813 0 5.043-2.5 5.043-5.578 0-2.99-2.23-5.444-5.043-5.444-2.81 0-5.04 2.454-5.04 5.444 0 3.078 2.23 5.578 5.04 5.578z" fill="none" stroke="#595453" stroke-width=".59" transform="matrix(4.16667 0 0 4.16667 778.62978957 643.69634829)"/><path d="m0-15.705c0-.446.398-.849.845-.849h1.296c.357 0 .623.224.713.536l.535 1.516c.311-.356 2.678-2.498 6.248-2.498 5.442 0 7.45 3.838 7.45 8.478v8.968c0 .446-.402.849-.847.849h-2.546c-.488 0-.843-.403-.843-.849v-9.147c0-2.855-1.387-4.417-3.705-4.417-2.813 0-4.732 2.054-4.954 2.677v10.887c0 .581-.266.849-1.026.849h-2.321c-.447 0-.845-.403-.845-.849z" fill="#595453" fill-rule="nonzero" stroke="#595453" stroke-width=".59" transform="matrix(4.16667 0 0 4.16667 837.61733676 636.44217582)"/><path d="m0-5.041h-1.873c-.492 0-.848-.401-.848-.847v-2.008c0-.492.356-.85.848-.85h1.873v-4.952c0-.445.398-.849.849-.849l2.54-.044c.448 0 .805.401.805.849v4.996h4.55c.49 0 .847.358.847.85v2.008c0 .446-.357.847-.847.847h-4.55v8.833c0 1.518.579 1.786 1.429 1.786.937 0 2.185-.536 2.72-.804.581-.267.849 0 1.026.403l.802 1.963c.224.491.047.849-.4 1.071-.444.268-3.077 1.339-5.22 1.339-3.526 0-4.551-2.143-4.551-5.311z" fill="#595453" fill-rule="nonzero" stroke="#595453" stroke-width=".59" transform="matrix(4.16667 0 0 4.16667 939.16325133 603.90464979)"/><path d="m0-15.705c0-.446.398-.849.847-.849h1.294c.311 0 .669.267.757.625l.491 1.517c.315-.446 1.965-2.588 5.22-2.588 1.697 0 3.75.446 3.258 1.652l-1.069 2.186c-.225.491-.669.58-1.071.401-.269-.132-.937-.313-1.517-.313-2.591 0-3.839 1.875-4.018 2.188v11.332c0 .758-.488.849-1.202.849h-2.143c-.449 0-.847-.403-.847-.849z" fill="#595453" fill-rule="nonzero" stroke="#595453" stroke-width=".59" transform="matrix(4.16667 0 0 4.16667 1001.48413452 636.44217582)"/><path d="m0-6.16c4.644 0 8.213 3.482 8.213 8.256 0 .311-.046.893-.092 1.204-.041.447-.398.758-.801.758h-12.137c.134 2.409 2.23 4.774 5.132 4.774 1.604 0 3.079-.714 3.969-1.293.538-.312.848-.492 1.204-.044l1.252 1.694c.312.358.445.714-.089 1.161-1.294 1.115-3.615 2.232-6.605 2.232-5.397 0-8.967-4.24-8.967-9.371 0-5.042 3.57-9.371 8.921-9.371m-4.237-6.113-.625-1.294c-.177-.355 0-.712.267-.847l7.006-4.059c.268-.181.937-.269 1.159.132l1.028 1.963c.224.448.089.892-.268 1.071l-7.496 3.212c-.625.314-.892.179-1.071-.178m8.299 13.52c-.131-2.141-1.92-3.97-4.103-3.97-2.411 0-4.284 1.742-4.554 3.97z" fill="#595453" fill-rule="nonzero" transform="matrix(4.16667 0 0 4.16667 1097.99254506 591.27130635)"/><path d="m0-6.16c4.644 0 8.213 3.482 8.213 8.256 0 .311-.046.893-.092 1.204-.041.447-.398.758-.801.758h-12.137c.134 2.409 2.23 4.774 5.132 4.774 1.604 0 3.079-.714 3.969-1.293.538-.312.848-.492 1.204-.044l1.252 1.694c.312.358.445.714-.089 1.161-1.294 1.115-3.615 2.232-6.605 2.232-5.397 0-8.967-4.24-8.967-9.371 0-5.042 3.57-9.371 8.921-9.371zm-4.237-6.113-.625-1.294c-.177-.355 0-.712.267-.847l7.006-4.059c.268-.181.937-.269 1.159.132l1.028 1.963c.224.448.089.892-.268 1.071l-7.496 3.212c-.625.314-.892.179-1.071-.178zm8.299 13.52c-.131-2.141-1.92-3.97-4.103-3.97-2.411 0-4.284 1.742-4.554 3.97z" fill="none" stroke="#595453" stroke-width=".59" transform="matrix(4.16667 0 0 4.16667 1097.99254506 591.27130635)"/><path d="m0-4.73c1.873 0 3.523.536 3.523.536.046-2.811-.491-3.927-2.767-3.927-2.054 0-4.06.536-4.996.802-.533.135-.849-.223-.984-.714l-.357-1.649c-.129-.582.181-.893.583-1.028.311-.133 2.857-1.026 6.157-1.026 5.712 0 6.246 3.481 6.246 7.943v9.504c0 .446-.401.847-.849.847h-1.248c-.403 0-.579-.179-.758-.623l-.446-1.207c-.983.937-2.721 2.278-5.489 2.278-3.347 0-5.754-2.278-5.754-5.98 0-3.258 2.587-5.756 7.139-5.756m-.538 8.568c1.786 0 3.482-1.339 4.017-2.233v-2.855c-.27-.178-1.517-.714-3.125-.714-2.142 0-3.612 1.117-3.612 2.944 0 1.608 1.071 2.858 2.72 2.858" fill="#595453" fill-rule="nonzero" transform="matrix(4.16667 0 0 4.16667 1177.24260846 614.50882494)"/><path d="m0-4.73c1.873 0 3.523.536 3.523.536.046-2.811-.491-3.927-2.767-3.927-2.054 0-4.06.536-4.996.802-.533.135-.849-.223-.984-.714l-.357-1.649c-.129-.582.181-.893.583-1.028.311-.133 2.857-1.026 6.157-1.026 5.712 0 6.246 3.481 6.246 7.943v9.504c0 .446-.401.847-.849.847h-1.248c-.403 0-.579-.179-.758-.623l-.446-1.207c-.983.937-2.721 2.278-5.489 2.278-3.347 0-5.754-2.278-5.754-5.98 0-3.258 2.587-5.756 7.139-5.756zm-.538 8.568c1.786 0 3.482-1.339 4.017-2.233v-2.855c-.27-.178-1.517-.714-3.125-.714-2.142 0-3.612 1.117-3.612 2.944 0 1.608 1.071 2.858 2.72 2.858z" fill="none" stroke="#595453" stroke-width=".59" transform="matrix(4.16667 0 0 4.16667 1177.24260846 614.50882494)"/><path d="m0-29.536c0-.447.399-.849.846-.849h2.544c.446 0 .848.402.848.849v29.538c0 .446-.402.847-.848.847h-2.544c-.447 0-.846-.401-.846-.847z" fill="#595453" fill-rule="nonzero" stroke="#595453" stroke-width=".59" transform="matrix(4.16667 0 0 4.16667 1234.35932082 638.29634397)"/></svg>