<svg clip-rule="evenodd" fill-rule="evenodd" stroke-miterlimit="2" viewBox="0 0 1792 480" xmlns="http://www.w3.org/2000/svg"><path d="M107.613 186.538c-1.875 8.058-2.25 12.375 7.687 12.933l-.75 3.187H80.988l.75-3.187c9.187 0 11.625-5.058 13.129-12.933l14.62-69-.374-.375-54.184 85.495h-3.375l2.813-85.12-.563-.375-30.187 69.375c-3.563 8.245-3.938 12.933 6 12.933l-.75 3.187H5.054l.75-3.187c6 0 9.75-5.246 14.438-15.746l32.808-74.812c-1.87-4.871-5.246-6.371-14.25-7.121l.754-3.192h27.559l-2.625 80.438.375.375 51-80.813h18.933l-.746 3.192c-8.63 1.875-9.562 5.246-11.437 13.875zM331.584 272.159c-9.188.187-12.75 6.562-12 16.687l5.441 66.183c1.121 13.125 3.371 17.25 13.309 18.188v3.187h-38.621v-3.187c8.812-1.5 11.812-5.438 11.062-16.125l-5.254-69.37h-.375L268.4 376.403h-2.812l-36-88.683h-.371l-6.004 66.183c-.934 10.875 3 17.25 13.875 19.313v3.187h-33.371v-3.187c10.87-1.5 12.558-7.875 13.687-19.688l6.559-73.875c-4.121-4.495-7.875-6.558-14.059-7.495v-3.188h27.184l34.312 84.558 34.875-84.558h25.309z" fill="#231f20" fill-rule="nonzero"/><path d="M173.433 62.713v346.875M346.871 236.15H0" fill="none" stroke="#231f20" stroke-width="6.250005"/><g fill="#231f20" fill-rule="nonzero"><path d="M1000.167 107.033l-18.2-68.516c-.1-.304-.308-.613-.716-.613s-.917.409-.917 1.025v68.104h-8.487V31.975h15.641l15.954 58.283c.2.613.513.925.917.925.617 0 1.13-.412 1.23-1.025l15.545-58.183h15.846v75.058h-8.488V39.338c0-.613-.404-.925-.716-.925-.404 0-.813.208-1.021.716l-17.996 67.904zM1068.268 31.975v50.004c0 8.075 1.837 17.792 14.112 17.792 3.475 0 8.792-1.533 11.45-6.442 2.05-4.087 2.254-9.816 2.254-13.908V31.975h9.409v50.417c0 7.358-1.534 14.925-6.65 20.137-6.034 6.238-13.292 6.75-18.817 6.75-3.68 0-12.167-1.229-17.38-8.791-4.195-6.138-4.808-12.271-4.808-19.021V31.975zM1159.272 51.608c-3.475-6.954-6.746-12.066-15.438-12.066-4.608 0-11.454 2.658-11.454 9.916 0 6.755 5.725 9.613 8.18 10.742l14.928 6.746c2.559 1.225 8.08 4.296 11.25 9.82.921 1.734 2.555 4.597 2.555 10.122 0 7.058-2.555 12.883-7.363 16.97-6.133 5.321-12.27 5.321-16.262 5.321-4.596 0-11.963-1.533-17.175-5.933-4.809-3.988-6.642-7.767-8.384-11.35l9-5.625c2.142 6.033 7.159 13.5 17.275 13.5 6.346 0 13.196-3.883 13.196-12.067 0-3.475-1.33-7.875-9.204-11.454l-13.296-6.033c-4.6-2.046-10.017-5.825-12.37-10.017-1.026-1.846-2.25-5.22-2.25-10.433 0-11.354 9.612-19.325 21.374-19.325 11.454 0 19.634 5.729 24.23 15.954zM1217.863 12.338l-13.395 14.42h-6.855l9.105-14.42zm-34.77 19.637h46.629v9.2h-35.892v21.783h26.483v9.509h-26.275v25.058h37.63v9.508h-48.575zM1246.18 31.975h46.634v9.2h-35.892v21.783h26.479v9.509h-26.28v25.058h37.634v9.508h-48.575zM695.171 392.084h4.709c6.641 0 13.391-1.23 13.391-15.65 0-2.555.205-6.646.205-9.196 0-9-.205-15.242-2.759-18.921-3.175-4.6-6.75-4.6-15.546-4.6zm-16.77-61.663h18.204c18.304 0 24.746 3.475 29.041 9.713 3.271 4.808 4.5 10.025 4.5 26.895l-.104 12.788c0 8.48-2.046 17.48-10.329 21.675-5.417 2.758-10.02 3.267-16.05 3.783-2.15.2-12.887.2-25.262.2zM742.205 330.421h50.416v13.7h-34.054v15.954h23.417v13.7h-23.213v17.696h36.2v14.004h-52.766zM829.321 330.421h22.088l8.9 31.292c.92 3.375 1.325 4.496 2.15 7.87.404 1.538 1.938 8.084 2.246 9.413h.512c1.121-6.237 2.25-10.942 4.088-17.592l8.796-30.983h22.191v75.054h-14.416v-40.387c0-5.317.404-14.213.716-21.371h-.412l-15.542 61.758h-11.354l-15.95-61.758h-.512c.1 3.475.716 18.712.716 21.88v39.878h-14.217zM939.242 343.817h-.404l-8.183 33.946h16.875zm9.717-13.396l21.683 75.054h-16.058l-3.783-14.925h-23.009l-3.887 14.925H907.85l21.17-75.054zM993.234 362.834c9.308 0 10.738 0 13.088-.817 5.216-1.838 5.629-5.93 5.629-10.02 0-5.218-1.638-7.772-4.913-8.997-2.554-.925-4.6-.925-13.804-.925zm0 42.641h-16.258v-75.054h24.233c12.171 0 27.608 1.638 27.608 21.783 0 9.509-3.779 16.767-14.312 19.942l16.362 33.33h-17.895L998.759 374.8h-5.525zM1074.73 350.567c-2.35-4.504-7.158-8.388-12.987-8.388-8.592 0-8.796 6.446-8.796 7.267 0 5.313 4.908 7.463 9.512 9.096l9.509 3.475c4.495 1.637 9.812 4.708 12.783 8.8.92 1.225 4.192 6.133 4.192 13.183 0 3.384 0 13.4-10.638 19.846-4.392 2.658-10.633 3.78-14.417 3.78-13.191 0-20.962-3.167-27.708-15.238l12.78-8.484c2.762 6.338 7.774 10.225 14.216 10.225 3.579 0 10.017-1.637 10.017-8.487 0-5.63-3.071-6.854-14.313-11.254-11.35-4.392-21.17-9.404-21.17-24.23 0-12.37 9-21.274 24.437-21.274 11.046 0 18.82 4.504 24.958 13.504zM1097.63 330.421h50.417v13.7h-34.054v15.954h23.416v13.7h-23.212v17.696h36.2v14.004h-52.767zM1154.48 405.475v-6.641h8.792v-61.867h-8.792v-6.546h34.258v6.546h-8.895v61.658h8.895v6.85zM1194.151 330.421h16.775v61.05h33.03v14.004h-49.805zM1251.518 330.421h16.77v61.05h33.03v14.004h-49.8zM1310.105 330.421h50.417v13.7h-34.054v15.954h23.416v13.7h-23.208v17.696h36.196v14.004h-52.767zM689 216.734v56.041h7.771c17.896 0 21.984-14.112 21.984-28.12 0-6.85-1.121-15.646-5.925-21.476-4.092-4.908-9.513-6.445-18.821-6.445zm-10.429 65.55v-75.059h16.259c24.85 0 34.87 14.417 34.87 38.55 0 4.804-.716 14.117-5.32 22.192-3.267 5.833-9.609 14.317-29.446 14.317zM738.18 207.225h8.387v27.713h-8.387zM761.7 207.225h10.43v31.492h26.791v-31.492h10.434v75.059H798.92v-34.567H772.13v34.567H761.7zM825.4 275.638h6.342v-61.563h-6.341v-6.85h23.62v6.85h-6.65v61.563h6.65v6.646h-23.62zM897.797 226.863c-3.475-6.954-6.746-12.071-15.438-12.071-4.604 0-11.454 2.658-11.454 9.92 0 6.75 5.725 9.613 8.179 10.738l14.93 6.746c2.558 1.233 8.078 4.296 11.25 9.817.92 1.741 2.553 4.608 2.553 10.12 0 7.059-2.554 12.892-7.362 16.984-6.133 5.312-12.271 5.312-16.263 5.312-4.595 0-11.962-1.533-17.179-5.925-4.804-3.987-6.637-7.775-8.379-11.354l9-5.629c2.142 6.042 7.158 13.504 17.275 13.504 6.346 0 13.192-3.887 13.192-12.07 0-3.476-1.325-7.867-9.2-11.45l-13.296-6.034c-4.6-2.042-10.017-5.83-12.371-10.02-1.025-1.842-2.25-5.213-2.25-10.434 0-11.346 9.613-19.33 21.375-19.33 11.45 0 19.633 5.73 24.23 15.955zM967.842 207.225v9.509H946.06v65.55h-10.737v-65.55h-21.884v-9.509zM998.21 215.1c-6.447 0-10.434 4.496-12.584 11.554-1.434 4.496-2.246 11.15-2.246 19.017 0 9.517 1.325 29.554 14.417 29.554 10.637 0 14.725-10.941 14.725-29.958 0-9.921-.917-30.167-14.313-30.167zm22.187 9.2c2.25 6.654 2.862 15.442 2.862 20.654 0 17.896-5.012 39.58-25.258 39.58-18.404 0-25.359-18.509-25.359-38.55 0-11.45 1.838-21.884 6.138-28.734 6.237-10.025 13.7-11.15 19.22-11.15 12.68 0 19.33 9.2 22.397 18.2zM1032.15 275.638h6.342v-61.563h-6.341v-6.85h23.62v6.85h-6.65v61.563h6.65v6.646h-23.62zM1081.434 216.017v24.85c5.725.104 13.092.104 16.98-.717 4.087-.916 10.529-3.062 10.529-11.45 0-8.791-5.934-12.683-17.18-12.683zm-10.433-8.792h23.112c20.967 0 25.467 12.684 25.467 20.35 0 14.113-9.308 17.896-16.058 20.046l19.633 34.663h-12.267l-17.795-33.334h-11.555v33.334h-10.537zM1134.093 207.225h46.629v9.204h-35.892v21.78h26.483v9.508h-26.279v25.058h37.63v9.509h-48.571zM528.167 1.43h102.888v10.733H528.167zM528.167 468.43h102.888v10.733H528.167zM1378.076 59.583h412.425v10.725h-412.425zM1334.234 302.03h434.805v16.1h-434.805zM529.955 134.73H1557.9v26.845H529.955zM1667.047 134.73h122.567v26.845h-122.567z"/><path d="M1334.234 302.03h434.805v16.1h-434.805zM1404.026 216.142h32.213v43.833h-32.213z"/></g></svg>