<svg fill="none" height="155" width="2255" xmlns="http://www.w3.org/2000/svg"><g fill="#fff"><path d="M1638.76 2.038h37.79l27.98 150.067h-30.57l-5-31.681h-22.05l-5.19 31.681h-31.31zm27.05 98.562l-7.97-58.544-7.96 58.544zM1725.24 26.679h-22.6V2.038h78.37v24.64h-22.42v125.427h-33.35zM1807.75 26.679h-22.61V2.038h78.37v24.64h-22.42v125.427h-33.34zM1891.15 2.038h37.79l27.98 150.067h-30.57l-5-31.681h-22.05l-5.19 31.681h-31.31zm27.05 98.562l-7.97-58.544-7.96 58.544zM2012.7 154.328c-16.3 0-27.91-4.261-34.83-12.783-6.79-8.646-10.19-21.059-10.19-37.239V50.208c0-16.551 3.4-29.026 10.19-37.424C1984.66 4.26 1996.27 0 2012.7 0c15.69 0 26.8 3.767 33.35 11.301 6.55 7.535 9.82 18.218 9.82 32.052V56.32h-32.42V41.315c0-5.805-.62-10.252-1.86-13.34-1.23-3.087-4.19-4.631-8.89-4.631-4.69 0-7.78 1.667-9.26 5.002-1.48 3.211-2.22 7.72-2.22 13.525v70.587c0 5.928.74 10.498 2.22 13.709 1.6 3.088 4.69 4.632 9.26 4.632s7.47-1.544 8.71-4.632c1.36-3.211 2.04-7.781 2.04-13.709V96.71h32.42v12.969c0 14.08-3.27 25.072-9.82 32.977-6.55 7.781-17.66 11.672-33.35 11.672zM2074.67 2.038h33.16v60.768h23.16V2.038h33.35v150.067h-33.35V86.52h-23.16v65.585h-33.16zM2187.19 2.038h67.44V24.64h-34.28v37.238h26.13v22.974h-26.13v44.834H2255v22.418h-67.81zM1015.48 1.673h35.35c12.78 0 21.77 3.41 26.98 10.227 5.33 6.818 8 16.362 8 28.634 0 11.528-2.73 21.073-8.19 28.635-5.33 7.437-14.2 11.156-26.6 11.156h-25.49v71.958h-10.05zm33.3 70.843c9.31 0 16.07-2.418 20.28-7.252 4.22-4.958 6.33-13.201 6.33-24.73 0-8.057-.87-14.317-2.6-18.78-1.74-4.462-4.53-7.623-8.38-9.482-3.72-1.86-8.87-2.79-15.44-2.79h-23.44v63.034zM1139.83 154.328c-13.77 0-23.44-3.905-29.02-11.714-5.46-7.933-8.19-18.966-8.19-33.097V43.695c0-13.883 2.79-24.605 8.37-32.167C1116.7 3.843 1126.31 0 1139.83 0c13.4 0 22.95 3.843 28.66 11.528 5.7 7.685 8.55 18.408 8.55 32.167v66.008c0 14.131-2.79 25.102-8.37 32.911-5.46 7.809-15.07 11.714-28.84 11.714zm0-8.367c10.17 0 17.18-2.913 21.03-8.739 3.97-5.826 5.95-14.317 5.95-25.474v-69.54c0-11.156-1.98-19.586-5.95-25.288-3.85-5.702-10.86-8.553-21.03-8.553s-17.24 2.851-21.21 8.553c-3.84 5.702-5.77 14.132-5.77 25.288v69.54c0 11.281 1.93 19.834 5.77 25.66 3.97 5.702 11.04 8.553 21.21 8.553zM1201.72 1.673h36.47c12.4 0 21.02 3.285 25.86 9.855s7.26 15.68 7.26 27.333c0 9.793-1.61 17.85-4.84 24.172-3.1 6.322-8.87 10.164-17.3 11.528l24.18 77.722h-10.04l-23.45-75.863h-28.09v75.863h-10.05zm36.1 66.938c9.05 0 15.25-2.417 18.6-7.252 3.35-4.958 5.03-12.457 5.03-22.498 0-10.165-1.74-17.54-5.21-22.127-3.35-4.71-9.55-7.065-18.61-7.065h-25.86V68.61zM1313.21 9.855h-30.15V1.673h69.59v8.182h-29.4v142.428h-10.04zM1400.48 154.142c-22.2 0-34.3-13.016-36.28-39.047l8.74-2.789c1.49 11.156 4.16 19.524 8 25.102 3.97 5.578 10.55 8.367 19.73 8.367 16 0 24-8.057 24-24.172 0-6.198-1.55-11.838-4.65-16.92-3.1-5.083-8.07-11.033-14.89-17.85L1377.6 59.5c-8.81-8.801-13.21-18.346-13.21-28.634 0-9.793 2.97-17.355 8.93-22.685C1379.39 2.727 1387.46 0 1397.5 0c10.8 0 19.11 2.913 24.94 8.74 5.83 5.701 9.18 15.37 10.04 29.005l-8.56 2.046c-.86-11.033-3.28-19.028-7.25-23.986-3.85-5.083-10.17-7.624-18.98-7.624-7.19 0-13.02 1.86-17.49 5.578-4.34 3.595-6.51 9.05-6.51 16.363 0 3.966.8 7.81 2.42 11.528 1.73 3.595 4.59 7.375 8.56 11.342l27.16 26.775c6.95 6.818 12.4 13.574 16.37 20.267 3.97 6.694 5.96 13.698 5.96 21.011 0 10.909-3.04 19.152-9.12 24.73s-14.26 8.367-24.56 8.367zM1489.72 1.673h32.93c14.02 0 23.94 3.905 29.77 11.714 5.83 7.686 8.74 18.222 8.74 31.61v62.475c0 14.131-2.85 25.163-8.56 33.097-5.58 7.809-15.25 11.714-29.02 11.714h-33.86zm33.3 142.614c7.69 0 13.58-1.611 17.68-4.834 4.09-3.347 6.82-7.747 8.18-13.202 1.37-5.454 2.05-12.085 2.05-19.895V45.741c0-12.024-2.05-21.011-6.14-26.961-3.97-5.95-11.35-8.925-22.14-8.925h-22.89v134.432zM1580.44 36.816c3.23-1.984 5.27-4.215 6.14-6.694.99-2.603 1.49-6.508 1.49-11.714h-5.96V1.673h12.1v14.132c0 6.941-.75 12.272-2.23 15.99-1.49 3.595-4.28 6.384-8.38 8.368zM604.194 0h69.353v23.244h-35.248v38.297h26.864v23.625h-26.864v46.108h35.629v23.054h-69.734zM709.226 71.258L680.647 0h32.199l16.957 41.726L743.521 0h28.389l-27.055 80.213 30.103 74.115H742.95l-18.863-46.108-16.576 46.108h-28.198zM787.657 0h34.104v154.328h-34.104zM844.774 0h34.104v131.274h35.438v23.054h-69.542zM0 1.673h35.352c12.776 0 21.769 3.41 26.979 10.227 5.333 6.818 8 16.362 8 28.634 0 11.528-2.729 21.073-8.187 28.635-5.333 7.437-14.202 11.156-26.606 11.156h-25.49v71.958H0zm33.305 70.843c9.303 0 16.063-2.418 20.28-7.252 4.218-4.958 6.327-13.201 6.327-24.73 0-8.057-.869-14.317-2.605-18.78-1.737-4.462-4.528-7.623-8.373-9.482-3.721-1.86-8.869-2.79-15.443-2.79H10.047v63.034zM124.354 154.328c-13.768 0-23.443-3.905-29.025-11.714-5.458-7.933-8.187-18.966-8.187-33.097V43.695c0-13.883 2.79-24.605 8.373-32.167C101.22 3.843 110.834 0 124.354 0c13.397 0 22.948 3.843 28.654 11.528 5.706 7.685 8.558 18.408 8.558 32.167v66.008c0 14.131-2.79 25.102-8.372 32.911-5.458 7.809-15.071 11.714-28.84 11.714zm0-8.367c10.172 0 17.18-2.913 21.025-8.739 3.969-5.826 5.954-14.317 5.954-25.474v-69.54c0-11.156-1.985-19.586-5.954-25.288-3.845-5.702-10.853-8.553-21.025-8.553-10.171 0-17.241 2.851-21.211 8.553-3.845 5.702-5.768 14.132-5.768 25.288v69.54c0 11.281 1.923 19.834 5.768 25.66 3.97 5.702 11.04 8.553 21.211 8.553zM186.243 1.673h36.468c12.404 0 21.025 3.285 25.862 9.855 4.838 6.57 7.257 15.68 7.257 27.333 0 9.793-1.613 17.85-4.838 24.172-3.101 6.322-8.869 10.164-17.304 11.528l24.188 77.722h-10.047L224.385 76.42H196.29v75.863h-10.047zm36.096 66.938c9.055 0 15.257-2.417 18.606-7.252 3.349-4.958 5.023-12.457 5.023-22.498 0-10.165-1.736-17.54-5.209-22.127-3.349-4.71-9.551-7.065-18.606-7.065H196.29V68.61zM297.728 9.855h-30.142V1.673h69.587v8.182h-29.397v142.428h-10.048zM385.003 154.142c-22.204 0-34.298-13.016-36.282-39.047l8.745-2.789c1.488 11.156 4.155 19.524 8 25.102 3.97 5.578 10.544 8.367 19.723 8.367 16.001 0 24.002-8.057 24.002-24.172 0-6.198-1.551-11.838-4.652-16.92-3.101-5.083-8.063-11.033-14.885-17.85L362.117 59.5c-8.807-8.801-13.21-18.346-13.21-28.634 0-9.793 2.977-17.355 8.931-22.685C363.916 2.727 371.978 0 382.026 0c10.791 0 19.102 2.913 24.932 8.74 5.83 5.701 9.179 15.37 10.047 29.005l-8.559 2.046c-.868-11.033-3.287-19.028-7.256-23.986-3.845-5.083-10.171-7.624-18.978-7.624-7.195 0-13.025 1.86-17.49 5.578-4.341 3.595-6.512 9.05-6.512 16.363 0 3.966.806 7.81 2.419 11.528 1.736 3.595 4.589 7.375 8.558 11.342l27.165 26.775c6.947 6.818 12.404 13.574 16.374 20.267 3.969 6.694 5.954 13.698 5.954 21.011 0 10.909-3.039 19.152-9.117 24.73s-14.265 8.367-24.56 8.367zM474.238 1.673h32.933c14.016 0 23.94 3.905 29.769 11.714 5.83 7.686 8.745 18.222 8.745 31.61v62.475c0 14.131-2.853 25.163-8.558 33.097-5.582 7.809-15.258 11.714-29.026 11.714h-33.863zm33.305 142.614c7.69 0 13.582-1.611 17.676-4.834 4.093-3.347 6.822-7.747 8.186-13.202 1.365-5.454 2.047-12.085 2.047-19.895V45.741c0-12.024-2.047-21.011-6.14-26.961-3.969-5.95-11.35-8.925-22.141-8.925h-22.886v134.432zM564.962 36.816c3.225-1.984 5.271-4.215 6.14-6.694.992-2.603 1.488-6.508 1.488-11.714h-5.954V1.673h12.094v14.132c0 6.941-.744 12.272-2.233 15.99-1.488 3.595-4.279 6.384-8.372 8.368z"/></g></svg>