<svg clip-rule="evenodd" fill-rule="evenodd" stroke-miterlimit="2" viewBox="0 0 1792 480" xmlns="http://www.w3.org/2000/svg"><g transform="scale(4.16667)"><path d="m25.827 44.769c-.45 1.934-.54 2.97 1.845 3.104l-.18.765h-8.055l.18-.765c2.205 0 2.79-1.214 3.151-3.104l3.509-16.56-.09-.09-13.004 20.519h-.81l.675-20.429-.135-.09-7.245 16.65c-.855 1.979-.945 3.104 1.44 3.104l-.18.765h-5.715l.18-.765c1.44 0 2.34-1.259 3.465-3.779l7.874-17.955c-.449-1.169-1.259-1.529-3.42-1.709l.181-.766h6.614l-.63 19.305.09.09 12.24-19.395h4.544l-.179.766c-2.071.45-2.295 1.259-2.745 3.33z" fill="#231f20" fill-rule="nonzero"/><path d="m79.58 65.318c-2.205.045-3.06 1.575-2.88 4.005l1.306 15.884c.269 3.15.809 4.14 3.194 4.365v.765h-9.269v-.765c2.115-.36 2.835-1.305 2.655-3.87l-1.261-16.649h-.09l-8.819 21.284h-.675l-8.64-21.284h-.089l-1.441 15.884c-.224 2.61.72 4.14 3.33 4.635v.765h-8.009v-.765c2.609-.36 3.014-1.89 3.285-4.725l1.574-17.73c-.989-1.079-1.89-1.574-3.374-1.799v-.765h6.524l8.235 20.294 8.37-20.294h6.074z" fill="#231f20" fill-rule="nonzero"/><path d="m41.624 15.051v83.25" fill="none" stroke="#231f20" stroke-width="1.5"/><path d="m83.249 56.676h-83.249" fill="none" stroke="#231f20" stroke-width="1.5"/><g fill="#231f20" fill-rule="nonzero"><path d="m240.04 25.688-4.368-16.444c-.024-.073-.074-.147-.172-.147s-.22.098-.22.246v16.345h-2.037v-18.014h3.754l3.829 13.988c.048.147.123.222.22.222.148 0 .271-.099.295-.246l3.731-13.964h3.803v18.014h-2.037v-16.247c0-.147-.097-.222-.172-.222-.097 0-.195.05-.245.172l-4.319 16.297z"/><path d="m256.384 7.674v12.001c0 1.938.441 4.27 3.387 4.27.834 0 2.11-.368 2.748-1.546.492-.981.541-2.356.541-3.338v-11.387h2.258v12.1c0 1.766-.368 3.582-1.596 4.833-1.448 1.497-3.19 1.62-4.516 1.62-.883 0-2.92-.295-4.171-2.11-1.007-1.473-1.154-2.945-1.154-4.565v-11.878z"/><path d="m278.225 12.386c-.834-1.669-1.619-2.896-3.705-2.896-1.106 0-2.749.638-2.749 2.38 0 1.621 1.374 2.307 1.963 2.578l3.583 1.619c.614.294 1.939 1.031 2.7 2.357.221.416.613 1.103.613 2.429 0 1.694-.613 3.092-1.767 4.073-1.472 1.277-2.945 1.277-3.903 1.277-1.103 0-2.871-.368-4.122-1.424-1.154-.957-1.594-1.864-2.012-2.724l2.16-1.35c.514 1.448 1.718 3.24 4.146 3.24 1.523 0 3.167-.932 3.167-2.896 0-.834-.319-1.89-2.209-2.749l-3.191-1.448c-1.104-.491-2.404-1.398-2.969-2.404-.246-.443-.54-1.253-.54-2.504 0-2.725 2.307-4.638 5.13-4.638 2.749 0 4.712 1.375 5.815 3.829z"/><path d="m292.287 2.961-3.215 3.461h-1.645l2.185-3.461zm-8.345 4.713h11.191v2.208h-8.614v5.228h6.356v2.282h-6.306v6.014h9.031v2.282h-11.658z"/><path d="m299.083 7.674h11.192v2.208h-8.614v5.228h6.355v2.282h-6.307v6.014h9.032v2.282h-11.658z"/><path d="m166.841 94.1h1.13c1.594 0 3.214-.295 3.214-3.756 0-.613.049-1.595.049-2.207 0-2.16-.049-3.658-.662-4.541-.762-1.104-1.62-1.104-3.731-1.104zm-4.025-14.799h4.369c4.393 0 5.939.834 6.97 2.331.785 1.154 1.08 2.406 1.08 6.455l-.025 3.069c0 2.035-.491 4.195-2.479 5.202-1.3.662-2.405.784-3.852.908-.516.048-3.093.048-6.063.048z"/><path d="m178.129 79.301h12.1v3.288h-8.173v3.829h5.62v3.288h-5.571v4.247h8.688v3.361h-12.664z"/><path d="m199.037 79.301h5.301l2.136 7.51c.221.81.318 1.079.516 1.889.097.369.465 1.94.539 2.259h.123c.269-1.497.54-2.626.981-4.222l2.111-7.436h5.326v18.013h-3.46v-9.693c0-1.276.097-3.411.172-5.129h-.099l-3.73 14.822h-2.725l-3.828-14.822h-.123c.024.834.172 4.491.172 5.251v9.571h-3.412z"/><path d="m225.418 82.516h-.097l-1.964 8.147h4.05zm2.332-3.215 5.204 18.013h-3.854l-.908-3.582h-5.522l-.933 3.582h-3.853l5.081-18.013z"/><path d="m238.376 87.08c2.234 0 2.577 0 3.141-.196 1.252-.441 1.351-1.423 1.351-2.405 0-1.252-.393-1.865-1.179-2.159-.613-.222-1.104-.222-3.313-.222zm0 10.234h-3.902v-18.013h5.816c2.921 0 6.626.393 6.626 5.228 0 2.282-.907 4.024-3.435 4.786l3.927 7.999h-4.295l-3.411-7.362h-1.326z"/><path d="m257.935 84.136c-.564-1.081-1.718-2.013-3.117-2.013-2.062 0-2.111 1.547-2.111 1.744 0 1.275 1.178 1.791 2.283 2.183l2.282.834c1.079.393 2.355 1.13 3.068 2.112.221.294 1.006 1.472 1.006 3.164 0 .812 0 3.216-2.553 4.763-1.054.638-2.552.907-3.46.907-3.166 0-5.031-.76-6.65-3.657l3.067-2.036c.663 1.521 1.866 2.454 3.412 2.454.859 0 2.404-.393 2.404-2.037 0-1.351-.737-1.645-3.435-2.701-2.724-1.054-5.081-2.257-5.081-5.815 0-2.969 2.16-5.106 5.865-5.106 2.651 0 4.517 1.081 5.99 3.241z"/><path d="m263.431 79.301h12.1v3.288h-8.173v3.829h5.62v3.288h-5.571v4.247h8.688v3.361h-12.664z"/><path d="m277.075 97.314v-1.594h2.11v-14.848h-2.11v-1.571h8.222v1.571h-2.135v14.798h2.135v1.644z"/><path d="m286.596 79.301h4.026v14.652h7.927v3.361h-11.953z"/><path d="m300.364 79.301h4.025v14.652h7.927v3.361h-11.952z"/><path d="m314.425 79.301h12.1v3.288h-8.173v3.829h5.62v3.288h-5.57v4.247h8.687v3.361h-12.664z"/><path d="m165.36 52.016v13.45h1.865c4.295 0 5.276-3.387 5.276-6.749 0-1.644-.269-3.755-1.422-5.154-.982-1.178-2.283-1.547-4.517-1.547zm-2.503 15.732v-18.014h3.902c5.964 0 8.369 3.46 8.369 9.252 0 1.153-.172 3.388-1.277 5.326-.784 1.4-2.306 3.436-7.067 3.436z"/><path d="m177.163 49.734h2.013v6.651h-2.013z"/><path d="m182.808 49.734h2.503v7.558h6.43v-7.558h2.504v18.014h-2.504v-8.296h-6.43v8.296h-2.503z"/><path d="m198.096 66.153h1.522v-14.775h-1.522v-1.644h5.669v1.644h-1.596v14.775h1.596v1.595h-5.669z"/><path d="m215.471 54.447c-.834-1.669-1.619-2.897-3.705-2.897-1.105 0-2.749.638-2.749 2.381 0 1.62 1.374 2.307 1.963 2.577l3.583 1.619c.614.296 1.939 1.031 2.7 2.356.221.418.613 1.106.613 2.429 0 1.694-.613 3.094-1.767 4.076-1.472 1.275-2.945 1.275-3.903 1.275-1.103 0-2.871-.368-4.123-1.422-1.153-.957-1.593-1.866-2.011-2.725l2.16-1.351c.514 1.45 1.718 3.241 4.146 3.241 1.523 0 3.166-.933 3.166-2.897 0-.834-.318-1.888-2.208-2.748l-3.191-1.448c-1.104-.49-2.404-1.399-2.969-2.405-.246-.442-.54-1.251-.54-2.504 0-2.723 2.307-4.639 5.13-4.639 2.748 0 4.712 1.375 5.815 3.829z"/><path d="m232.282 49.734v2.282h-5.228v15.732h-2.577v-15.732h-5.252v-2.282z"/><path d="m239.57 51.624c-1.547 0-2.504 1.079-3.02 2.773-.344 1.079-.539 2.676-.539 4.564 0 2.284.318 7.093 3.46 7.093 2.553 0 3.534-2.626 3.534-7.19 0-2.381-.22-7.24-3.435-7.24zm5.325 2.208c.54 1.597.687 3.706.687 4.957 0 4.295-1.203 9.499-6.062 9.499-4.417 0-6.086-4.442-6.086-9.252 0-2.748.441-5.252 1.473-6.896 1.497-2.406 3.288-2.676 4.613-2.676 3.043 0 4.639 2.208 5.375 4.368z"/><path d="m247.716 66.153h1.522v-14.775h-1.522v-1.644h5.669v1.644h-1.596v14.775h1.596v1.595h-5.669z"/><path d="m259.544 51.844v5.964c1.374.025 3.142.025 4.075-.172.981-.22 2.527-.735 2.527-2.748 0-2.11-1.424-3.044-4.123-3.044zm-2.504-2.11h5.547c5.032 0 6.112 3.044 6.112 4.884 0 3.387-2.234 4.295-3.854 4.811l4.712 8.319h-2.944l-4.271-8h-2.773v8h-2.529z"/><path d="m272.182 49.734h11.191v2.209h-8.614v5.227h6.356v2.282h-6.307v6.014h9.031v2.282h-11.657z"/><path d="m126.76.343h24.693v2.576h-24.693z"/><path d="m126.76 112.423h24.693v2.576h-24.693z"/><path d="m330.738 14.3h98.982v2.574h-98.982z"/><path d="m320.216 72.487h104.353v3.864h-104.353z"/><path d="m127.189 32.335h246.707v6.443h-246.707z"/><path d="m400.091 32.335h29.416v6.443h-29.416z"/><path d="m320.216 72.487h104.353v3.864h-104.353z"/><path d="m336.966 51.874h7.731v10.52h-7.731z"/></g></g></svg>