<svg clip-rule="evenodd" fill-rule="evenodd" stroke-linejoin="round" stroke-miterlimit="2" viewBox="0 0 755 313" xmlns="http://www.w3.org/2000/svg"><g fill-rule="nonzero"><g fill="#babcbe"><path d="M0 3.48v138.978h32.713V87.067h61.625V59.87H32.713V31.483h67.02V3.48zM147.65 66.838V30.025h24.983c13.742 0 20.138 5.788 20.138 17.996 0 12.608-6.97 18.817-21.496 18.817zm0 26.554h19.554l25.567 49.066h36.575l-30.417-55.345c18.471-7.517 26.555-19.234 26.555-38.259 0-28.454-17.317-45.387-47.042-45.387h-63.5v138.991h32.708zM207.638 296.567H177.27v-107.25l-26.054 107.25h-27.984l-26.062-107.25v107.25H66.8V154.363h46.966l23.362 96.808 24.317-96.808h46.192zM299.68 182.963h-44.842v24.712h44.408v27.73h-44.408V268.2H299.7v28.354h-77.587v-142.17h77.566zM16.325 154.363H.117v39.058l16.208 53.97H.117v26.188h24.129l6.967 22.988h35.145zM299.688 94.38h-15.859l15.859-52.872V3.438h-16.825l-48.675 139.041h34.766l6.95-22.47h23.784zM335.413 3.1h2.604v294.071h-2.604zM430.384 99.117h10.646v5.008c3.579-4.47 9.925-6.354 14.133-6.354 4.204 0 9.483 1.612 12.433 6.892 1.788-2.509 6.442-6.892 14.313-6.892 4.47 0 8.766 1.254 11.808 4.562 3.58 3.938 3.488 8.68 3.488 13.33v28.179h-10.646V119.15c0-4.204.629-11.27-7.513-11.27-3.4 0-6.17 1.878-7.604 4.203-2.058 3.313-2.325 6.888-2.325 10.738v21.02h-10.646v-24.958c0-3.22 0-4.383-.358-5.725-.804-2.95-3.13-5.279-6.888-5.279-3.22 0-6.35 1.88-8.229 5.188-1.879 3.491-1.966 7.696-1.966 12.079v18.696h-10.646zM535.33 115.754c-.98-6.979-5.275-9.396-10.017-9.396-5.725 0-9.658 3.313-10.913 9.396zm12.166 18.071c-5.55 7.42-12.696 11.358-21.825 11.358-11.716 0-22.987-7.425-22.987-23.883 0-15.03 9.662-23.53 22.27-23.53 11.809 0 16.73 7.072 17.621 8.41 3.675 5.19 4.48 12.97 4.567 17.445h-33.1c1.254 7.067 5.638 11.092 12.704 11.092 7.334 0 10.288-4.296 11.63-6.171zM566.021 99.117v6.35c1.342-2.325 4.288-7.604 14.313-7.338v11.004c-2.325.088-6.354.18-9.667 2.684-4.558 3.487-4.646 8.05-4.646 15.475v16.55h-10.379V99.117zM596.4 99.117v44.725h-10.645V99.117zm0-17.804v10.825h-10.645V81.313zM636.746 114.946c-.804-2.95-3.937-7.604-10.104-7.604-6.179 0-11.096 4.92-11.096 13.866 0 8.055 4.2 13.959 11.275 13.959 6.792 0 9.388-5.192 10.734-8.767l9.212 4.83c-3.491 9.662-12.346 13.953-20.125 13.953-12.437 0-22.187-9.575-22.187-23.704 0-13.687 9.841-23.708 22.541-23.708 11.275 0 16.996 7.517 19.321 12.704zM679.284 121.567c-2.138 1.075-4.554 1.879-9.392 2.683-3.837.538-8.941 1.433-8.941 6.17 0 3.493 2.954 5.28 7.241 5.28 5.463 0 9.313-2.504 10.475-5.187.617-1.342.617-2.684.617-4.025zm-27.633-9.304c.175-2.234.354-4.113 1.787-6.709 4.288-7.783 14.933-7.783 17.8-7.783 4.296 0 9.48.537 13.417 2.862 5.283 3.221 5.37 7.425 5.37 12.255v23.708c0 3.4 0 4.562 1.963 7.246h-12.704c-.088-1.075-.267-2.863-.267-3.488-2.32 1.967-7.062 4.563-13.233 4.563-10.108 0-16.196-6.263-16.196-13.959 0-2.233.538-4.291 1.433-6.083 3.225-6.442 10.109-7.87 14.405-8.675 9.212-1.88 9.929-2.058 13.858-3.312 0-2.234-.18-6.796-7.6-6.796-4.467 0-6.883 1.429-7.958 2.862-1.163 1.434-1.075 2.684-1.075 3.934zM701.388 99.117h10.825v5.275a12.482 12.482 0 013.492-3.492c2.683-1.962 6.791-3.13 10.283-3.13 5.104 0 9.483 2.33 11.72 5.372 2.776 3.754 2.776 8.587 2.776 14.4v26.3h-10.646v-22.813c0-3.308 0-5.546-.358-6.796-.984-3.937-3.85-5.995-7.342-5.995-3.48 0-6.704 2.058-8.225 5.008-1.7 3.312-1.7 7.875-1.7 11.183v19.413h-10.825zM484.113 175.975V220.7h-10.738v-4.558c-1.879 1.787-6.262 5.633-14.491 5.633-7.334 0-10.825-3.133-12.438-5.187-3.037-3.85-3.037-8.054-3.037-14.763v-25.85h10.825v25.671c0 1.792 0 3.312.358 4.475 1.163 3.938 4.38 5.638 8.32 5.638 4.472 0 7.243-2.417 8.676-4.746 1.608-2.95 1.7-5.813 1.787-12.071v-18.967zM498.3 207.463c2.684 3.312 6.709 5.725 12.884 5.725 6.17 0 8.854-3.042 8.854-5.28 0-2.858-3.22-3.575-4.654-3.845-1.521-.359-8.854-1.7-10.463-2.146-10.646-2.504-12.616-8.675-12.616-12.7 0-7.604 6.891-14.584 19.145-14.584 6.8 0 11.721 2.146 14.759 4.292a19.59 19.59 0 014.562 4.03l-7.6 7.062c-1.254-2.413-4.3-6.796-12.166-6.796-5.1 0-7.43 2.233-7.43 4.562 0 3.217 3.309 4.113 9.038 5.1 9.304 1.7 11.896 2.146 14.758 4.38 2.771 2.15 4.563 5.725 4.563 9.487 0 6.975-6.263 15.296-20.125 15.296-7.963 0-15.838-2.508-21.471-7.967zM570.667 192.613c-.979-6.98-5.275-9.392-10.017-9.392-5.72 0-9.662 3.308-10.912 9.392zm12.167 18.07c-5.542 7.426-12.7 11.363-21.825 11.363-11.721 0-22.996-7.43-22.996-23.888 0-15.025 9.662-23.525 22.28-23.525 11.807 0 16.728 7.067 17.62 8.409 3.67 5.187 4.47 12.97 4.562 17.446H549.38c1.25 7.062 5.633 11.091 12.7 11.091 7.337 0 10.287-4.296 11.629-6.175zM629.855 175.975V220.7H619.12v-4.558c-1.879 1.787-6.266 5.633-14.496 5.633-7.329 0-10.82-3.133-12.433-5.187-3.042-3.85-3.042-8.054-3.042-14.763v-25.85h10.825v25.671c0 1.792 0 3.312.359 4.475 1.158 3.938 4.383 5.638 8.32 5.638 4.467 0 7.242-2.417 8.676-4.746 1.612-2.95 1.7-5.813 1.791-12.071v-18.967zM641.492 175.975h10.646v5.008c3.575-4.47 9.93-6.35 14.133-6.35 4.2 0 9.484 1.609 12.43 6.888 1.787-2.508 6.445-6.888 14.312-6.888 4.475 0 8.767 1.255 11.808 4.559 3.584 3.941 3.492 8.679 3.492 13.333V220.7h-10.646v-24.687c0-4.205.63-11.271-7.516-11.271-3.396 0-6.171 1.879-7.6 4.204-2.063 3.308-2.33 6.887-2.33 10.733V220.7h-10.645v-24.958c0-3.217 0-4.384-.359-5.725-.804-2.95-3.125-5.275-6.883-5.275-3.221 0-6.354 1.879-8.23 5.187-1.878 3.492-1.966 7.692-1.966 12.075V220.7h-10.646zM465.184 252.834l-13.513 20.758 15.3 23.975h-12.346l-9.304-14.138-8.946 14.138h-12.791l15.391-23.975-13.6-20.758h12.613l7.333 11.275 7.159-11.275zM500.3 268.671c-.804-2.954-3.933-7.604-10.108-7.604-6.17 0-11.092 4.92-11.092 13.867 0 8.054 4.205 13.954 11.271 13.954 6.8 0 9.392-5.188 10.738-8.767l9.212 4.83c-3.487 9.666-12.341 13.953-20.129 13.953-12.433 0-22.183-9.57-22.183-23.704 0-13.687 9.841-23.704 22.541-23.704 11.275 0 17 7.517 19.325 12.704zM523.459 234.409V257.4c3.4-3.4 8.05-5.904 14.225-5.904 5.537 0 9.837 2.146 12.254 4.83 3.662 3.937 3.754 8.495 3.754 13.6v27.64h-10.554v-24.603c-.18-4.021-.18-5.009-.717-6.35-.358-.896-1.883-4.921-7.783-4.921-6.888 0-10.104 5.546-10.82 8.142-.36 1.433-.36 2.145-.36 7.154v20.579h-10.733v-63.158zM591.355 275.292c-2.142 1.07-4.559 1.875-9.392 2.68-3.842.537-8.946 1.432-8.946 6.174 0 3.488 2.954 5.275 7.246 5.275 5.458 0 9.308-2.5 10.47-5.187.622-1.338.622-2.68.622-4.025zm-27.638-9.304c.18-2.238.358-4.117 1.792-6.709 4.287-7.783 14.933-7.783 17.796-7.783 4.295 0 9.483.538 13.42 2.863 5.28 3.22 5.371 7.425 5.371 12.254v23.704c0 3.404 0 4.562 1.963 7.25h-12.704c-.092-1.075-.271-2.867-.271-3.488-2.317 1.963-7.063 4.555-13.23 4.555-10.108 0-16.195-6.255-16.195-13.95 0-2.234.537-4.296 1.433-6.084 3.221-6.441 10.104-7.87 14.404-8.675 9.213-1.879 9.925-2.058 13.859-3.312 0-2.238-.18-6.796-7.6-6.796-4.471 0-6.888 1.429-7.963 2.862-1.162 1.43-1.07 2.68-1.07 3.934zM611.805 252.834h10.825v5.283a12.427 12.427 0 013.491-3.492c2.684-1.966 6.792-3.129 10.284-3.129 5.104 0 9.483 2.325 11.72 5.367 2.776 3.754 2.776 8.587 2.776 14.404v26.3h-10.646v-22.813c0-3.308 0-5.545-.359-6.8-.983-3.933-3.85-5.991-7.341-5.991-3.48 0-6.704 2.058-8.225 5.008-1.7 3.313-1.7 7.875-1.7 11.18v19.416h-10.825zM679.846 261.067c-5.454 0-11.004 3.667-11.004 12.254 0 7.783 4.746 11.808 11.096 11.808 5.73 0 10.913-3.129 11-11.358.092-7.25-3.85-12.704-11.092-12.704zm21.467-8.233v36.679c-.087 8.858-.087 12.433-2.862 16.196-2.5 3.308-8.05 6.791-18.605 6.791-15.925 0-19.05-6.883-20.57-14.041h11.808c.804 2.591 2.683 5.545 9.12 5.545 5.463 0 7.872-2.145 8.855-3.579 1.612-2.233 1.612-4.829 1.612-10.287-2.329 2.15-6.975 4.829-13.42 4.829-10.555 0-19.409-7.154-19.409-21.375 0-16.638 11.896-22.096 20.125-22.096 8.059 0 11.45 4.383 12.704 5.992v-4.654zM741.005 269.475c-.988-6.975-5.284-9.387-10.017-9.387-5.73 0-9.67 3.304-10.925 9.387zm12.166 18.067c-5.55 7.425-12.704 11.362-21.833 11.362-11.72 0-22.992-7.42-22.992-23.883 0-15.025 9.667-23.525 22.284-23.525 11.808 0 16.72 7.067 17.616 8.413 3.671 5.183 4.475 12.966 4.567 17.437h-33.108c1.254 7.067 5.641 11.092 12.704 11.092 7.342 0 10.287-4.292 11.63-6.167zM506.117 38.892c-.987-6.98-5.283-9.392-10.02-9.392-5.73 0-9.667 3.308-10.917 9.392zm12.167 18.07c-5.55 7.426-12.704 11.363-21.834 11.363-11.716 0-22.987-7.43-22.987-23.887 0-15.025 9.662-23.525 22.28-23.525 11.807 0 16.72 7.066 17.616 8.408 3.67 5.187 4.475 12.97 4.566 17.446h-33.104c1.254 7.066 5.638 11.091 12.704 11.091 7.338 0 10.288-4.295 11.63-6.175zM526.338 22.254h10.825v5.275a12.514 12.514 0 013.487-3.483c2.68-1.971 6.8-3.133 10.292-3.133 5.092 0 9.48 2.325 11.717 5.366 2.766 3.759 2.766 8.588 2.766 14.404V66.98H554.78V44.171c0-3.308 0-5.546-.355-6.8-.987-3.938-3.841-5.992-7.333-5.992s-6.717 2.054-8.233 5.009c-1.696 3.308-1.696 7.87-1.696 11.183v19.408h-10.825zM603.771 38.088c-.804-2.95-3.937-7.605-10.108-7.605-6.175 0-11.096 4.921-11.096 13.867 0 8.05 4.204 13.954 11.275 13.954 6.796 0 9.392-5.187 10.738-8.766l9.212 4.829c-3.492 9.662-12.346 13.958-20.129 13.958-12.433 0-22.188-9.575-22.188-23.708 0-13.688 9.846-23.704 22.542-23.704 11.28 0 17 7.512 19.325 12.7zM626.926 3.825v22.992c3.395-3.4 8.05-5.904 14.225-5.904 5.541 0 9.837 2.145 12.25 4.829 3.666 3.937 3.758 8.5 3.758 13.596v27.641h-10.554v-24.6c-.18-4.025-.18-5.008-.717-6.35-.358-.891-1.88-4.92-7.78-4.92-6.895 0-10.107 5.545-10.824 8.141-.358 1.433-.358 2.146-.358 7.158V66.98h-10.734V3.825z"/></g><path d="M404.346 121.208l-8.675-29.07-8.77 29.07zm3.133 10.288h-23.704l-3.67 12.346h-12.613l21.287-63.154H402.2l21.559 63.154h-12.617zM432.442 157.546V220.7h-11.537l1.062-51.883-13.592 51.883H397.73l-13.687-51.883 1.167 51.883h-11.542v-63.154h17.17l12.347 46.875 12.079-46.875zM385.475 244.967v14.85h30.413v10.196h-30.413v16.908h35.517v10.646h-47.146v-63.158h44.909v10.558zM385.83 30.125h26.387v10.108h-26.388V66.98h-11.716V3.825h41.775v10.558h-30.059zM433.775 13.896v19.77h4.117c4.03 0 5.55-.091 7.783-.178 2.596-.088 11.092-.538 11.092-9.75 0-1.342-.087-5.996-5.008-8.5-2.509-1.255-5.546-1.342-12.525-1.342zM422.06 3.7h20.129c8.408.088 14.042.088 19.587 4.558 3.938 3.221 6.98 8.234 6.98 15.567 0 12.075-8.855 16.283-12.434 17.354l14.046 25.675h-13.508l-12.525-23.437h-10.559v23.437H422.06z" fill="#717174"/></g></svg>