<svg clip-rule="evenodd" fill-rule="evenodd" stroke-linejoin="round" stroke-miterlimit="2" viewBox="0 0 3300 3300" xmlns="http://www.w3.org/2000/svg"><g fill="#231f20" fill-rule="nonzero"><path d="M1531.776 1496.83c-37.304-33.966-51.233-90.383-27.875-145.45 26.617-62.75 78.621-125.504 107.08-156.379 0 0 .608-1.046.787-.854.18-.192.787.854.787.854 28.459 30.875 80.463 93.63 107.08 156.38 23.362 55.066 9.429 111.483-27.875 145.45 73.225-38.467 106.512-124.742 68.629-208.6-36.671-81.188-108.325-162.38-147.534-202.326 0 0-.841-1.354-1.087-1.104-.246-.25-1.088 1.104-1.088 1.104-39.204 39.946-110.858 121.138-147.533 202.325-37.883 83.859-4.596 170.134 68.63 208.6z"/><path d="M1602.393 1375.797c-.98-1.47-1.975-3.37-3.354-4.388-1.521-1.125-10.504-.487-11.709-.987-1.129-.467-1.295-3.467-3.47-3.963-2.2-.483-3.505.28-3.334 1.142.259 1.508.409 13.913 1.367 14.4.967.504 8.175-.883 9.617-.137 1.466.737 4.379 3.12 4.612 5.087.233 1.954 0 26.55 0 26.55s-.687 8.404.28 8.9c.974.492 2.65-2.02 3.64-2.25.947-.242 3.118-.475 3.6-1.704.493-1.233-.495-3.125-.978-5.088-.471-1.958.7-36.087-.271-37.562z"/><path d="M1602.393 1375.797c-.98-1.47-1.975-3.37-3.354-4.388-1.521-1.125-10.504-.487-11.709-.987-1.129-.467-1.295-3.467-3.47-3.963-2.2-.483-3.505.28-3.334 1.142.259 1.508.409 13.913 1.367 14.4.967.504 8.175-.883 9.617-.137 1.466.737 4.379 3.12 4.612 5.087.233 1.954 0 26.55 0 26.55s-.687 8.404.28 8.9c.974.492 2.65-2.02 3.64-2.25.947-.242 3.118-.475 3.6-1.704.493-1.233-.495-3.125-.978-5.088-.471-1.958.7-36.087-.271-37.562zM1572.435 1384.543c.729-.73 1.316-2.4.4-4.517-.955-2.267-5.588-7.892-7.238-8.896-3.492-2.125-19.717-.462-21.892-.708-2.179-.242-2.545-1.87-2.783-3.1-.246-1.23-4.47-1.138-5.587-.154-1.109.987 1.037 12.741 1.266 13.708.396 1.725 18.334-.687 20.767-.192 2.412.48 6.3 4.117 7.987 7.346 1.917 3.725 1.467 21.709 1.213 23.909-.233 2.208.796 4.708-.43 5.941-1.203 1.225-1.487 4.071-.253 4.8 1.2.746 5.558-1.27 7.65-3.096.25-2.204-.275-3.391-1.259-6.083-.97-2.692-.579-28.22.159-28.958z"/><path d="M1572.435 1384.543c.729-.73 1.316-2.4.4-4.517-.955-2.267-5.588-7.892-7.238-8.896-3.492-2.125-19.717-.462-21.892-.708-2.179-.242-2.545-1.87-2.783-3.1-.246-1.23-4.47-1.138-5.587-.154-1.109.987 1.037 12.741 1.266 13.708.396 1.725 18.334-.687 20.767-.192 2.412.48 6.3 4.117 7.987 7.346 1.917 3.725 1.467 21.709 1.213 23.909-.233 2.208.796 4.708-.43 5.941-1.203 1.225-1.487 4.071-.253 4.8 1.2.746 5.558-1.27 7.65-3.096.25-2.204-.275-3.391-1.259-6.083-.97-2.692-.579-28.22.159-28.958zM1681.589 1370.564c-1.933.262-7.68.141-7.68.141-2.191-.216-.924-2.946-2.366-3.666-1.458-.742-5.05-.838-5.3.129-.25.987.43 1.746.913 3.712.479 1.963-.913 9.571.066 10.275.8.58 5.254-.416 5.988.575.733.971.491 17.563.241 20.513-.254 2.946-2.208 19.87-1.22 19.87 2.104 0 2.666-2.233 3.858-2.483 1.225-.241 5.512.18 4.8-1.05-.73-1.216-1.563-19.779-1.525-21.741.012-2.18-.15-14.905.829-15.405.958-.479 5.296.146 6.954 1.267 1.675 1.125 1.759-7.854.563-9.32-1.204-1.467-4.204-3.06-6.121-2.817z"/><path d="M1681.589 1370.564c-1.933.262-7.68.141-7.68.141-2.191-.216-.924-2.946-2.366-3.666-1.458-.742-5.05-.838-5.3.129-.25.987.43 1.746.913 3.712.479 1.963-.913 9.571.066 10.275.8.58 5.254-.416 5.988.575.733.971.491 17.563.241 20.513-.254 2.946-2.208 19.87-1.22 19.87 2.104 0 2.666-2.233 3.858-2.483 1.225-.241 5.512.18 4.8-1.05-.73-1.216-1.563-19.779-1.525-21.741.012-2.18-.15-14.905.829-15.405.958-.479 5.296.146 6.954 1.267 1.675 1.125 1.759-7.854.563-9.32-1.204-1.467-4.204-3.06-6.121-2.817zM1646.168 1370.989c-2.27-.971-18.688.562-23.43-.138-1.433-.217.022-4.146-2.65-4.392-2.624-.237-5.578 1.105-4.874 2.13 1.533 2.262 1.179 12.891 2.379 13.141 1.204.246 17.133-1.32 20.075-.446 5.562 1.696 8.633 6.796 10.042 10.18.55 1.379 3.337 16.379 1.804 18.37-1.738 2.242-31.78 1.275-31.78 1.275s-2.654-.941-2.654.83c0 3.245-3.616 7.783-2.558 8.925.946 1.041 3.217-.167 6.592-.167 3.387 0 27.825.987 30.154-.333 2.625-1.488 6.587-8.367 7.075-10.825.475-2.442-1.254-23.73-2.646-28.805-.696-2.554-4.887-8.608-7.529-9.745z"/><path d="M1646.168 1370.989c-2.27-.971-18.688.562-23.43-.138-1.433-.217.022-4.146-2.65-4.392-2.624-.237-5.578 1.105-4.874 2.13 1.533 2.262 1.179 12.891 2.379 13.141 1.204.246 17.133-1.32 20.075-.446 5.562 1.696 8.633 6.796 10.042 10.18.55 1.379 3.337 16.379 1.804 18.37-1.738 2.242-31.78 1.275-31.78 1.275s-2.654-.941-2.654.83c0 3.245-3.616 7.783-2.558 8.925.946 1.041 3.217-.167 6.592-.167 3.387 0 27.825.987 30.154-.333 2.625-1.488 6.587-8.367 7.075-10.825.475-2.442-1.254-23.73-2.646-28.805-.696-2.554-4.887-8.608-7.529-9.745zM1611.768 1541.126c-58.975-.612-131.454-10.741-164.821-23.629 8.508 6.2 51.42 50.33 164.35 54.504v.046l.471-.025.475.025v-.046c112.925-4.175 155.838-48.304 164.35-54.504-33.367 12.888-105.85 23.017-164.825 23.63zM373.596 1823.822c.221-1.791 1.567-3.358 4.03-3.358h3.583c1.791 0 3.133.896 3.808 2.237l49.267 105.696h.67l49.267-105.696c.671-1.341 1.792-2.237 3.804-2.237h3.584c2.466 0 3.808 1.567 4.029 3.358l26.43 150.48c.67 3.141-1.126 5.154-4.034 5.154h-20.38c-2.016 0-3.804-1.792-4.254-3.359l-13.212-84.866h-.67l-39.188 88.004c-.446 1.346-1.792 2.458-3.809 2.458h-4.029c-2.017 0-3.133-1.112-3.808-2.458l-39.638-88.004h-.67l-12.988 84.866c-.225 1.567-2.017 3.359-4.034 3.359H351.2c-2.912 0-4.7-2.013-4.25-5.154zM548.98 1894.139c0-2.237 2.016-4.254 4.254-4.254h12.762c2.238 0 4.254 2.017 4.254 4.254v45.904c0 14.559 6.942 22.396 18.363 22.396 13.212 0 21.5-10.75 22.17-14.783v-53.517c0-3.583 1.792-4.254 4.926-4.254h11.646c2.237 0 4.254 2.017 4.254 4.254v81.067c0 2.237-2.017 4.25-4.254 4.25h-6.271c-2.242 0-3.359-1.563-4.03-3.58l-2.237-6.5c-2.017 1.796-11.425 12.317-29.562 12.317-26.871 0-36.275-19.033-36.275-42.32zM658.73 1967.814l4.704-8.737c.896-1.788 3.358-2.459 5.596-1.113 0 0 9.854 5.817 20.829 5.817 6.717 0 10.97-2.688 10.97-7.613 0-6.046-4.924-8.954-17.241-14.554-13.883-6.046-25.53-14.558-25.53-29.333 0-11.2 9.184-24.638 30.68-24.638 12.542 0 21.946 4.03 26.42 6.946 2.018 1.342 3.138 4.254 1.797 6.492l-4.034 7.612c-1.12 2.013-4.029 2.688-5.82 1.792 0 0-9.855-4.704-18.363-4.704-7.612 0-10.08 3.362-10.08 6.72 0 5.821 5.6 8.284 14.334 12.096 16.346 7.163 29.784 14.1 29.784 30.9 0 13.88-13.213 26.196-33.146 26.196-15 0-24.85-5.375-29.554-9.175-1.346-.896-2.242-2.912-1.346-4.704zM806.321 1924.818c-.67-10.75-9.633-19.929-20.604-19.929-12.091 0-21.496 8.733-22.841 19.93zm-41.65-67.85l-3.137-6.496a3.138 3.138 0 011.342-4.254l35.158-20.379c1.342-.892 4.704-1.342 5.82.67l5.15 9.85c1.122 2.247.45 4.484-1.34 5.38l-37.622 16.125c-3.133 1.562-4.479.892-5.37-.896zm21.271 30.675c23.288 0 41.204 17.467 41.204 41.43 0 1.562-.225 4.479-.45 6.045-.22 2.238-2.016 3.809-4.033 3.809H761.76c.67 12.087 11.196 23.962 25.75 23.962 8.062 0 15.454-3.587 19.93-6.5 2.687-1.562 4.253-2.458 6.05-.22l6.266 8.508c1.57 1.791 2.241 3.587-.446 5.825-6.496 5.595-18.138 11.191-33.142 11.191-27.096 0-45.012-21.27-45.012-47.025 0-25.304 17.916-47.025 44.787-47.025zM910.697 1924.818c-.675-10.75-9.634-19.929-20.605-19.929-12.091 0-21.5 8.733-22.841 19.93zm-20.38-37.175c23.288 0 41.205 17.467 41.205 41.43 0 1.562-.225 4.479-.45 6.045-.225 2.238-2.017 3.809-4.034 3.809H866.13c.67 12.087 11.2 23.962 25.75 23.962 8.062 0 15.454-3.587 19.933-6.5 2.688-1.562 4.254-2.458 6.046-.22l6.27 8.508c1.568 1.791 2.243 3.587-.445 5.825-6.496 5.595-18.137 11.191-33.142 11.191-27.1 0-45.012-21.27-45.012-47.025 0-25.304 17.912-47.025 44.787-47.025zM998.326 1826.96c0-2.242 2.016-4.259 4.254-4.259h20.825c2.462 0 4.258 2.017 4.258 4.259v59.337h73v-59.337c0-2.242 1.792-4.259 4.255-4.259h20.6c2.241 0 4.258 2.017 4.258 4.259v148.246c0 2.237-2.017 4.25-4.258 4.25h-20.6c-2.463 0-4.255-2.013-4.255-4.25v-61.809h-73v61.809c0 2.237-1.796 4.25-4.258 4.25h-20.825c-2.238 0-4.254-2.013-4.254-4.25zM1206.626 1962.44c14.108 0 25.304-12.538 25.304-27.993 0-15.004-11.196-27.32-25.304-27.32s-25.304 12.316-25.304 27.32c0 15.455 11.196 27.992 25.304 27.992zm0-74.797c25.08 0 45.233 21.5 45.233 46.804 0 25.755-20.154 47.246-45.233 47.246s-45.233-21.491-45.233-47.246c0-25.304 20.154-46.804 45.233-46.804zM1277.639 1826.96c0-2.242 2.016-4.259 4.254-4.259h12.762c2.238 0 4.254 2.017 4.254 4.259v148.246c0 2.237-2.016 4.25-4.254 4.25h-12.762c-2.238 0-4.254-2.013-4.254-4.25zM1369.91 1962.44c14.108 0 25.304-12.538 25.304-27.993 0-15.004-11.196-27.32-25.305-27.32s-25.308 12.316-25.308 27.32c0 15.455 11.2 27.992 25.308 27.992zm0-74.797c25.079 0 45.233 21.5 45.233 46.804 0 25.755-20.154 47.246-45.234 47.246-25.083 0-45.233-21.491-45.233-47.246 0-25.304 20.15-46.804 45.233-46.804zM1481.226 1887.643c13.663 0 24.188 5.6 32.471 15.9 1.57 2.017 1.12 4.704-.896 6.271l-7.387 6.72c-2.688 2.46-4.259.672-6.046-.903-4.033-4.471-10.53-8.504-17.917-8.504-14.554 0-25.979 12.316-25.979 27.541 0 15.454 11.2 27.771 25.754 27.771 11.421 0 16.125-5.82 20.83-10.3 2.012-2.017 4.029-2.017 6.045-.45l6.042 4.93c2.242 1.787 3.137 4.024 1.57 6.27-7.166 11.413-19.262 18.804-34.712 18.804-25.079 0-46.8-19.929-46.8-46.796 0-26.425 22.171-47.254 47.025-47.254zM1568.135 1965.797c8.958 0 17.466-6.72 20.154-11.195v-14.33c-1.342-.9-7.617-3.587-15.675-3.587-10.75 0-18.138 5.604-18.138 14.78 0 8.062 5.371 14.332 13.659 14.332zm2.687-42.995c9.404 0 17.688 2.687 17.688 2.687.225-14.108-2.463-19.708-13.88-19.708-10.3 0-20.379 2.691-25.083 4.033-2.687.67-4.254-1.12-4.925-3.58l-1.792-8.287c-.67-2.916.896-4.479 2.909-5.154 1.57-.67 14.333-5.15 30.904-5.15 28.667 0 31.354 17.467 31.354 39.863v47.7c0 2.237-2.017 4.25-4.258 4.25h-6.267c-2.017 0-2.912-.892-3.808-3.138l-2.242-6.037c-4.925 4.696-13.658 11.412-27.542 11.412-16.795 0-28.887-11.412-28.887-30.004 0-16.35 12.987-28.887 35.83-28.887zM1638.243 1894.139c0-2.237 2.017-4.254 4.254-4.254h12.767c2.237 0 4.254 2.017 4.254 4.254v45.904c0 14.559 6.942 22.396 18.363 22.396 13.212 0 21.495-10.75 22.17-14.783v-53.517c0-3.583 1.792-4.254 4.925-4.254h11.642c2.238 0 4.254 2.017 4.254 4.254v81.067c0 2.237-2.016 4.25-4.254 4.25h-6.267c-2.237 0-3.362-1.563-4.033-3.58l-2.237-6.5c-2.017 1.796-11.421 12.317-29.559 12.317-26.875 0-36.279-19.033-36.279-42.32zM1747.989 1967.814l4.704-8.737c.9-1.788 3.358-2.459 5.604-1.113 0 0 9.85 5.817 20.821 5.817 6.72 0 10.975-2.688 10.975-7.613 0-6.046-4.925-8.954-17.242-14.554-13.883-6.046-25.533-14.558-25.533-29.333 0-11.2 9.183-24.638 30.68-24.638 12.545 0 21.95 4.03 26.424 6.946 2.017 1.342 3.138 4.254 1.796 6.492l-4.033 7.612c-1.121 2.013-4.03 2.688-5.825 1.792 0 0-9.85-4.704-18.363-4.704-7.612 0-10.07 3.362-10.07 6.72 0 5.821 5.595 8.284 14.329 12.096 16.35 7.163 29.779 14.1 29.779 30.9 0 13.88-13.209 26.196-33.138 26.196-15.004 0-24.858-5.375-29.562-9.175-1.346-.896-2.238-2.912-1.346-4.704zM1842.735 1908.472h-9.404c-2.467 0-4.255-2.016-4.255-4.254v-10.079c0-2.467 1.788-4.254 4.255-4.254h9.404v-24.859c0-2.237 2.016-4.254 4.254-4.254l12.767-.22c2.237 0 4.029 2.012 4.029 4.25v25.083h22.837c2.467 0 4.255 1.787 4.255 4.254v10.08c0 2.237-1.788 4.253-4.255 4.253h-22.837v44.338c0 7.612 2.912 8.954 7.162 8.954 4.705 0 10.975-2.687 13.663-4.03 2.908-1.345 4.25 0 5.15 2.018l4.033 9.854c1.117 2.458.221 4.254-2.016 5.37-2.242 1.342-15.455 6.717-26.205 6.717-17.691 0-22.837-10.741-22.837-26.646zM1976.44 1924.818c-.676-10.75-9.63-19.929-20.605-19.929-12.092 0-21.492 8.733-22.838 19.93zm-20.38-37.175c23.292 0 41.208 17.467 41.208 41.43 0 1.562-.229 4.479-.45 6.045-.225 2.238-2.016 3.809-4.033 3.809h-60.908c.67 12.087 11.195 23.962 25.754 23.962 8.062 0 15.446-3.587 19.929-6.5 2.687-1.562 4.254-2.458 6.046-.22l6.27 8.508c1.563 1.791 2.238 3.587-.45 5.825-6.491 5.595-18.137 11.191-33.141 11.191-27.096 0-45.008-21.27-45.008-47.025 0-25.304 17.912-47.025 44.783-47.025zM2096.952 1823.822c.22-1.791 1.562-3.358 4.029-3.358h3.583c1.792 0 3.138.896 3.809 2.237l49.258 105.696h.68l49.262-105.696c.67-1.341 1.791-2.237 3.804-2.237h3.587c2.459 0 3.8 1.567 4.03 3.358l26.42 150.48c.671 3.141-1.116 5.154-4.033 5.154h-20.37c-2.018 0-3.81-1.792-4.26-3.359l-13.212-84.866h-.67l-39.184 88.004c-.45 1.346-1.796 2.458-3.812 2.458h-4.034c-2.012 0-3.129-1.112-3.8-2.458l-39.641-88.004h-.671l-12.988 84.866c-.225 1.567-2.016 3.359-4.025 3.359h-20.158c-2.909 0-4.704-2.013-4.254-5.154zM2312.185 1962.44c14.104 0 25.304-12.538 25.304-27.993 0-15.004-11.2-27.32-25.304-27.32-14.108 0-25.3 12.316-25.3 27.32 0 15.455 11.192 27.992 25.3 27.992zm0-74.797c25.084 0 45.234 21.5 45.234 46.804 0 25.755-20.15 47.246-45.234 47.246-25.079 0-45.237-21.491-45.237-47.246 0-25.304 20.158-46.804 45.237-46.804zM2383.202 1894.139c0-2.237 2.017-4.254 4.258-4.254h6.492c1.792 0 3.137 1.117 3.58 2.687l2.687 7.613c1.575-1.792 13.441-12.542 31.354-12.542 27.316 0 37.396 19.263 37.396 42.55v45.013c0 2.237-2.017 4.25-4.255 4.25h-12.762c-2.467 0-4.254-2.013-4.254-4.25v-45.909c0-14.337-6.942-22.17-18.588-22.17-14.108 0-23.737 10.3-24.858 13.437v54.642c0 2.908-1.346 4.25-5.146 4.25h-11.646c-2.241 0-4.258-2.013-4.258-4.25zM2505.494 1908.472h-9.409c-2.462 0-4.25-2.016-4.25-4.254v-10.079c0-2.467 1.788-4.254 4.25-4.254h9.409v-24.859c0-2.237 2.016-4.254 4.254-4.254l12.767-.22c2.237 0 4.029 2.012 4.029 4.25v25.083h22.837c2.467 0 4.254 1.787 4.254 4.254v10.08c0 2.237-1.787 4.253-4.254 4.253h-22.837v44.338c0 7.612 2.908 8.954 7.162 8.954 4.704 0 10.975-2.687 13.663-4.03 2.908-1.345 4.25 0 5.15 2.018l4.033 9.854c1.117 2.458.22 4.254-2.017 5.37-2.241 1.342-15.454 6.717-26.204 6.717-17.691 0-22.837-10.741-22.837-26.646zM2580.527 1894.139c0-2.237 2.013-4.254 4.258-4.254h6.492c1.563 0 3.358 1.346 3.808 3.133l2.459 7.617c1.575-2.242 9.858-12.992 26.204-12.992 8.508 0 18.808 2.242 16.35 8.288l-5.375 10.975c-1.125 2.458-3.363 2.908-5.38 2.016-1.34-.675-4.7-1.575-7.612-1.575-12.987 0-19.262 9.409-20.154 10.975v56.884c0 3.8-2.458 4.25-6.05 4.25h-10.742c-2.245 0-4.258-2.013-4.258-4.25zM2717.144 1924.818c-.671-10.75-9.63-19.929-20.6-19.929-12.096 0-21.496 8.733-22.838 19.93zm-41.65-67.85l-3.134-6.496c-.9-1.796 0-3.583 1.346-4.254l35.155-20.379c1.341-.892 4.7-1.342 5.825.67l5.145 9.85c1.121 2.247.45 4.484-1.345 5.38l-37.617 16.125c-3.134 1.562-4.475.892-5.375-.896zm21.27 30.675c23.297 0 41.209 17.467 41.209 41.43 0 1.562-.23 4.479-.45 6.045-.22 2.238-2.017 3.809-4.033 3.809h-60.909c.675 12.087 11.196 23.962 25.754 23.962 8.063 0 15.45-3.587 19.93-6.5 2.687-1.562 4.254-2.458 6.05-.22l6.266 8.508c1.567 1.791 2.238 3.587-.45 5.825-6.491 5.595-18.133 11.191-33.137 11.191-27.1 0-45.013-21.27-45.013-47.025 0-25.304 17.913-47.025 44.784-47.025zM2789.502 1965.797c8.963 0 17.467-6.72 20.154-11.195v-14.33c-1.341-.9-7.612-3.587-15.675-3.587-10.75 0-18.141 5.604-18.141 14.78 0 8.062 5.375 14.332 13.662 14.332zm2.688-42.995c9.404 0 17.691 2.687 17.691 2.687.225-14.108-2.462-19.708-13.883-19.708-10.3 0-20.38 2.691-25.083 4.033-2.688.67-4.25-1.12-4.925-3.58l-1.792-8.287c-.675-2.916.9-4.479 2.917-5.154 1.562-.67 14.329-5.15 30.9-5.15 28.662 0 31.35 17.467 31.35 39.863v47.7c0 2.237-2.017 4.25-4.254 4.25h-6.275c-2.017 0-2.909-.892-3.805-3.138l-2.241-6.037c-4.925 4.696-13.663 11.412-27.542 11.412-16.792 0-28.887-11.412-28.887-30.004 0-16.35 12.991-28.887 35.829-28.887zM2860.952 1826.96c0-2.242 2.013-4.259 4.259-4.259h12.758c2.246 0 4.254 2.017 4.254 4.259v148.246c0 2.237-2.008 4.25-4.254 4.25h-12.758c-2.246 0-4.259-2.013-4.259-4.25zM375.859 2055.968c.22-1.796 1.566-3.362 4.029-3.362h3.583c1.792 0 3.133.896 3.804 2.237l49.267 105.705h.67l49.272-105.705c.67-1.341 1.787-2.237 3.804-2.237h3.583c2.463 0 3.809 1.566 4.03 3.362l26.424 150.48c.675 3.137-1.12 5.15-4.029 5.15h-20.379c-2.017 0-3.808-1.792-4.254-3.359l-13.213-84.866h-.67l-39.192 88.004c-.446 1.346-1.788 2.458-3.804 2.458h-4.034c-2.012 0-3.133-1.112-3.804-2.458l-39.637-88.004h-.671l-12.988 84.866c-.225 1.567-2.016 3.359-4.033 3.359h-20.154c-2.913 0-4.704-2.013-4.254-5.15zM586.846 2194.58c14.109 0 25.304-12.537 25.304-27.987 0-15.008-11.195-27.325-25.304-27.325s-25.304 12.317-25.304 27.325c0 15.45 11.196 27.988 25.304 27.988zm0-74.795c25.08 0 45.234 21.504 45.234 46.808 0 25.75-20.155 47.242-45.234 47.242s-45.233-21.492-45.233-47.242c0-25.304 20.154-46.808 45.233-46.808zM653.6 2126.28c0-2.237 2.017-4.253 4.255-4.253h6.491c1.792 0 3.138 1.116 3.588 2.687l2.687 7.613c1.563-1.792 13.434-12.542 31.346-12.542 27.321 0 37.4 19.263 37.4 42.554v45.009c0 2.237-2.016 4.25-4.254 4.25h-12.767c-2.462 0-4.254-2.013-4.254-4.25v-45.905c0-14.337-6.941-22.175-18.587-22.175-14.104 0-23.734 10.3-24.859 13.438v54.642c0 2.908-1.341 4.25-5.15 4.25h-11.641c-2.238 0-4.254-2.013-4.254-4.25zM771.642 2140.614h-9.408c-2.463 0-4.254-2.016-4.254-4.254v-10.08c0-2.466 1.791-4.253 4.254-4.253h9.408v-24.859c0-2.237 2.013-4.254 4.25-4.254l12.767-.22c2.237 0 4.03 2.016 4.03 4.254v25.079h22.84c2.467 0 4.26 1.787 4.26 4.254v10.079c0 2.238-1.793 4.254-4.26 4.254h-22.84v44.338c0 7.612 2.912 8.958 7.166 8.958 4.704 0 10.975-2.687 13.658-4.033 2.913-1.346 4.258 0 5.154 2.016l4.03 9.855c1.12 2.462.224 4.254-2.017 5.37-2.238 1.342-15.45 6.717-26.196 6.717-17.692 0-22.842-10.742-22.842-26.646zM842.417 2126.28c0-2.237 2.017-4.253 4.255-4.253h6.495c1.567 0 3.359 1.346 3.805 3.133l2.466 7.617c1.567-2.242 9.85-12.992 26.196-12.992 8.513 0 18.813 2.242 16.35 8.292l-5.375 10.97c-1.12 2.459-3.358 2.909-5.37 2.017-1.347-.675-4.705-1.575-7.617-1.575-12.988 0-19.259 9.409-20.155 10.98v56.879c0 3.8-2.462 4.25-6.045 4.25h-10.75c-2.238 0-4.255-2.013-4.255-4.25zM974.784 2156.96c-.67-10.746-9.633-19.925-20.604-19.925-12.092 0-21.496 8.733-22.842 19.925zm-20.38-37.175c23.288 0 41.205 17.467 41.205 41.43 0 1.57-.225 4.478-.45 6.05-.22 2.237-2.017 3.808-4.029 3.808h-60.908c.67 12.083 11.195 23.958 25.75 23.958 8.062 0 15.454-3.588 19.933-6.5 2.687-1.563 4.25-2.458 6.046-.22l6.266 8.507c1.571 1.792 2.242 3.588-.445 5.825-6.492 5.596-18.142 11.192-33.142 11.192-27.096 0-45.008-21.27-45.008-47.025 0-25.304 17.912-47.025 44.783-47.025zM1042.88 2197.94c8.954 0 17.463-6.717 20.15-11.192v-14.33c-1.342-.9-7.612-3.591-15.675-3.591-10.75 0-18.138 5.604-18.138 14.779 0 8.067 5.371 14.333 13.663 14.333zm2.688-42.997c9.4 0 17.687 2.688 17.687 2.688.225-14.108-2.462-19.704-13.883-19.704-10.3 0-20.38 2.687-25.084 4.029-2.687.67-4.25-1.121-4.925-3.575l-1.787-8.292c-.675-2.912.891-4.479 2.908-5.15 1.567-.675 14.33-5.154 30.904-5.154 28.663 0 31.35 17.467 31.35 39.863v47.7c0 2.237-2.02 4.25-4.254 4.25h-6.27c-2.021 0-2.917-.892-3.805-3.138l-2.241-6.037c-4.925 4.695-13.663 11.412-27.546 11.412-16.796 0-28.884-11.412-28.884-30 0-16.354 12.988-28.892 35.83-28.892zM1110.08 2059.106c0-2.246 2.013-4.263 4.25-4.263h12.767c2.237 0 4.254 2.017 4.254 4.263v148.242c0 2.237-2.017 4.25-4.254 4.25h-12.767c-2.237 0-4.25-2.013-4.25-4.25zM1213.772 2059.106c0-2.246 2.016-4.263 4.254-4.263h20.825c2.462 0 4.258 2.017 4.258 4.263v59.333h73v-59.333c0-2.246 1.792-4.263 4.255-4.263h20.6c2.241 0 4.258 2.017 4.258 4.263v148.242c0 2.237-2.017 4.25-4.258 4.25h-20.6c-2.463 0-4.255-2.013-4.255-4.25v-61.805h-73v61.805c0 2.237-1.796 4.25-4.258 4.25h-20.825c-2.238 0-4.254-2.013-4.254-4.25zM1417.818 2194.58c14.104 0 25.304-12.537 25.304-27.987 0-15.008-11.2-27.325-25.304-27.325-14.113 0-25.309 12.317-25.309 27.325 0 15.45 11.196 27.988 25.309 27.988zm0-74.795c25.079 0 45.233 21.504 45.233 46.808 0 25.75-20.154 47.242-45.233 47.242-25.084 0-45.238-21.492-45.238-47.242 0-25.304 20.154-46.808 45.238-46.808zM1484.572 2059.106c0-2.246 2.017-4.263 4.254-4.263h12.767c2.237 0 4.254 2.017 4.254 4.263v148.242c0 2.237-2.017 4.25-4.254 4.25h-12.767c-2.237 0-4.254-2.013-4.254-4.25zM1572.585 2194.58c14.108 0 25.304-12.537 25.304-27.987 0-15.008-11.196-27.325-25.304-27.325s-25.305 12.317-25.305 27.325c0 15.45 11.196 27.988 25.305 27.988zm0-74.795c25.079 0 45.233 21.504 45.233 46.808 0 25.75-20.154 47.242-45.233 47.242s-45.234-21.492-45.234-47.242c0-25.304 20.154-46.808 45.234-46.808zM1679.651 2119.785c13.659 0 24.184 5.604 32.467 15.904 1.57 2.013 1.12 4.7-.896 6.267l-7.387 6.72c-2.688 2.46-4.254.676-6.05-.9-4.03-4.47-10.521-8.508-17.913-8.508-14.554 0-25.975 12.317-25.975 27.542 0 15.454 11.196 27.77 25.754 27.77 11.417 0 16.125-5.82 20.821-10.3 2.017-2.016 4.034-2.016 6.05-.445l6.046 4.925c2.238 1.788 3.138 4.025 1.567 6.27-7.163 11.418-19.259 18.805-34.709 18.805-25.079 0-46.8-19.925-46.8-46.796 0-26.425 22.167-47.254 47.025-47.254zM1762.293 2197.94c8.967 0 17.47-6.717 20.158-11.192v-14.33c-1.341-.9-7.612-3.591-15.675-3.591-10.75 0-18.141 5.604-18.141 14.779 0 8.067 5.375 14.333 13.658 14.333zm2.688-42.997c9.408 0 17.691 2.688 17.691 2.688.23-14.108-2.458-19.704-13.879-19.704-10.3 0-20.38 2.687-25.083 4.029-2.688.67-4.254-1.121-4.925-3.575l-1.792-8.292c-.675-2.912.9-4.479 2.913-5.15 1.566-.675 14.333-5.154 30.904-5.154 28.662 0 31.35 17.467 31.35 39.863v47.7c0 2.237-2.017 4.25-4.254 4.25h-6.275c-2.017 0-2.909-.892-3.805-3.138l-2.241-6.037c-4.925 4.695-13.663 11.412-27.542 11.412-16.792 0-28.887-11.412-28.887-30 0-16.354 12.987-28.892 35.825-28.892zM1828.156 2126.28c0-2.237 2.016-4.253 4.258-4.253h12.758c2.246 0 4.263 2.016 4.263 4.254v45.904c0 14.563 6.941 22.396 18.354 22.396 13.217 0 21.504-10.746 22.175-14.783v-53.517c0-3.58 1.792-4.254 4.925-4.254h11.642c2.237 0 4.254 2.016 4.254 4.254v81.067c0 2.237-2.017 4.25-4.254 4.25h-6.267c-2.237 0-3.358-1.563-4.033-3.58l-2.238-6.495c-2.012 1.791-11.42 12.312-29.554 12.312-26.88 0-36.283-19.033-36.283-42.317zM1933.652 2199.956l4.704-8.733c.9-1.788 3.358-2.463 5.6-1.117 0 0 9.85 5.817 20.825 5.817 6.716 0 10.97-2.688 10.97-7.613 0-6.046-4.924-8.954-17.241-14.554-13.88-6.046-25.533-14.558-25.533-29.333 0-11.2 9.187-24.638 30.679-24.638 12.546 0 21.954 4.03 26.429 6.946 2.012 1.346 3.137 4.254 1.792 6.492l-4.03 7.612c-1.125 2.017-4.033 2.688-5.825 1.792 0 0-9.85-4.7-18.366-4.7-7.613 0-10.071 3.362-10.071 6.716 0 5.825 5.6 8.288 14.333 12.096 16.346 7.163 29.78 14.104 29.78 30.9 0 13.884-13.213 26.196-33.138 26.196-15.004 0-24.863-5.375-29.567-9.175-1.341-.896-2.237-2.912-1.341-4.704zM2024.135 2140.614h-9.404c-2.467 0-4.254-2.016-4.254-4.254v-10.08c0-2.466 1.787-4.253 4.254-4.253h9.404v-24.859c0-2.237 2.017-4.254 4.254-4.254l12.767-.22c2.237 0 4.029 2.016 4.029 4.254v25.079h22.837c2.467 0 4.255 1.787 4.255 4.254v10.079c0 2.238-1.788 4.254-4.255 4.254h-22.837v44.338c0 7.612 2.912 8.958 7.162 8.958 4.705 0 10.975-2.687 13.663-4.033 2.908-1.346 4.25 0 5.154 2.016l4.03 9.855c1.116 2.462.22 4.254-2.017 5.37-2.242 1.342-15.455 6.717-26.205 6.717-17.691 0-22.837-10.742-22.837-26.646zM2165.464 2055.968c.217-1.796 1.563-3.362 4.025-3.362h3.588c1.796 0 3.137.896 3.808 2.237l49.267 105.705h.67l49.263-105.705c.671-1.341 1.796-2.237 3.804-2.237h3.588c2.458 0 3.804 1.566 4.033 3.362l26.417 150.48c.67 3.137-1.113 5.15-4.03 5.15h-20.374c-2.013 0-3.809-1.792-4.259-3.359l-13.208-84.866h-.675l-39.183 88.004c-.45 1.346-1.796 2.458-3.809 2.458h-4.033c-2.017 0-3.13-1.112-3.804-2.458l-39.642-88.004h-.67l-12.988 84.866c-.225 1.567-2.017 3.359-4.025 3.359h-20.159c-2.908 0-4.708-2.013-4.254-5.15zM2336.585 2126.28c0-2.237 2.017-4.253 4.259-4.253h12.758c2.246 0 4.262 2.016 4.262 4.254v45.904c0 14.563 6.942 22.396 18.355 22.396 13.216 0 21.504-10.746 22.175-14.783v-53.517c0-3.58 1.791-4.254 4.925-4.254h11.641c2.238 0 4.254 2.016 4.254 4.254v81.067c0 2.237-2.016 4.25-4.254 4.25h-6.266c-2.238 0-3.359-1.563-4.034-3.58l-2.237-6.495c-2.013 1.791-11.421 12.312-29.554 12.312-26.88 0-36.284-19.033-36.284-42.317zM2442.081 2199.956l4.7-8.733c.904-1.788 3.363-2.463 5.604-1.117 0 0 9.85 5.817 20.825 5.817 6.717 0 10.971-2.688 10.971-7.613 0-6.046-4.925-8.954-17.242-14.554-13.879-6.046-25.533-14.558-25.533-29.333 0-11.2 9.188-24.638 30.68-24.638 12.545 0 21.953 4.03 26.428 6.946 2.013 1.346 3.138 4.254 1.792 6.492l-4.029 7.612c-1.125 2.017-4.033 2.688-5.825 1.792 0 0-9.85-4.7-18.367-4.7-7.612 0-10.07 3.362-10.07 6.716 0 5.825 5.595 8.288 14.333 12.096 16.346 7.163 29.779 14.104 29.779 30.9 0 13.884-13.213 26.196-33.142 26.196-15 0-24.858-5.375-29.562-9.175-1.342-.896-2.238-2.912-1.342-4.704zM2585.419 2156.96c-.675-10.746-9.63-19.925-20.604-19.925-12.092 0-21.492 8.733-22.838 19.925zm-20.38-37.175c23.292 0 41.205 17.467 41.205 41.43 0 1.57-.225 4.478-.45 6.05-.221 2.237-2.013 3.808-4.03 3.808h-60.908c.671 12.083 11.196 23.958 25.754 23.958 8.063 0 15.446-3.588 19.93-6.5 2.687-1.563 4.254-2.458 6.045-.22l6.271 8.507c1.563 1.792 2.238 3.588-.45 5.825-6.491 5.596-18.137 11.192-33.141 11.192-27.096 0-45.009-21.27-45.009-47.025 0-25.304 17.913-47.025 44.784-47.025zM2625.515 2126.28c0-2.237 2.016-4.253 4.262-4.253h12.758c2.246 0 4.259 2.016 4.259 4.254v45.904c0 14.563 6.941 22.396 18.358 22.396 13.217 0 21.5-10.746 22.171-14.783v-53.517c0-3.58 1.796-4.254 4.925-4.254h11.646c2.237 0 4.254 2.016 4.254 4.254v81.067c0 2.237-2.017 4.25-4.254 4.25h-6.271c-2.238 0-3.358-1.563-4.03-3.58l-2.237-6.495c-2.016 1.791-11.42 12.312-29.558 12.312-26.875 0-36.283-19.033-36.283-42.317zM2736.386 2126.28c0-2.237 2.016-4.253 4.262-4.253h6.267c2.016 0 3.133 1.116 3.804 2.687l2.467 7.613c2.012-2.013 12.316-12.542 29.554-12.542 12.987 0 22.396 5.154 28.891 14.33 2.463-2.46 15.45-14.33 32.467-14.33 27.321 0 36.95 19.263 36.95 42.554v45.009c0 2.237-1.787 4.25-4.254 4.25h-12.538c-2.466 0-4.258-2.013-4.258-4.25v-45.905c0-14.112-6.492-22.175-18.587-22.175-13.659 0-21.492 9.63-23.067 10.971.45 2.017.675 6.271.675 10.754v46.355c0 2.237-2.017 4.25-4.254 4.25h-11.867c-2.467 0-4.254-2.013-4.254-4.25v-45.905c0-14.337-6.496-22.175-19.033-22.175-13.438 0-21.05 10.521-22.175 13.438v54.642c0 2.237-2.013 4.25-4.25 4.25h-12.538c-2.246 0-4.262-2.013-4.262-4.25z"/></g></svg>