<svg fill="none" height="460" viewBox="0 0 648 460" width="648" xmlns="http://www.w3.org/2000/svg"><path d="m161.643 441.005h9.83408v9.83408h-9.83408z" fill="#d9aa3e"/><path d="m414.107 441.005h9.83408v9.83408h-9.83408z" fill="#d9aa3e"/><g fill="#fff"><path d="m15.5447 438.563h-5.0126v-9.915c0-2.424.661-3.525 3.6355-3.525h4.1313c4.1312 0 5.0125 2.203 6.2243 6.004.661.11 1.2669 0 1.8178-.276-.2754-2.258-1.1017-7.546-1.2119-7.987 0-.11-.055-.165-.2203-.165-.9364.165-1.3771.22-2.6991.22h-14.04612c-1.70757 0-4.90239-.055-7.10571-.11-.330497.331-.330497 1.487 0 1.818 3.85581.165 4.79222.441 4.79222 5.013v22.088c0 4.572-.93641 4.847-4.79222 5.012-.330497.331-.330497 1.488 0 1.818 2.03807-.055 5.34305-.11 7.16079-.11h11.84284c2.644 0 7.0506.11 7.0506.11.7712-2.754 1.5974-6.39 2.0381-9.199-.6059-.275-1.2118-.44-1.9279-.275-1.1017 3.966-3.0296 7.216-7.2159 7.216h-6.3896c-2.3135 0-3.0847-.882-3.0847-3.471v-12.173h5.0126c4.6821 0 4.8473 1.267 5.0126 3.746.3305.33 1.4872.33 1.8177 0-.0551-1.432-.1102-2.92-.1102-4.848 0-1.542.0551-3.415.1102-4.737-.3305-.33-1.4872-.33-1.8177 0-.1653 3.03-.3305 3.746-5.0126 3.746z"/><path d="m35.9607 451.728c0 4.572-.6059 4.847-3.966 5.012-.3305.331-.3305 1.488 0 1.818 1.9279-.055 3.966-.11 6.1693-.11s4.2965.055 6.1142.11c.3305-.33.3305-1.487 0-1.818-3.36-.165-3.9659-.44-3.9659-5.012v-25.393c0-3.581.2203-5.784.2203-5.784 0-.386-.2203-.551-.7161-.551-1.3771.551-5.5083 1.322-7.7116 1.487-.1102.441 0 1.322.3305 1.653 3.1948.22 3.5253.385 3.5253 4.517z"/><path d="m54.8361 438.453c1.4322-1.267 3.0846-1.763 4.6821-1.763 3.36 0 6.1142 4.076 6.1142 9.419 0 6.28-2.5339 11.017-7.7667 11.017-1.7076 0-2.8644-1.212-3.966-2.589v-13.771c0-1.156.2203-1.652.9364-2.313zm-.3856-1.708c-.3856.331-.5508.221-.5508-.275v-10.135c0-3.581.2203-5.784.2203-5.784 0-.386-.2203-.551-.7161-.551-1.377.551-5.5083 1.322-7.7116 1.487-.1101.441 0 1.322.3305 1.653 2.8643.165 3.5253-.11 3.5253 4.517v26.88c0 2.148-.0551 3.14-.2203 3.911.2754.441.5508.661 1.2118.661.3305-.275.8814-.826 1.2669-1.322.6059-.661.9364-.661 1.5424-.11 1.2118 1.046 2.8643 1.322 4.8473 1.322 5.6184 0 12.1733-5.123 12.1733-13.881 0-6.72-4.9575-10.852-9.7497-10.852-2.3686 0-4.4617.937-6.1693 2.479z"/><path d="m79.7848 442.915c1.0466-6.225 4.9024-6.721 6.2244-6.721 2.0932 0 4.5719 1.157 4.5719 5.784 0 .496-.2203.771-.8262.771zm14.4318 10.41c-2.0381 2.093-3.6355 2.975-6.8303 2.975-1.983 0-4.2965-1.157-6.0041-3.966-1.1016-1.818-1.7626-4.352-1.7626-7.547l14.6521.111c.661 0 1.0465-.331 1.0465-.937 0-4.627-1.6525-9.584-9.309-9.584-4.7922 0-11.0166 4.572-11.0166 12.944 0 3.085.7712 6.059 2.5889 8.152 1.8728 2.204 4.4617 3.526 8.4277 3.526 4.1863 0 7.1608-1.928 9.3641-4.792-.1652-.551-.4957-.827-1.1567-.882z"/><path d="m109.544 458.999c2.149 0 4.737-1.102 7.436-3.305.276-.221.772-.331.827.055.11 1.432.606 3.25.606 3.25.44.165.661.165 1.046 0 1.212-.992 3.14-1.818 6.5-2.204.331-.33.331-1.156 0-1.487-3.525-.275-4.021-1.322-4.021-4.021v-10.576c0-1.652.22-5.673.22-5.673 0-.166-.165-.331-.44-.331-.276.055-1.102.11-1.928.11-1.763 0-3.746-.055-5.619-.11-.33.331-.33 1.487 0 1.818 2.699.165 3.415.826 3.415 4.462v10.631c0 1.046-.11 1.487-.881 2.148-2.038 1.763-4.131 2.644-5.508 2.644-1.653 0-4.407-.771-4.407-5.674v-10.025c0-1.652.22-5.673.22-5.673 0-.166-.165-.331-.44-.331-.276.055-1.102.11-1.928.11-1.763 0-3.746-.055-5.6186-.11-.3305.331-.3305 1.487 0 1.818 2.6436.22 3.4156.826 3.4156 4.407v10.575c0 3.801 1.652 7.492 7.105 7.492z"/><path d="m136.494 451.728v-14.762h5.122c.496 0 1.267-.221 1.267-.717v-1.101c0-.221-.165-.331-.44-.331h-5.949v-3.139c0-8.483 2.533-9.805 4.351-9.805 1.653 0 2.534.661 3.305 2.589.441.991 1.047 1.762 2.204 1.762.936 0 2.258-1.156 2.258-2.258 0-.936-.606-1.928-1.763-2.809-1.432-.992-2.864-1.157-4.957-1.157-4.627 0-9.75 4.021-9.75 12.614v2.203h-2.809c-.992 0-1.267.661-1.267 1.102v.716c0 .275.055.331.275.331h3.801v14.762c0 4.572-.881 4.792-3.856 5.012-.33.331-.33 1.488 0 1.818 1.928-.055 3.856-.11 6.059-.11 2.204 0 4.848.055 6.776.11.33-.33.33-1.487 0-1.818-4.297-.22-4.627-.44-4.627-5.012z"/><path d="m225.65 452.058c.275 4.462.11 4.517-3.471 4.682-.33.331-.33 1.488 0 1.818 2.038-.055 4.242-.11 5.894-.11 1.653 0 4.131.055 6.004.11.331-.33.331-1.487 0-1.818-3.745-.165-3.966-.385-4.241-4.957l-1.653-23.19c-.22-2.975.056-3.746 3.801-3.966.331-.331.331-1.487 0-1.818l-7.216.11-11.677 27.927c-.221.551-.386.772-.496.772s-.275-.276-.441-.716l-11.292-27.983-7.987-.11c-.33.331-.33 1.487 0 1.818 3.801.22 4.131.33 3.746 4.462l-2.259 22.694c-.275 3.305-.936 4.682-4.076 4.957-.33.331-.33 1.488 0 1.818 1.653-.055 3.415-.11 4.737-.11s3.526.055 5.178.11c.331-.33.331-1.487 0-1.818-3.635-.275-3.966-1.928-3.635-5.067l2.093-22.089h.11l11.402 28.589c.11.44.496.826.827.826.33 0 .55-.386.771-.826l12.393-29.139h.111z"/><path d="m251.531 445.614v7.271c0 .716-.33 1.101-.771 1.432-1.432 1.156-3.305 2.423-4.847 2.423-2.754 0-3.966-2.203-3.966-3.911 0-2.478 1.157-5.012 5.233-6.059zm0 10.19c.331 1.708.882 3.195 3.691 3.195 2.093 0 4.076-.937 5.233-2.038-.11-.661-.331-1.102-.937-1.488-.44.386-1.377.882-2.038.882-1.597 0-1.652-2.148-1.652-4.682v-8.097c0-7.822-4.297-9.31-8.318-9.31-4.517 0-9.088 2.975-9.088 6.115 0 1.322.661 1.983 1.927 1.983 1.598 0 2.589-1.157 2.589-1.873 0-.386-.055-.771-.165-.992-.055-.165-.11-.495-.11-1.101 0-1.708 2.313-2.314 4.407-2.314 1.872 0 4.461.937 4.461 7.161 0 .386-.165.606-.33.661l-4.737 1.157c-5.288 1.322-9.089 4.241-9.089 7.987 0 4.517 3.085 5.949 6.94 5.949 1.873 0 3.581-.441 6.004-2.314l1.102-.881z"/><path d="m270.261 438.728c-.11-2.203-.22-3.58-.44-4.186-.166-.22-.221-.441-.661-.441-1.543.606-2.975 1.102-6.776 1.598-.11.33 0 1.211.111 1.542 2.974.275 3.58.551 3.58 3.746v10.741c0 4.572-.661 4.792-4.076 5.012-.331.331-.331 1.488 0 1.818 1.928-.055 4.076-.11 6.279-.11 2.204 0 4.737.055 6.665.11.331-.33.331-1.487 0-1.818-3.855-.275-4.516-.44-4.516-5.012v-7.657c0-1.432.661-2.699 1.321-3.69.606-.882 1.873-2.699 2.534-2.699.496 0 .992.165 1.377.716.441.551 1.047 1.267 2.038 1.267 1.322 0 2.589-1.377 2.589-2.755 0-1.046-.991-2.644-3.305-2.644-2.589 0-4.847 2.424-6.114 4.572-.33.606-.606.166-.606-.11z"/><path d="m283.705 450.846c.221 2.7.386 5.288.386 7.602.551-.11 1.102-.165 1.377-.165.386 0 .716 0 1.102.11 1.487.385 2.974.606 5.012.606 3.085 0 8.758-1.487 8.758-6.941 0-3.745-2.699-5.949-6.444-7.326-3.36-1.212-5.509-2.093-5.509-5.122 0-2.259 1.983-3.526 3.856-3.526 1.212 0 4.407.441 5.123 5.123.33.33 1.432.275 1.763-.055.165-1.983.275-4.021.33-5.839-1.707-.275-4.351-1.047-7.216-1.047-4.076 0-7.766 2.644-7.766 6.17 0 4.021 1.817 5.728 6.059 7.491 4.572 1.873 5.618 3.03 5.618 5.398 0 2.699-2.644 3.856-4.682 3.856-2.148 0-3.36-.716-3.911-1.322-1.212-1.267-1.818-3.691-2.148-5.068-.331-.33-1.377-.275-1.708.055z"/><path d="m309.355 442.915c1.046-6.225 4.902-6.721 6.224-6.721 2.093 0 4.572 1.157 4.572 5.784 0 .496-.22.771-.826.771zm14.431 10.41c-2.038 2.093-3.635 2.975-6.83 2.975-1.983 0-4.296-1.157-6.004-3.966-1.102-1.818-1.763-4.352-1.763-7.547l14.653.111c.661 0 1.046-.331 1.046-.937 0-4.627-1.652-9.584-9.309-9.584-4.792 0-11.017 4.572-11.017 12.944 0 3.085.772 6.059 2.589 8.152 1.873 2.204 4.462 3.526 8.428 3.526 4.186 0 7.161-1.928 9.364-4.792-.165-.551-.496-.827-1.157-.882z"/><path d="m332.119 425.453c0 1.432 1.322 2.865 2.644 2.865 1.542 0 2.864-1.433 2.864-2.644 0-1.322-1.157-2.865-2.644-2.865-1.322 0-2.864 1.322-2.864 2.644zm5.012 26.275v-10.962c0-2.754.221-6.279.221-6.279 0-.221-.276-.386-.717-.386-1.597.606-3.745 1.102-7.546 1.598-.11.33 0 1.211.11 1.542 2.975.33 3.581.606 3.581 3.746v10.741c0 4.572-.606 4.737-3.966 5.012-.331.331-.331 1.488 0 1.818 1.817-.055 3.966-.11 6.169-.11s4.296.055 6.114.11c.331-.33.331-1.487 0-1.818-3.36-.22-3.966-.44-3.966-5.012z"/><path d="m347.348 451.728c0 4.572-.606 4.847-3.966 5.012-.33.331-.33 1.488 0 1.818 1.928-.055 3.966-.11 6.17-.11 2.203 0 4.296.055 6.114.11.33-.33.33-1.487 0-1.818-3.36-.165-3.966-.44-3.966-5.012v-25.393c0-3.581.22-5.784.22-5.784 0-.386-.22-.551-.716-.551-1.377.551-5.508 1.322-7.712 1.487-.11.441 0 1.322.331 1.653 3.195.22 3.525.385 3.525 4.517z"/><path d="m361.872 451.728c0 4.572-.606 4.847-3.966 5.012-.33.331-.33 1.488 0 1.818 1.928-.055 3.966-.11 6.169-.11 2.204 0 4.297.055 6.115.11.33-.33.33-1.487 0-1.818-3.36-.165-3.966-.44-3.966-5.012v-25.393c0-3.581.22-5.784.22-5.784 0-.386-.22-.551-.716-.551-1.377.551-5.508 1.322-7.712 1.487-.11.441 0 1.322.331 1.653 3.195.22 3.525.385 3.525 4.517z"/><path d="m377.993 442.915c1.047-6.225 4.903-6.721 6.225-6.721 2.093 0 4.572 1.157 4.572 5.784 0 .496-.221.771-.827.771zm14.432 10.41c-2.038 2.093-3.635 2.975-6.83 2.975-1.983 0-4.297-1.157-6.004-3.966-1.102-1.818-1.763-4.352-1.763-7.547l14.652.111c.661 0 1.047-.331 1.047-.937 0-4.627-1.653-9.584-9.309-9.584-4.793 0-11.017 4.572-11.017 12.944 0 3.085.771 6.059 2.589 8.152 1.873 2.204 4.462 3.526 8.428 3.526 4.186 0 7.16-1.928 9.364-4.792-.165-.551-.496-.827-1.157-.882z"/><path d="m478.113 452.058c.276 4.462.111 4.517-3.47 4.682-.33.331-.33 1.488 0 1.818 2.038-.055 4.242-.11 5.894-.11 1.653 0 4.131.055 6.004.11.331-.33.331-1.487 0-1.818-3.746-.165-3.966-.385-4.241-4.957l-1.653-23.19c-.22-2.975.055-3.746 3.801-3.966.33-.331.33-1.487 0-1.818l-7.216.11-11.678 27.927c-.22.551-.385.772-.495.772s-.276-.276-.441-.716l-11.292-27.983-7.987-.11c-.331.331-.331 1.487 0 1.818 3.801.22 4.131.33 3.746 4.462l-2.259 22.694c-.275 3.305-.936 4.682-4.076 4.957-.33.331-.33 1.488 0 1.818 1.653-.055 3.415-.11 4.737-.11s3.526.055 5.178.11c.331-.33.331-1.487 0-1.818-3.635-.275-3.966-1.928-3.635-5.067l2.093-22.089h.11l11.402 28.589c.11.44.496.826.826.826.331 0 .551-.386.771-.826l12.394-29.139h.11z"/><path d="m490.114 447.156c0 5.618 3.746 11.843 11.568 11.843 3.525 0 6.169-1.212 8.042-3.085 2.478-2.368 3.635-5.839 3.635-9.254 0-5.728-3.14-12.394-11.567-12.394-3.636 0-6.665 1.488-8.648 3.856-1.983 2.369-3.03 5.564-3.03 9.034zm10.851-10.962c4.738 0 7.657 4.297 7.657 12.229 0 6.94-3.58 8.648-6.169 8.648-5.729 0-7.602-6.941-7.602-11.182 0-4.792 1.157-9.695 6.114-9.695z"/><path d="m525.748 438.728c-.386.386-.661.551-.661 0-.055-1.487-.221-3.58-.441-4.186-.165-.22-.22-.441-.661-.441-1.542.606-2.974 1.102-6.775 1.598-.11.33 0 1.211.11 1.542 2.974.275 3.58.551 3.58 3.746v10.741c0 4.517-.55 4.737-3.855 5.012-.331.331-.331 1.488 0 1.818 1.652-.055 3.855-.11 6.059-.11 2.203 0 3.856.055 5.508.11.33-.33.33-1.487 0-1.818-2.809-.275-3.36-.495-3.36-5.012v-9.034c0-1.157.496-1.818.936-2.313 2.093-2.038 4.572-3.25 6.72-3.25 1.102 0 2.259.716 2.92 1.983.551 1.101.661 2.589.661 4.241v8.373c0 4.517-.551 4.737-3.415 5.012-.276.331-.276 1.488 0 1.818 1.652-.055 3.415-.11 5.618-.11 2.204 0 4.186.055 5.839.11.275-.33.275-1.487 0-1.818-3.085-.275-3.691-.495-3.691-5.012v-8.208c0-3.029-.22-5.673-1.487-7.381-.936-1.212-2.644-1.873-4.572-1.873-2.699 0-5.783.717-9.033 4.462z"/><path d="m547.836 434.817c-.772 0-.992.661-.992 1.102v.716c0 .275.055.331.275.331h3.25v16.58c0 3.91 1.708 5.453 4.242 5.453s5.288-1.212 7.436-3.636c-.11-.551-.441-.881-.992-.936-1.432 1.102-3.084 1.542-4.516 1.542-1.488 0-1.818-1.652-1.818-5.067v-13.936h5.729c.55 0 1.322-.221 1.322-.717v-1.101c0-.221-.166-.331-.441-.331h-6.61v-2.148c0-3.58.22-5.784.22-5.784 0-.33-.165-.44-.44-.44-.276 0-.717.22-1.212.495-.661.331-1.212.551-1.873.772-.661.165-1.212.385-1.212.716 0 .661.165.275.165 6.389z"/><path d="m572.59 438.728c-.11-2.203-.22-3.58-.44-4.186-.166-.22-.221-.441-.661-.441-1.543.606-2.975 1.102-6.776 1.598-.11.33 0 1.211.11 1.542 2.975.275 3.581.551 3.581 3.746v10.741c0 4.572-.661 4.792-4.076 5.012-.331.331-.331 1.488 0 1.818 1.928-.055 4.076-.11 6.279-.11 2.204 0 4.737.055 6.665.11.331-.33.331-1.487 0-1.818-3.856-.275-4.517-.44-4.517-5.012v-7.657c0-1.432.661-2.699 1.322-3.69.606-.882 1.873-2.699 2.534-2.699.496 0 .992.165 1.377.716.441.551 1.047 1.267 2.038 1.267 1.322 0 2.589-1.377 2.589-2.755 0-1.046-.991-2.644-3.305-2.644-2.589 0-4.847 2.424-6.114 4.572-.33.606-.606.166-.606-.11z"/><path d="m598.263 421.487-4.187 6.555c-.44.716-.605.937-.605 1.542 0 .386.385.717.771.717.385 0 .826-.221 1.652-1.047l6.335-6.004-.166-.606c-1.266-1.212-2.699-1.267-3.029-1.267-.276 0-.606.055-.771.11zm-8.042 21.428c1.046-6.225 4.902-6.721 6.224-6.721 2.093 0 4.572 1.157 4.572 5.784 0 .496-.22.771-.826.771zm14.431 10.41c-2.038 2.093-3.635 2.975-6.83 2.975-1.983 0-4.296-1.157-6.004-3.966-1.102-1.818-1.763-4.352-1.763-7.547l14.652.111c.661 0 1.047-.331 1.047-.937 0-4.627-1.652-9.584-9.309-9.584-4.792 0-11.017 4.572-11.017 12.944 0 3.085.772 6.059 2.589 8.152 1.873 2.204 4.462 3.526 8.428 3.526 4.186 0 7.161-1.928 9.364-4.792-.165-.551-.496-.827-1.157-.882z"/><path d="m624.166 445.614v7.271c0 .716-.33 1.101-.771 1.432-1.432 1.156-3.305 2.423-4.847 2.423-2.754 0-3.966-2.203-3.966-3.911 0-2.478 1.157-5.012 5.233-6.059zm0 10.19c.331 1.708.882 3.195 3.691 3.195 2.093 0 4.076-.937 5.233-2.038-.11-.661-.331-1.102-.937-1.488-.44.386-1.377.882-2.038.882-1.597 0-1.652-2.148-1.652-4.682v-8.097c0-7.822-4.297-9.31-8.318-9.31-4.516 0-9.088 2.975-9.088 6.115 0 1.322.661 1.983 1.928 1.983 1.597 0 2.588-1.157 2.588-1.873 0-.386-.055-.771-.165-.992-.055-.165-.11-.495-.11-1.101 0-1.708 2.314-2.314 4.407-2.314 1.872 0 4.461.937 4.461 7.161 0 .386-.165.606-.33.661l-4.737 1.157c-5.288 1.322-9.089 4.241-9.089 7.987 0 4.517 3.085 5.949 6.941 5.949 1.872 0 3.58-.441 6.004-2.314l1.101-.881z"/><path d="m638.435 451.728c0 4.572-.606 4.847-3.966 5.012-.331.331-.331 1.488 0 1.818 1.928-.055 3.966-.11 6.169-.11s4.296.055 6.114.11c.331-.33.331-1.487 0-1.818-3.36-.165-3.966-.44-3.966-5.012v-25.393c0-3.581.22-5.784.22-5.784 0-.386-.22-.551-.716-.551-1.377.551-5.508 1.322-7.711 1.487-.11.441 0 1.322.33 1.653 3.195.22 3.526.385 3.526 4.517z"/><path d="m28.4683 249.959h37.9576l28.0962 150.587h-30.7011l-5.0238-31.79h-22.142l-5.2099 31.79h-31.4453zm27.1657 98.904-8.0008-58.747-8.0009 58.747z"/><path d="m115.327 274.685h-22.7005v-24.726h78.7065v24.726h-22.514v125.861h-33.492z"/><path d="m198.185 274.685h-22.701v-24.726h78.707v24.726h-22.514v125.861h-33.492z"/><path d="m281.948 249.959h37.958l28.096 150.587h-30.701l-5.024-31.79h-22.142l-5.21 31.79h-31.445zm27.166 98.904-8.001-58.747-8.001 58.747z"/><path d="m404.024 402.777c-16.374 0-28.034-4.276-34.98-12.828-6.823-8.676-10.234-21.131-10.234-37.368v-54.285c0-16.608 3.411-29.126 10.234-37.554 6.822-8.552 18.482-12.828 34.98-12.828 15.754 0 26.918 3.78 33.492 11.34 6.575 7.561 9.862 18.282 9.862 32.163v13.014h-32.562v-15.059c0-5.825-.62-10.287-1.861-13.386-1.24-3.098-4.217-4.647-8.931-4.647-4.713 0-7.815 1.673-9.303 5.019-1.489 3.223-2.233 7.746-2.233 13.572v70.831c0 5.95.744 10.535 2.233 13.758 1.612 3.098 4.714 4.648 9.303 4.648 4.59 0 7.505-1.55 8.745-4.648 1.365-3.223 2.047-7.808 2.047-13.758v-15.802h32.562v13.014c0 14.129-3.287 25.16-9.862 33.092-6.574 7.808-17.738 11.712-33.492 11.712z"/><path d="m466.259 249.959h33.306v60.978h23.259v-60.978h33.492v150.587h-33.492v-65.812h-23.259v65.812h-33.306z"/><path d="m579.267 249.959h67.729v22.681h-34.423v37.368h26.236v23.053h-26.236v44.99h34.795v22.495h-68.101z"/><path d="m24.5921 89.7275h66.2911v22.2235h-33.6919v36.615h25.6787v22.588h-25.6787v44.084h34.0562v22.042h-66.6554z"/><path d="m124.988 157.856-27.318-68.1285h30.778l16.209 39.8935 13.112-39.8935h27.136l-25.861 76.6905 28.775 70.862h-30.596l-18.03-44.084-15.844 44.084h-26.9539z"/><path d="m199.956 89.7275h32.6v147.5525h-32.6z"/><path d="m254.552 89.7275h32.599v125.5105h33.874v22.042h-66.473z"/><path d="m24.5921.857637h18.1076c6.5441 0 11.1504 1.747043 13.8189 5.241113 2.732 3.49408 4.098 8.38575 4.098 14.67515 0 5.9081-1.3977 10.7999-4.1933 14.6751-2.732 3.8117-7.2748 5.7176-13.6283 5.7176h-13.0565v36.8784h-5.1464zm17.0592 36.306663c4.7652 0 8.2279-1.2388 10.3881-3.7165 2.1602-2.5411 3.2403-6.7658 3.2403-12.6739 0-4.1294-.4448-7.3376-1.3343-9.6246-.8895-2.28705-2.319-3.90703-4.2886-4.85996-1.9061-.95293-4.5428-1.42939-7.9102-1.42939h-12.0081v32.30435z"/><path d="m88.288 79.0932c-7.0524 0-12.0082-2.0012-14.8673-6.0035-2.7955-4.0658-4.1933-9.7198-4.1933-16.9621v-33.7337c0-7.1153 1.4296-12.61048 4.2886-16.48573 2.9227-3.93878 7.8467-5.90817 14.772-5.90817 6.8618 0 11.754 1.96939 14.677 5.90817 2.922 3.93878 4.384 9.43403 4.384 16.48573v33.829c0 7.2422-1.43 12.8645-4.289 16.8668-2.796 4.0023-7.7196 6.0035-14.772 6.0035zm0-4.2882c5.2099 0 8.7997-1.4929 10.7693-4.4788 2.0327-2.9858 3.0497-7.3375 3.0497-13.0551v-35.6396c0-5.7176-1.017-10.0375-3.0497-12.95983-1.9696-2.92232-5.5594-4.38348-10.7693-4.38348s-8.8314 1.46116-10.8645 4.38348c-1.9696 2.92233-2.9544 7.24223-2.9544 12.95983v35.6396c0 5.7811.9848 10.1646 2.9544 13.1504 2.0331 2.9224 5.6546 4.3835 10.8645 4.3835z"/><path d="m119.988.857637h18.68c6.353 0 10.769 1.683513 13.247 5.050533s3.717 8.03633 3.717 14.00803c0 5.0188-.826 9.1482-2.478 12.3881-1.589 3.24-4.543 5.2094-8.864 5.9082l12.39 39.8325h-5.147l-12.008-38.8796h-14.39v38.8796h-5.147zm18.489 34.305463c4.638 0 7.815-1.2388 9.53-3.7164 1.716-2.5412 2.573-6.3846 2.573-11.5305 0-5.2093-.889-8.9893-2.668-11.33983-1.715-2.41409-4.892-3.62113-9.53-3.62113h-13.247v30.20786z"/><path d="m177.093 5.05053h-15.44v-4.192893h35.644v4.192893h-15.058v72.99447h-5.146z"/><path d="m221.796 78.9979c-11.373 0-17.568-6.6705-18.584-20.0115l4.479-1.4294c.762 5.7176 2.128 10.0057 4.098 12.8645 2.033 2.8588 5.4 4.2882 10.102 4.2882 8.196 0 12.294-4.1293 12.294-12.3881 0-3.1764-.794-6.067-2.383-8.6716-1.588-2.6047-4.129-5.6541-7.624-9.1482l-14.105-14.008c-4.511-4.5106-6.766-9.4023-6.766-14.6752 0-5.0187 1.525-8.89397 4.574-11.62571 3.114-2.79526 7.243-4.19289 12.39-4.19289 5.527 0 9.784 1.49293 12.77 4.47878 2.987 2.92232 4.702 7.87752 5.147 14.86572l-4.384 1.0482c-.445-5.654-1.684-9.7516-3.717-12.29279-1.97-2.60468-5.21-3.90702-9.721-3.90702-3.685 0-6.671.95293-8.958 2.85879-2.224 1.84234-3.336 4.63762-3.336 8.38582 0 2.0329.413 4.0023 1.239 5.9081.889 1.8424 2.351 3.78 4.384 5.8129l13.914 13.7222c3.558 3.4941 6.354 6.9564 8.387 10.3869 2.033 3.4306 3.049 7.02 3.049 10.7682 0 5.5905-1.556 9.8151-4.669 12.6739-3.114 2.8588-7.307 4.2882-12.58 4.2882z"/><path d="m267.503.857637h16.869c7.179 0 12.262 2.001153 15.248 6.003463 2.986 3.9388 4.479 9.3387 4.479 16.1998v32.0185c0 7.2422-1.461 12.8963-4.383 16.9621-2.86 4.0023-7.815 6.0035-14.868 6.0035h-17.345zm17.059 73.089763c3.94 0 6.957-.8259 9.054-2.4776 2.097-1.7153 3.495-3.9706 4.193-6.7658.699-2.7953 1.049-6.1941 1.049-10.1964v-31.0655c0-6.1623-1.049-10.7681-3.145-13.81751-2.033-3.04937-5.814-4.57406-11.341-4.57406h-11.723v68.89687z"/><path d="m313.973 18.868c1.652-1.0164 2.7-2.16 3.145-3.4305.508-1.3341.762-3.3353.762-6.00349h-3.049v-8.576373h6.194v7.242273c0 3.55759-.381 6.28929-1.143 8.19519-.763 1.8423-2.192 3.2717-4.289 4.2882z"/><path d="m350.935 159.044h18.107c6.544 0 11.151 1.747 13.819 5.241 2.732 3.494 4.098 8.386 4.098 14.675 0 5.908-1.398 10.8-4.193 14.675-2.732 3.812-7.275 5.718-13.629 5.718h-13.056v36.878h-5.146zm17.059 36.307c4.765 0 8.228-1.239 10.388-3.717 2.16-2.541 3.24-6.766 3.24-12.674 0-4.129-.445-7.337-1.334-9.624-.89-2.287-2.319-3.907-4.289-4.86-1.906-.953-4.543-1.43-7.91-1.43h-12.008v32.305z"/><path d="m414.63 237.28c-7.052 0-12.008-2.002-14.867-6.004-2.795-4.066-4.193-9.72-4.193-16.962v-33.734c0-7.115 1.429-12.61 4.289-16.485 2.922-3.939 7.846-5.909 14.771-5.909 6.862 0 11.755 1.97 14.677 5.909 2.923 3.938 4.384 9.434 4.384 16.485v33.829c0 7.242-1.429 12.865-4.289 16.867-2.795 4.002-7.719 6.004-14.772 6.004zm0-4.289c5.21 0 8.8-1.493 10.77-4.478 2.033-2.986 3.049-7.338 3.049-13.056v-35.639c0-5.718-1.016-10.038-3.049-12.96-1.97-2.922-5.56-4.383-10.77-4.383-5.209 0-8.831 1.461-10.864 4.383-1.97 2.922-2.954 7.242-2.954 12.96v35.639c0 5.782.984 10.165 2.954 13.151 2.033 2.922 5.655 4.383 10.864 4.383z"/><path d="m446.331 159.044h18.679c6.354 0 10.769 1.683 13.247 5.051 2.478 3.367 3.717 8.036 3.717 14.008 0 5.018-.826 9.148-2.478 12.388-1.588 3.24-4.543 5.209-8.863 5.908l12.389 39.832h-5.146l-12.008-38.879h-14.391v38.879h-5.146zm18.488 34.305c4.639 0 7.815-1.238 9.531-3.716 1.715-2.541 2.573-6.385 2.573-11.53 0-5.21-.89-8.99-2.669-11.34-1.715-2.414-4.892-3.621-9.53-3.621h-13.247v30.207z"/><path d="m503.435 163.237h-15.439v-4.193h35.643v4.193h-15.058v72.994h-5.146z"/><path d="m548.138 237.184c-11.373 0-17.567-6.67-18.584-20.011l4.479-1.43c.763 5.718 2.129 10.006 4.098 12.865 2.033 2.859 5.401 4.288 10.102 4.288 8.196 0 12.294-4.129 12.294-12.388 0-3.176-.794-6.067-2.382-8.672-1.588-2.604-4.13-5.654-7.624-9.148l-14.105-14.008c-4.511-4.51-6.767-9.402-6.767-14.675 0-5.019 1.525-8.894 4.575-11.626 3.113-2.795 7.243-4.193 12.389-4.193 5.528 0 9.785 1.493 12.771 4.479 2.986 2.922 4.701 7.878 5.146 14.866l-4.384 1.048c-.444-5.654-1.683-9.752-3.717-12.293-1.969-2.604-5.209-3.907-9.72-3.907-3.686 0-6.672.953-8.959 2.859-2.224 1.842-3.336 4.638-3.336 8.386 0 2.033.413 4.002 1.239 5.908.89 1.842 2.351 3.78 4.384 5.813l13.915 13.722c3.558 3.494 6.353 6.956 8.386 10.387s3.05 7.02 3.05 10.768c0 5.591-1.557 9.815-4.67 12.674s-7.306 4.288-12.58 4.288z"/><path d="m593.846 159.044h16.868c7.18 0 12.263 2.001 15.249 6.003 2.986 3.939 4.479 9.339 4.479 16.2v32.019c0 7.242-1.461 12.896-4.384 16.962-2.859 4.002-7.815 6.003-14.867 6.003h-17.345zm17.059 73.09c3.939 0 6.957-.826 9.054-2.478 2.096-1.715 3.494-3.97 4.193-6.766.699-2.795 1.048-6.194 1.048-10.196v-31.066c0-6.162-1.048-10.768-3.145-13.817-2.033-3.049-5.813-4.574-11.341-4.574h-11.722v68.897z"/><path d="m640.315 177.054c1.652-1.016 2.701-2.16 3.145-3.43.509-1.334.763-3.335.763-6.004h-3.05v-8.576h6.195v7.242c0 3.558-.381 6.29-1.144 8.195-.762 1.843-2.192 3.272-4.288 4.289z"/></g></svg>