<svg clip-rule="evenodd" fill-rule="evenodd" stroke-linejoin="round" stroke-miterlimit="2" viewBox="0 0 1342 509" xmlns="http://www.w3.org/2000/svg"><g fill="#231f20" fill-rule="nonzero"><path d="M501.238 113.15l-19.33-72.758c-.103-.325-.324-.654-.758-.654s-.975.433-.975 1.091v72.321h-9.012V33.442h16.612l16.942 61.896c.217.65.542.979.975.979.65 0 1.196-.438 1.304-1.088l16.509-61.787h16.825v79.708h-9.009V41.258c0-.65-.437-.979-.762-.979-.434 0-.867.221-1.084.763l-19.112 72.108zM573.559 33.442v53.1c0 8.579 1.95 18.896 14.983 18.896 3.696 0 9.338-1.625 12.163-6.838 2.175-4.346 2.391-10.43 2.391-14.77V33.441h9.992v53.537c0 7.817-1.633 15.854-7.063 21.388-6.408 6.625-14.112 7.166-19.979 7.166-3.912 0-12.925-1.3-18.462-9.337-4.454-6.513-5.104-13.03-5.104-20.196V33.442zM670.2 54.288c-3.691-7.384-7.166-12.809-16.395-12.809-4.892 0-12.167 2.821-12.167 10.53 0 7.17 6.083 10.208 8.688 11.404l15.858 7.166c2.712 1.304 8.579 4.563 11.942 10.43.979 1.841 2.716 4.883 2.716 10.745 0 7.496-2.716 13.684-7.82 18.025-6.513 5.65-13.03 5.65-17.267 5.65-4.884 0-12.704-1.629-18.242-6.3-5.104-4.233-7.058-8.25-8.904-12.05l9.558-5.975c2.275 6.404 7.6 14.334 18.35 14.334 6.734 0 14.009-4.125 14.009-12.813 0-3.692-1.413-8.362-9.771-12.167l-14.121-6.404c-4.883-2.17-10.638-6.187-13.138-10.641-1.087-1.959-2.387-5.542-2.387-11.075 0-12.059 10.204-20.525 22.696-20.525 12.162 0 20.85 6.083 25.733 16.941zM732.417 12.592L718.192 27.9h-7.275l9.667-15.308zm-36.92 20.85h49.52v9.77h-38.116v23.134h28.125v10.1h-27.909v26.604h39.963v10.1h-51.584zM762.492 33.442h49.521v9.77h-38.117v23.134h28.125v10.1h-27.908v26.604h39.958v10.1h-51.579zM177.346 415.859h5c7.054 0 14.225-1.309 14.225-16.617 0-2.713.217-7.058.217-9.77 0-9.555-.217-16.18-2.934-20.093-3.366-4.883-7.166-4.883-16.508-4.883zm-17.808-65.484h19.329c19.441 0 26.279 3.692 30.842 10.317 3.475 5.104 4.779 10.646 4.779 28.558l-.109 13.58c0 9.008-2.17 18.562-10.97 23.016-5.755 2.934-10.642 3.475-17.046 4.021-2.284.213-13.684.213-26.825.213zM227.296 350.375h53.538v14.55h-36.167v16.942h24.87v14.55h-24.65v18.792h38.442v14.87h-56.033zM319.809 350.375h23.458l9.446 33.234c.975 3.583 1.412 4.775 2.283 8.358.433 1.63 2.058 8.583 2.383 9.992h.546c1.192-6.621 2.388-11.617 4.346-18.68l9.338-32.904h23.562v79.705h-15.308v-42.888c0-5.646.433-15.092.758-22.696h-.433l-16.509 65.584h-12.054l-16.941-65.584h-.538c.104 3.692.758 19.871.758 23.233v42.35H319.81zM436.542 364.604h-.433l-8.688 36.046h17.917zm10.317-14.229l23.02 79.705h-17.05l-4.016-15.85H424.38l-4.13 15.85H403.2l22.484-79.705zM493.875 384.8c9.884 0 11.405 0 13.9-.87 5.538-1.955 5.975-6.296 5.975-10.638 0-5.546-1.737-8.258-5.216-9.558-2.713-.98-4.884-.98-14.659-.98zm0 45.28H476.61v-79.705h25.737c12.925 0 29.321 1.742 29.321 23.134 0 10.1-4.017 17.804-15.2 21.175l17.37 35.396h-19.003l-15.096-32.571h-5.863zM580.417 371.771c-2.496-4.783-7.6-8.908-13.787-8.908-9.125 0-9.342 6.846-9.342 7.716 0 5.642 5.212 7.925 10.096 9.659l10.104 3.691c4.78 1.742 10.42 5 13.575 9.346.975 1.3 4.45 6.513 4.45 14 0 3.592 0 14.23-11.296 21.071-4.667 2.825-11.292 4.017-15.312 4.017-14.005 0-22.259-3.367-29.425-16.18l13.575-9.008c2.933 6.725 8.25 10.855 15.091 10.855 3.804 0 10.642-1.738 10.642-9.013 0-5.975-3.258-7.275-15.2-11.95-12.054-4.663-22.48-9.988-22.48-25.73 0-13.137 9.555-22.59 25.95-22.59 11.73 0 19.984 4.778 26.5 14.337zM604.738 350.375h53.538v14.55h-36.163v16.942h24.867v14.55h-24.65v18.792h38.446v14.87h-56.038zM665.109 430.08v-7.055h9.337V357.33h-9.337v-6.954h36.38v6.954h-9.45v65.476h9.45v7.275zM707.242 350.375h17.813v64.834h35.075v14.87h-52.888zM768.155 350.375h17.812v64.834h35.075v14.87h-52.887zM830.38 350.375h53.537v14.55h-36.166v16.942h24.866v14.55h-24.645v18.792h38.441v14.87H830.38zM170.796 229.646v59.513h8.25c19.004 0 23.346-14.984 23.346-29.863 0-7.275-1.192-16.612-6.296-22.804-4.342-5.217-10.1-6.846-19.983-6.846zm-11.08 69.608V219.55h17.267c26.388 0 37.034 15.309 37.034 40.938 0 5.104-.763 14.987-5.65 23.566-3.475 6.192-10.209 15.2-31.275 15.2zM223.021 219.55h8.904v29.43h-8.904zM247.996 219.55h11.075v33.442h28.45V219.55h11.08v79.704h-11.08V262.55h-28.45v36.704h-11.075zM315.642 292.2h6.733v-65.375h-6.733v-7.275h25.087v7.275h-7.062V292.2h7.062v7.054h-25.087zM392.525 240.4c-3.691-7.383-7.166-12.816-16.396-12.816-4.887 0-12.162 2.825-12.162 10.537 0 7.167 6.08 10.208 8.683 11.4l15.859 7.167c2.716 1.308 8.579 4.562 11.941 10.425.98 1.85 2.717 4.891 2.717 10.75 0 7.491-2.717 13.687-7.82 18.029-6.513 5.646-13.03 5.646-17.268 5.646-4.883 0-12.704-1.634-18.241-6.296-5.104-4.233-7.059-8.254-8.904-12.058l9.558-5.975c2.28 6.412 7.6 14.341 18.35 14.341 6.733 0 14.008-4.133 14.008-12.82 0-3.692-1.412-8.355-9.77-12.159l-14.121-6.404c-4.884-2.171-10.638-6.196-13.138-10.646-1.087-1.954-2.387-5.537-2.387-11.08 0-12.05 10.204-20.524 22.695-20.524 12.163 0 20.85 6.083 25.734 16.942zM466.909 219.55v10.096h-23.134v69.608h-11.4v-69.608h-23.241V219.55zM499.159 227.913c-6.846 0-11.08 4.775-13.359 12.27-1.52 4.776-2.387 11.838-2.387 20.196 0 10.105 1.408 31.384 15.308 31.384 11.296 0 15.638-11.621 15.638-31.817 0-10.537-.975-32.033-15.2-32.033zm23.562 9.77c2.388 7.063 3.042 16.4 3.042 21.934 0 19.004-5.325 42.03-26.825 42.03-19.546 0-26.93-19.655-26.93-40.938 0-12.163 1.95-23.238 6.513-30.513 6.625-10.646 14.554-11.842 20.417-11.842 13.467 0 20.525 9.771 23.783 19.33zM535.205 292.2h6.725v-65.375h-6.725v-7.275h25.083v7.275h-7.058V292.2h7.058v7.054h-25.083zM587.542 228.888v26.387c6.08.109 13.9.109 18.025-.762 4.346-.971 11.183-3.254 11.183-12.159 0-9.337-6.3-13.466-18.241-13.466zm-11.079-9.338h24.542c22.262 0 27.041 13.467 27.041 21.613 0 14.983-9.883 19.004-17.05 21.283l20.85 36.808h-13.029l-18.896-35.395h-12.27v35.395h-11.188zM643.459 219.55h49.52v9.775h-38.116v23.125h28.125v10.1H655.08v26.609h39.962v10.095H643.46zM0 1h109.254v11.4H0zM0 496.934h109.254v11.4H0zM902.555 62.758h437.975v11.396H902.555zM856 320.225h461.739v17.1H856zM1.896 142.563h1091.626v28.504H1.896zM1209.43 142.563h130.163v28.504H1209.43z"/><path d="M856 320.225h461.739v17.1H856zM930.117 229.017h34.205v46.55h-34.205z"/></g></svg>