<svg fill="none" height="426" viewBox="0 0 764 426" width="764" xmlns="http://www.w3.org/2000/svg"><g fill="#fff"><path d="m0 .579707h14.1857c5.0211 0 8.6041 1.352663 10.749 4.057973 2.1936 2.70532 3.2905 6.54592 3.2905 11.52172 0 4.5411-1.1456 8.2367-3.4368 11.087-2.2424 2.8502-5.7523 4.2753-10.5296 4.2753h-8.70151v27.7537h-5.55729zm12.6501 26.811593c3.6562 0 6.2398-.8213 7.751-2.4638 1.5599-1.6908 2.3399-4.6135 2.3399-8.7681 0-3.0435-.2925-5.3623-.8775-6.9565-.5849-1.64251-1.5843-2.80193-2.998-3.47826s-3.4611-1.0145-6.1422-1.0145h-7.16601v22.68116z"/><path d="m49.3866 60c-5.5573 0-9.5059-1.57-11.8458-4.7101-2.2911-3.1401-3.4367-7.5846-3.4367-13.3334v-24.3478c0-5.7005 1.1699-10.04831 3.5099-13.04349 2.3399-3.04347 6.2641-4.56521 11.7726-4.56521 5.4111 0 9.2865 1.52174 11.6265 4.56521 2.3399 3.04348 3.5098 7.39129 3.5098 13.04349v24.4203c0 5.7488-1.1456 10.1932-3.4367 13.3333-2.2912 3.0918-6.191 4.6377-11.6996 4.6377zm0-4.4203c3.6074 0 6.0935-1.0386 7.4585-3.1159 1.3649-2.1256 2.0474-5.2174 2.0474-9.2754v-26.5942c0-4.058-.6825-7.10145-2.0474-9.13043-1.3162-2.02899-3.8024-3.04348-7.4585-3.04348-3.7048 0-6.2397 1.01449-7.6047 3.04348-1.3649 1.98067-2.0474 5.02413-2.0474 9.13043v26.5942c0 4.1063.6825 7.1981 2.0474 9.2754 1.365 2.0773 3.8999 3.1159 7.6047 3.1159z"/><path d="m73.7649.579707h13.3814c5.3135 0 9.0915 1.280193 11.3339 3.840583 2.2428 2.51208 3.3638 6.20771 3.3638 11.08691 0 3.7199-.61 6.7875-1.828 9.2029-1.2189 2.4155-3.3395 3.9372-6.3619 4.5653l9.0669 30h-5.4108l-8.7015-28.8406h-9.2865v28.8406h-5.5573zm13.0889 25.797093c3.5586 0 6.0447-.8696 7.4584-2.6087s2.1206-4.4927 2.1206-8.2609c0-3.8164-.6825-6.57-2.0474-8.26083-1.3162-1.69082-3.778-2.53623-7.3854-2.53623h-7.6778v21.66666z"/><path d="m117.781 4.85507h-11.188v-4.275363h27.641v4.275363h-10.896v54.42033h-5.557z"/><path d="m153.323 60c-4.631 0-8.165-1.401-10.603-4.2029-2.437-2.8502-3.826-6.7633-4.168-11.7391l4.9-1.4493c.438 4.1546 1.364 7.343 2.778 9.5652 1.463 2.2222 3.851 3.3334 7.166 3.3334 5.557 0 8.336-2.8261 8.336-8.4783 0-2.4155-.585-4.5411-1.755-6.3768-1.121-1.8358-2.949-3.9372-5.484-6.3044l-10.457-9.9275c-1.901-1.7391-3.29-3.5507-4.167-5.4348-.829-1.9324-1.244-4.058-1.244-6.3768 0-4.00967 1.195-7.10146 3.583-9.27537 2.438-2.22222 5.704-3.33333 9.799-3.33333 4.387 0 7.751 1.15942 10.091 3.47826s3.705 6.11111 4.095 11.37684l-4.753 1.2319c-.293-3.9614-1.146-6.90826-2.56-8.84063-1.365-1.93236-3.656-2.89854-6.873-2.89854-2.535 0-4.558.65217-6.069 1.95652-1.512 1.30434-2.267 3.23671-2.267 5.79705 0 1.6426.317 3.116.95 4.4203.634 1.3044 1.707 2.6812 3.218 4.1305l10.456 9.7826c2.681 2.5121 4.778 5.0966 6.289 7.7536 1.56 2.6087 2.34 5.4348 2.34 8.4783 0 4.2512-1.243 7.5362-3.73 9.855-2.486 2.3189-5.776 3.4783-9.871 3.4783z"/><path d="m203.343 60c-5.557 0-9.506-1.57-11.846-4.7101-2.291-3.1401-3.436-7.5846-3.436-13.3334v-24.3478c0-5.7005 1.17-10.04831 3.509-13.04349 2.34-3.04347 6.265-4.56521 11.773-4.56521 5.411 0 9.287 1.52174 11.627 4.56521 2.339 3.04348 3.509 7.39129 3.509 13.04349v24.4203c0 5.7488-1.145 10.1932-3.436 13.3333-2.291 3.0918-6.191 4.6377-11.7 4.6377zm0-4.4203c3.608 0 6.094-1.0386 7.459-3.1159 1.365-2.1256 2.047-5.2174 2.047-9.2754v-26.5942c0-4.058-.682-7.10145-2.047-9.13043-1.317-2.02899-3.803-3.04348-7.459-3.04348-3.705 0-6.24 1.01449-7.605 3.04348-1.364 1.98067-2.047 5.02413-2.047 9.13043v26.5942c0 4.1063.683 7.1981 2.047 9.2754 1.365 2.0773 3.9 3.1159 7.605 3.1159z"/><path d="m227.721.579707h21.279v4.130433h-15.721v22.10146h13.089v4.058h-13.089v28.4058h-5.558z"/><path d="m391 153.58h5.58v26.014h18.478v-26.014h5.507v58.695h-5.507v-28.55h-18.478v28.55h-5.58z"/><path d="m444.756 213c-5.508 0-9.421-1.57-11.739-4.71-2.271-3.14-3.406-7.585-3.406-13.333v-24.348c0-5.701 1.159-10.049 3.478-13.044 2.319-3.043 6.208-4.565 11.667-4.565 5.362 0 9.203 1.522 11.521 4.565 2.319 3.044 3.479 7.392 3.479 13.044v24.42c0 5.749-1.136 10.193-3.406 13.333-2.271 3.092-6.135 4.638-11.594 4.638zm0-4.42c3.575 0 6.038-1.039 7.391-3.116 1.353-2.126 2.029-5.218 2.029-9.276v-26.594c0-4.058-.676-7.101-2.029-9.13-1.304-2.029-3.768-3.044-7.391-3.044-3.672 0-6.184 1.015-7.537 3.044-1.352 1.98-2.029 5.024-2.029 9.13v26.594c0 4.107.677 7.198 2.029 9.276 1.353 2.077 3.865 3.116 7.537 3.116z"/><path d="m469.856 153.58h5.508l11.594 50.942 11.811-50.942h5.508l1.449 58.695h-4.565l-1.16-46.739-11.232 46.739h-3.55l-11.087-46.666-1.16 46.666h-4.565z"/><path d="m515.406 153.58h21.231v4.275h-15.652v22.029h12.754v4.058h-12.754v24.203h15.797v4.13h-21.376z"/><path d="m0 227.849h30.084v55.126h21.0084v-55.126h30.2521v136.134h-30.2521v-59.496h-21.0084v59.496h-30.084z"/><path d="m121.236 227.849h34.285l25.378 136.134h-27.731l-4.537-28.739h-20l-4.706 28.739h-28.4037zm24.537 89.411-7.227-53.109-7.226 53.109z"/><path d="m194.644 227.849h37.479c14.902 0 26.163 2.633 33.782 7.899s11.428 14.622 11.428 28.067c0 9.076-1.176 16.303-3.529 21.681s-6.723 9.58-13.109 12.605l18.655 65.882h-31.092l-14.958-61.008h-8.572v61.008h-30.084zm38.488 57.815c6.05 0 10.252-1.569 12.605-4.706 2.465-3.249 3.697-8.067 3.697-14.454 0-6.162-1.12-10.756-3.361-13.781-2.241-3.138-6.107-4.706-11.597-4.706h-9.748v37.647z"/><path d="m295.419 227.849h35.462c8.852 0 16.359.952 22.521 2.857 6.275 1.793 11.317 5.322 15.126 10.588 3.81 5.266 5.714 12.661 5.714 22.185 0 8.067-1.736 14.342-5.21 18.824-3.473 4.481-8.403 7.338-14.79 8.571 7.844 1.008 13.838 4.314 17.984 9.916 4.145 5.602 6.218 13.221 6.218 22.857 0 26.891-13.725 40.336-41.176 40.336h-41.849zm35.966 54.454c6.387 0 10.7-1.457 12.941-4.37 2.353-2.913 3.53-7.451 3.53-13.614 0-5.378-1.457-9.411-4.37-12.101-2.913-2.801-7.171-4.201-12.773-4.201h-5.21v34.286zm.504 60.672c6.387 0 10.869-1.569 13.446-4.706 2.689-3.249 4.033-8.291 4.033-15.126 0-7.731-1.344-13.165-4.033-16.303-2.577-3.137-7.115-4.706-13.614-4.706h-6.218v40.841z"/><path d="m433.216 366c-14.678 0-25.154-3.753-31.429-11.26-6.274-7.62-9.412-18.824-9.412-33.614v-50.588c0-14.79 3.138-25.883 9.412-33.277 6.275-7.507 16.751-11.261 31.429-11.261 14.789 0 25.322 3.754 31.596 11.261 6.387 7.507 9.58 18.599 9.58 33.277v50.588c0 14.79-3.193 25.994-9.58 33.614-6.274 7.507-16.807 11.26-31.596 11.26zm0-21.345c4.257 0 7.058-1.4 8.403-4.201 1.344-2.913 2.017-6.835 2.017-11.765v-65.546c0-5.042-.673-8.964-2.017-11.765-1.345-2.801-4.146-4.202-8.403-4.202-4.034 0-6.723 1.457-8.068 4.37-1.344 2.801-2.016 6.667-2.016 11.597v65.546c0 4.93.616 8.852 1.848 11.765 1.233 2.801 3.978 4.201 8.236 4.201z"/><path d="m532.029 366c-10.196 0-18.264-1.625-24.202-4.874-5.938-3.361-10.14-8.235-12.605-14.622-2.353-6.498-3.53-14.734-3.53-24.706v-93.949h29.748v98.487c0 5.49.673 9.86 2.017 13.109 1.457 3.25 4.314 4.874 8.572 4.874 4.257 0 7.058-1.624 8.403-4.874 1.344-3.249 2.017-7.619 2.017-13.109v-98.487h29.916v93.949c0 9.972-1.233 18.208-3.698 24.706-2.465 6.387-6.666 11.261-12.605 14.622-5.826 3.249-13.837 4.874-24.033 4.874z"/><path d="m591.506 227.849h37.479c14.902 0 26.162 2.633 33.781 7.899 7.62 5.266 11.429 14.622 11.429 28.067 0 9.076-1.176 16.303-3.529 21.681s-6.723 9.58-13.11 12.605l18.656 65.882h-31.093l-14.958-61.008h-8.571v61.008h-30.084zm38.487 57.815c6.051 0 10.253-1.569 12.605-4.706 2.465-3.249 3.698-8.067 3.698-14.454 0-6.162-1.12-10.756-3.361-13.781-2.241-3.138-6.107-4.706-11.597-4.706h-9.748v37.647z"/><path d="m727.759 366c-12.998 0-22.689-3.417-29.076-10.252-6.275-6.947-9.636-17.927-10.084-32.941l25.714-3.866c.112 8.628 1.121 14.846 3.025 18.656 2.017 3.697 4.986 5.546 8.908 5.546 5.042 0 7.563-3.305 7.563-9.916 0-5.266-1.232-9.804-3.697-13.614-2.353-3.809-6.107-7.899-11.261-12.268l-11.765-10.253c-5.826-4.93-10.364-10.14-13.613-15.63-3.137-5.602-4.706-12.213-4.706-19.832 0-11.428 3.361-20.224 10.084-26.386 6.835-6.163 16.191-9.244 28.067-9.244 12.885 0 21.625 3.754 26.219 11.261 4.706 7.507 7.227 16.638 7.563 27.394l-25.882 3.194c-.225-7.059-.897-12.101-2.017-15.126-1.009-3.138-3.306-4.706-6.891-4.706-2.577 0-4.594 1.12-6.051 3.361-1.344 2.129-2.016 4.538-2.016 7.227 0 4.594 1.008 8.459 3.025 11.597 2.129 3.137 5.49 6.722 10.084 10.756l11.26 9.916c6.723 5.714 11.933 11.765 15.631 18.151 3.697 6.387 5.546 13.95 5.546 22.689 0 6.387-1.513 12.213-4.538 17.479-2.913 5.154-7.059 9.244-12.437 12.269s-11.597 4.538-18.655 4.538z"/></g><path d="m189.907 403.802h11.6118v11.6118h-11.6118z" fill="#d9aa3e"/><path d="m488.008 403.802h11.6118v11.6118h-11.6118z" fill="#d9aa3e"/><g fill="#fff"><path d="m17.3983 400.919h-5.9187v-11.708c0-2.861.7805-4.162 4.2927-4.162h4.878c4.878 0 5.9186 2.601 7.3495 7.089.7805.13 1.4959 0 2.1463-.325-.3252-2.667-1.3008-8.911-1.4308-9.431 0-.13-.0651-.195-.2602-.195-1.1057.195-1.626.26-3.187.26h-16.58523c-2.01625 0-5.78858-.065-8.390189-.13-.3902414.39-.3902414 1.756 0 2.146 4.552819.195 5.658499.521 5.658499 5.919v26.081c0 5.399-1.10568 5.724-5.658499 5.919-.3902414.39-.3902414 1.756 0 2.146 2.406489-.065 6.308899-.13 8.455229-.13h13.98369c3.1219 0 8.3251.13 8.3251.13.9106-3.252 1.8862-7.545 2.4065-10.862-.7154-.325-1.4309-.52-2.2764-.325-1.3008 4.683-3.5772 8.521-8.5203 8.521h-7.5447c-2.7316 0-3.6422-1.041-3.6422-4.098v-14.374h5.9187c5.5284 0 5.7235 1.496 5.9186 4.423.3903.39 1.7561.39 2.1463 0-.065-1.691-.13-3.447-.13-5.724 0-1.821.065-4.032.13-5.593-.3902-.39-1.756-.39-2.1463 0-.1951 3.577-.3902 4.423-5.9186 4.423z"/><path d="m41.5048 416.463c0 5.399-.7154 5.724-4.6829 5.919-.3902.39-.3902 1.756 0 2.146 2.2764-.065 4.6829-.13 7.2845-.13s5.0731.065 7.2195.13c.3902-.39.3902-1.756 0-2.146-3.9675-.195-4.6829-.52-4.6829-5.919v-29.983c0-4.228.2601-6.83.2601-6.83 0-.455-.2601-.65-.8455-.65-1.626.65-6.504 1.561-9.1056 1.756-.1301.52 0 1.561.3902 1.951 3.7724.26 4.1626.456 4.1626 5.334z"/><path d="m63.7923 400.788c1.691-1.495 3.6422-2.081 5.5284-2.081 3.9674 0 7.2194 4.813 7.2194 11.122 0 7.415-2.9918 13.008-9.1706 13.008-2.0163 0-3.3821-1.431-4.6829-3.057v-16.26c0-1.366.2601-1.951 1.1057-2.732zm-.4553-2.016c-.4553.39-.6504.26-.6504-.325v-11.967c0-4.228.2601-6.83.2601-6.83 0-.455-.2601-.65-.8455-.65-1.626.65-6.504 1.561-9.1056 1.756-.1301.52 0 1.561.3902 1.951 3.3821.195 4.1626-.13 4.1626 5.334v31.739c0 2.537-.065 3.708-.2602 4.618.3252.52.6504.781 1.4309.781.3903-.326 1.0407-.976 1.4959-1.561.7155-.781 1.1057-.781 1.8212-.13 1.4309 1.235 3.3821 1.56 5.7235 1.56 6.6341 0 14.3739-6.048 14.3739-16.39 0-7.935-5.8536-12.813-11.5121-12.813-2.7968 0-5.2683 1.106-7.2845 2.927z"/><path d="m93.2509 406.057c1.2358-7.35 5.7886-7.935 7.3491-7.935 2.472 0 5.399 1.366 5.399 6.829 0 .585-.26.911-.976.911zm17.0401 12.292c-2.406 2.472-4.292 3.513-8.065 3.513-2.341 0-5.0727-1.366-7.0889-4.683-1.3008-2.147-2.0813-5.139-2.0813-8.911l17.3002.13c.781 0 1.236-.39 1.236-1.106 0-5.463-1.951-11.317-10.992-11.317-5.6581 0-13.0076 5.399-13.0076 15.285 0 3.642.9106 7.154 3.0569 9.626 2.2114 2.602 5.2683 4.162 9.9507 4.162 4.944 0 8.456-2.276 11.057-5.658-.195-.65-.585-.976-1.366-1.041z"/><path d="m128.39 425.048c2.536 0 5.593-1.3 8.78-3.902.326-.26.911-.39.976.065.13 1.691.715 3.837.715 3.837.521.196.781.196 1.236 0 1.431-1.17 3.707-2.146 7.675-2.601.39-.39.39-1.366 0-1.756-4.163-.325-4.748-1.561-4.748-4.748v-12.488c0-1.951.26-6.699.26-6.699 0-.195-.195-.39-.52-.39-.325.065-1.301.13-2.277.13-2.081 0-4.422-.065-6.634-.13-.39.39-.39 1.756 0 2.146 3.187.195 4.033.976 4.033 5.268v12.553c0 1.236-.13 1.756-1.041 2.537-2.406 2.081-4.878 3.122-6.504 3.122-1.951 0-5.203-.911-5.203-6.7v-11.837c0-1.951.26-6.699.26-6.699 0-.195-.195-.39-.52-.39-.325.065-1.301.13-2.277.13-2.081 0-4.422-.065-6.634-.13-.39.39-.39 1.756 0 2.146 3.122.26 4.033.976 4.033 5.203v12.488c0 4.488 1.951 8.845 8.39 8.845z"/><path d="m160.211 416.463v-17.431h6.049c.585 0 1.495-.26 1.495-.845v-1.301c0-.26-.195-.39-.52-.39h-7.024v-3.707c0-10.017 2.992-11.578 5.138-11.578 1.951 0 2.992.781 3.902 3.057.521 1.171 1.236 2.082 2.602 2.082 1.106 0 2.667-1.366 2.667-2.667 0-1.106-.716-2.277-2.082-3.317-1.691-1.171-3.382-1.366-5.853-1.366-5.464 0-11.512 4.748-11.512 14.894v2.602h-3.317c-1.171 0-1.496.78-1.496 1.301v.845c0 .325.065.39.325.39h4.488v17.431c0 5.399-1.041 5.659-4.553 5.919-.39.39-.39 1.756 0 2.146 2.276-.065 4.553-.13 7.154-.13 2.602 0 5.724.065 8 .13.39-.39.39-1.756 0-2.146-5.073-.26-5.463-.52-5.463-5.919z"/><path d="m265.483 416.853c.326 5.269.13 5.334-4.097 5.529-.39.39-.39 1.756 0 2.146 2.406-.065 5.008-.13 6.959-.13s4.878.065 7.089.13c.391-.39.391-1.756 0-2.146-4.422-.195-4.682-.455-5.008-5.854l-1.951-27.382c-.26-3.512.065-4.422 4.488-4.683.39-.39.39-1.756 0-2.146l-8.52.13-13.789 32.976c-.26.65-.455.91-.585.91s-.325-.325-.521-.845l-13.333-33.041-9.431-.13c-.39.39-.39 1.756 0 2.146 4.488.261 4.878.391 4.423 5.269l-2.667 26.796c-.325 3.903-1.105 5.529-4.813 5.854-.39.39-.39 1.756 0 2.146 1.952-.065 4.033-.13 5.594-.13s4.163.065 6.114.13c.39-.39.39-1.756 0-2.146-4.293-.325-4.683-2.277-4.293-5.984l2.472-26.081h.13l13.463 33.756c.13.52.585.975.976.975.39 0 .65-.455.91-.975l14.634-34.406h.13z"/><path d="m296.044 409.244v8.585c0 .846-.391 1.301-.911 1.691-1.691 1.366-3.902 2.862-5.724 2.862-3.252 0-4.682-2.602-4.682-4.618 0-2.927 1.365-5.919 6.178-7.154zm0 12.032c.39 2.016 1.04 3.772 4.357 3.772 2.472 0 4.813-1.105 6.179-2.406-.13-.78-.39-1.301-1.106-1.756-.52.455-1.626 1.041-2.406 1.041-1.886 0-1.951-2.537-1.951-5.529v-9.561c0-9.235-5.073-10.992-9.821-10.992-5.334 0-10.732 3.513-10.732 7.22 0 1.561.78 2.341 2.276 2.341 1.887 0 3.057-1.366 3.057-2.211 0-.455-.065-.911-.195-1.171-.065-.195-.13-.585-.13-1.301 0-2.016 2.732-2.731 5.203-2.731 2.212 0 5.269 1.105 5.269 8.455 0 .455-.196.715-.391.78l-5.593 1.366c-6.244 1.561-10.732 5.008-10.732 9.431 0 5.333 3.642 7.024 8.195 7.024 2.212 0 4.228-.52 7.09-2.731l1.3-1.041z"/><path d="m318.159 401.114c-.13-2.602-.26-4.228-.52-4.943-.195-.261-.26-.521-.781-.521-1.821.716-3.512 1.301-7.999 1.886-.131.391 0 1.431.13 1.822 3.512.325 4.227.65 4.227 4.422v12.683c0 5.399-.78 5.659-4.813 5.919-.39.39-.39 1.756 0 2.146 2.277-.065 4.813-.13 7.415-.13 2.601 0 5.593.065 7.87.13.39-.39.39-1.756 0-2.146-4.553-.325-5.334-.52-5.334-5.919v-9.04c0-1.691.781-3.187 1.561-4.358.716-1.041 2.212-3.187 2.992-3.187.586 0 1.171.195 1.626.845.521.651 1.236 1.496 2.407 1.496 1.561 0 3.057-1.626 3.057-3.252 0-1.235-1.171-3.122-3.903-3.122-3.057 0-5.723 2.862-7.219 5.399-.391.715-.716.195-.716-.13z"/><path d="m334.034 415.423c.26 3.186.455 6.243.455 8.975.65-.13 1.301-.195 1.626-.195.455 0 .845 0 1.301.13 1.756.455 3.512.715 5.918.715 3.643 0 10.342-1.756 10.342-8.195 0-4.422-3.187-7.024-7.61-8.65-3.967-1.431-6.504-2.471-6.504-6.049 0-2.666 2.342-4.162 4.553-4.162 1.431 0 5.203.52 6.049 6.048.39.391 1.691.326 2.081-.065.195-2.341.325-4.747.39-6.894-2.016-.325-5.138-1.236-8.52-1.236-4.813 0-9.171 3.122-9.171 7.285 0 4.748 2.147 6.764 7.155 8.845 5.398 2.212 6.634 3.578 6.634 6.374 0 3.187-3.122 4.553-5.529 4.553-2.536 0-3.967-.845-4.618-1.561-1.43-1.496-2.146-4.358-2.536-5.984-.39-.39-1.626-.325-2.016.066z"/><path d="m364.32 406.057c1.235-7.35 5.788-7.935 7.349-7.935 2.472 0 5.398 1.366 5.398 6.829 0 .585-.26.911-.975.911zm17.04 12.292c-2.406 2.472-4.293 3.513-8.065 3.513-2.341 0-5.073-1.366-7.089-4.683-1.301-2.147-2.082-5.139-2.082-8.911l17.301.13c.781 0 1.236-.39 1.236-1.106 0-5.463-1.951-11.317-10.992-11.317-5.658 0-13.008 5.399-13.008 15.285 0 3.642.911 7.154 3.057 9.626 2.211 2.602 5.268 4.162 9.951 4.162 4.943 0 8.455-2.276 11.057-5.658-.195-.65-.585-.976-1.366-1.041z"/><path d="m391.198 385.439c0 1.691 1.561 3.382 3.122 3.382 1.821 0 3.382-1.691 3.382-3.122 0-1.561-1.365-3.382-3.121-3.382-1.561 0-3.383 1.561-3.383 3.122zm5.919 31.024v-12.943c0-3.252.26-7.414.26-7.414 0-.261-.325-.456-.845-.456-1.886.716-4.423 1.301-8.911 1.886-.13.391 0 1.431.13 1.822 3.512.39 4.228.715 4.228 4.422v12.683c0 5.399-.716 5.594-4.683 5.919-.39.39-.39 1.756 0 2.146 2.146-.065 4.683-.13 7.285-.13 2.601 0 5.073.065 7.219.13.39-.39.39-1.756 0-2.146-3.967-.26-4.683-.52-4.683-5.919z"/><path d="m409.181 416.463c0 5.399-.715 5.724-4.683 5.919-.39.39-.39 1.756 0 2.146 2.277-.065 4.683-.13 7.285-.13 2.601 0 5.073.065 7.219.13.39-.39.39-1.756 0-2.146-3.967-.195-4.683-.52-4.683-5.919v-29.983c0-4.228.26-6.83.26-6.83 0-.455-.26-.65-.845-.65-1.626.65-6.504 1.561-9.106 1.756-.13.52 0 1.561.39 1.951 3.773.26 4.163.456 4.163 5.334z"/><path d="m426.33 416.463c0 5.399-.715 5.724-4.683 5.919-.39.39-.39 1.756 0 2.146 2.277-.065 4.683-.13 7.285-.13s5.073.065 7.219.13c.391-.39.391-1.756 0-2.146-3.967-.195-4.683-.52-4.683-5.919v-29.983c0-4.228.261-6.83.261-6.83 0-.455-.261-.65-.846-.65-1.626.65-6.504 1.561-9.106 1.756-.13.52 0 1.561.391 1.951 3.772.26 4.162.456 4.162 5.334z"/><path d="m445.366 406.057c1.236-7.35 5.788-7.935 7.349-7.935 2.472 0 5.399 1.366 5.399 6.829 0 .585-.261.911-.976.911zm17.04 12.292c-2.406 2.472-4.292 3.513-8.065 3.513-2.341 0-5.073-1.366-7.089-4.683-1.301-2.147-2.081-5.139-2.081-8.911l17.3.13c.781 0 1.236-.39 1.236-1.106 0-5.463-1.951-11.317-10.992-11.317-5.658 0-13.008 5.399-13.008 15.285 0 3.642.911 7.154 3.057 9.626 2.212 2.602 5.268 4.162 9.951 4.162 4.943 0 8.456-2.276 11.057-5.658-.195-.65-.585-.976-1.366-1.041z"/><path d="m563.584 416.853c.325 5.269.13 5.334-4.097 5.529-.391.39-.391 1.756 0 2.146 2.406-.065 5.008-.13 6.959-.13s4.878.065 7.089.13c.391-.39.391-1.756 0-2.146-4.422-.195-4.683-.455-5.008-5.854l-1.951-27.382c-.26-3.512.065-4.422 4.488-4.683.39-.39.39-1.756 0-2.146l-8.521.13-13.788 32.976c-.26.65-.455.91-.585.91s-.326-.325-.521-.845l-13.333-33.041-9.431-.13c-.39.39-.39 1.756 0 2.146 4.488.261 4.878.391 4.423 5.269l-2.667 26.796c-.325 3.903-1.105 5.529-4.813 5.854-.39.39-.39 1.756 0 2.146 1.952-.065 4.033-.13 5.594-.13s4.162.065 6.114.13c.39-.39.39-1.756 0-2.146-4.293-.325-4.683-2.277-4.293-5.984l2.471-26.081h.131l13.463 33.756c.13.52.585.975.975.975.391 0 .651-.455.911-.975l14.634-34.406h.13z"/><path d="m577.754 411.065c0 6.634 4.423 13.983 13.659 13.983 4.162 0 7.284-1.43 9.496-3.642 2.926-2.797 4.292-6.894 4.292-10.927 0-6.764-3.707-14.634-13.658-14.634-4.293 0-7.87 1.757-10.212 4.553-2.341 2.797-3.577 6.569-3.577 10.667zm12.813-12.943c5.594 0 9.041 5.073 9.041 14.439 0 8.195-4.228 10.211-7.285 10.211-6.764 0-8.975-8.195-8.975-13.203 0-5.659 1.366-11.447 7.219-11.447z"/><path d="m619.829 401.114c-.455.455-.78.65-.78 0-.065-1.756-.26-4.228-.521-4.943-.195-.261-.26-.521-.78-.521-1.821.716-3.512 1.301-8 1.886-.13.391 0 1.431.13 1.822 3.512.325 4.228.65 4.228 4.422v12.683c0 5.333-.651 5.594-4.553 5.919-.39.39-.39 1.756 0 2.146 1.951-.065 4.553-.13 7.154-.13 2.602 0 4.553.065 6.504.13.391-.39.391-1.756 0-2.146-3.317-.325-3.967-.586-3.967-5.919v-10.666c0-1.366.585-2.147 1.106-2.732 2.471-2.407 5.398-3.837 7.934-3.837 1.301 0 2.667.845 3.448 2.341.65 1.301.78 3.057.78 5.008v9.886c0 5.333-.65 5.594-4.032 5.919-.326.39-.326 1.756 0 2.146 1.951-.065 4.032-.13 6.634-.13 2.601 0 4.943.065 6.894.13.325-.39.325-1.756 0-2.146-3.642-.325-4.358-.586-4.358-5.919v-9.691c0-3.577-.26-6.699-1.756-8.715-1.106-1.431-3.122-2.212-5.398-2.212-3.187 0-6.829.846-10.667 5.269z"/><path d="m645.91 396.496c-.911 0-1.171.78-1.171 1.301v.845c0 .325.065.39.325.39h3.838v19.577c0 4.618 2.016 6.439 5.008 6.439s6.244-1.43 8.78-4.292c-.13-.651-.52-1.041-1.171-1.106-1.691 1.301-3.642 1.821-5.333 1.821-1.756 0-2.146-1.951-2.146-5.983v-16.456h6.764c.65 0 1.561-.26 1.561-.845v-1.301c0-.26-.195-.39-.52-.39h-7.805v-2.537c0-4.227.26-6.829.26-6.829 0-.39-.195-.52-.52-.52-.326 0-.846.26-1.431.585-.781.39-1.431.65-2.212.911-.78.195-1.43.455-1.43.845 0 .781.195.325.195 7.545z"/><path d="m675.139 401.114c-.13-2.602-.26-4.228-.52-4.943-.195-.261-.26-.521-.781-.521-1.821.716-3.512 1.301-7.999 1.886-.131.391 0 1.431.13 1.822 3.512.325 4.227.65 4.227 4.422v12.683c0 5.399-.78 5.659-4.813 5.919-.39.39-.39 1.756 0 2.146 2.277-.065 4.813-.13 7.415-.13 2.601 0 5.593.065 7.87.13.39-.39.39-1.756 0-2.146-4.553-.325-5.334-.52-5.334-5.919v-9.04c0-1.691.781-3.187 1.561-4.358.716-1.041 2.212-3.187 2.992-3.187.586 0 1.171.195 1.626.845.521.651 1.236 1.496 2.407 1.496 1.561 0 3.057-1.626 3.057-3.252 0-1.235-1.171-3.122-3.903-3.122-3.057 0-5.723 2.862-7.219 5.399-.391.715-.716.195-.716-.13z"/><path d="m695.957 406.057c1.235-7.35 5.788-7.935 7.349-7.935 2.472 0 5.399 1.366 5.399 6.829 0 .585-.261.911-.976.911zm17.04 12.292c-2.406 2.472-4.292 3.513-8.065 3.513-2.341 0-5.073-1.366-7.089-4.683-1.301-2.147-2.081-5.139-2.081-8.911l17.3.13c.781 0 1.236-.39 1.236-1.106 0-5.463-1.951-11.317-10.992-11.317-5.658 0-13.008 5.399-13.008 15.285 0 3.642.911 7.154 3.057 9.626 2.211 2.602 5.268 4.162 9.951 4.162 4.943 0 8.456-2.276 11.057-5.658-.195-.65-.585-.976-1.366-1.041z"/><path d="m736.039 409.244v8.585c0 .846-.39 1.301-.911 1.691-1.691 1.366-3.902 2.862-5.723 2.862-3.252 0-4.683-2.602-4.683-4.618 0-2.927 1.366-5.919 6.179-7.154zm0 12.032c.39 2.016 1.04 3.772 4.357 3.772 2.472 0 4.813-1.105 6.179-2.406-.13-.78-.39-1.301-1.105-1.756-.521.455-1.626 1.041-2.407 1.041-1.886 0-1.951-2.537-1.951-5.529v-9.561c0-9.236-5.073-10.992-9.821-10.992-5.333 0-10.732 3.513-10.732 7.22 0 1.561.781 2.341 2.277 2.341 1.886 0 3.057-1.366 3.057-2.211 0-.455-.066-.911-.196-1.171-.065-.195-.13-.585-.13-1.301 0-2.016 2.732-2.731 5.204-2.731 2.211 0 5.268 1.105 5.268 8.455 0 .455-.195.715-.39.78l-5.594 1.366c-6.244 1.561-10.732 5.008-10.732 9.431 0 5.333 3.643 7.024 8.196 7.024 2.211 0 4.227-.52 7.089-2.731l1.301-1.041z"/><path d="m752.886 416.463c0 5.399-.715 5.724-4.683 5.919-.39.39-.39 1.756 0 2.146 2.277-.065 4.683-.13 7.285-.13 2.601 0 5.073.065 7.219.13.391-.39.391-1.756 0-2.146-3.967-.195-4.683-.52-4.683-5.919v-29.983c0-4.228.261-6.83.261-6.83 0-.455-.261-.65-.846-.65-1.626.65-6.504 1.561-9.106 1.756-.13.52 0 1.561.391 1.951 3.772.26 4.162.456 4.162 5.334z"/><path d="m0 73h62.9136v21.0864h-31.9753v34.7406h24.3703v21.432h-24.3703v41.827h32.321v20.914h-63.2593z"/><path d="m95.2805 137.642-25.926-64.642h29.2099l15.3826 37.852 12.445-37.852h25.753l-24.544 72.765 27.309 67.235h-29.037l-17.111-41.827-15.0371 41.827h-25.5802z"/><path d="m166.43 73h30.938v140h-30.938z"/><path d="m218.244 73h30.938v119.086h32.148v20.914h-63.086z"/><path d="m294.874 73h62.913v21.0864h-31.975v34.7406h24.37v21.432h-24.37v41.827h32.321v20.914h-63.259z"/></g></svg>