<svg clip-rule="evenodd" fill-rule="evenodd" stroke-linejoin="round" stroke-miterlimit="2" viewBox="0 0 671 363" xmlns="http://www.w3.org/2000/svg"><g fill-rule="nonzero"><path d="M100.3 60.917v90.158l67.338 151.246h.066l19.58-44.35z" fill="#ef402f"/><path d="M60.18 302.321h40.12V151.075L60.18 60.971z" fill="#0bb259"/><path d="M60.18 60.917v.054l40.12 90.104V60.917z" fill="#a154a1"/><path d="M274.263 151.067V302.32h40.12V60.954z" fill="#00a0e4"/><path d="M187.283 257.971l19.575 44.35h.063l67.342-151.254v-90.15z" fill="#ffcb03"/><path d="M167.704 302.321h39.154l-19.575-44.35z" fill="#f5821f"/><path d="M314.384 60.917h-40.121v90.15l40.12-90.113z" fill="#00a65d"/><g fill="#231f20"><path d="M354.5 60.9h6.704l8.896 23.558 8.734-23.558h6.704v28.35h-4.059V64.717h-.083l-9.383 24.533h-3.988l-9.383-24.533h-.08V89.25H354.5zM420.259 77.517c0 7.958-4.021 12.225-11.013 12.225s-11.012-4.267-11.012-12.225V60.9h4.062v16.088c0 5.445 1.708 9.179 6.95 9.179s6.95-3.734 6.95-9.18V60.9h4.063zM445.796 65.163c-2.075-.813-3.208-1.18-5.325-1.18-2.27 0-4.954.813-4.954 3.775 0 5.446 12.192 4.192 12.192 13.534 0 6.054-4.671 8.45-10.363 8.45-1.991 0-3.946-.571-5.808-1.184l.408-3.775c1.375.571 3.817 1.384 5.892 1.384 2.308 0 5.567-1.3 5.567-4.63 0-6.341-12.192-4.591-12.192-13.412 0-5.037 3.979-7.717 9.096-7.717 1.875 0 4.104.33 6.054 1.021zM458.825 60.9h15.884v3.57h-11.825v8.284h10.766v3.584h-10.766v9.341h11.825v3.571h-15.884zM486.809 60.9h15.879v3.57H490.87v8.284h10.767v3.584H490.87v9.341h11.817v3.571h-15.88zM533.7 85.68h4.267c6.988 0 10.846-3.372 10.846-10.688 0-6.621-4.513-10.521-10.358-10.521H533.7zm-4.058-24.78h8.363c8.408 0 15.116 5.2 15.116 13.93 0 9.508-5.77 14.42-15.116 14.42h-8.363zM564.546 60.9h15.875v3.57h-11.816v8.284h10.766v3.584h-10.766v9.341h11.816v3.571h-15.875zM606.805 65.163c-2.075-.813-3.213-1.18-5.321-1.18-2.28 0-4.954.813-4.954 3.775 0 5.446 12.179 4.192 12.179 13.534 0 6.054-4.671 8.45-10.359 8.45-1.987 0-3.937-.571-5.812-1.184l.408-3.775c1.384.571 3.825 1.384 5.892 1.384 2.32 0 5.567-1.3 5.567-4.63 0-6.341-12.192-4.591-12.192-13.412 0-5.037 3.987-7.717 9.108-7.717 1.863 0 4.1.33 6.046 1.021zM358.563 139.196h3.05c3.654 0 6.941-.775 6.941-4.592 0-4.387-3.858-4.996-7.35-4.996h-2.641zm0-12.925h2.237c3.938 0 7.267-.367 7.267-4.55 0-3.367-2.88-4.22-5.233-4.22h-4.271zm-4.063-12.1h7.684c5.883 0 9.954 1.904 9.954 7.146 0 3.904-2.28 5.85-5.854 6.746v.079c3.858.325 6.583 2.841 6.583 6.829 0 6.096-5.038 7.554-10.804 7.554H354.5zM381.592 114.17h15.88v3.572h-11.818v8.287h10.767v3.58h-10.767v9.341h11.817v3.575h-15.879zM417.655 117.988l-5.65 14.054H423.3zm-1.996-3.817h4.275l11.979 28.354h-4.43l-2.878-7.146H410.7l-2.879 7.146h-4.262zM458.996 130.788c0 7.958-4.02 12.225-11.012 12.225-6.984 0-11.004-4.267-11.004-12.225V114.17h4.062v16.087c0 5.446 1.7 9.18 6.942 9.18s6.95-3.734 6.95-9.18v-16.087h4.062zM475.238 127.775l-9.504-13.604h4.875l7.55 10.887 7.52-10.887h4.63l-9.546 13.525 10.483 14.83h-5.12l-8.371-12.022-8.084 12.021h-4.875zM492.45 126.542h10.442v3.091H492.45zM520.634 117.988l-5.65 14.054h11.296zm-1.996-3.817h4.275l11.975 28.354h-4.425l-2.88-7.146h-13.9l-2.883 7.146h-4.262zM545.03 126.354h3.458c3.858 0 6.13-1.704 6.13-4.429 0-2.554-1.947-4.183-5.68-4.183h-3.908zm-4.063-12.183h6.95c5.608 0 11.013.896 11.013 7.675 0 3.458-2.563 5.892-5.85 6.458v.084c1.262.487 1.862 1.1 2.758 2.841l5.362 11.296h-4.629l-4.346-9.833c-1.262-2.759-2.604-2.759-4.754-2.759h-2.441v12.592h-4.063zM573.555 117.742h-8.813v-3.571h21.688v3.57h-8.817v24.784h-4.058zM606.805 118.433c-2.075-.812-3.213-1.179-5.321-1.179-2.28 0-4.954.813-4.954 3.775 0 5.446 12.179 4.192 12.179 13.534 0 6.054-4.671 8.45-10.359 8.45-1.987 0-3.937-.571-5.812-1.18l.408-3.779c1.384.571 3.825 1.384 5.892 1.384 2.32 0 5.567-1.3 5.567-4.63 0-6.341-12.192-4.591-12.192-13.412 0-5.038 3.987-7.713 9.108-7.713 1.863 0 4.1.325 6.046 1.017zM354.5 167.442h6.704L370.1 191l8.734-23.558h6.704v28.354h-4.059v-24.538h-.083l-9.383 24.538h-3.988l-9.383-24.538h-.08v24.538H354.5zM410.671 192.708c6.534 0 9.342-5.441 9.342-11.091 0-5.767-3.083-11.134-9.342-11.092-6.258-.042-9.346 5.325-9.346 11.092 0 5.65 2.8 11.091 9.346 11.091zm0-25.754c8.609 0 13.646 6.259 13.646 14.663 0 8.612-4.996 14.666-13.646 14.666-8.662 0-13.658-6.054-13.658-14.666 0-8.404 5.037-14.663 13.658-14.663zM435.792 167.442h5.53l12.512 22.829h.083v-22.83h4.063v28.355h-5.2l-12.846-23.317h-.08v23.317h-4.062zM476.484 171.017h-8.813v-3.575h21.688v3.575h-8.813v24.779h-4.062zM503.113 179.625h3.458c3.854 0 6.125-1.7 6.125-4.429 0-2.554-1.941-4.18-5.679-4.18h-3.904zm-4.063-12.183H506c5.609 0 11.013.896 11.013 7.675 0 3.458-2.567 5.891-5.854 6.462v.08c1.262.487 1.862 1.1 2.758 2.841l5.363 11.296h-4.63l-4.345-9.833c-1.263-2.759-2.605-2.759-4.75-2.759h-2.442v12.592h-4.063zM530.455 167.442h15.879v3.575h-11.817v8.283h10.767v3.58h-10.767v9.341h11.817v3.575h-15.88zM569.475 171.258l-5.637 14.055h11.287zm-1.983-3.816h4.263l11.987 28.354h-4.425l-2.892-7.146h-13.891l-2.888 7.146h-4.262zM592.792 167.442h4.063v24.779h11.854v3.575h-15.917zM354.5 220.713h6.704l8.896 23.558 8.734-23.558h6.704v28.354h-4.059v-24.538h-.083l-9.383 24.538h-3.988l-9.383-24.538h-.08v24.538H354.5zM417.175 237.334c0 7.958-4.025 12.22-11.012 12.22-6.984 0-11.004-4.262-11.004-12.22v-16.621h4.062V236.8c0 5.446 1.7 9.184 6.942 9.184 5.237 0 6.95-3.738 6.95-9.184v-16.087h4.062zM439.625 224.98c-2.075-.817-3.204-1.184-5.32-1.184-2.271 0-4.959.817-4.959 3.78 0 5.44 12.192 4.187 12.192 13.533 0 6.054-4.671 8.445-10.358 8.445-1.996 0-3.946-.57-5.813-1.179l.408-3.775c1.375.567 3.817 1.384 5.892 1.384 2.313 0 5.567-1.305 5.567-4.634 0-6.337-12.192-4.587-12.192-13.408 0-5.038 3.98-7.717 9.1-7.717 1.87 0 4.1.325 6.054 1.017zM449.571 220.713h15.884v3.575h-11.821v8.283H464.4v3.58h-10.766v9.345h11.82v3.57h-15.883zM497.088 237.334c0 7.958-4.02 12.22-11.008 12.22-6.992 0-11.013-4.262-11.013-12.22v-16.621h4.063V236.8c0 5.446 1.708 9.184 6.95 9.184s6.95-3.738 6.95-9.184v-16.087h4.058zM506.7 220.713h6.705l8.895 23.558 8.734-23.558h6.704v28.354h-4.063v-24.538h-.079l-9.383 24.538h-3.988l-9.383-24.538h-.08v24.538H506.7zM571.225 245.984c6.538 0 9.342-5.446 9.342-11.096 0-5.767-3.083-11.13-9.342-11.092-6.258-.037-9.341 5.325-9.341 11.092 0 5.65 2.8 11.096 9.341 11.096zm0-25.759c8.613 0 13.65 6.259 13.65 14.663 0 8.612-5 14.666-13.65 14.666-8.658 0-13.654-6.054-13.654-14.666 0-8.404 5.038-14.663 13.654-14.663zM593.638 220.713h15.07v3.575H597.7v8.283h10.521v3.58h-10.52v12.916h-4.063zM354.5 273.946h15.342v3.57h-11.208v8.284h10.712v3.584h-10.712v12.912H354.5zM385.338 273.946h4.133v28.35h-4.133zM404.963 273.946h5.625l12.737 22.825h.084v-22.825h4.133v28.35h-5.3l-13.063-23.312h-.079v23.312h-4.137zM443.038 273.946h16.167v3.57H447.18v8.284h10.954v3.584H447.18v9.341h12.025v3.571h-16.167zM497.521 277.763l-5.746 14.054h11.492zm-2.029-3.817h4.346l12.2 28.35h-4.508l-2.938-7.146H490.45l-2.941 7.146h-4.338zM529.346 286.125h3.517c3.92 0 6.237-1.7 6.237-4.425 0-2.554-1.979-4.183-5.779-4.183h-3.975zm-4.133-12.179h7.075c5.704 0 11.204.892 11.204 7.67 0 3.46-2.604 5.893-5.962 6.463v.084c1.291.487 1.908 1.096 2.82 2.837l5.459 11.296h-4.717l-4.433-9.83c-1.271-2.757-2.642-2.757-4.83-2.757h-2.483v12.587h-4.133zM565.634 277.517h-8.967v-3.57h22.08v3.57h-8.967v24.78h-4.146zM606.767 278.209c-2.108-.813-3.267-1.18-5.412-1.18-2.321 0-5.046.813-5.046 3.775 0 5.446 12.4 4.192 12.4 13.534 0 6.054-4.75 8.446-10.538 8.446-2.025 0-4.02-.567-5.916-1.18l.416-3.775c1.4.571 3.888 1.384 5.996 1.384 2.354 0 5.667-1.304 5.667-4.63 0-6.341-12.413-4.591-12.413-13.412 0-5.037 4.054-7.717 9.263-7.717 1.904 0 4.183.325 6.158 1.017zM532.98 160.792h10.437v3.091H532.98zM461.355 54.25h10.441v3.092h-10.441z"/></g></g></svg>