<svg clip-rule="evenodd" fill-rule="evenodd" stroke-linejoin="round" stroke-miterlimit="2" viewBox="0 0 1300 729" xmlns="http://www.w3.org/2000/svg"><g fill="#595453" fill-rule="nonzero"><path d="m0-30.787c.046-.357.315-.67.806-.67h.714c.357 0 .621.18.756.448l9.817 21.059h.136l9.815-21.059c.133-.268.355-.448.758-.448h.714c.492 0 .756.313.804.67l5.265 29.984c.134.625-.224 1.026-.805 1.026h-4.057c-.403 0-.761-.357-.849-.668l-2.634-16.909h-.133l-7.807 17.534c-.092.267-.358.49-.76.49h-.804c-.403 0-.625-.223-.757-.49l-7.901-17.534h-.13l-2.591 16.909c-.042.311-.399.668-.801.668h-4.016c-.58 0-.937-.401-.848-1.026z" transform="matrix(4.16667 0 0 4.16667 591.89214018 222.285177828)"/><path d="m0-18.738c4.996 0 9.012 4.284 9.012 9.326 0 5.129-4.016 9.412-9.012 9.412-4.999 0-9.012-4.283-9.012-9.412 0-5.042 4.013-9.326 9.012-9.326m0 14.903c2.81 0 5.043-2.5 5.043-5.577 0-2.991-2.233-5.445-5.043-5.445s-5.044 2.454-5.044 5.445c0 3.077 2.234 5.577 5.044 5.577" transform="matrix(4.16667 0 0 4.16667 767.11311369 225.071430057)"/><path d="m0-15.707c0-.446.403-.847.85-.847h1.293c.357 0 .625.222.712.534l.534 1.518c.315-.358 2.678-2.498 6.25-2.498 5.443 0 7.449 3.837 7.449 8.476v8.968c0 .449-.4.849-.848.849h-2.542c-.489 0-.846-.4-.846-.849v-9.147c0-2.855-1.383-4.417-3.705-4.417-2.809 0-4.728 2.054-4.953 2.677v10.887c0 .579-.267.849-1.027.849h-2.317c-.447 0-.85-.4-.85-.849z" transform="matrix(4.16667 0 0 4.16667 822.54649137 217.831840932)"/><path d="m0-5.039h-1.873c-.492 0-.85-.403-.85-.847v-2.008c0-.492.358-.85.85-.85h1.873v-4.952c0-.447.402-.847.847-.847l2.546-.046c.444 0 .801.403.801.849v4.996h4.552c.491 0 .849.358.849.85v2.008c0 .444-.358.847-.849.847h-4.552v8.833c0 1.518.579 1.786 1.429 1.786.937 0 2.187-.536 2.72-.804.581-.267.849 0 1.026.403l.805 1.963c.222.492.042.847-.403 1.071-.444.266-3.077 1.337-5.22 1.337-3.524 0-4.551-2.142-4.551-5.307z" transform="matrix(4.16667 0 0 4.16667 920.57990313 185.281814892)"/><path d="m0-15.707c0-.446.402-.847.849-.847h1.294c.309 0 .667.268.757.625l.489 1.516c.315-.447 1.966-2.587 5.224-2.587 1.693 0 3.746.446 3.254 1.65l-1.069 2.187c-.225.49-.669.579-1.071.4-.269-.134-.937-.311-1.517-.311-2.587 0-3.839 1.873-4.016 2.186v11.332c0 .76-.49.849-1.204.849h-2.141c-.447 0-.849-.4-.849-.849z" transform="matrix(4.16667 0 0 4.16667 979.35911682 217.831840932)"/><path d="m0-18.738c4.641 0 8.211 3.48 8.211 8.254 0 .313-.044.893-.09 1.204-.046.447-.402.76-.802.76h-12.136c.134 2.407 2.23 4.774 5.13 4.774 1.606 0 3.08-.714 3.971-1.295.537-.312.847-.489 1.204-.044l1.252 1.697c.312.357.445.713-.091 1.158-1.294 1.116-3.613 2.23-6.603 2.23-5.401 0-8.971-4.238-8.971-9.369 0-5.041 3.57-9.369 8.925-9.369m4.062 7.407c-.135-2.143-1.919-3.972-4.104-3.972-2.41 0-4.283 1.74-4.553 3.972z" transform="matrix(4.16667 0 0 4.16667 1072.33835787 225.071430057)"/><path d="m0-4.73c1.873 0 3.523.536 3.523.536.046-2.812-.492-3.927-2.767-3.927-2.05 0-4.056.536-4.996.802-.534.134-.846-.223-.981-.713l-.357-1.651c-.133-.581.177-.892.582-1.027.309-.133 2.854-1.024 6.154-1.024 5.713 0 6.25 3.478 6.25 7.941v9.503c0 .447-.402.848-.848.848h-1.252c-.4 0-.579-.179-.756-.625l-.448-1.205c-.979.937-2.721 2.276-5.489 2.276-3.344 0-5.755-2.276-5.755-5.978 0-3.256 2.588-5.756 7.14-5.756m-.538 8.567c1.786 0 3.482-1.339 4.019-2.232v-2.855c-.269-.179-1.519-.714-3.125-.714-2.14 0-3.614 1.115-3.614 2.946 0 1.605 1.071 2.855 2.72 2.855" transform="matrix(4.16667 0 0 4.16667 1148.05091844 195.89182338)"/><path d="m0-29.538c0-.446.402-.847.847-.847h2.546c.444 0 .848.401.848.847v29.538c0 .446-.404.847-.848.847h-2.546c-.445 0-.847-.401-.847-.847z" transform="matrix(4.16667 0 0 4.16667 1201.6259613 219.687259083)"/><path d="m0-29.538c0-.447.399-.847.849-.847h4.149c.49 0 .847.4.847.847v11.823h14.544v-11.823c0-.447.357-.847.847-.847h4.107c.447 0 .849.4.849.847v29.538c0 .446-.402.847-.849.847h-4.107c-.49 0-.847-.401-.847-.847v-12.316h-14.544v12.316c0 .446-.357.847-.847.847h-4.149c-.45 0-.849-.401-.849-.847z" transform="matrix(4.16667 0 0 4.16667 586.30463571 434.60868102)"/><path d="m0-18.739c4.996 0 9.013 4.284 9.013 9.326 0 5.129-4.017 9.413-9.013 9.413-4.998 0-9.012-4.284-9.012-9.413 0-5.042 4.014-9.326 9.012-9.326m0 14.903c2.81 0 5.044-2.5 5.044-5.577 0-2.991-2.234-5.445-5.044-5.445-2.809 0-5.043 2.454-5.043 5.445 0 3.077 2.234 5.577 5.043 5.577" transform="matrix(4.16667 0 0 4.16667 755.73393792 439.99618533)"/><path d="m0-29.538c0-.447.402-.847.849-.847h2.544c.444 0 .847.4.847.847v29.538c0 .446-.403.847-.847.847h-2.544c-.447 0-.849-.401-.849-.847z" transform="matrix(4.16667 0 0 4.16667 811.17564894 434.60868102)"/><path d="m0-18.739c4.998 0 9.016 4.284 9.016 9.326 0 5.129-4.018 9.413-9.016 9.413s-9.012-4.284-9.012-9.413c0-5.042 4.014-9.326 9.012-9.326m0 14.903c2.813 0 5.044-2.5 5.044-5.577 0-2.991-2.231-5.445-5.044-5.445-2.81 0-5.04 2.454-5.04 5.445 0 3.077 2.23 5.577 5.04 5.577" transform="matrix(4.16667 0 0 4.16667 884.25904074 439.99618533)"/><path d="m0-18.739c2.722 0 4.821 1.115 6.47 3.167.311.403.224.937-.179 1.25l-1.47 1.339c-.538.489-.849.131-1.206-.178-.805-.893-2.099-1.697-3.57-1.697-2.9 0-5.176 2.454-5.176 5.489 0 3.079 2.23 5.533 5.131 5.533 2.275 0 3.212-1.162 4.148-2.051.404-.403.804-.403 1.206-.092l1.206.981c.444.357.625.805.311 1.251-1.429 2.274-3.836 3.747-6.917 3.747-4.998 0-9.323-3.971-9.323-9.326 0-5.264 4.418-9.413 9.369-9.413" transform="matrix(4.16667 0 0 4.16667 973.17161187 439.99618533)"/><path d="m0-4.73c1.877 0 3.528.536 3.528.536.041-2.812-.492-3.927-2.768-3.927-2.054 0-4.062.536-4.998.802-.533.134-.847-.223-.982-.713l-.357-1.651c-.133-.581.181-.892.579-1.027.315-.133 2.857-1.024 6.161-1.024 5.712 0 6.246 3.478 6.246 7.941v9.503c0 .447-.401.848-.849.848h-1.248c-.403 0-.58-.179-.76-.625l-.445-1.205c-.982.937-2.722 2.276-5.488 2.276-3.348 0-5.758-2.276-5.758-5.978 0-3.256 2.591-5.756 7.139-5.756m-.533 8.567c1.785 0 3.481-1.339 4.015-2.232v-2.855c-.265-.178-1.517-.714-3.121-.714-2.142 0-3.617 1.115-3.617 2.946 0 1.605 1.071 2.855 2.723 2.855" transform="matrix(4.16667 0 0 4.16667 1044.03833523 410.813245317)"/><path d="m0-16.598c0-.446.403-.847.848-.847h2.542c.448 0 .848.401.848.847v9.147c0 2.899 1.385 4.462 3.658 4.462 2.632 0 4.283-2.143 4.418-2.946v-10.663c0-.714.357-.847.982-.847h2.321c.447 0 .846.401.846.847v16.151c0 .448-.399.849-.846.849h-1.25c-.446 0-.668-.313-.803-.714l-.445-1.294c-.402.357-2.275 2.453-5.89 2.453-5.356 0-7.229-3.792-7.229-8.433z" transform="matrix(4.16667 0 0 4.16667 1096.50504387 436.46701584)"/><path d="m0 13.207.937-1.74c.176-.358.667-.492 1.113-.224 0 0 1.964 1.16 4.152 1.16 1.336 0 2.185-.533 2.185-1.516 0-1.206-.983-1.785-3.437-2.901-2.765-1.204-5.085-2.899-5.085-5.845 0-2.232 1.827-4.907 6.112-4.907 2.498 0 4.374.802 5.265 1.381.403.27.625.849.358 1.294l-.802 1.518c-.225.401-.804.536-1.161.357 0 0-1.964-.936-3.66-.936-1.517 0-2.009.668-2.009 1.337 0 1.161 1.117 1.651 2.857 2.411 3.258 1.428 5.933 2.809 5.933 6.156 0 2.768-2.633 5.221-6.602 5.221-2.99 0-4.952-1.072-5.89-1.829-.266-.179-.447-.58-.266-.937" transform="matrix(4.16667 0 0 4.16667 1184.1259473 373.445298756)"/><path d="m0-5.039h-1.873c-.492 0-.848-.403-.848-.847v-2.008c0-.492.356-.849.848-.849h1.873v-4.953c0-.446.402-.847.849-.847l2.54-.046c.448 0 .805.403.805.85v4.996h4.55c.49 0 .848.357.848.849v2.008c0 .444-.358.847-.848.847h-4.55v8.833c0 1.519.579 1.786 1.429 1.786.937 0 2.185-.536 2.721-.804.581-.267.848 0 1.025.403l.802 1.963c.225.492.047.847-.4 1.071-.448.266-3.077 1.337-5.219 1.337-3.527 0-4.552-2.142-4.552-5.307z" transform="matrix(4.16667 0 0 4.16667 1259.26767408 400.202820162)"/><path d="m0-30.787c.042-.357.312-.67.802-.67h.714c.357 0 .625.18.756.448l9.819 21.059h.134l9.815-21.059c.133-.268.357-.448.76-.448h.712c.492 0 .76.313.804.67l5.266 29.984c.135.625-.223 1.026-.802 1.026h-4.061c-.403 0-.761-.357-.849-.668l-2.634-16.909h-.132l-7.808 17.534c-.091.267-.358.49-.76.49h-.802c-.402 0-.627-.223-.759-.49l-7.897-17.534h-.134l-2.59 16.909c-.042.311-.399.668-.802.668h-4.016c-.579 0-.937-.401-.848-1.026z" transform="matrix(4.16667 0 0 4.16667 608.49215346 634.68384108)"/><path d="m0-16.598c0-.446.403-.847.85-.847h2.54c.45 0 .848.401.848.847v9.147c0 2.899 1.385 4.462 3.658 4.462 2.632 0 4.283-2.143 4.417-2.946v-10.663c0-.714.358-.847.983-.847h2.321c.446 0 .846.401.846.847v16.151c0 .449-.4.849-.846.849h-1.25c-.446 0-.668-.313-.804-.714l-.444-1.294c-.402.358-2.275 2.453-5.89 2.453-5.356 0-7.229-3.792-7.229-8.433z" transform="matrix(4.16667 0 0 4.16667 750.60476715 633.94217382)"/><path d="m0 13.207.937-1.74c.175-.357.667-.492 1.112-.224 0 0 1.967 1.16 4.153 1.16 1.335 0 2.185-.533 2.185-1.516 0-1.206-.983-1.785-3.435-2.9-2.767-1.205-5.088-2.899-5.088-5.846 0-2.232 1.828-4.907 6.112-4.907 2.498 0 4.375.802 5.266 1.382.403.269.625.849.357 1.293l-.802 1.518c-.222.401-.803.536-1.16.357 0 0-1.965-.936-3.661-.936-1.516 0-2.008.668-2.008 1.337 0 1.161 1.117 1.651 2.857 2.411 3.258 1.428 5.933 2.809 5.933 6.156 0 2.768-2.633 5.221-6.602 5.221-2.99 0-4.952-1.072-5.89-1.829-.266-.179-.447-.58-.266-.937" transform="matrix(4.16667 0 0 4.16667 838.22150391 570.92129007)"/><path d="m0-18.738c4.637 0 8.206 3.48 8.206 8.254 0 .313-.041.893-.089 1.204-.042.447-.398.76-.802.76h-12.136c.134 2.407 2.23 4.774 5.133 4.774 1.603 0 3.077-.714 3.972-1.295.533-.312.845-.489 1.2-.044l1.252 1.697c.312.357.445.713-.088 1.158-1.296 1.115-3.616 2.23-6.606 2.23-5.399 0-8.969-4.238-8.969-9.369 0-5.041 3.57-9.369 8.927-9.369m4.058 7.407c-.135-2.143-1.917-3.972-4.104-3.972-2.41 0-4.283 1.74-4.552 3.972z" transform="matrix(4.16667 0 0 4.16667 940.31325225 637.47134331)"/><path d="m0-16.598c0-.446.402-.847.849-.847h2.54c.448 0 .849.401.849.847v9.147c0 2.899 1.385 4.462 3.657 4.462 2.632 0 4.284-2.143 4.418-2.946v-10.663c0-.714.358-.847.983-.847h2.321c.446 0 .845.401.845.847v16.151c0 .449-.399.849-.845.849h-1.25c-.446 0-.669-.313-.804-.714l-.444-1.294c-.403.358-2.276 2.453-5.89 2.453-5.356 0-7.229-3.792-7.229-8.433z" transform="matrix(4.16667 0 0 4.16667 990.5424591 633.94217382)"/><path d="m0-15.707c0-.446.398-.847.847-.847h1.248c.403 0 .625.222.759.534l.489 1.518c.403-.403 2.457-2.498 5.891-2.498 2.587 0 4.464 1.025 5.758 2.855.488-.491 3.077-2.855 6.468-2.855 5.442 0 7.361 3.837 7.361 8.476v8.968c0 .449-.356.849-.844.849h-2.502c-.489 0-.846-.4-.846-.849v-9.147c0-2.811-1.296-4.417-3.702-4.417-2.723 0-4.284 1.919-4.6 2.187.094.403.135 1.248.135 2.143v9.234c0 .449-.399.849-.849.849h-2.363c-.492 0-.85-.4-.85-.849v-9.147c0-2.855-1.293-4.417-3.791-4.417-2.674 0-4.191 2.098-4.417 2.677v10.887c0 .449-.401.849-.849.849h-2.496c-.449 0-.847-.4-.847-.849z" transform="matrix(4.16667 0 0 4.16667 1082.61753276 630.22967085)"/><path d="m0 147.967c-13.389-12.19-18.387-32.439-10.004-52.201 9.552-22.521 28.216-45.043 38.431-56.124 0 0 .218-.376.283-.308.062-.068.283.308.283.308 10.213 11.081 28.877 33.603 38.43 56.124 8.384 19.762 3.384 40.011-10.006 52.201 26.281-13.805 38.228-44.77 24.632-74.866-13.161-29.137-38.879-58.277-52.95-72.615 0 0-.302-.486-.389-.395-.089-.091-.392.395-.392.395-14.07 14.338-39.788 43.478-52.949 72.615-13.596 30.096-1.649 61.061 24.631 74.866" transform="matrix(4.16667 0 0 4.16667 134.703441096 -.32500026)"/><path d="m0-13.377c-.352-.528-.71-1.21-1.205-1.575-.545-.403-3.769-.175-4.202-.355-.404-.167-.463-1.242-1.244-1.421-.79-.175-1.259.099-1.197.409.092.543.147 4.994.491 5.169.347.18 2.933-.318 3.451-.05.525.264 1.571 1.121 1.655 1.825.084.702 0 9.529 0 9.529s-.247 3.017.101 3.196c.349.176.949-.726 1.306-.808.339-.087 1.119-.171 1.292-.611.177-.445-.177-1.123-.351-1.826-.169-.703.253-12.954-.097-13.482" transform="matrix(4.16667 0 0 4.16667 240.306442245 490.95039276)"/><path d="m0-13.377c-.352-.528-.71-1.21-1.205-1.575-.545-.403-3.769-.175-4.202-.355-.404-.167-.463-1.242-1.244-1.421-.79-.175-1.259.099-1.197.409.092.543.147 4.994.491 5.169.347.18 2.933-.318 3.451-.05.525.264 1.571 1.121 1.655 1.825.084.702 0 9.529 0 9.529s-.247 3.017.101 3.196c.349.176.949-.726 1.306-.808.339-.087 1.119-.171 1.292-.611.177-.445-.177-1.123-.351-1.826-.169-.703.253-12.954-.097-13.482" transform="matrix(4.16667 0 0 4.16667 240.306442245 490.95039276)"/><path d="m0-7.333c.262-.262.473-.862.144-1.621-.344-.813-2.006-2.832-2.599-3.193-1.252-.764-7.074-.165-7.857-.254-.782-.088-.912-.671-.997-1.114-.089-.44-1.605-.408-2.006-.053-.399.354.373 4.573.454 4.919.143.619 6.581-.247 7.452-.069.867.173 2.263 1.478 2.867 2.637.688 1.337.526 7.79.437 8.581-.083.792.285 1.688-.156 2.131-.431.441-.531 1.463-.091 1.723.431.268 1.997-.456 2.745-1.111.091-.79-.097-1.218-.45-2.183-.348-.967-.207-10.127.057-10.393" transform="matrix(4.16667 0 0 4.16667 195.50432307 478.84621641)"/><path d="m0-7.333c.262-.262.473-.862.144-1.621-.344-.813-2.006-2.832-2.599-3.193-1.252-.764-7.074-.165-7.857-.254-.782-.088-.912-.671-.997-1.114-.089-.44-1.605-.408-2.006-.053-.399.354.373 4.573.454 4.919.143.619 6.581-.247 7.452-.069.867.173 2.263 1.478 2.867 2.637.688 1.337.526 7.79.437 8.581-.083.792.285 1.688-.156 2.131-.431.441-.531 1.463-.091 1.723.431.268 1.997-.456 2.745-1.111.091-.79-.097-1.218-.45-2.183-.348-.967-.207-10.127.057-10.393" transform="matrix(4.16667 0 0 4.16667 195.50432307 478.84621641)"/><path d="m0-16.936c-.693.095-2.755.051-2.755.051-.788-.077-.332-1.056-.851-1.316-.522-.264-1.812-.3-1.901.047-.09.354.153.627.328 1.332.171.705-.328 3.435.023 3.687.287.209 1.886-.148 2.149.207.264.35.176 6.304.087 7.362-.091 1.058-.792 7.131-.439 7.131.756 0 .958-.802 1.385-.891.439-.088 1.979.065 1.723-.376-.262-.437-.561-7.099-.549-7.804.006-.781-.051-5.349.298-5.528.346-.171 1.902.051 2.497.456.6.403.632-2.821.201-3.347-.431-.527-1.509-1.098-2.196-1.011" transform="matrix(4.16667 0 0 4.16667 358.734870321 497.95039836)"/><path d="m0-16.936c-.693.095-2.755.051-2.755.051-.788-.077-.332-1.056-.851-1.316-.522-.264-1.812-.3-1.901.047-.09.354.153.627.328 1.332.171.705-.328 3.435.023 3.687.287.209 1.886-.148 2.149.207.264.35.176 6.304.087 7.362-.091 1.058-.792 7.131-.439 7.131.756 0 .958-.802 1.385-.891.439-.088 1.979.065 1.723-.376-.262-.437-.561-7.099-.549-7.804.006-.781-.051-5.349.298-5.528.346-.171 1.902.051 2.497.456.6.403.632-2.821.201-3.347-.431-.527-1.509-1.098-2.196-1.011" transform="matrix(4.16667 0 0 4.16667 358.734870321 497.95039836)"/><path d="m0-16.566c-.815-.348-6.706.201-8.408-.049-.514-.078.008-1.49-.951-1.575-.943-.085-2.003.395-1.75.764.551.811.423 4.625.855 4.716.431.086 6.147-.475 7.205-.161 1.997.61 3.099 2.439 3.604 3.653.197.496 1.196 5.878.648 6.594-.625.803-11.408.457-11.408.457s-.952-.337-.952.297c0 1.166-1.299 2.794-.919 3.204.34.375 1.155-.06 2.367-.06 1.216 0 9.986.355 10.822-.12.943-.533 2.366-3.001 2.54-3.883.171-.878-.45-8.518-.949-10.34-.251-.915-1.754-3.089-2.704-3.497" transform="matrix(4.16667 0 0 4.16667 305.762327943 497.04623097)"/><path d="m0-16.566c-.815-.348-6.706.201-8.408-.049-.514-.078.008-1.49-.951-1.575-.943-.085-2.003.395-1.75.764.551.811.423 4.625.855 4.716.431.086 6.147-.475 7.205-.161 1.997.61 3.099 2.439 3.604 3.653.197.496 1.196 5.878.648 6.594-.625.803-11.408.457-11.408.457s-.952-.337-.952.297c0 1.166-1.299 2.794-.919 3.204.34.375 1.155-.06 2.367-.06 1.216 0 9.986.355 10.822-.12.943-.533 2.366-3.001 2.54-3.883.171-.878-.45-8.518-.949-10.34-.251-.915-1.754-3.089-2.704-3.497" transform="matrix(4.16667 0 0 4.16667 305.762327943 497.04623097)"/><path d="m0-2.616c-21.167-.221-47.181-3.856-59.156-8.48 3.054 2.224 18.455 18.062 58.985 19.561v.015c.059-.002.112-.006.171-.008.057.002.112.006.169.008v-.015c40.529-1.499 55.93-17.337 58.985-19.561-11.976 4.624-37.988 8.259-59.154 8.48" transform="matrix(4.16667 0 0 4.16667 254.328120129 693.34638801)"/></g></svg>