<svg fill="none" height="200" viewBox="0 0 2256 200" width="2256" xmlns="http://www.w3.org/2000/svg"><g fill="#fff"><path d="m1456.73 2.64105h48.98l36.26 194.47795h-39.62l-6.48-41.057h-28.57l-6.72 41.057h-40.58zm35.06 127.73095-10.33-75.8702-10.32 75.8702z"/><path d="m1568.81 34.5738h-29.29v-31.93275h101.56v31.93275h-29.05v162.5452h-43.22z"/><path d="m1675.73 34.5738h-29.29v-31.93275h101.56v31.93275h-29.05v162.5452h-43.22z"/><path d="m1783.82 2.64105h48.98l36.25 194.47795h-39.61l-6.49-41.057h-28.57l-6.72 41.057h-40.58zm35.05 127.73095-10.32-75.8702-10.33 75.8702z"/><path d="m1941.34 200c-21.13 0-36.17-5.522-45.14-16.567-8.8-11.204-13.2-27.291-13.2-48.259v-70.108c0-21.4485 4.4-37.615 13.2-48.4994 8.81-11.04439 23.85-16.5666 45.14-16.5666 20.33 0 34.74 4.88195 43.22 14.6459 8.48 9.7639 12.72 23.6094 12.72 41.5366v16.8067h-42.01v-19.4478c0-7.523-.8-13.2853-2.4-17.2869s-5.45-6.0024-11.53-6.0024-10.08 2.1609-12 6.4826c-1.92 4.1617-2.88 10.004-2.88 17.527v91.4763c0 7.683.96 13.606 2.88 17.767 2.08 4.002 6.08 6.003 12 6.003s9.69-2.001 11.29-6.003c1.76-4.161 2.64-10.084 2.64-17.767v-20.408h42.01v16.807c0 18.247-4.24 32.493-12.72 42.737-8.48 10.084-22.89 15.126-43.22 15.126z"/><path d="m2021.65 2.64105h42.98v78.75155h30.01v-78.75155h43.22v194.47795h-43.22v-84.994h-30.01v84.994h-42.98z"/><path d="m2167.47 2.64105h87.4v29.29175h-44.42v48.2593h33.85v29.7719h-33.85v58.103h44.9v29.052h-87.88z"/><path d="m949 81.3012h27.504c9.94 0 16.936 2.6506 20.99 7.9518 4.146 5.3012 6.226 12.723 6.226 22.265 0 8.964-2.12 16.386-6.371 22.265-4.15 5.783-11.05 8.675-20.7 8.675h-19.832v55.952h-7.817zm25.911 55.0848c7.238 0 12.498-1.88 15.779-5.639 3.281-3.855 4.922-10.265 4.922-19.229 0-6.265-.676-11.132-2.027-14.6023-1.351-3.4699-3.522-5.9277-6.514-7.3735-2.895-1.4458-6.9-2.1687-12.015-2.1687h-18.239v49.0125z"/><path d="m1045.75 200c-10.71 0-18.24-3.036-22.58-9.108-4.25-6.169-6.37-14.747-6.37-25.735v-51.181c0-10.795 2.17-19.1326 6.51-25.0121 4.44-5.9759 11.92-8.9639 22.44-8.9639 10.42 0 17.85 2.988 22.29 8.9639s6.66 14.3131 6.66 25.0121v51.325c0 10.988-2.17 19.518-6.51 25.591-4.25 6.072-11.73 9.108-22.44 9.108zm0-6.506c7.91 0 13.36-2.265 16.36-6.795 3.08-4.53 4.63-11.133 4.63-19.807v-54.073c0-8.674-1.55-15.2286-4.63-19.6624-3-4.4337-8.45-6.6506-16.36-6.6506s-13.42 2.2169-16.5 6.6506c-3 4.4338-4.49 10.9884-4.49 19.6624v54.073c0 8.771 1.49 15.421 4.49 19.951 3.08 4.434 8.59 6.651 16.5 6.651z"/><path d="m1093.9 81.3012h28.37c9.65 0 16.36 2.5542 20.12 7.6627 3.77 5.1084 5.65 12.1931 5.65 21.2531 0 7.614-1.26 13.879-3.77 18.795-2.41 4.916-6.9 7.904-13.46 8.964l18.82 60.434h-7.82l-18.24-58.988h-21.85v58.988h-7.82zm28.08 52.0478c7.05 0 11.87-1.879 14.48-5.638 2.6-3.856 3.91-9.687 3.91-17.494 0-7.904-1.36-13.6387-4.06-17.2049-2.6-3.6627-7.43-5.494-14.47-5.494h-20.12v45.8309z"/><path d="m1180.63 87.6627h-23.45v-6.3615h54.14v6.3615h-22.87v110.7473h-7.82z"/><path d="m1248.53 199.855c-17.27 0-26.68-10.12-28.22-30.361l6.8-2.169c1.16 8.675 3.23 15.181 6.23 19.518 3.08 4.338 8.2 6.506 15.34 6.506 12.45 0 18.67-6.265 18.67-18.795 0-4.819-1.2-9.205-3.62-13.156-2.41-3.952-6.27-8.579-11.58-13.88l-21.42-21.253c-6.85-6.843-10.28-14.265-10.28-22.265 0-7.6145 2.32-13.494 6.95-17.6386 4.73-4.2409 11-6.3614 18.82-6.3614 8.39 0 14.86 2.2651 19.4 6.7952 4.53 4.4337 7.14 11.9518 7.81 22.5538l-6.66 1.591c-.67-8.579-2.55-14.7954-5.64-18.6508-2.99-3.9518-7.91-5.9278-14.77-5.9278-5.59 0-10.13 1.4458-13.6 4.3374-3.38 2.7952-5.07 7.0361-5.07 12.7232 0 3.084.63 6.072 1.88 8.964 1.35 2.795 3.57 5.734 6.66 8.819l21.14 20.819c5.4 5.301 9.65 10.554 12.73 15.759 3.09 5.205 4.64 10.651 4.64 16.337 0 8.482-2.37 14.892-7.1 19.229-4.73 4.338-11.1 6.506-19.11 6.506z"/><path d="m1317.96 81.3012h25.62c10.91 0 18.63 3.0362 23.16 9.1084 4.54 5.9759 6.81 14.1684 6.81 24.5784v48.578c0 10.988-2.22 19.567-6.66 25.735-4.34 6.072-11.87 9.109-22.58 9.109h-26.35zm25.91 110.8918c5.99 0 10.57-1.253 13.75-3.759 3.19-2.603 5.31-6.024 6.37-10.265s1.6-9.398 1.6-15.47v-47.133c0-9.349-1.6-16.3371-4.78-20.9636-3.09-4.6265-8.83-6.9397-17.23-6.9397h-17.8v104.5303z"/><path d="m1388.54 108.627c2.51-1.543 4.11-3.278 4.78-5.205.77-2.024 1.16-5.0606 1.16-9.1087h-4.63v-13.0121h9.41v10.988c0 5.3976-.58 9.5418-1.74 12.4338-1.16 2.795-3.33 4.964-6.51 6.506z"/><path d="m483 0h89.877v30.1235h-45.679v49.6296h34.814v30.6169h-34.814v59.753h46.172v29.877h-90.37z"/><path d="m619.115 92.3457-37.037-92.3457h41.728l21.976 54.0741 17.777-54.0741h36.791l-35.062 103.951 39.012 96.049h-41.481l-24.445-59.753-21.481 59.753h-36.543z"/><path d="m720.757 0h44.197v200h-44.197z"/><path d="m794.777 0h44.197v170.123h45.926v29.877h-90.123z"/><path d="m0 81.3012h27.5038c9.94 0 16.9366 2.6506 20.9898 7.9518 4.1497 5.3012 6.2245 12.723 6.2245 22.265 0 8.964-2.1231 16.386-6.3693 22.265-4.1497 5.783-11.0497 8.675-20.7002 8.675h-19.83172v55.952h-7.81688zm25.9115 55.0848c7.2378 0 12.4974-1.88 15.7785-5.639 3.2812-3.855 4.9217-10.265 4.9217-19.229 0-6.265-.6755-11.132-2.0265-14.6023-1.3511-3.4699-3.5225-5.9277-6.5141-7.3735-2.8951-1.4458-6.9001-2.1687-12.0148-2.1687h-18.23942v49.0125z"/><path d="m96.7486 200c-10.7121 0-18.2394-3.036-22.5821-9.108-4.2462-6.169-6.3693-14.747-6.3693-25.735v-51.181c0-10.795 2.1713-19.1326 6.514-25.0121 4.4392-5.9759 11.9183-8.9639 22.4374-8.9639 10.4224 0 17.8534 2.988 22.2924 8.9639s6.659 14.3131 6.659 25.0121v51.325c0 10.988-2.171 19.518-6.514 25.591-4.246 6.072-11.725 9.108-22.4374 9.108zm0-6.506c7.9134 0 13.3654-2.265 16.3574-6.795 3.088-4.53 4.632-11.133 4.632-19.807v-54.073c0-8.674-1.544-15.2286-4.632-19.6624-2.992-4.4337-8.444-6.6506-16.3574-6.6506s-13.4142 2.2169-16.5023 6.6506c-2.9917 4.4338-4.4875 10.9884-4.4875 19.6624v54.073c0 8.771 1.4958 15.421 4.4875 19.951 3.0881 4.434 8.5889 6.651 16.5023 6.651z"/><path d="m144.898 81.3012h28.373c9.65 0 16.357 2.5542 20.121 7.6627 3.764 5.1084 5.645 12.1931 5.645 21.2531 0 7.614-1.254 13.879-3.763 18.795-2.413 4.916-6.9 7.904-13.463 8.964l18.819 60.434h-7.817l-18.239-58.988h-21.859v58.988h-7.817zm28.083 52.0478c7.045 0 11.87-1.879 14.476-5.638 2.606-3.856 3.908-9.687 3.908-17.494 0-7.904-1.351-13.6387-4.053-17.2049-2.605-3.6627-7.431-5.494-14.476-5.494h-20.121v45.8309z"/><path d="m231.635 87.6627h-23.451v-6.3615h54.139v6.3615h-22.871v110.7473h-7.817z"/><path d="m299.535 199.855c-17.274 0-26.684-10.12-28.228-30.361l6.804-2.169c1.158 8.675 3.233 15.181 6.225 19.518 3.088 4.338 8.202 6.506 15.344 6.506 12.449 0 18.673-6.265 18.673-18.795 0-4.819-1.206-9.205-3.619-13.156-2.412-3.952-6.272-8.579-11.58-13.88l-21.424-21.253c-6.852-6.843-10.278-14.265-10.278-22.265 0-7.6145 2.316-13.494 6.948-17.6386 4.729-4.2409 11.002-6.3614 18.819-6.3614 8.396 0 14.862 2.2651 19.397 6.7952 4.536 4.4337 7.142 11.9518 7.817 22.5538l-6.659 1.591c-.675-8.579-2.557-14.7954-5.645-18.6508-2.992-3.9518-7.914-5.9278-14.765-5.9278-5.598 0-10.133 1.4458-13.608 4.3374-3.377 2.7952-5.066 7.0361-5.066 12.7232 0 3.084.627 6.072 1.882 8.964 1.351 2.795 3.57 5.734 6.659 8.819l21.134 20.819c5.404 5.301 9.651 10.554 12.739 15.759s4.632 10.651 4.632 16.337c0 8.482-2.364 14.892-7.093 19.229-4.729 4.338-11.098 6.506-19.108 6.506z"/><path d="m368.961 81.3012h25.622c10.905 0 18.625 3.0362 23.161 9.1084 4.535 5.9759 6.803 14.1684 6.803 24.5784v48.578c0 10.988-2.219 19.567-6.658 25.735-4.343 6.072-11.871 9.109-22.583 9.109h-26.345zm25.911 110.8918c5.983 0 10.567-1.253 13.752-3.759 3.185-2.603 5.308-6.024 6.369-10.265 1.062-4.241 1.593-9.398 1.593-15.47v-47.133c0-9.349-1.593-16.3371-4.777-20.9636-3.088-4.6265-8.83-6.9397-17.226-6.9397h-17.805v104.5303z"/><path d="m439.544 108.627c2.51-1.543 4.102-3.278 4.777-5.205.772-2.024 1.158-5.0606 1.158-9.1087h-4.632v-13.0121h9.409v10.988c0 5.3976-.579 9.5418-1.737 12.4338-1.158 2.795-3.329 4.964-6.514 6.506z"/></g></svg>