<svg clip-rule="evenodd" fill-rule="evenodd" stroke-miterlimit="10" viewBox="0 0 1407 729" xmlns="http://www.w3.org/2000/svg"><g fill="#595453" fill-rule="nonzero"><path d="M126.86 616.205C71.073 565.413 50.248 481.042 85.177 398.7c39.8-93.837 117.566-187.679 160.125-233.85 0 0 .912-1.567 1.179-1.283.263-.284 1.183 1.283 1.183 1.283 42.55 46.171 120.321 140.013 160.125 233.85 34.93 82.342 14.096 166.713-41.691 217.505 109.5-57.521 159.283-186.542 102.629-311.942C413.894 182.858 306.735 61.442 248.106 1.7c0 0-1.258-2.025-1.625-1.646-.37-.379-1.63 1.646-1.63 1.646-58.624 59.742-165.783 181.158-220.62 302.563-56.65 125.4-6.871 254.42 102.63 311.942"/><path d="M232.461 435.213c-1.462-2.2-2.958-5.042-5.016-6.563-2.275-1.679-15.704-.729-17.509-1.479-1.687-.696-1.933-5.175-5.183-5.92-3.296-.73-5.25.412-4.987 1.704.379 2.262.608 20.808 2.041 21.537 1.446.75 12.221-1.325 14.384-.208 2.183 1.1 6.545 4.67 6.891 7.604.35 2.925 0 39.704 0 39.704s-1.029 12.57.421 13.317c1.454.733 3.958-3.025 5.446-3.367 1.408-.362 4.662-.712 5.383-2.546.734-1.854-.737-4.679-1.466-7.608-.705-2.93 1.054-53.975-.405-56.175"/><path d="M232.461 435.213c-1.462-2.2-2.958-5.042-5.016-6.563-2.275-1.679-15.704-.729-17.509-1.479-1.687-.696-1.933-5.175-5.183-5.92-3.296-.73-5.25.412-4.987 1.704.379 2.262.608 20.808 2.041 21.537 1.446.75 12.221-1.325 14.384-.208 2.183 1.1 6.545 4.67 6.891 7.604.35 2.925 0 39.704 0 39.704s-1.029 12.57.421 13.317c1.454.733 3.958-3.025 5.446-3.367 1.408-.362 4.662-.712 5.383-2.546.734-1.854-.737-4.679-1.466-7.608-.705-2.93 1.054-53.975-.405-56.175M187.66 448.292c1.091-1.092 1.97-3.592.603-6.754-1.433-3.388-8.358-11.8-10.829-13.304-5.216-3.184-29.479-.688-32.737-1.059-3.263-.366-3.8-2.795-4.159-4.641-.37-1.834-6.687-1.7-8.354-.221-1.662 1.475 1.55 19.054 1.888 20.496.596 2.579 27.42-1.03 31.054-.288 3.608.721 9.425 6.159 11.942 10.988 2.866 5.57 2.191 32.458 1.825 35.754-.35 3.3 1.183 7.033-.65 8.88-1.8 1.837-2.217 6.095-.384 7.178 1.8 1.117 8.321-1.9 11.442-4.629.375-3.292-.408-5.075-1.88-9.096-1.445-4.029-.862-42.196.238-43.304"/><path d="M187.66 448.292c1.091-1.092 1.97-3.592.603-6.754-1.433-3.388-8.358-11.8-10.829-13.304-5.216-3.184-29.479-.688-32.737-1.059-3.263-.366-3.8-2.795-4.159-4.641-.37-1.834-6.687-1.7-8.354-.221-1.662 1.475 1.55 19.054 1.888 20.496.596 2.579 27.42-1.03 31.054-.288 3.608.721 9.425 6.159 11.942 10.988 2.866 5.57 2.191 32.458 1.825 35.754-.35 3.3 1.183 7.033-.65 8.88-1.8 1.837-2.217 6.095-.384 7.178 1.8 1.117 8.321-1.9 11.442-4.629.375-3.292-.408-5.075-1.88-9.096-1.445-4.029-.862-42.196.238-43.304M350.89 427.384c-2.888.396-11.475.212-11.475.212-3.288-.32-1.388-4.4-3.546-5.483-2.18-1.1-7.554-1.25-7.925.196-.37 1.475.642 2.612 1.37 5.55.713 2.937-1.37 14.312.093 15.362 1.195.871 7.862-.616 8.954.863 1.1 1.458.733 26.266.362 30.675-.379 4.408-3.3 29.712-1.825 29.712 3.146 0 3.988-3.341 5.767-3.712 1.829-.367 8.25.27 7.183-1.567-1.096-1.82-2.337-29.58-2.291-32.517.025-3.254-.213-22.287 1.245-23.033 1.438-.712 7.921.213 10.4 1.9 2.5 1.68 2.634-11.754.838-13.946-1.796-2.196-6.283-4.575-9.15-4.212"/><path d="M350.89 427.384c-2.888.396-11.475.212-11.475.212-3.288-.32-1.388-4.4-3.546-5.483-2.18-1.1-7.554-1.25-7.925.196-.37 1.475.642 2.612 1.37 5.55.713 2.937-1.37 14.312.093 15.362 1.195.871 7.862-.616 8.954.863 1.1 1.458.733 26.266.362 30.675-.379 4.408-3.3 29.712-1.825 29.712 3.146 0 3.988-3.341 5.767-3.712 1.829-.367 8.25.27 7.183-1.567-1.096-1.82-2.337-29.58-2.291-32.517.025-3.254-.213-22.287 1.245-23.033 1.438-.712 7.921.213 10.4 1.9 2.5 1.68 2.634-11.754.838-13.946-1.796-2.196-6.283-4.575-9.15-4.212M297.92 428.021c-3.396-1.45-27.942.838-35.034-.204-2.146-.325.033-6.208-3.967-6.562-3.925-.355-8.341 1.645-7.287 3.183 2.292 3.379 1.762 19.27 3.562 19.65 1.796.358 25.613-1.98 30.021-.671 8.321 2.542 12.909 10.163 15.017 15.22.82 2.068 4.983 24.493 2.7 27.476-2.604 3.346-47.533 1.904-47.533 1.904s-3.967-1.404-3.967 1.238c0 4.858-5.413 11.641-3.83 13.35 1.417 1.562 4.813-.25 9.863-.25 5.063 0 41.609 1.479 45.092-.5 3.93-2.221 9.858-12.505 10.583-16.18.713-3.658-1.875-35.491-3.958-43.083-1.042-3.812-7.304-12.87-11.263-14.57"/><path d="M297.92 428.021c-3.396-1.45-27.942.838-35.034-.204-2.146-.325.033-6.208-3.967-6.562-3.925-.355-8.341 1.645-7.287 3.183 2.292 3.379 1.762 19.27 3.562 19.65 1.796.358 25.613-1.98 30.021-.671 8.321 2.542 12.909 10.163 15.017 15.22.82 2.068 4.983 24.493 2.7 27.476-2.604 3.346-47.533 1.904-47.533 1.904s-3.967-1.404-3.967 1.238c0 4.858-5.413 11.641-3.83 13.35 1.417 1.562 4.813-.25 9.863-.25 5.063 0 41.609 1.479 45.092-.5 3.93-2.221 9.858-12.505 10.583-16.18.713-3.658-1.875-35.491-3.958-43.083-1.042-3.812-7.304-12.87-11.263-14.57M246.483 682.446C158.291 681.526 49.9 666.38 0 647.113c12.729 9.267 76.9 75.258 245.77 81.504v.063c.246-.009.467-.025.713-.034.238.009.467.025.704.034v-.063c168.875-6.246 233.042-72.237 245.771-81.504-49.9 19.267-158.283 34.413-246.475 35.333"/><path d="M599.88 87.774c.187-1.487 1.304-2.787 3.354-2.787h2.979c1.487 0 2.587.737 3.15 1.862l40.904 87.746h.563L691.72 86.85c.563-1.125 1.488-1.862 3.167-1.862h2.975c2.05 0 3.15 1.3 3.346 2.787l21.933 124.934c.563 2.604-.925 4.275-3.354 4.275h-16.9c-1.68 0-3.167-1.488-3.537-2.788l-10.971-70.458h-.563l-32.525 73.062c-.383 1.117-1.487 2.05-3.162 2.05h-3.35c-1.68 0-2.604-.933-3.167-2.05L612.7 143.737h-.537l-10.796 70.458c-.183 1.3-1.662 2.788-3.35 2.788h-16.72c-2.417 0-3.905-1.671-3.542-4.275zM745.542 146.156c0-1.862 1.663-3.541 3.53-3.541h10.591c1.863 0 3.53 1.679 3.53 3.541v38.109c0 12.079 5.762 18.596 15.25 18.596 10.966 0 17.845-8.93 18.403-12.267v-44.438c0-2.975 1.492-3.541 4.096-3.541h9.654c1.875 0 3.542 1.679 3.542 3.541v67.296c0 1.859-1.667 3.538-3.542 3.538h-5.2c-1.85 0-2.779-1.304-3.341-2.975l-1.867-5.392c-1.658 1.488-9.462 10.225-24.533 10.225-22.309 0-30.113-15.804-30.113-35.142zM836.676 207.318l3.904-7.25c.75-1.488 2.783-2.042 4.654-.934 0 0 8.18 4.846 17.288 4.846 5.579 0 9.104-2.242 9.104-6.325 0-5.025-4.088-7.442-14.313-12.087-11.52-5.017-21.2-12.088-21.2-24.355 0-9.291 7.63-20.454 25.48-20.454 10.412 0 18.216 3.35 21.924 5.763 1.684 1.125 2.605 3.537 1.492 5.4l-3.342 6.312c-.933 1.671-3.35 2.234-4.833 1.492 0 0-8.187-3.904-15.242-3.904-6.329 0-8.362 2.787-8.362 5.575 0 4.833 4.637 6.883 11.896 10.041 13.566 5.95 24.729 11.717 24.729 25.655 0 11.529-10.975 21.758-27.525 21.758-12.458 0-20.633-4.462-24.533-7.63-1.121-.745-1.875-2.416-1.121-3.903z" stroke="#595453" stroke-width="2.4583353"/><path d="M942.305 140.759c19.337 0 34.212 14.508 34.212 34.4 0 1.296-.183 3.717-.375 5.017-.191 1.862-1.675 3.158-3.341 3.158h-50.567c.558 10.037 9.292 19.892 21.375 19.892 6.692 0 12.833-2.975 16.546-5.392 2.237-1.296 3.53-2.046 5.017-.18l5.216 7.06c1.292 1.487 1.854 2.974-.383 4.837-5.388 4.645-15.05 9.3-27.508 9.3-22.5 0-37.38-17.667-37.38-39.046 0-21.009 14.88-39.046 37.188-39.046m-17.658-25.471l-2.605-5.392c-.737-1.479 0-2.97 1.113-3.529L952.35 89.45c1.116-.75 3.904-1.116 4.825.555l4.287 8.175c.93 1.87.371 3.72-1.12 4.466l-31.234 13.384c-2.604 1.308-3.72.746-4.462-.742m34.583 56.333c-.563-8.92-7.996-16.541-17.1-16.541-10.042 0-17.846 7.254-18.975 16.541z"/></g><path d="M942.305 140.759c19.337 0 34.212 14.508 34.212 34.4 0 1.296-.183 3.717-.375 5.017-.191 1.862-1.675 3.158-3.341 3.158h-50.567c.558 10.037 9.292 19.892 21.375 19.892 6.692 0 12.833-2.975 16.546-5.392 2.237-1.296 3.53-2.046 5.017-.18l5.216 7.06c1.292 1.487 1.854 2.974-.383 4.837-5.388 4.645-15.05 9.3-27.508 9.3-22.5 0-37.38-17.667-37.38-39.046 0-21.009 14.88-39.046 37.188-39.046zm-17.658-25.471l-2.605-5.392c-.737-1.479 0-2.97 1.113-3.529L952.35 89.45c1.116-.75 3.904-1.116 4.825.555l4.287 8.175c.93 1.87.371 3.72-1.12 4.466l-31.234 13.384c-2.604 1.308-3.72.746-4.462-.742zm34.583 56.333c-.563-8.92-7.996-16.541-17.1-16.541-10.042 0-17.846 7.254-18.975 16.541z" fill="none" stroke="#595453" stroke-width="2.4583353"/><path d="M1028.988 140.759c19.342 0 34.213 14.508 34.213 34.4 0 1.296-.192 3.717-.375 5.017-.188 1.862-1.675 3.158-3.354 3.158H1008.9c.558 10.037 9.308 19.892 21.387 19.892 6.696 0 12.825-2.975 16.55-5.392 2.225-1.296 3.534-2.046 5.017-.18l5.2 7.06c1.308 1.487 1.858 2.974-.362 4.837-5.396 4.645-15.071 9.3-27.53 9.3-22.483 0-37.358-17.667-37.358-39.046 0-21.009 14.875-39.046 37.183-39.046m16.917 30.862c-.554-8.92-7.992-16.541-17.104-16.541-10.046 0-17.85 7.254-18.967 16.541z" fill="#595453" fill-rule="nonzero"/><path d="M1028.988 140.759c19.342 0 34.213 14.508 34.213 34.4 0 1.296-.192 3.717-.375 5.017-.188 1.862-1.675 3.158-3.354 3.158H1008.9c.558 10.037 9.308 19.892 21.387 19.892 6.696 0 12.825-2.975 16.55-5.392 2.225-1.296 3.534-2.046 5.017-.18l5.2 7.06c1.308 1.487 1.858 2.974-.362 4.837-5.396 4.645-15.071 9.3-27.53 9.3-22.483 0-37.358-17.667-37.358-39.046 0-21.009 14.875-39.046 37.183-39.046zm16.917 30.862c-.554-8.92-7.992-16.541-17.104-16.541-10.046 0-17.85 7.254-18.967 16.541z" fill="none" stroke="#595453" stroke-width="2.4583353"/><path d="M577.705 306.367c0-1.858 1.675-3.538 3.529-3.538h17.296c2.041 0 3.529 1.68 3.529 3.538v49.267h60.617v-49.267c0-1.858 1.487-3.538 3.529-3.538H683.3c1.862 0 3.537 1.68 3.537 3.538v123.075c0 1.858-1.675 3.53-3.537 3.53h-17.096c-2.042 0-3.53-1.672-3.53-3.53v-51.317H602.06v51.317c0 1.858-1.488 3.53-3.53 3.53h-17.295c-1.854 0-3.53-1.672-3.53-3.53z" fill="#595453" fill-rule="nonzero" stroke="#595453" stroke-width="2.4583353"/><path d="M750.671 356.746c20.825 0 37.567 17.85 37.567 38.863 0 21.379-16.742 39.229-37.567 39.229s-37.55-17.85-37.55-39.23c0-21.012 16.725-38.862 37.55-38.862m0 62.104c11.721 0 21.013-10.416 21.013-23.241 0-12.459-9.292-22.684-21.013-22.684-11.708 0-21 10.225-21 22.684 0 12.825 9.292 23.241 21 23.241" fill="#595453" fill-rule="nonzero"/><path d="M750.671 356.746c20.825 0 37.567 17.85 37.567 38.863 0 21.379-16.742 39.229-37.567 39.229s-37.55-17.85-37.55-39.23c0-21.012 16.725-38.862 37.55-38.862zm0 62.104c11.721 0 21.013-10.416 21.013-23.241 0-12.459-9.292-22.684-21.013-22.684-11.708 0-21 10.225-21 22.684 0 12.825 9.292 23.241 21 23.241z" fill="none" stroke="#595453" stroke-width="2.4583353"/><path d="M809.655 306.367c0-1.858 1.679-3.538 3.533-3.538h10.592c1.866 0 3.533 1.68 3.533 3.538v123.075c0 1.858-1.667 3.53-3.533 3.53h-10.592c-1.854 0-3.533-1.672-3.533-3.53z" fill="#595453" fill-rule="nonzero" stroke="#595453" stroke-width="2.4583353"/><path d="M886.276 356.746c20.816 0 37.55 17.85 37.55 38.863 0 21.379-16.734 39.229-37.55 39.229-20.821 0-37.554-17.85-37.554-39.23 0-21.012 16.733-38.862 37.554-38.862m0 62.104c11.708 0 21.012-10.416 21.012-23.241 0-12.459-9.304-22.684-21.012-22.684-11.713 0-21.017 10.225-21.017 22.684 0 12.825 9.304 23.241 21.017 23.241" fill="#595453" fill-rule="nonzero"/><path d="M886.276 356.746c20.816 0 37.55 17.85 37.55 38.863 0 21.379-16.734 39.229-37.55 39.229-20.821 0-37.554-17.85-37.554-39.23 0-21.012 16.733-38.862 37.554-38.862zm0 62.104c11.708 0 21.012-10.416 21.012-23.241 0-12.459-9.304-22.684-21.012-22.684-11.713 0-21.017 10.225-21.017 22.684 0 12.825 9.304 23.241 21.017 23.241z" fill="none" stroke="#595453" stroke-width="2.4583353"/><path d="M978.722 356.746c11.341 0 20.07 4.654 26.958 13.2 1.296 1.671.933 3.913-.742 5.208l-6.146 5.584c-2.225 2.041-3.52.554-5.008-.746-3.354-3.717-8.746-7.067-14.87-7.067-12.088 0-21.572 10.225-21.572 22.867 0 12.82 9.292 23.058 21.38 23.058 9.479 0 13.383-4.837 17.283-8.558 1.683-1.68 3.35-1.68 5.03-.37l5.02 4.09c1.85 1.488 2.604 3.347 1.296 5.2-5.954 9.484-16 15.626-28.821 15.626-20.825 0-38.846-16.55-38.846-38.863 0-21.933 18.404-39.229 39.038-39.229" fill="#595453" fill-rule="nonzero"/><path d="M978.722 356.746c11.341 0 20.07 4.654 26.958 13.2 1.296 1.671.933 3.913-.742 5.208l-6.146 5.584c-2.225 2.041-3.52.554-5.008-.746-3.354-3.717-8.746-7.067-14.87-7.067-12.088 0-21.572 10.225-21.572 22.867 0 12.82 9.292 23.058 21.38 23.058 9.479 0 13.383-4.837 17.283-8.558 1.683-1.68 3.35-1.68 5.03-.37l5.02 4.09c1.85 1.488 2.604 3.347 1.296 5.2-5.954 9.484-16 15.626-28.821 15.626-20.825 0-38.846-16.55-38.846-38.863 0-21.933 18.404-39.229 39.038-39.229z" fill="none" stroke="#595453" stroke-width="2.4583353"/><path d="M1053.126 385.94c7.804 0 14.683 2.232 14.683 2.232.188-11.716-2.05-16.362-11.533-16.362-8.542 0-16.909 2.233-20.817 3.342-2.22.558-3.52-.93-4.087-2.98l-1.484-6.87c-.554-2.421.738-3.721 2.413-4.28 1.296-.554 11.904-4.275 25.654-4.275 23.8 0 26.033 14.5 26.033 33.096v39.596c0 1.863-1.679 3.533-3.529 3.533h-5.216c-1.663 0-2.413-.745-3.15-2.595l-1.867-5.03c-4.08 3.905-11.346 9.492-22.871 9.492-13.933 0-23.975-9.492-23.975-24.917 0-13.575 10.78-23.983 29.746-23.983m-2.238 35.696c7.438 0 14.505-5.58 16.746-9.3v-11.896c-1.12-.746-6.329-2.975-13.02-2.975-8.926 0-15.063 4.654-15.063 12.267 0 6.696 4.458 11.904 11.337 11.904" fill="#595453" fill-rule="nonzero"/><path d="M1053.126 385.94c7.804 0 14.683 2.232 14.683 2.232.188-11.716-2.05-16.362-11.533-16.362-8.542 0-16.909 2.233-20.817 3.342-2.22.558-3.52-.93-4.087-2.98l-1.484-6.87c-.554-2.421.738-3.721 2.413-4.28 1.296-.554 11.904-4.275 25.654-4.275 23.8 0 26.033 14.5 26.033 33.096v39.596c0 1.863-1.679 3.533-3.529 3.533h-5.216c-1.663 0-2.413-.745-3.15-2.595l-1.867-5.03c-4.08 3.905-11.346 9.492-22.871 9.492-13.933 0-23.975-9.492-23.975-24.917 0-13.575 10.78-23.983 29.746-23.983zm-2.238 35.695c7.438 0 14.505-5.58 16.746-9.3v-11.896c-1.12-.746-6.329-2.975-13.02-2.975-8.926 0-15.063 4.654-15.063 12.267 0 6.696 4.458 11.904 11.337 11.904z" fill="none" stroke="#595453" stroke-width="2.4583353"/><path d="M1109.13 362.142c0-1.858 1.675-3.538 3.53-3.538h10.59c1.868 0 3.538 1.68 3.538 3.538v38.112c0 12.08 5.771 18.592 15.238 18.592 10.967 0 17.85-8.929 18.408-12.267v-44.437c0-2.975 1.492-3.538 4.096-3.538h9.67c1.86 0 3.522 1.68 3.522 3.538v67.296c0 1.862-1.663 3.537-3.521 3.537h-5.208c-1.859 0-2.788-1.304-3.35-2.975l-1.85-5.391c-1.68 1.491-9.484 10.229-24.546 10.229-22.313 0-30.117-15.808-30.117-35.146zM1200.276 423.305l3.904-7.25c.733-1.488 2.783-2.042 4.638-.933 0 0 8.195 4.841 17.287 4.841 5.58 0 9.121-2.237 9.121-6.32 0-5.03-4.096-7.442-14.313-12.088-11.533-5.02-21.2-12.088-21.2-24.354 0-9.296 7.617-20.454 25.467-20.454 10.408 0 18.23 3.345 21.938 5.762 1.683 1.12 2.604 3.538 1.491 5.396l-3.341 6.317c-.934 1.67-3.35 2.233-4.834 1.487 0 0-8.187-3.9-15.254-3.9-6.317 0-8.367 2.788-8.367 5.57 0 4.838 4.655 6.888 11.905 10.047 13.575 5.95 24.72 11.712 24.72 25.65 0 11.533-10.958 21.762-27.508 21.762-12.458 0-20.642-4.466-24.542-7.629-1.112-.746-1.862-2.417-1.112-3.904zM1278.939 374.04h-7.805c-2.05 0-3.533-1.671-3.533-3.53v-8.366c0-2.05 1.483-3.542 3.533-3.542h7.805v-20.633c0-1.855 1.658-3.538 3.537-3.538l10.583-.183c1.867 0 3.355 1.67 3.355 3.537v20.817h18.958c2.042 0 3.53 1.492 3.53 3.542v8.366c0 1.859-1.488 3.53-3.53 3.53h-18.958v36.804c0 6.325 2.412 7.441 5.954 7.441 3.904 0 9.104-2.233 11.333-3.35 2.425-1.112 3.538 0 4.275 1.68l3.342 8.179c.933 2.05.196 3.537-1.667 4.462-1.85 1.117-12.82 5.58-21.746 5.58-14.696 0-18.966-8.926-18.966-22.13z" fill="#595453" fill-rule="nonzero" stroke="#595453" stroke-width="2.4583353"/><path d="M1373.034 356.746c19.346 0 34.217 14.508 34.217 34.4 0 1.296-.187 3.721-.379 5.017-.175 1.862-1.663 3.158-3.342 3.158h-50.566c.558 10.038 9.287 19.892 21.383 19.892 6.683 0 12.825-2.975 16.533-5.392 2.242-1.296 3.534-2.046 5.021-.179l5.217 7.058c1.3 1.492 1.854 2.975-.375 4.838-5.392 4.646-15.063 9.3-27.517 9.3-22.492 0-37.362-17.667-37.362-39.046 0-21.008 14.87-39.046 37.17-39.046m16.925 30.863c-.545-8.921-8.004-16.542-17.1-16.542-10.041 0-17.85 7.254-18.975 16.542z" fill="#595453" fill-rule="nonzero"/><path d="M1373.034 356.746c19.346 0 34.217 14.508 34.217 34.4 0 1.296-.187 3.721-.379 5.017-.175 1.862-1.663 3.158-3.342 3.158h-50.566c.558 10.038 9.287 19.892 21.383 19.892 6.683 0 12.825-2.975 16.533-5.392 2.242-1.296 3.534-2.046 5.021-.179l5.217 7.058c1.3 1.492 1.854 2.975-.375 4.838-5.392 4.646-15.063 9.3-27.517 9.3-22.492 0-37.362-17.667-37.362-39.046 0-21.008 14.87-39.046 37.17-39.046zm16.925 30.863c-.545-8.921-8.004-16.542-17.1-16.542-10.041 0-17.85 7.254-18.975 16.542z" fill="none" stroke="#595453" stroke-width="2.4583353"/><path d="M599.892 512.621c.175-1.487 1.3-2.783 3.338-2.783h2.979c1.487 0 2.604.733 3.15 1.858l40.912 87.746h.555l40.9-87.746c.554-1.125 1.487-1.858 3.166-1.858h2.967c2.05 0 3.167 1.296 3.346 2.783l21.946 124.934c.558 2.604-.93 4.275-3.342 4.275h-16.925c-1.68 0-3.167-1.488-3.538-2.784l-10.97-70.462h-.555l-32.533 73.067c-.375 1.112-1.487 2.045-3.162 2.045h-3.342c-1.675 0-2.613-.933-3.167-2.045l-32.904-73.067h-.554l-10.796 70.462c-.17 1.296-1.663 2.784-3.342 2.784h-16.729c-2.417 0-3.904-1.671-3.533-4.275z" fill="#595453" fill-rule="nonzero" stroke="#595453" stroke-width="2.4583353"/><path d="M778.63 565.605c20.825 0 37.55 17.85 37.55 38.862 0 21.38-16.725 39.23-37.55 39.23s-37.55-17.85-37.55-39.23c0-21.012 16.725-38.862 37.55-38.862m0 62.104c11.72 0 21.012-10.417 21.012-23.242 0-12.458-9.291-22.683-21.012-22.683-11.709 0-21 10.225-21 22.683 0 12.825 9.291 23.242 21 23.242" fill="#595453" fill-rule="nonzero"/><path d="M778.63 565.605c20.825 0 37.55 17.85 37.55 38.862 0 21.38-16.725 39.23-37.55 39.23s-37.55-17.85-37.55-39.23c0-21.012 16.725-38.862 37.55-38.862zm0 62.104c11.72 0 21.012-10.417 21.012-23.242 0-12.458-9.291-22.683-21.012-22.683-11.709 0-21 10.225-21 22.683 0 12.825 9.291 23.242 21 23.242z" fill="none" stroke="#595453" stroke-width="2.4583353"/><path d="M837.617 571.005c0-1.859 1.659-3.538 3.521-3.538h5.4c1.488 0 2.596.933 2.971 2.233l2.23 6.317c1.295-1.483 11.158-10.408 26.033-10.408 22.675 0 31.041 15.991 31.041 35.325V638.3c0 1.858-1.675 3.537-3.529 3.537h-10.608c-2.034 0-3.513-1.68-3.513-3.537v-38.113c0-11.896-5.779-18.404-15.437-18.404-11.721 0-19.717 8.558-20.642 11.154v45.363c0 2.42-1.108 3.537-4.275 3.537h-9.67c-1.863 0-3.522-1.68-3.522-3.537zM939.163 582.9h-7.804c-2.05 0-3.533-1.67-3.533-3.529v-8.366c0-2.05 1.483-3.542 3.533-3.542h7.804V546.83c0-1.855 1.659-3.538 3.538-3.538l10.583-.183c1.867 0 3.354 1.67 3.354 3.537v20.817h18.959c2.041 0 3.529 1.492 3.529 3.542v8.366c0 1.859-1.488 3.53-3.53 3.53h-18.958v36.804c0 6.325 2.413 7.441 5.954 7.441 3.905 0 9.105-2.233 11.334-3.35 2.42-1.112 3.537 0 4.275 1.68l3.341 8.179c.934 2.046.196 3.537-1.666 4.462-1.85 1.117-12.821 5.58-21.75 5.58-14.692 0-18.963-8.93-18.963-22.13zM1001.484 571.005c0-1.859 1.658-3.538 3.53-3.538h5.391c1.296 0 2.787 1.113 3.154 2.604l2.046 6.321c1.312-1.858 8.187-10.783 21.75-10.783 7.07 0 15.625 1.858 13.575 6.883l-4.454 9.108c-.938 2.046-2.788 2.417-4.463 1.671-1.12-.55-3.904-1.304-6.32-1.304-10.796 0-15.996 7.813-16.742 9.117V638.3c0 3.158-2.034 3.537-5.009 3.537h-8.929c-1.87 0-3.529-1.68-3.529-3.537z" fill="#595453" fill-rule="nonzero" stroke="#595453" stroke-width="2.4583353"/><path d="M1097.993 565.605c19.35 0 34.22 14.508 34.22 34.4 0 1.295-.191 3.72-.383 5.016-.17 1.863-1.658 3.159-3.337 3.159h-50.571c.558 10.037 9.291 19.891 21.383 19.891 6.683 0 12.83-2.975 16.538-5.387 2.241-1.3 3.533-2.05 5.016-.184l5.217 7.059c1.3 1.492 1.854 2.975-.37 4.837-5.393 4.646-15.063 9.3-27.522 9.3-22.487 0-37.362-17.666-37.362-39.046 0-21.008 14.875-39.045 37.17-39.045m-17.654-25.471l-2.604-5.392a2.613 2.613 0 011.113-3.53l29.191-16.912c1.117-.754 3.905-1.12 4.83.55l4.283 8.18c.933 1.866.37 3.716-1.117 4.462l-31.233 13.383c-2.604 1.309-3.717.746-4.463-.741m34.58 56.333c-.546-8.92-8-16.542-17.096-16.542-10.046 0-17.85 7.259-18.975 16.542z" fill="#595453" fill-rule="nonzero"/><path d="M1097.993 565.605c19.35 0 34.22 14.508 34.22 34.4 0 1.295-.191 3.72-.383 5.016-.17 1.863-1.658 3.159-3.337 3.159h-50.571c.558 10.037 9.291 19.891 21.383 19.891 6.683 0 12.83-2.975 16.538-5.387 2.241-1.3 3.533-2.05 5.016-.184l5.217 7.059c1.3 1.492 1.854 2.975-.37 4.837-5.393 4.646-15.063 9.3-27.522 9.3-22.487 0-37.362-17.666-37.362-39.046 0-21.008 14.875-39.045 37.17-39.045zm-17.655-25.471l-2.604-5.392a2.613 2.613 0 011.113-3.53l29.191-16.912c1.117-.754 3.905-1.12 4.83.55l4.283 8.18c.933 1.866.37 3.716-1.117 4.462l-31.233 13.383c-2.604 1.309-3.717.746-4.463-.741zm34.58 56.333c-.546-8.92-8-16.542-17.096-16.542-10.046 0-17.85 7.259-18.975 16.542z" fill="none" stroke="#595453" stroke-width="2.4583353"/><path d="M1177.243 594.8c7.804 0 14.679 2.234 14.679 2.234.191-11.713-2.046-16.363-11.53-16.363-8.558 0-16.916 2.234-20.816 3.342-2.22.562-3.538-.93-4.1-2.975l-1.488-6.87c-.537-2.426.755-3.722 2.43-4.284 1.295-.554 11.904-4.275 25.654-4.275 23.8 0 26.025 14.504 26.025 33.096v39.6c0 1.858-1.671 3.529-3.538 3.529h-5.2c-1.679 0-2.412-.746-3.158-2.596l-1.858-5.03c-4.096 3.905-11.338 9.493-22.871 9.493-13.946 0-23.975-9.492-23.975-24.917 0-13.575 10.779-23.984 29.746-23.984M1175 630.5c7.442 0 14.508-5.579 16.737-9.304V609.3c-1.125-.741-6.32-2.975-13.02-2.975-8.925 0-15.05 4.655-15.05 12.267 0 6.7 4.462 11.909 11.333 11.909" fill="#595453" fill-rule="nonzero"/><path d="M1177.243 594.8c7.804 0 14.679 2.234 14.679 2.234.191-11.713-2.046-16.363-11.53-16.363-8.558 0-16.916 2.234-20.816 3.342-2.22.562-3.538-.93-4.1-2.975l-1.488-6.87c-.537-2.426.755-3.722 2.43-4.284 1.295-.554 11.904-4.275 25.654-4.275 23.8 0 26.025 14.504 26.025 33.096v39.6c0 1.858-1.671 3.529-3.538 3.529h-5.2c-1.679 0-2.412-.746-3.158-2.596l-1.858-5.03c-4.096 3.905-11.338 9.493-22.871 9.493-13.946 0-23.975-9.492-23.975-24.917 0-13.575 10.779-23.984 29.746-23.984zM1175 630.5c7.442 0 14.508-5.579 16.737-9.304V609.3c-1.125-.741-6.32-2.975-13.02-2.975-8.925 0-15.05 4.655-15.05 12.267 0 6.7 4.462 11.909 11.333 11.909z" fill="none" stroke="#595453" stroke-width="2.4583353"/><path d="M1234.36 515.23c0-1.863 1.662-3.538 3.524-3.538h10.6c1.859 0 3.534 1.675 3.534 3.538v123.075c0 1.858-1.675 3.529-3.534 3.529h-10.6c-1.862 0-3.525-1.671-3.525-3.53z" fill="#595453" fill-rule="nonzero" stroke="#595453" stroke-width="2.4583353"/></svg>