<svg fill="none" height="80" width="1241" xmlns="http://www.w3.org/2000/svg"><g fill="#fff"><path d="M.816 1.056H19.44c6.592 0 11.296 1.792 14.112 5.376 2.88 3.584 4.32 8.672 4.32 15.264 0 6.016-1.504 10.912-4.512 14.688-2.944 3.776-7.552 5.664-13.824 5.664H8.112v36.768H.816zm16.608 35.52c4.8 0 8.192-1.088 10.176-3.264 2.048-2.24 3.072-6.112 3.072-11.616 0-4.032-.384-7.104-1.152-9.216-.768-2.176-2.08-3.712-3.936-4.608S21.04 6.528 17.52 6.528H8.112v30.048zM65.654 79.776c-7.296 0-12.48-2.08-15.552-6.24-3.008-4.16-4.512-10.048-4.512-17.664V23.616c0-7.552 1.536-13.312 4.608-17.28C53.27 2.304 58.422.288 65.654.288c7.104 0 12.192 2.016 15.264 6.048s4.608 9.792 4.608 17.28v32.352c0 7.616-1.504 13.504-4.512 17.664-3.008 4.096-8.128 6.144-15.36 6.144zm0-5.856c4.736 0 8-1.376 9.792-4.128 1.792-2.816 2.688-6.912 2.688-12.288V22.272c0-5.376-.896-9.408-2.688-12.096-1.728-2.688-4.992-4.032-9.792-4.032-4.864 0-8.192 1.344-9.984 4.032-1.792 2.624-2.688 6.656-2.688 12.096v35.232c0 5.44.896 9.536 2.688 12.288s5.12 4.128 9.984 4.128zM97.66 1.056h17.568c6.976 0 11.936 1.696 14.88 5.088 2.944 3.328 4.416 8.224 4.416 14.688 0 4.928-.8 8.992-2.4 12.192s-4.384 5.216-8.352 6.048l11.904 39.744h-7.104l-11.424-38.208h-12.192v38.208H97.66zm17.184 34.176c4.672 0 7.936-1.152 9.792-3.456s2.784-5.952 2.784-10.944c0-5.056-.896-8.704-2.688-10.944-1.728-2.24-4.96-3.36-9.696-3.36h-10.08v28.704zM155.447 6.72h-14.688V1.056h36.288V6.72h-14.304v72.096h-7.296zM202.109 79.776c-6.08 0-10.72-1.856-13.92-5.568-3.2-3.776-5.024-8.96-5.472-15.552l6.432-1.92c.576 5.504 1.792 9.728 3.648 12.672 1.92 2.944 5.056 4.416 9.408 4.416 7.296 0 10.944-3.744 10.944-11.232 0-3.2-.768-6.016-2.304-8.448-1.472-2.432-3.872-5.216-7.2-8.352L189.917 32.64c-2.496-2.304-4.32-4.704-5.472-7.2-1.088-2.56-1.632-5.376-1.632-8.448 0-5.312 1.568-9.408 4.704-12.288 3.2-2.944 7.488-4.416 12.864-4.416 5.76 0 10.176 1.536 13.248 4.608s4.864 8.096 5.376 15.072l-6.24 1.632c-.384-5.248-1.504-9.152-3.36-11.712-1.792-2.56-4.8-3.84-9.024-3.84-3.328 0-5.984.864-7.968 2.592s-2.976 4.288-2.976 7.68c0 2.176.416 4.128 1.248 5.856s2.24 3.552 4.224 5.472l13.728 12.96c3.52 3.328 6.272 6.752 8.256 10.272 2.048 3.456 3.072 7.2 3.072 11.232 0 5.632-1.632 9.984-4.896 13.056s-7.584 4.608-12.96 4.608zM267.779 79.776c-7.296 0-12.48-2.08-15.552-6.24-3.008-4.16-4.512-10.048-4.512-17.664V23.616c0-7.552 1.536-13.312 4.608-17.28 3.072-4.032 8.224-6.048 15.456-6.048 7.104 0 12.192 2.016 15.264 6.048s4.608 9.792 4.608 17.28v32.352c0 7.616-1.504 13.504-4.512 17.664-3.008 4.096-8.128 6.144-15.36 6.144zm0-5.856c4.736 0 8-1.376 9.792-4.128 1.792-2.816 2.688-6.912 2.688-12.288V22.272c0-5.376-.896-9.408-2.688-12.096-1.728-2.688-4.992-4.032-9.792-4.032-4.864 0-8.192 1.344-9.984 4.032-1.792 2.624-2.688 6.656-2.688 12.096v35.232c0 5.44.896 9.536 2.688 12.288s5.12 4.128 9.984 4.128zM299.785 1.056h27.936v5.472h-20.64v29.28h17.184v5.376h-17.184v37.632h-7.296zM355.354 1.056h34.944v11.712h-17.76v19.296h13.536v11.904h-13.536V67.2h17.952v11.616h-35.136zM408.275 36.96l-14.4-35.904h16.224l8.544 21.024 6.912-21.024h14.304l-13.632 40.416 15.168 37.344h-16.128l-9.504-23.232-8.352 23.232h-14.208zM447.794 1.056h17.184v77.76h-17.184zM476.573 1.056h17.184V67.2h17.856v11.616h-35.04zM519.135 1.056h34.944v11.712h-17.76v19.296h13.536v11.904h-13.536V67.2h17.952v11.616h-35.136zM582.626 1.056h7.392V35.52h24.48V1.056h7.296v77.76h-7.296V40.992h-24.48v37.824h-7.392zM653.842 79.776c-7.296 0-12.48-2.08-15.552-6.24-3.008-4.16-4.512-10.048-4.512-17.664V23.616c0-7.552 1.536-13.312 4.608-17.28 3.072-4.032 8.224-6.048 15.456-6.048 7.104 0 12.192 2.016 15.264 6.048s4.608 9.792 4.608 17.28v32.352c0 7.616-1.504 13.504-4.512 17.664-3.008 4.096-8.128 6.144-15.36 6.144zm0-5.856c4.736 0 8-1.376 9.792-4.128 1.792-2.816 2.688-6.912 2.688-12.288V22.272c0-5.376-.896-9.408-2.688-12.096-1.728-2.688-4.992-4.032-9.792-4.032-4.864 0-8.192 1.344-9.984 4.032-1.792 2.624-2.688 6.656-2.688 12.096v35.232c0 5.44.896 9.536 2.688 12.288s5.12 4.128 9.984 4.128zM687.095 1.056h7.296l15.36 67.488 15.648-67.488h7.296l1.92 77.76h-6.048l-1.536-61.92-14.88 61.92h-4.704l-14.688-61.824-1.536 61.824h-6.048zM747.439 1.056h28.128V6.72h-20.736v29.184h16.896v5.376h-16.896v32.064h20.928v5.472h-28.32zM804.611 1.056h17.184v31.488h12V1.056h17.28v77.76h-17.28V44.832h-12v33.984h-17.184zM873.86 1.056h19.584l14.496 77.76H892.1L889.508 62.4h-11.424l-2.688 16.416h-16.224zm14.016 51.072l-4.128-30.336-4.128 30.336zM915.791 1.056h21.408c8.512 0 14.944 1.504 19.296 4.512s6.528 8.352 6.528 16.032c0 5.184-.672 9.312-2.016 12.384s-3.84 5.472-7.488 7.2l10.656 37.632h-17.76l-8.544-34.848h-4.896v34.848h-17.184zm21.984 33.024c3.456 0 5.856-.896 7.2-2.688 1.408-1.856 2.112-4.608 2.112-8.256 0-3.52-.64-6.144-1.92-7.872-1.28-1.792-3.488-2.688-6.624-2.688h-5.568V34.08zM973.354 1.056h20.256c5.056 0 9.34.544 12.86 1.632 3.59 1.024 6.47 3.04 8.64 6.048 2.18 3.008 3.27 7.232 3.27 12.672 0 4.608-.99 8.192-2.98 10.752-1.98 2.56-4.8 4.192-8.45 4.896 4.48.576 7.91 2.464 10.28 5.664 2.36 3.2 3.55 7.552 3.55 13.056 0 15.36-7.84 23.04-23.522 23.04h-23.904zm20.544 31.104c3.648 0 6.112-.832 7.392-2.496 1.34-1.664 2.02-4.256 2.02-7.776 0-3.072-.84-5.376-2.5-6.912-1.664-1.6-4.096-2.4-7.296-2.4h-2.976V32.16zm.288 34.656c3.648 0 6.204-.896 7.684-2.688 1.53-1.856 2.3-4.736 2.3-8.64 0-4.416-.77-7.52-2.3-9.312-1.48-1.792-4.068-2.688-7.78-2.688h-3.552v23.328zM1052.06 79.968c-8.38 0-14.36-2.144-17.95-6.432-3.58-4.352-5.37-10.752-5.37-19.2V25.44c0-8.448 1.79-14.784 5.37-19.008C1037.7 2.144 1043.68 0 1052.06 0c8.45 0 14.47 2.144 18.05 6.432 3.65 4.288 5.47 10.624 5.47 19.008v28.896c0 8.448-1.82 14.848-5.47 19.2-3.58 4.288-9.6 6.432-18.05 6.432zm0-12.192c2.44 0 4.04-.8 4.8-2.4.77-1.664 1.16-3.904 1.16-6.72v-37.44c0-2.88-.39-5.12-1.16-6.72-.76-1.6-2.36-2.4-4.8-2.4-2.3 0-3.84.832-4.6 2.496-.77 1.6-1.16 3.808-1.16 6.624v37.44c0 2.816.36 5.056 1.06 6.72.7 1.6 2.27 2.4 4.7 2.4zM1108.51 79.968c-5.83 0-10.44-.928-13.83-2.784-3.39-1.92-5.79-4.704-7.2-8.352-1.34-3.712-2.01-8.416-2.01-14.112V1.056h16.99v56.256c0 3.136.38 5.632 1.15 7.488.83 1.856 2.46 2.784 4.9 2.784 2.43 0 4.03-.928 4.8-2.784.76-1.856 1.15-4.352 1.15-7.488V1.056h17.09V54.72c0 5.696-.71 10.4-2.12 14.112-1.4 3.648-3.8 6.432-7.2 8.352-3.32 1.856-7.9 2.784-13.72 2.784zM1142.48 1.056h21.41c8.51 0 14.94 1.504 19.29 4.512s6.53 8.352 6.53 16.032c0 5.184-.67 9.312-2.02 12.384-1.34 3.072-3.84 5.472-7.48 7.2l10.65 37.632h-17.76l-8.54-34.848h-4.9v34.848h-17.18zm21.98 33.024c3.46 0 5.86-.896 7.2-2.688 1.41-1.856 2.11-4.608 2.11-8.256 0-3.52-.64-6.144-1.92-7.872-1.28-1.792-3.48-2.688-6.62-2.688h-5.57V34.08zM1220.31 79.968c-7.43 0-12.96-1.952-16.61-5.856-3.59-3.968-5.51-10.24-5.76-18.816l14.69-2.208c.06 4.928.64 8.48 1.72 10.656 1.16 2.112 2.85 3.168 5.09 3.168 2.88 0 4.32-1.888 4.32-5.664 0-3.008-.7-5.6-2.11-7.776-1.34-2.176-3.49-4.512-6.43-7.008l-6.72-5.856c-3.33-2.816-5.92-5.792-7.78-8.928-1.79-3.2-2.69-6.976-2.69-11.328 0-6.528 1.92-11.552 5.76-15.072 3.91-3.52 9.25-5.28 16.04-5.28 7.36 0 12.35 2.144 14.97 6.432 2.69 4.288 4.13 9.504 4.32 15.648l-14.78 1.824c-.13-4.032-.51-6.912-1.15-8.64-.58-1.792-1.89-2.688-3.94-2.688-1.47 0-2.62.64-3.46 1.92-.76 1.216-1.15 2.592-1.15 4.128 0 2.624.58 4.832 1.73 6.624 1.22 1.792 3.14 3.84 5.76 6.144l6.43 5.664c3.84 3.264 6.82 6.72 8.93 10.368s3.17 7.968 3.17 12.96c0 3.648-.87 6.976-2.59 9.984-1.67 2.944-4.04 5.28-7.11 7.008s-6.62 2.592-10.65 2.592z"/></g></svg>