<svg fill="none" height="438" viewBox="0 0 764 438" width="764" xmlns="http://www.w3.org/2000/svg"><path d="m563.539 430.044c.336 5.492.068 5.559-4.298 5.763-.403.407-.403 1.152 0 1.559 3.157-.068 5.44-.339 7.186-.339 1.948 0 5.44.271 7.656.339.403-.407.403-1.152 0-1.559-4.566-.204-4.768-.475-5.171-6.102l-2.216-29.426c-.269-3.661.067-5.492 4.634-5.763.403-.407.403-1.153 0-1.56l-8.865.339-14.238 34.376c-.403.949-.403.881-.672.881-.268 0-.335-.203-.604-.814l-13.768-34.443-8.999-.339c-.403.407-.403 1.153 0 1.56 4.634.271 5.104 1.356 4.567 6.373l-2.955 28.816c-.403 4.068-1.209 5.763-5.037 6.102-.403.407-.403 1.152 0 1.559 2.015-.068 4.298-.339 5.91-.339s3.761.271 5.776.339c.403-.407.403-1.152 0-1.559-4.433-.339-4.769-2.373-4.433-6.238l2.552-28.07h.135l13.901 35.189c.202.543.605.746 1.008.746s.671-.203.94-.746l15.111-35.867h.134z" fill="#fff"/><path d="m577.793 423.806c0 6.577 4.366 13.899 13.432 13.899 4.097 0 7.186-1.491 9.402-3.661 2.888-2.848 4.164-6.916 4.164-10.848 0-6.713-3.626-14.578-13.432-14.578-4.231 0-7.656 1.763-10.006 4.543-2.351 2.78-3.56 6.577-3.56 10.645zm12.626-13.628c5.507 0 9.268 5.763 9.268 15.052 0 8.136-4.499 10.916-7.522 10.916-6.648 0-9.268-8.882-9.268-13.832 0-5.627 1.747-12.136 7.522-12.136z" fill="#fff"/><path d="m619.259 413.907c-.202.271-.605.881-.605 0 0-1.966.336-4.95.336-4.95 0-.339-.268-.474-.806-.474-1.813.678-4.029 1.22-8.462 1.83-.134.407 0 .746.135 1.153 3.425.339 4.029.678 4.163 4.407.068 3.526.068 10.781 0 14.103-.134 5.288-.671 5.492-4.499 5.831-.403.407-.403 1.152 0 1.559 2.619-.068 4.164-.339 6.917-.339 2.485 0 3.425.271 6.112.339.403-.407.403-1.152 0-1.559-3.291-.339-3.694-.543-3.828-5.831-.135-3.119-.202-8.882 0-12.137.067-1.356.537-2.101 1.074-2.712 2.418-2.373 5.977-3.796 8.462-3.796 1.276 0 2.687.813 3.425 2.305.672 1.288.538 3.051.672 5.017.134 3.39.134 7.933 0 11.323-.269 5.288-.605 5.492-3.963 5.831-.335.407-.335 1.152 0 1.559 2.687-.068 3.896-.339 6.448-.339 2.619 0 3.828.271 6.581.339.336-.407.336-1.152 0-1.559-3.559-.339-4.096-.543-4.298-5.831-.134-3.322-.134-7.051 0-10.442 0-1.017.067-1.966.067-2.915 0-2.305-.268-4.271-1.276-5.763-1.074-1.424-3.223-2.238-5.44-2.238-3.156 0-7.32.882-11.215 5.289z" fill="#fff"/><path d="m645.947 409.296c-.873 0-1.141.407-1.141.95v.61c0 .339.067.407.335.407h3.761c0 6.441-.336 15.933-.336 20.001 0 4.611 1.545 6.441 4.5 6.441s6.179-1.424 8.664-4.271c-.135-.678-.269-.814-.672-.949-1.679 1.288-4.03 2.305-5.708 2.305-1.747 0-2.015-1.966-2.15-5.967-.134-3.39.068-11.526.336-17.56h6.649c.672 0 1.545-.204 1.545-.814v-.746c0-.271-.135-.407-.47-.407h-7.724l.067-3.864c.068-4.204.269-6.78.269-6.78 0-.407-.201-.611-.47-.611-.47 0-1.478.746-2.485 1.153-1.075.475-2.216.542-2.216 1.221 0 .745.201 1.695.201 8.881z" fill="#fff"/><path d="m669.708 415.873c.135 3.458.135 10.713 0 14.103-.268 5.356-.738 5.492-4.701 5.831-.403.407-.403 1.152 0 1.559 2.015-.135 5.037-.339 7.052-.339 1.948 0 5.373.204 7.589.339.403-.407.403-1.152 0-1.559-4.5-.407-5.037-.475-5.238-5.831-.135-3.39-.068-8.543 0-9.831.067-1.695.873-3.526 1.544-4.679.605-1.017 2.216-3.457 2.955-3.457.47 0 1.008.135 1.276.61.47.881 1.343 2.102 2.687 2.102 1.544 0 3.022-1.356 3.022-2.984 0-1.22-.739-3.119-3.895-3.119-2.485 0-4.97 2.17-7.119 5.425-.47.678-.538-.272-.538-.611 0-2.101-.067-4.136-.201-4.542-.134-.204-.269-.407-.806-.407-1.813.678-3.492 1.22-7.925 1.83-.134.407-.134.746.135 1.153 3.425.339 4.029.882 4.163 4.407z" fill="#fff"/><path d="m694.586 419.467c1.208-7.323 5.44-9.289 7.857-9.289 3.09 0 6.045 2.644 6.045 8.068 0 .61-.269.882-.941.882zm17.73 11.526c-2.351 2.441-4.567 4.204-8.261 4.204-2.283 0-5.641-1.356-7.656-4.679-1.276-2.102-2.015-5.356-2.015-9.085l17.999-.271c.739 0 1.209-.475 1.209-1.153 0-5.424-2.217-11.391-11.149-11.391-6.111 0-13.163 5.492-13.163 15.324 0 3.593.94 7.186 3.022 9.627 2.149 2.577 5.507 4.136 10.141 4.136 4.836 0 8.664-2.237 11.216-5.627-.202-.678-.605-1.017-1.343-1.085z" fill="#fff"/><path d="m736.12 422.653-.335 7.933c-.068.814-.336 1.221-.873 1.627-1.679 1.356-3.963 3.458-5.776 3.458-3.224 0-4.97-2.847-4.97-4.882 0-2.508 1.612-5.559 6.447-6.78zm-.335 11.255c.403 1.356 1.41 3.797 4.835 3.797 3.157 0 5.44-2.576 5.44-2.915 0-.475-.672-.882-.94-.882-.403 0-.605 1.085-1.948 1.085-2.485 0-2.821-2.034-2.686-5.763l.336-9.628c.268-9.017-4.433-10.984-9.134-10.984-5.239 0-10.88 3.391-10.88 6.848 0 1.56 1.075 2.645 2.552 2.645 1.881 0 2.955-1.695 2.955-2.509 0-.475-.067-.881-.201-1.153-.067-.203-.135-.61-.135-1.288 0-2.034 2.754-3.051 5.172-3.051 2.149 0 5.037 1.763 5.037 9.085 0 .475-.135 1.356-.336 1.424l-6.045 1.356c-6.245 1.424-10.544 4.679-10.544 9.086 0 4.949 3.493 6.644 7.992 6.644 2.955 0 4.299-.61 7.119-2.78l1.276-1.017z" fill="#fff"/><path d="m753.186 430.044c-.135 5.356-.739 5.559-4.634 5.763-.47.474-.403 1.22 0 1.559 2.686-.068 4.298-.339 7.051-.339 2.754 0 4.366.271 7.119.339.336-.339.403-1.085 0-1.559-3.895-.204-4.499-.407-4.634-5.763-.067-2.509-.201-8.747-.201-15.323 0-7.459.134-15.324.201-18.307.067-4.203.269-6.102.269-6.102 0-.474-.269-.61-.873-.61-1.612.678-6.045 1.492-8.597 1.695-.134.542-.201.881.202 1.288 3.358.204 3.828.543 4.097 5.289.067 2.644.134 8.746.134 14.984 0 7.051-.067 14.306-.134 17.086z" fill="#fff"/><path d="m485.086 414.967h12.6325v12.6325h-12.6325z" fill="#d9aa3e"/><path d="m263.988 430.044c.334 5.492.067 5.559-4.282 5.763-.402.407-.402 1.152 0 1.559 3.144-.068 5.419-.339 7.159-.339 1.94 0 5.419.271 7.627.339.401-.407.401-1.152 0-1.559-4.55-.204-4.75-.475-5.152-6.102l-2.208-29.426c-.267-3.661.067-5.492 4.617-5.763.401-.407.401-1.153 0-1.56l-8.832.339-14.184 34.376c-.401.949-.401.881-.669.881-.267 0-.334-.203-.602-.814l-13.716-34.443-8.965-.339c-.401.407-.401 1.153 0 1.56 4.617.271 5.085 1.356 4.55 6.373l-2.944 28.816c-.402 4.068-1.204 5.763-5.018 6.102-.401.407-.401 1.152 0 1.559 2.007-.068 4.282-.339 5.888-.339 1.605 0 3.746.271 5.754.339.401-.407.401-1.152 0-1.559-4.416-.339-4.751-2.373-4.416-6.238l2.542-28.07h.134l13.849 35.189c.201.543.603.746 1.004.746s.669-.203.937-.746l15.053-35.867h.134z" fill="#fff"/><path d="m295.115 422.653-.334 7.933c-.067.814-.335 1.221-.87 1.627-1.673 1.356-3.948 3.458-5.754 3.458-3.212 0-4.951-2.847-4.951-4.882 0-2.508 1.606-5.559 6.423-6.78zm-.334 11.255c.401 1.356 1.405 3.797 4.817 3.797 3.144 0 5.419-2.576 5.419-2.915 0-.475-.669-.882-.937-.882-.401 0-.602 1.085-1.94 1.085-2.475 0-2.81-2.034-2.676-5.763l.334-9.628c.268-9.017-4.415-10.984-9.099-10.984-5.218 0-10.838 3.391-10.838 6.848 0 1.56 1.07 2.645 2.542 2.645 1.873 0 2.944-1.695 2.944-2.509 0-.475-.067-.881-.201-1.153-.067-.203-.134-.61-.134-1.288 0-2.034 2.743-3.051 5.152-3.051 2.141 0 5.018 1.763 5.018 9.085 0 .475-.134 1.356-.335 1.424l-6.021 1.356c-6.222 1.424-10.504 4.679-10.504 9.086 0 4.949 3.479 6.644 7.962 6.644 2.943 0 4.282-.61 7.092-2.78l1.271-1.017z" fill="#fff"/><path d="m312.651 415.873c.134 3.458.134 10.713 0 14.103-.267 5.356-.736 5.492-4.683 5.831-.402.407-.402 1.152 0 1.559 2.007-.135 5.018-.339 7.025-.339 1.94 0 5.352.204 7.56.339.402-.407.402-1.152 0-1.559-4.482-.407-5.018-.475-5.218-5.831-.134-3.39-.067-8.543 0-9.831.066-1.695.869-3.526 1.538-4.679.603-1.017 2.208-3.457 2.944-3.457.469 0 1.004.135 1.271.61.469.881 1.339 2.102 2.677 2.102 1.538 0 3.01-1.356 3.01-2.984 0-1.22-.736-3.119-3.88-3.119-2.476 0-4.951 2.17-7.092 5.425-.468.678-.535-.272-.535-.611 0-2.101-.067-4.136-.201-4.542-.134-.204-.268-.407-.803-.407-1.806.678-3.479 1.22-7.895 1.83-.134.407-.134.746.134 1.153 3.412.339 4.014.882 4.148 4.407z" fill="#fff"/><path d="m333.016 428.484c.267 3.187.401 5.831.401 8.543.669-.135 1.271-.203 1.606-.203.468 0 .803 0 1.271.135 1.739.475 3.479.746 5.821.746 3.546 0 10.169-1.83 10.169-8.204 0-4.407-3.144-6.576-7.493-8.271-3.814-1.492-6.624-2.78-6.624-6.306 0-2.644 2.141-4.814 4.751-4.814 2.341 0 5.753.882 6.556 6.373.402.339 1.004.339 1.405-.067.201-2.306.268-4.407.335-6.509-2.007-.339-4.951-1.289-8.296-1.289-5.085 0-9.033 2.78-9.033 7.255 0 4.746 2.476 6.645 7.025 8.611 5.219 2.305 6.691 3.729 6.691 6.509 0 3.187-3.278 5.221-5.62 5.221-2.476 0-4.215-1.085-4.884-1.763-1.539-1.492-2.409-4.407-2.81-6.035-.402-.406-.87-.339-1.271.068z" fill="#fff"/><path d="m362.589 419.467c1.205-7.323 5.42-9.289 7.828-9.289 3.078 0 6.022 2.644 6.022 8.068 0 .61-.268.882-.937.882zm17.663 11.526c-2.341 2.441-4.549 4.204-8.229 4.204-2.275 0-5.62-1.356-7.627-4.679-1.271-2.102-2.007-5.356-2.007-9.085l17.93-.271c.736 0 1.205-.475 1.205-1.153 0-5.424-2.208-11.391-11.107-11.391-6.088 0-13.113 5.492-13.113 15.324 0 3.593.937 7.186 3.011 9.627 2.141 2.577 5.486 4.136 10.102 4.136 4.818 0 8.631-2.237 11.174-5.627-.201-.678-.603-1.017-1.339-1.085z" fill="#fff"/><path d="m389.39 396.414c0 1.763 1.605 3.526 3.211 3.526 1.874 0 3.479-1.763 3.479-3.255 0-1.627-1.405-3.525-3.211-3.525-1.606 0-3.479 1.627-3.479 3.254zm6.423 33.223c-.134-2.034-.134-5.424-.134-7.458s0-4.204.134-6.238c.133-3.322.401-7.051.401-7.051 0-.272-.334-.475-.87-.475-1.94.746-4.282 1.356-8.898 1.966-.134.407 0 .814.134 1.221 3.613.407 4.148.678 4.349 4.61.066 2.034.133 3.865.133 5.899s-.133 5.492-.133 7.526c-.201 5.627-.736 5.831-4.818 6.17-.401.407-.401 1.152 0 1.559 1.74-.135 5.286-.339 7.293-.339 2.074 0 5.219.204 7.226.339.401-.407.401-1.152 0-1.559-4.081-.271-4.617-.475-4.817-6.17z" fill="#fff"/><path d="m408.097 430.044c-.134 5.356-.736 5.559-4.617 5.763-.468.474-.401 1.22 0 1.559 2.676-.068 4.282-.339 7.025-.339s4.349.271 7.092.339c.335-.339.402-1.085 0-1.559-3.88-.204-4.482-.407-4.616-5.763-.067-2.509-.201-8.747-.201-15.323 0-7.459.134-15.324.201-18.307.067-4.203.267-6.102.267-6.102 0-.474-.267-.61-.869-.61-1.606.678-6.022 1.492-8.564 1.695-.134.542-.201.881.2 1.288 3.346.204 3.814.543 4.082 5.289.067 2.644.133 8.746.133 14.984 0 7.051-.066 14.306-.133 17.086z" fill="#fff"/><path d="m425.019 430.044c-.134 5.356-.736 5.559-4.616 5.763-.469.474-.402 1.22 0 1.559 2.676-.068 4.282-.339 7.025-.339s4.349.271 7.092.339c.334-.339.401-1.085 0-1.559-3.881-.204-4.483-.407-4.617-5.763-.067-2.509-.201-8.747-.201-15.323 0-7.459.134-15.324.201-18.307.067-4.203.268-6.102.268-6.102 0-.474-.268-.61-.87-.61-1.606.678-6.021 1.492-8.564 1.695-.134.542-.201.881.201 1.288 3.345.204 3.813.543 4.081 5.289.067 2.644.134 8.746.134 14.984 0 7.051-.067 14.306-.134 17.086z" fill="#fff"/><path d="m443.347 419.467c1.204-7.323 5.419-9.289 7.827-9.289 3.078 0 6.022 2.644 6.022 8.068 0 .61-.268.882-.937.882zm17.663 11.526c-2.342 2.441-4.55 4.204-8.23 4.204-2.275 0-5.62-1.356-7.627-4.679-1.271-2.102-2.007-5.356-2.007-9.085l17.93-.271c.736 0 1.205-.475 1.205-1.153 0-5.424-2.208-11.391-11.107-11.391-6.088 0-13.113 5.492-13.113 15.324 0 3.593.937 7.186 3.011 9.627 2.141 2.577 5.486 4.136 10.102 4.136 4.818 0 8.631-2.237 11.174-5.627-.201-.678-.602-1.017-1.338-1.085z" fill="#fff"/><path d="m185.697 414.967h12.6325v12.6325h-12.6325z" fill="#d9aa3e"/><g fill="#fff"><path d="m19.3722 412.76-7.8563.068s-.0672-9.196.1343-14.741c.0671-1.623.8729-2.975 2.4844-2.975h10.4751c5.0361 0 6.0433 3.583 7.5206 8.249.8058.135.9401 0 1.6115-.338-.3357-2.772-1.3429-9.467-1.4772-10.008 0-.135-.0672-.203-.2686-.203-1.1415.203-1.7458.474-3.3574.474h-19.6072c-2.01444 0-5.37184-.271-8.729234-.338-.402888.405-.402888 1.149 0 1.555 4.700354.203 5.573284.541 5.774724 6.153.1343 5.545.1343 8.926.1343 14.539 0 5.612 0 8.79-.1343 14.335-.20144 5.613-1.07437 5.951-5.774724 6.154-.402888.406-.402888 1.149 0 1.555 3.290254-.068 6.849094-.338 8.863534-.338h14.9068c3.2231 0 8.595.338 8.595.338.94-3.381 1.8801-8.047 2.4173-11.495-.6715-.406-.7386-.541-1.6115-.338-1.343 4.868-3.7603 9.737-8.8636 9.737h-10.4751c-1.4772 0-2.4173-1.082-2.4844-2.908-.2015-5.68-.1343-17.514-.1343-17.514l7.8563.068c5.7076.068 5.9762 1.488 6.1776 4.531.4029.405 1.0744.405 1.4772 0-.0671-2.367-.2685-3.179-.2685-5.275 0-2.231.2014-3.786.2685-5.815-.4028-.406-1.0743-.406-1.4772 0-.2014 3.719-.47 4.53-6.1776 4.53z"/><path d="m43.3026 429.936c-.1343 5.342-.7387 5.545-4.6333 5.748-.47.473-.4028 1.217 0 1.555 2.686-.068 4.2975-.338 7.0506-.338 2.753 0 4.3646.27 7.1177.338.3357-.338.4029-1.082 0-1.555-3.8946-.203-4.4989-.406-4.6332-5.748-.0672-2.502-.2015-8.723-.2015-15.282 0-7.438.1343-15.282.2015-18.258.0671-4.192.2685-6.086.2685-6.086 0-.473-.2685-.608-.8729-.608-1.6115.676-6.0433 1.488-8.5949 1.69-.1343.541-.2015.879.2014 1.285 3.3574.203 3.8275.541 4.0961 5.275.0671 2.637.1343 8.723.1343 14.944 0 7.032-.0672 14.268-.1343 17.04z"/><path d="m60.4206 404.443c0 1.014 0 2.705.0671 4.801h-3.3574c-1.1415 0-1.4772.406-1.4772.947v.608c0 .339.0671.406.3357.406h4.4989c0 6.762 0 15.891-.0671 18.663-.2015 5.342-.7387 5.545-4.1632 5.816-.4029.406-.4029 1.149 0 1.555 2.6859-.068 3.8274-.338 6.3119-.338 2.9545 0 4.7675.27 7.5206.338.4029-.406.4029-1.149 0-1.555-4.3647-.271-4.9018-.474-5.0361-5.816-.1343-2.637-.1343-11.698-.1343-18.663h6.1104c.6044 0 1.4101.068 1.4101-.541v-1.014c0-.271-.1342-.406-.47-.406h-7.0505c.0671-2.569.0671-4.733.1343-5.883.0671-3.381.3357-5.95.8729-7.776 1.0744-3.381 2.7531-4.395 4.1632-4.395 1.9473 0 2.8873 1.352 3.7603 3.583.5371 1.15 1.2086 2.029 2.5516 2.029 1.0743 0 2.753-1.217 2.753-2.502 0-1.082-.7386-2.231-2.0815-3.246-1.6787-1.149-3.3574-1.352-5.7748-1.352-3.1559 0-6.5133 1.555-8.6621 4.801-1.5444 2.434-2.4173 5.68-2.2158 9.94z"/><path d="m82.2867 419.387c1.2086-7.303 5.4389-9.264 7.8563-9.264 3.0888 0 6.0433 2.637 6.0433 8.047 0 .609-.2686.879-.9401.879zm17.7273 11.496c-2.3505 2.434-4.5663 4.192-8.2595 4.192-2.283 0-5.6404-1.352-7.6548-4.666-1.2759-2.096-2.0145-5.342-2.0145-9.061l17.9958-.27c.738 0 1.209-.474 1.209-1.15 0-5.409-2.2164-11.36-11.147-11.36-6.1105 0-13.161 5.477-13.161 15.282 0 3.584.94 7.168 3.0216 9.602 2.1488 2.57 5.5062 4.125 10.1394 4.125 4.8346 0 8.6621-2.231 11.214-5.612-.202-.677-.605-1.015-1.343-1.082z"/><path d="m117.04 437.577c2.485 0 6.178-1.352 9.334-3.922.336-.27.94-.406.94.068 0 1.487.739 3.854.739 3.854.47.203.738.135 1.208 0 1.41-1.149 3.223-2.164 7.118-2.637.403-.406.403-.609 0-1.014-4.096-.338-4.633-1.556-4.7-4.734-.135-3.381-.135-10.549 0-13.93.067-1.961.268-5.95.268-5.95 0-.203-.134-.406-.47-.406-.335.068-1.343.135-2.283.135-2.081 0-3.76-.067-6.11-.135-.403.406-.403 1.15 0 1.555 3.156.203 3.76 1.015 3.961 5.207.135 3.381.135 10.549 0 13.93-.067 1.217-.134 1.014-1.007 1.826-2.35 2.096-5.506 3.786-7.117 3.786-4.029 0-4.634-1.555-4.835-7.303-.134-3.381-.134-9.264 0-12.645.067-1.961.269-5.95.269-5.95 0-.203-.202-.406-.538-.406-.335.068-1.275.135-2.216.135-2.081 0-3.76-.067-6.11-.135-.403.406-.403 1.15 0 1.555 3.089.271 3.76.879 3.962 5.072.134 3.381.134 9.873 0 13.254-.202 4.462 1.276 8.79 7.587 8.79z"/><path d="m144.224 404.443c0 1.014 0 2.705.067 4.801h-3.357c-1.141 0-1.477.406-1.477.947v.608c0 .339.067.406.336.406h4.498c0 6.762 0 15.891-.067 18.663-.201 5.342-.738 5.545-4.163 5.816-.403.406-.403 1.149 0 1.555 2.686-.068 3.828-.338 6.312-.338 2.955 0 4.768.27 7.521.338.403-.406.403-1.149 0-1.555-4.365-.271-4.902-.474-5.036-5.816-.135-2.637-.135-11.698-.135-18.663h6.111c.604 0 1.41.068 1.41-.541v-1.014c0-.271-.134-.406-.47-.406h-7.051c.067-2.569.067-4.733.135-5.883.067-3.381.335-5.95.872-7.776 1.075-3.381 2.754-4.395 4.164-4.395 1.947 0 2.887 1.352 3.76 3.583.537 1.15 1.209 2.029 2.552 2.029 1.074 0 2.753-1.217 2.753-2.502 0-1.082-.739-2.231-2.082-3.246-1.679-1.149-3.357-1.352-5.775-1.352-3.156 0-6.513 1.555-8.662 4.801-1.544 2.434-2.417 5.68-2.216 9.94z"/><path d="m0 227.849h30.084v55.126h21.0084v-55.126h30.2521v136.134h-30.2521v-59.496h-21.0084v59.496h-30.084z"/><path d="m121.236 227.849h34.285l25.378 136.134h-27.731l-4.537-28.739h-20l-4.706 28.739h-28.4037zm24.537 89.411-7.227-53.109-7.226 53.109z"/><path d="m194.644 227.849h37.479c14.902 0 26.163 2.633 33.782 7.899s11.428 14.622 11.428 28.067c0 9.076-1.176 16.303-3.529 21.681s-6.723 9.58-13.109 12.605l18.655 65.882h-31.092l-14.958-61.008h-8.572v61.008h-30.084zm38.488 57.815c6.05 0 10.252-1.569 12.605-4.706 2.465-3.249 3.697-8.067 3.697-14.454 0-6.162-1.12-10.756-3.361-13.781-2.241-3.138-6.107-4.706-11.597-4.706h-9.748v37.647z"/><path d="m295.419 227.849h35.462c8.852 0 16.359.952 22.521 2.857 6.275 1.793 11.317 5.322 15.126 10.588 3.81 5.266 5.714 12.661 5.714 22.185 0 8.067-1.736 14.342-5.21 18.824-3.473 4.481-8.403 7.338-14.79 8.571 7.844 1.008 13.838 4.314 17.984 9.916 4.145 5.602 6.218 13.221 6.218 22.857 0 26.891-13.725 40.336-41.176 40.336h-41.849zm35.966 54.454c6.387 0 10.7-1.457 12.941-4.37 2.353-2.913 3.53-7.451 3.53-13.614 0-5.378-1.457-9.411-4.37-12.101-2.913-2.801-7.171-4.201-12.773-4.201h-5.21v34.286zm.504 60.672c6.387 0 10.869-1.569 13.446-4.706 2.689-3.249 4.033-8.291 4.033-15.126 0-7.731-1.344-13.165-4.033-16.303-2.577-3.137-7.115-4.706-13.614-4.706h-6.218v40.841z"/><path d="m433.216 366c-14.678 0-25.154-3.753-31.429-11.26-6.274-7.62-9.412-18.824-9.412-33.614v-50.588c0-14.79 3.138-25.883 9.412-33.277 6.275-7.507 16.751-11.261 31.429-11.261 14.789 0 25.322 3.754 31.596 11.261 6.387 7.507 9.58 18.599 9.58 33.277v50.588c0 14.79-3.193 25.994-9.58 33.614-6.274 7.507-16.807 11.26-31.596 11.26zm0-21.345c4.257 0 7.058-1.4 8.403-4.201 1.344-2.913 2.017-6.835 2.017-11.765v-65.546c0-5.042-.673-8.964-2.017-11.765-1.345-2.801-4.146-4.202-8.403-4.202-4.034 0-6.723 1.457-8.068 4.37-1.344 2.801-2.016 6.667-2.016 11.597v65.546c0 4.93.616 8.852 1.848 11.765 1.233 2.801 3.978 4.201 8.236 4.201z"/><path d="m532.029 366c-10.196 0-18.264-1.625-24.202-4.874-5.938-3.361-10.14-8.235-12.605-14.622-2.353-6.498-3.53-14.734-3.53-24.706v-93.949h29.748v98.487c0 5.49.673 9.86 2.017 13.109 1.457 3.25 4.314 4.874 8.572 4.874 4.257 0 7.058-1.624 8.403-4.874 1.344-3.249 2.017-7.619 2.017-13.109v-98.487h29.916v93.949c0 9.972-1.233 18.208-3.698 24.706-2.465 6.387-6.666 11.261-12.605 14.622-5.826 3.249-13.837 4.874-24.033 4.874z"/><path d="m591.506 227.849h37.479c14.902 0 26.162 2.633 33.781 7.899 7.62 5.266 11.429 14.622 11.429 28.067 0 9.076-1.176 16.303-3.529 21.681s-6.723 9.58-13.11 12.605l18.656 65.882h-31.093l-14.958-61.008h-8.571v61.008h-30.084zm38.487 57.815c6.051 0 10.253-1.569 12.605-4.706 2.465-3.249 3.698-8.067 3.698-14.454 0-6.162-1.12-10.756-3.361-13.781-2.241-3.138-6.107-4.706-11.597-4.706h-9.748v37.647z"/><path d="m727.759 366c-12.998 0-22.689-3.417-29.076-10.252-6.275-6.947-9.636-17.927-10.084-32.941l25.714-3.866c.112 8.628 1.121 14.846 3.025 18.656 2.017 3.697 4.986 5.546 8.908 5.546 5.042 0 7.563-3.305 7.563-9.916 0-5.266-1.232-9.804-3.697-13.614-2.353-3.809-6.107-7.899-11.261-12.268l-11.765-10.253c-5.826-4.93-10.364-10.14-13.613-15.63-3.137-5.602-4.706-12.213-4.706-19.832 0-11.428 3.361-20.224 10.084-26.386 6.835-6.163 16.191-9.244 28.067-9.244 12.885 0 21.625 3.754 26.219 11.261 4.706 7.507 7.227 16.638 7.563 27.394l-25.882 3.194c-.225-7.059-.897-12.101-2.017-15.126-1.009-3.138-3.306-4.706-6.891-4.706-2.577 0-4.594 1.12-6.051 3.361-1.344 2.129-2.016 4.538-2.016 7.227 0 4.594 1.008 8.459 3.025 11.597 2.129 3.137 5.49 6.722 10.084 10.756l11.26 9.916c6.723 5.714 11.933 11.765 15.631 18.151 3.697 6.387 5.546 13.95 5.546 22.689 0 6.387-1.513 12.213-4.538 17.479-2.913 5.154-7.059 9.244-12.437 12.269s-11.597 4.538-18.655 4.538z"/><path d="m296 153.58h5.58v26.014h18.478v-26.014h5.507v58.695h-5.507v-28.55h-18.478v28.55h-5.58z"/><path d="m349.756 213c-5.508 0-9.421-1.57-11.739-4.71-2.271-3.14-3.406-7.585-3.406-13.333v-24.348c0-5.701 1.159-10.049 3.478-13.044 2.319-3.043 6.208-4.565 11.667-4.565 5.362 0 9.203 1.522 11.521 4.565 2.319 3.044 3.479 7.392 3.479 13.044v24.42c0 5.749-1.136 10.193-3.406 13.333-2.271 3.092-6.135 4.638-11.594 4.638zm0-4.42c3.575 0 6.038-1.039 7.391-3.116 1.353-2.126 2.029-5.218 2.029-9.276v-26.594c0-4.058-.676-7.101-2.029-9.13-1.304-2.029-3.768-3.044-7.391-3.044-3.672 0-6.184 1.015-7.537 3.044-1.352 1.98-2.029 5.024-2.029 9.13v26.594c0 4.107.677 7.198 2.029 9.276 1.353 2.077 3.865 3.116 7.537 3.116z"/><path d="m374.856 153.58h5.508l11.594 50.942 11.811-50.942h5.508l1.449 58.695h-4.565l-1.16-46.739-11.232 46.739h-3.55l-11.087-46.666-1.16 46.666h-4.565z"/><path d="m420.406 153.58h21.231v4.275h-15.652v22.029h12.754v4.058h-12.754v24.203h15.797v4.13h-21.376z"/><path d="m0 73h62.843v21.0864h-31.9394v34.7406h24.343v21.432h-24.343v41.827h32.2847v20.914h-63.1883z"/><path d="m95.1736 137.642-25.8968-64.642h29.1771l15.3651 37.852 12.431-37.852h25.724l-24.516 72.765 27.278 67.235h-29.004l-17.092-41.827-15.0202 41.827h-25.5516z"/><path d="m166.243 73h30.903v140h-30.903z"/><path d="m217.999 73h30.903v119.086h32.112v20.914h-63.015z"/><path d="m0 .579707h14.1857c5.0211 0 8.6041 1.352663 10.749 4.057973 2.1936 2.70532 3.2905 6.54592 3.2905 11.52172 0 4.5411-1.1456 8.2367-3.4368 11.087-2.2424 2.8502-5.7523 4.2753-10.5296 4.2753h-8.70151v27.7537h-5.55729zm12.6501 26.811593c3.6562 0 6.2398-.8213 7.751-2.4638 1.5599-1.6908 2.3399-4.6135 2.3399-8.7681 0-3.0435-.2925-5.3623-.8775-6.9565-.5849-1.64251-1.5843-2.80193-2.998-3.47826s-3.4611-1.0145-6.1422-1.0145h-7.16601v22.68116z"/><path d="m49.3866 60c-5.5573 0-9.5059-1.57-11.8458-4.7101-2.2911-3.1401-3.4367-7.5846-3.4367-13.3334v-24.3478c0-5.7005 1.1699-10.04831 3.5099-13.04349 2.3399-3.04347 6.2641-4.56521 11.7726-4.56521 5.4111 0 9.2865 1.52174 11.6265 4.56521 2.3399 3.04348 3.5098 7.39129 3.5098 13.04349v24.4203c0 5.7488-1.1456 10.1932-3.4367 13.3333-2.2912 3.0918-6.191 4.6377-11.6996 4.6377zm0-4.4203c3.6074 0 6.0935-1.0386 7.4585-3.1159 1.3649-2.1256 2.0474-5.2174 2.0474-9.2754v-26.5942c0-4.058-.6825-7.10145-2.0474-9.13043-1.3162-2.02899-3.8024-3.04348-7.4585-3.04348-3.7048 0-6.2397 1.01449-7.6047 3.04348-1.3649 1.98067-2.0474 5.02413-2.0474 9.13043v26.5942c0 4.1063.6825 7.1981 2.0474 9.2754 1.365 2.0773 3.8999 3.1159 7.6047 3.1159z"/><path d="m73.7649.579707h13.3814c5.3135 0 9.0915 1.280193 11.3339 3.840583 2.2428 2.51208 3.3638 6.20771 3.3638 11.08691 0 3.7199-.61 6.7875-1.828 9.2029-1.2189 2.4155-3.3395 3.9372-6.3619 4.5653l9.0669 30h-5.4108l-8.7015-28.8406h-9.2865v28.8406h-5.5573zm13.0889 25.797093c3.5586 0 6.0447-.8696 7.4584-2.6087s2.1206-4.4927 2.1206-8.2609c0-3.8164-.6825-6.57-2.0474-8.26083-1.3162-1.69082-3.778-2.53623-7.3854-2.53623h-7.6778v21.66666z"/><path d="m117.781 4.85507h-11.188v-4.275363h27.641v4.275363h-10.896v54.42033h-5.557z"/><path d="m153.323 60c-4.631 0-8.165-1.401-10.603-4.2029-2.437-2.8502-3.826-6.7633-4.168-11.7391l4.9-1.4493c.438 4.1546 1.364 7.343 2.778 9.5652 1.463 2.2222 3.851 3.3334 7.166 3.3334 5.557 0 8.336-2.8261 8.336-8.4783 0-2.4155-.585-4.5411-1.755-6.3768-1.121-1.8358-2.949-3.9372-5.484-6.3044l-10.457-9.9275c-1.901-1.7391-3.29-3.5507-4.167-5.4348-.829-1.9324-1.244-4.058-1.244-6.3768 0-4.00967 1.195-7.10146 3.583-9.27537 2.438-2.22222 5.704-3.33333 9.799-3.33333 4.387 0 7.751 1.15942 10.091 3.47826s3.705 6.11111 4.095 11.37684l-4.753 1.2319c-.293-3.9614-1.146-6.90826-2.56-8.84063-1.365-1.93236-3.656-2.89854-6.873-2.89854-2.535 0-4.558.65217-6.069 1.95652-1.512 1.30434-2.267 3.23671-2.267 5.79705 0 1.6426.317 3.116.95 4.4203.634 1.3044 1.707 2.6812 3.218 4.1305l10.456 9.7826c2.681 2.5121 4.778 5.0966 6.289 7.7536 1.56 2.6087 2.34 5.4348 2.34 8.4783 0 4.2512-1.243 7.5362-3.73 9.855-2.486 2.3189-5.776 3.4783-9.871 3.4783z"/><path d="m203.343 60c-5.557 0-9.506-1.57-11.846-4.7101-2.291-3.1401-3.436-7.5846-3.436-13.3334v-24.3478c0-5.7005 1.17-10.04831 3.509-13.04349 2.34-3.04347 6.265-4.56521 11.773-4.56521 5.411 0 9.287 1.52174 11.627 4.56521 2.339 3.04348 3.509 7.39129 3.509 13.04349v24.4203c0 5.7488-1.145 10.1932-3.436 13.3333-2.291 3.0918-6.191 4.6377-11.7 4.6377zm0-4.4203c3.608 0 6.094-1.0386 7.459-3.1159 1.365-2.1256 2.047-5.2174 2.047-9.2754v-26.5942c0-4.058-.682-7.10145-2.047-9.13043-1.317-2.02899-3.803-3.04348-7.459-3.04348-3.705 0-6.24 1.01449-7.605 3.04348-1.364 1.98067-2.047 5.02413-2.047 9.13043v26.5942c0 4.1063.683 7.1981 2.047 9.2754 1.365 2.0773 3.9 3.1159 7.605 3.1159z"/><path d="m227.721.579707h21.279v4.130433h-15.721v22.10146h13.089v4.058h-13.089v28.4058h-5.558z"/></g></svg>