<svg xmlns="http://www.w3.org/2000/svg" viewBox="0 0 226.8 158.7"><path d="M99.2 129.5c-.4 0-.7.1-1 .4-.2.3-.4.7-.4 1.2v8.6l-5.6-8.5c-.2-.2-.3-.5-.5-.7-.2-.2-.3-.4-.4-.6-.1-.1-.3-.3-.5-.3-.2-.1-.4-.1-.7-.1-.3 0-.6.1-.9.3-.3.2-.5.4-.6.7-.1.3-.2.6-.2 1.1v11.1c0 .5.1 1 .4 1.2.2.3.6.4 1 .4s.7-.1 1-.4c.3-.3.4-.7.4-1.2v-8.5l5.5 8.4c.2.2.3.5.5.7.2.2.3.4.5.6.2.2.4.3.6.4.2.1.4.1.7.1 1 0 1.6-.6 1.6-1.9v-11.4c0-.6-.1-1-.4-1.2-.3-.2-.6-.4-1-.4m89.6 11.7c-.2.2-.5.3-.8.4-.3.1-.6.2-.9.2h-3.3V132h1.9c.9 0 1.7.1 2.3.3.6.2 1.2.6 1.6 1.4.4.7.6 1.8.6 3.2 0 2.1-.5 3.5-1.4 4.3m.2-11.1c-.7-.2-1.6-.3-2.5-.3h-3.8c-.6 0-1.1.1-1.4.4-.3.3-.4.7-.4 1.4v10.6c0 .5 0 .8.1 1.1.1.3.3.5.5.7.3.2.7.2 1.2.2h3.8c.7 0 1.3 0 1.8-.1s1-.2 1.5-.4.9-.5 1.3-.8c.5-.5.9-1 1.2-1.5.3-.6.5-1.2.7-1.9.2-.7.2-1.5.2-2.4 0-2.6-.8-4.6-2.3-5.9-.5-.6-1.2-1-1.9-1.1m23.9 12.1c-.2-.2-.6-.3-1-.3H205v-4.1h6.1c.5 0 .8-.1 1-.3.2-.2.3-.5.3-.8 0-.3-.1-.6-.3-.8-.2-.2-.6-.3-1-.3H205V132h6.6c.5 0 .8-.1 1-.3.2-.2.3-.5.3-.8 0-.3-.1-.6-.3-.8-.2-.2-.6-.3-1-.3h-7.7c-.4 0-.8.1-1 .2-.3.1-.5.3-.6.6-.1.3-.2.6-.2 1v10.8c0 .6.1 1.1.4 1.4.3.3.7.4 1.4.4h7.9c.5 0 .8-.1 1-.3.2-.2.3-.5.3-.8.1-.4 0-.7-.2-.9m-15.6-12.7c-.4 0-.8.1-1 .4-.3.3-.4.7-.4 1.3v11.4c0 .6.1 1 .4 1.3.3.3.6.4 1 .4s.8-.2 1.1-.4c.3-.3.4-.7.4-1.3v-11.4c0-.6-.1-1-.4-1.3-.3-.2-.6-.4-1.1-.4m-42.8 9.1l2.1-6 2.2 6h-4.3zm4.7-6.3c-.2-.5-.3-.8-.4-1.1-.1-.3-.2-.5-.4-.8-.2-.2-.4-.4-.7-.6-.3-.1-.6-.2-1-.2s-.7.1-1 .2c-.3.2-.5.4-.7.6-.2.3-.3.6-.5.9-.1.4-.3.7-.4 1l-3.7 9.4c-.1.4-.3.7-.3.9-.1.2-.1.4-.1.6 0 .3.1.6.4.9.3.3.6.4 1 .4s.7-.1.9-.4c.2-.3.4-.8.7-1.5l.7-1.8h5.9l.7 1.8c.1.2.2.5.3.8.1.3.2.5.4.7.1.1.2.2.4.3.2.1.4.1.6.1.4 0 .7-.1 1-.4.3-.3.4-.6.4-.9 0-.3-.1-.8-.4-1.5l-3.8-9.4zm-45.5 7.5c-.4.8-.9 1.4-1.5 1.7-.6.4-1.3.6-2.1.6-.6 0-1.1-.1-1.6-.3-.5-.2-.9-.5-1.3-1-.4-.4-.7-1-.9-1.6-.2-.7-.3-1.4-.3-2.2 0-.8.1-1.5.3-2.2.2-.7.5-1.2.8-1.6.4-.4.8-.7 1.3-1 .5-.2 1-.3 1.6-.3.8 0 1.6.2 2.2.6.6.4 1.1 1 1.5 1.8.3.8.5 1.7.5 2.7.1 1.1-.1 2.1-.5 2.8m.3-9.4c-1.1-.6-2.4-.9-3.9-.9-1.1 0-2.1.2-3 .5-.9.4-1.6.8-2.2 1.5-.6.6-1.1 1.4-1.4 2.4-.3.9-.5 1.9-.5 3.1 0 1.1.2 2.1.5 3 .3.9.8 1.7 1.4 2.4.6.7 1.3 1.2 2.2 1.5.9.4 1.9.5 3 .5s2.1-.2 3-.5c.9-.3 1.6-.9 2.2-1.5.6-.7 1.1-1.5 1.4-2.4.3-.9.5-1.9.5-3 0-1.5-.3-2.8-.8-4-.6-1.1-1.4-1.9-2.4-2.6m62.3-.9c-.4 0-.7.1-1 .4-.2.3-.4.7-.4 1.2v8.6l-5.6-8.5c-.2-.2-.3-.5-.5-.7-.1-.2-.3-.4-.4-.6-.1-.1-.3-.3-.5-.3-.2-.1-.4-.1-.7-.1-.3 0-.6.1-.9.3-.3.2-.5.4-.6.7-.1.3-.2.6-.2 1.1v11.1c0 .5.1 1 .4 1.2.2.3.6.4 1 .4s.7-.1 1-.4c.3-.3.4-.7.4-1.2v-8.5l5.5 8.4c.2.2.3.5.5.7.2.2.3.4.5.6.2.2.4.3.6.4.2.1.4.1.7.1 1 0 1.6-.6 1.6-1.9v-11.4c0-.6-.1-1-.4-1.2-.3-.2-.6-.4-1-.4m-30.1.3h-.9c-.5 0-.9 0-1.2.1-.2.1-.4.3-.5.5-.1.3-.3.7-.4 1.3l-2.1 7.9-2.1-7.9c-.2-.6-.3-1-.4-1.3-.1-.3-.3-.4-.5-.5-.2-.1-.6-.1-1.2-.1h-.9c-.6 0-1 .1-1.3.3-.3.2-.5.6-.5 1.3v11.4c0 .6.1 1 .4 1.3.2.3.6.4 1 .4s.7-.1 1-.4c.2-.3.4-.7.4-1.3v-10l2.3 9.2c.1.3.2.6.2.9.1.3.2.5.3.8.1.2.3.4.6.6.2.1.5.2.9.2.5 0 .8-.1 1.1-.3.3-.2.4-.5.5-.8.1-.3.2-.7.4-1.3l2.3-9.2v10c0 .6.1 1 .4 1.3.2.3.6.4 1 .4s.7-.1 1-.4c.2-.3.4-.7.4-1.3v-11.4c0-.6-.2-1.1-.5-1.3-.7-.3-1.1-.4-1.7-.4m-19.2 6c-.5.1-1.1.2-1.8.2h-2.6v-4h2.7c1 0 1.7.1 2 .2.4.1.6.4.8.7.2.3.3.6.3 1.1 0 .5-.1.9-.4 1.2-.1.2-.5.4-1 .6m3.5 4.8c-.4-.6-.8-1.2-1.3-1.7s-1-.9-1.5-1.2c1.2-.3 2.2-.7 2.8-1.4.6-.6.9-1.5.9-2.6 0-.5-.1-1-.3-1.5-.2-.5-.4-.9-.8-1.2-.3-.4-.7-.6-1.2-.8-.4-.2-.8-.3-1.3-.3-.5-.1-1-.1-1.7-.1h-4.8c-.6 0-1.1.1-1.4.4-.3.3-.4.7-.4 1.4v11.1c0 .6.1 1 .4 1.3.3.3.6.4 1.1.4.4 0 .8-.1 1.1-.4.3-.3.4-.7.4-1.3V138h1c.5 0 1 .1 1.3.2.3.1.7.4 1 .8.3.4.7.9 1.1 1.6l1.2 1.9c.3.5.5.8.7 1 .2.2.3.4.6.6.2.1.5.2.8.2.3 0 .5-.1.7-.2.2-.1.4-.2.5-.4.1-.2.2-.4.2-.6 0-.2-.1-.5-.3-1-.1-.3-.4-.9-.8-1.5m-70-4.6c.1-1.2.5-2.1 1-2.7.6-.6 1.3-.9 2.2-.9.9 0 1.7.3 2.3.9.6.6.9 1.5 1 2.8h-6.5zm9.2 1.6c.5-.3.8-.8.8-1.7 0-1-.2-1.9-.7-2.9-.5-.9-1.2-1.7-2.3-2.3-1-.6-2.2-.9-3.6-.9-1.1 0-2.1.2-2.9.5-.9.4-1.6.8-2.2 1.5-.6.6-1.1 1.4-1.4 2.3-.3.9-.5 1.9-.5 2.9 0 2.2.6 4 1.9 5.3 1.3 1.3 3.1 2 5.4 2 1 0 1.9-.1 2.7-.4.8-.3 1.4-.6 1.9-1s.9-.8 1.1-1.2c.2-.4.4-.8.4-1.1 0-.4-.1-.6-.3-.9-.2-.2-.5-.3-.9-.3-.3 0-.6.1-.8.2-.4.4-.8.8-1.1 1-.3.2-.6.5-.9.7-.3.2-.7.4-1 .5-.4.1-.7.1-1.2.1-.6 0-1.2-.2-1.7-.5s-1-.8-1.3-1.4c-.3-.6-.5-1.4-.5-2.2h7c.9.2 1.6.1 2.1-.2m14.7-5.5c-.4-.7-.9-1.3-1.7-1.7-.7-.4-1.6-.6-2.5-.6-1 0-1.8.2-2.6.6-.7.4-1.4 1-2.1 1.8v-.4c0-.4-.1-.8-.2-1.1-.2-.3-.4-.5-.6-.7-.3-.2-.5-.2-.9-.2-.5 0-.9.2-1.2.5-.3.3-.4.9-.4 1.5v10.4c0 .7.2 1.2.5 1.6.3.4.8.6 1.3.6s1-.2 1.3-.5c.3-.4.5-.9.5-1.6v-4.5c0-1.5.1-2.5.3-3 .2-.7.6-1.2 1.2-1.6.5-.4 1.1-.6 1.7-.6 1 0 1.6.3 2 .9.3.6.5 1.5.5 2.7v6c0 .7.2 1.2.5 1.6.3.4.8.6 1.3.6s1-.2 1.3-.6c.3-.4.5-.9.5-1.6v-6.7c0-.8 0-1.4-.1-1.9-.3-.6-.4-1.1-.6-1.5m-31-2.2c-.5 0-1 .2-1.3.5-.3.4-.5.9-.5 1.6v4.4c0 1.7-.1 2.8-.3 3.3-.3.6-.6 1-1.2 1.4-.5.4-1.1.5-1.7.5-.6 0-1.1-.2-1.5-.5-.4-.3-.6-.8-.8-1.3-.1-.6-.2-1.3-.2-2.1V132c0-.7-.2-1.2-.5-1.6-.3-.4-.8-.5-1.3-.5s-1 .2-1.3.5c-.3.4-.5.9-.5 1.6v7.1c0 1.4.2 2.5.7 3.3.4.6.9 1.1 1.6 1.5.7.4 1.5.5 2.3.5.7 0 1.4-.1 1.9-.3.6-.2 1.1-.5 1.5-.8.5-.4.9-.8 1.4-1.4v.5c0 .6.2 1.1.5 1.5.3.4.7.5 1.2.5s.9-.2 1.2-.5c.3-.3.5-.8.5-1.5V132c0-.7-.2-1.2-.5-1.6-.2-.3-.6-.5-1.2-.5m-17.2 10.7c-.6.8-1.5 1.2-2.6 1.2-.7 0-1.3-.2-1.9-.6-.5-.4-.9-.9-1.2-1.6-.3-.7-.4-1.5-.4-2.5s.1-1.8.4-2.5c.3-.7.7-1.2 1.2-1.6.5-.3 1.1-.5 1.8-.5 1.1 0 1.9.4 2.6 1.2.6.8 1 2 1 3.4.1 1.6-.3 2.7-.9 3.5m2.6-8.6c-.6-.6-1.4-1.1-2.3-1.5-.9-.3-1.9-.5-3-.5s-2 .2-2.9.5c-.9.4-1.6.8-2.3 1.5-.6.6-1.1 1.4-1.4 2.3-.3.9-.5 1.9-.5 3s.2 2.1.5 2.9c.3.9.8 1.7 1.4 2.3.6.7 1.4 1.2 2.3 1.5.9.3 1.8.5 2.9.5 1.1 0 2.1-.2 3-.5.9-.3 1.6-.8 2.3-1.5.6-.6 1.1-1.4 1.4-2.3.3-.9.5-1.9.5-2.9 0-1.1-.2-2.1-.5-3-.3-.9-.7-1.7-1.4-2.3m-16.6 2c0 .4-.1.8-.3 1-.2.2-.5.4-1 .5-.5.1-1 .2-1.7.2h-2.4v-3.5h2.4c.9 0 1.6.1 1.9.2.3.1.6.3.7.6.3.4.4.7.4 1m2.4 6.5c-.4-.6-.8-1.2-1.3-1.7-.3-.4-.7-.7-1.1-1 1-.3 1.8-.7 2.3-1.3.6-.7 1-1.6 1-2.7 0-.5-.1-1.1-.3-1.5-.2-.5-.5-.9-.8-1.3-.4-.4-.8-.7-1.2-.8-.4-.2-.8-.3-1.3-.3s-1-.1-1.7-.1h-4.7c-.7 0-1.2.2-1.5.5-.3.3-.5.8-.5 1.5v10.9c0 .6.1 1.1.4 1.4.3.3.7.5 1.2.5s.9-.2 1.2-.5c.3-.3.5-.8.5-1.5v-4.3h.8c.5 0 .9.1 1.2.2.3.1.6.4.9.7.3.3.7.9 1.1 1.6l1.1 1.9c.3.5.5.8.7 1 .2.2.4.5.6.6.3.2.6.3.9.3.3 0 .6-.1.8-.2.2-.1.4-.3.6-.5.1-.2.2-.4.2-.7 0-.2-.1-.6-.3-1.1-.2-.5-.5-1-.8-1.6M137.1 99c0 4.1 4.1 7.2 8.1 6.6 3.4-.5 5.9-3.4 5.9-6.8V52.2c0-10.4 6.9-19.8 16.8-22.9 9.3-2.9 19.5.5 25.5 8 3.3 4.2 5.3 9.6 5.3 14.9 0 6.3-.1 46 0 47.5.3 2.2 1.6 4.1 3.5 5.1 4.1 2.2 9.2-.3 10.1-4.8.2-1.3.1-33.2.1-40.5 0-6.9.1-13.8-2.3-20.4-2.9-8 1.8 5 0 0-3.6-9.7-11.2-17.7-20.7-21.7-10-4.2-21.4-3.9-31.2.8-5.7 2.8-10.7 6.9-14.4 12-6-8.4-15.7-14.2-26-15.5-10.1-1.3-20.4 1.6-28.4 7.9-2.8 2.2-5.3 4.8-7.4 7.7-4.3-6-10.3-10.7-17.2-13.4 1.4 4.7.5 9.9-2.6 13.7 7.9 4.1 12.9 12.5 12.9 21.4v46.8c0 4.1 4.1 7.2 8.1 6.6 3.4-.5 5.9-3.4 5.9-6.8V51.9c0-8.6 4.8-16.8 12.3-21 3.9-2.2 8.5-3.2 13-2.9 5.1.3 10.3 2.6 14.1 5.9 5.1 4.5 8.1 10.9 8.3 17.7l.3 47.4zM20.7 103.5c-2.4 0-4.5-2-4.5-4.5V21.3c0-2.4 2-4.5 4.5-4.5 2.7 0 4.6 1.9 4.6 4.5v7.1c6.6-7.4 16-11.5 26.1-11.5 1.8 0 3.6.1 5.4.4.2 0 .4.3.4.5s-.3.4-.5.4c-1.8-.3-3.6-.4-5.3-.4-10.2 0-19.7 4.4-26.2 12.1-.1.1-.3.1-.4.1-.2-.1-.3-.2-.3-.4v-8.2c0-2.1-1.6-3.6-3.8-3.6-1.9 0-3.6 1.6-3.6 3.6V99c0 1.9 1.6 3.6 3.6 3.6 2.1 0 3.8-1.6 3.8-3.6V52.2c0-14.9 12.1-27.1 26.9-27.1 1.7 0 3.4.2 5 .5.2 0 .4.3.3.5 0 .2-.3.4-.5.3-1.5-.3-3.2-.4-4.8-.4-14.4 0-26 11.7-26 26.2V99c0 2.5-2.1 4.5-4.7 4.5z"/><path d="M20.7 106.2c-3.9 0-7.1-3.2-7.1-7.1V21.3c0-3.9 3.2-7.1 7.1-7.1 4.2 0 7.3 3.1 7.3 7.1v1c6.6-5.2 14.9-8.1 23.4-8.1h1.7c.2 0 .4.2.4.5 0 .2-.2.4-.5.4h-1.6c-8.6 0-17 3-23.6 8.5-.1.1-.3.1-.5.1-.2-.1-.3-.2-.3-.4v-1.9c0-3.6-2.8-6.2-6.4-6.2-3.4 0-6.2 2.8-6.2 6.2V99c0 3.4 2.8 6.2 6.2 6.2 3.5 0 6.4-2.8 6.4-6.2V52.2c0-13.5 10.9-24.5 24.3-24.5.7 0 1.5 0 2.3.1.2 0 .4.2.4.5 0 .2-.2.4-.5.4-.8-.1-1.5-.1-2.2-.1C38.5 28.6 28 39.2 28 52.2V99c0 4-3.3 7.2-7.3 7.2z"/><path d="M20.7 100.9c-1.1 0-1.8-1-1.8-1.8V21.3c0-1.1 1-1.8 1.8-1.8 1.2 0 2 .7 2 1.8v14.3l3.9-4.7c6.1-7.3 15.2-11.5 24.8-11.5 2.1 0 4.3.2 6.4.6.2 0 .4.3.3.5 0 .2-.3.4-.5.3-2.1-.4-4.2-.6-6.3-.6-9.4 0-18.2 4.1-24.1 11.2L22.5 37c-.1.1-.3.2-.5.1s-.3-.2-.3-.4V21.3c0-.8-.7-.9-1.1-.9-.4 0-.9.4-.9.9V99c0 .4.4.9.9.9.7 0 1.1-.5 1.1-.9V52.2c0-16.4 13.3-29.8 29.6-29.8 2.1 0 4.2.2 6.3.7.2.1.4.3.3.5-.1.2-.3.4-.5.3-2-.4-4-.7-6.1-.7-15.8 0-28.7 13-28.7 28.9V99c.1.9-.7 1.9-1.9 1.9zM15.5 118.9H15v2.2c0 .3-.1.5-.2.6-.1.1-.3.2-.5.2s-.4-.1-.5-.2c-.1-.1-.2-.4-.2-.6v-5.3c0-.3.1-.5.2-.7.1-.1.4-.2.7-.2h3.1c.2 0 .4.1.6.2.2.1.4.2.6.4.2.2.3.4.4.6.1.2.1.5.1.7 0 .5-.1.9-.4 1.2-.3.3-.7.5-1.3.7.2.1.5.3.7.6.2.3.4.5.6.8.2.3.3.5.4.8.1.2.1.4.1.5 0 .1 0 .2-.1.3-.1.1-.1.2-.2.2-.1.1-.2.1-.3.1-.2 0-.3 0-.4-.1l-.3-.3c-.1-.1-.2-.3-.3-.5l-.6-.9c-.2-.3-.4-.6-.5-.8-.2-.2-.3-.3-.5-.4-.3-.1-.5-.1-.7-.1zm.8-2.9H15v1.9h1.2c.3 0 .6 0 .8-.1.2-.1.4-.2.5-.3.1-.1.2-.3.2-.6 0-.2 0-.4-.1-.5-.1-.1-.2-.3-.4-.3-.1-.1-.5-.1-.9-.1zm8.7 0h-3.1v1.7h2.9c.2 0 .4 0 .5.1.1.1.2.2.2.4s-.1.3-.2.4c-.1.1-.3.1-.5.1h-2.9v2h3.2c.2 0 .4.1.5.2.1.1.2.2.2.4s-.1.3-.2.4c-.1.1-.3.2-.5.2h-3.8c-.3 0-.5-.1-.7-.2-.1-.1-.2-.4-.2-.7v-5.2c0-.2 0-.4.1-.5l.3-.3c.1-.1.3-.1.5-.1H25c.2 0 .4 0 .5.1.1.1.2.2.2.4s-.1.3-.2.4c-.1.2-.3.2-.5.2zm-1.7-2.8h.7c.2 0 .2 0 .2.1l-.3.3c-.2.2-.4.3-.5.5-.2.2-.3.3-.4.3-.2.1-.4.1-.6.1-.1 0-.2 0-.2-.1s0-.1.1-.3l.2-.4c.1-.2.2-.4.3-.4.2-.1.3-.1.5-.1zm3.6 5.8v-3.3c0-.3.1-.5.2-.6.1-.1.3-.2.5-.2s.4.1.5.2c.1.1.2.4.2.6v3.4c0 .4 0 .7.1 1 .1.3.2.5.5.6.2.1.5.2.9.2.5 0 .9-.1 1.2-.4.2-.3.3-.7.3-1.3v-3.4c0-.3.1-.5.2-.6.1-.1.3-.2.5-.2s.4.1.5.2c.1.1.2.4.2.6v3.3c0 .5-.1 1-.2 1.3-.1.4-.3.7-.6.9-.2.2-.5.4-.9.5-.3.1-.7.2-1.2.2s-1-.1-1.4-.2c-.4-.1-.7-.3-.9-.5-.2-.2-.4-.5-.5-.9 0-.5-.1-.9-.1-1.4zm9.1-3.3l2.7 4v-4.1c0-.3.1-.5.2-.6.1-.1.3-.2.5-.2s.4.1.5.2c.1.1.2.3.2.6v5.4c0 .6-.2.9-.7.9-.1 0-.2 0-.3-.1-.1 0-.2-.1-.3-.2-.1-.1-.2-.2-.2-.3-.1-.1-.1-.2-.2-.3l-2.6-4v4c0 .3-.1.5-.2.6-.1.1-.3.2-.5.2s-.4-.1-.5-.2c-.1-.1-.2-.3-.2-.6v-5.3c0-.2 0-.4.1-.5.1-.1.2-.3.3-.3.1-.1.3-.1.4-.1.1 0 .2 0 .3.1.1 0 .2.1.2.2.1.1.1.2.2.3-.1 0 0 .1.1.3zm5.5 5.4v-5.4c0-.3.1-.5.2-.6.1-.1.3-.2.5-.2s.4.1.5.2c.1.1.2.4.2.6v5.4c0 .3-.1.5-.2.6-.1.1-.3.2-.5.2s-.4-.1-.5-.2c-.1-.1-.2-.3-.2-.6zm6-6.3c.7 0 1.3.1 1.8.4.5.3.9.7 1.2 1.2.3.5.4 1.2.4 1.9 0 .5-.1 1-.2 1.4-.1.4-.4.8-.6 1.1-.3.3-.6.6-1.1.7-.4.2-.9.3-1.4.3-.5 0-1-.1-1.4-.3-.4-.2-.8-.4-1.1-.7-.3-.3-.5-.7-.6-1.1-.1-.4-.2-.9-.2-1.4 0-.5.1-1 .2-1.5.2-.4.4-.8.7-1.1.3-.3.6-.5 1-.7.3-.1.8-.2 1.3-.2zm2 3.6c0-.5-.1-.9-.2-1.3-.2-.4-.4-.6-.7-.8-.3-.2-.6-.3-1-.3-.3 0-.5.1-.8.2-.2.1-.4.3-.6.5-.2.2-.3.5-.4.8-.1.3-.1.7-.1 1 0 .4 0 .7.1 1.1.1.3.2.6.4.8.2.2.4.4.6.5.2.1.5.2.8.2.4 0 .7-.1 1-.3.3-.2.5-.5.7-.8.1-.6.2-1.1.2-1.6zm4.4-2.7l2.7 4v-4.1c0-.3.1-.5.2-.6.1-.1.3-.2.5-.2s.4.1.5.2c.1.1.2.3.2.6v5.4c0 .6-.2.9-.7.9-.1 0-.2 0-.3-.1-.1 0-.2-.1-.3-.2-.1-.1-.2-.2-.2-.3-.1-.1-.1-.2-.2-.3l-2.6-4v4c0 .3-.1.5-.2.6-.1.1-.3.2-.5.2s-.4-.1-.5-.2c-.1-.1-.2-.3-.2-.6v-5.3c0-.2 0-.4.1-.5.1-.1.2-.3.3-.3.1-.1.3-.1.4-.1.1 0 .2 0 .3.1.1 0 .2.1.2.2.1.1.1.2.2.3-.1 0 0 .1.1.3zm8.7-.7h1.8c.5 0 .9 0 1.2.1.3.1.6.3.9.5.7.6 1.1 1.5 1.1 2.8 0 .4 0 .8-.1 1.1l-.3.9c-.1.3-.3.5-.6.7-.2.2-.4.3-.6.4-.2.1-.5.2-.7.2-.3 0-.5.1-.9.1h-1.8c-.3 0-.4 0-.6-.1l-.3-.3c0-.1-.1-.3-.1-.5v-5c0-.3.1-.5.2-.7.3-.2.5-.2.8-.2zm.6 1.1v4.7h1.6c.1 0 .3 0 .4-.1.1 0 .3-.1.4-.2.5-.4.7-1.1.7-2 0-.7-.1-1.2-.3-1.5-.2-.3-.5-.6-.8-.6-.3-.1-.7-.1-1.1-.1h-.9zm10.2-.1h-3.1v1.7h2.9c.2 0 .4 0 .5.1.1.1.2.2.2.4s-.1.3-.2.4c-.1.1-.3.1-.5.1h-2.9v2h3.2c.2 0 .4.1.5.2.1.1.2.2.2.4s-.1.3-.2.4c-.1.1-.3.2-.5.2h-3.8c-.3 0-.5-.1-.7-.2-.1-.1-.2-.4-.2-.7v-5.2c0-.2 0-.4.1-.5l.3-.3c.1-.1.3-.1.5-.1h3.7c.2 0 .4 0 .5.1.1.1.2.2.2.4s-.1.3-.2.4c-.1.2-.3.2-.5.2zm7.1 3.8c0 .4-.1.8-.3 1.1-.2.3-.5.6-.9.8s-.9.3-1.5.3c-.7 0-1.2-.1-1.7-.4-.3-.2-.6-.4-.8-.7-.2-.3-.3-.6-.3-.9 0-.2.1-.3.2-.4.1-.1.3-.2.4-.2.1 0 .3 0 .4.1.1.1.2.2.3.4.1.2.2.4.3.5s.2.3.4.4c.2.1.4.1.7.1.4 0 .7-.1 1-.3.3-.2.4-.4.4-.7 0-.2-.1-.4-.2-.6-.1-.1-.3-.2-.5-.3-.2-.1-.5-.2-.9-.2-.5-.1-.9-.2-1.2-.4-.3-.2-.6-.4-.8-.6-.2-.3-.3-.6-.3-1s.1-.7.3-1c.2-.3.5-.5.9-.7.4-.2.8-.2 1.4-.2.4 0 .8.1 1.1.2.3.1.6.2.8.4.2.2.4.4.4.5.1.2.1.4.1.6 0 .2-.1.3-.2.4-.1.1-.3.2-.4.2-.2 0-.3 0-.4-.1-.1-.1-.2-.2-.3-.4-.1-.3-.3-.5-.4-.6-.2-.1-.5-.2-.8-.2-.4 0-.6.1-.9.2-.2.2-.3.3-.3.6 0 .1 0 .3.1.4l.3.3c.1.1.3.1.4.2.1 0 .4.1.7.2.4.1.7.2 1.1.3.3.1.6.2.8.4.2.2.4.4.5.6 0 0 .1.3.1.7zm5.9 1l-1.1-4.4v4.7c0 .3-.1.5-.2.6-.1.1-.3.2-.5.2s-.3-.1-.5-.2c-.1-.1-.2-.3-.2-.6v-5.4c0-.3.1-.5.2-.6.2-.1.4-.2.6-.2h.4c.3 0 .4 0 .6.1.1 0 .2.1.3.3.1.1.1.3.2.6l1 3.8 1-3.8c.1-.3.1-.5.2-.6.1-.1.1-.2.3-.3.1 0 .3-.1.6-.1h.4c.3 0 .5.1.6.2.2.1.2.3.2.6v5.4c0 .3-.1.5-.2.6-.1.1-.3.2-.5.2s-.3-.1-.5-.2c-.1-.1-.2-.3-.2-.6v-4.7l-1.1 4.4c-.1.3-.1.5-.2.6 0 .1-.1.3-.3.4-.1.1-.3.2-.5.2s-.3 0-.4-.1l-.3-.3c-.1-.1-.1-.2-.1-.4.2-.1.2-.3.2-.4zm5.7-1.8v-3.3c0-.3.1-.5.2-.6.1-.1.3-.2.5-.2s.4.1.5.2c.1.1.2.4.2.6v3.4c0 .4 0 .7.1 1 .1.3.2.5.5.6.2.1.5.2.9.2.5 0 .9-.1 1.2-.4.2-.3.3-.7.3-1.3v-3.4c0-.3.1-.5.2-.6.1-.1.3-.2.5-.2s.4.1.5.2c.1.1.2.4.2.6v3.3c0 .5-.1 1-.2 1.3s-.3.7-.6.9c-.2.2-.5.4-.9.5-.3.1-.7.2-1.2.2s-1-.1-1.4-.2c-.4-.1-.7-.3-.9-.5-.2-.2-.4-.5-.5-.9-.1-.5-.1-.9-.1-1.4zm12.5.8c0 .4-.1.8-.3 1.1-.2.3-.5.6-.9.8s-.9.3-1.5.3c-.7 0-1.2-.1-1.7-.4-.3-.2-.6-.4-.8-.7-.2-.3-.3-.6-.3-.9 0-.2.1-.3.2-.4.1-.1.3-.2.4-.2.1 0 .3 0 .4.1.1.1.2.2.3.4.1.2.2.4.3.5.1.1.2.3.4.4.2.1.4.1.7.1.4 0 .7-.1 1-.3.3-.2.4-.4.4-.7 0-.2-.1-.4-.2-.6-.1-.1-.3-.2-.5-.3-.2-.1-.5-.2-.9-.2-.5-.1-.9-.2-1.2-.4-.3-.2-.6-.4-.8-.6-.2-.3-.3-.6-.3-1s.1-.7.3-1c.2-.3.5-.5.9-.7.4-.2.8-.2 1.4-.2.4 0 .8.1 1.1.2.3.1.6.2.8.4.2.2.4.4.4.5.1.2.1.4.1.6 0 .2-.1.3-.2.4-.1.1-.3.2-.4.2-.2 0-.3 0-.4-.1-.1-.1-.2-.2-.3-.4-.1-.3-.3-.5-.4-.6-.2-.1-.5-.2-.8-.2-.4 0-.6.1-.9.2-.2.2-.3.3-.3.6 0 .1 0 .3.1.4l.3.3c.1.1.3.1.4.2.1 0 .4.1.7.2.4.1.7.2 1.1.3.3.1.6.2.8.4.2.2.4.4.5.6 0 0 .1.3.1.7zm5.7-3.8h-3.1v1.7h2.9c.2 0 .4 0 .5.1.1.1.2.2.2.4s-.1.3-.2.4c-.1.1-.3.1-.5.1h-2.9v2h3.2c.2 0 .4.1.5.2.1.1.2.2.2.4s-.1.3-.2.4c-.1.1-.3.2-.5.2h-3.8c-.3 0-.5-.1-.7-.2-.1-.1-.2-.4-.2-.7v-5.2c0-.2 0-.4.1-.5l.3-.3c.1-.1.3-.1.5-.1h3.7c.2 0 .4 0 .5.1.1.1.2.2.2.4s-.1.3-.2.4c-.2.2-.3.2-.5.2zm-1.7-2.8h.6c.2 0 .2 0 .2.1l-.3.3c-.2.2-.4.3-.5.5-.2.2-.3.3-.4.3-.2.1-.4.1-.6.1-.1 0-.2 0-.2-.1s0-.1.1-.3l.2-.4c.1-.2.2-.4.3-.4.2-.1.4-.1.6-.1zm8.1 2.8h-3.1v1.7h2.9c.2 0 .4 0 .5.1.1.1.2.2.2.4s-.1.3-.2.4c-.1.1-.3.1-.5.1h-2.9v2h3.2c.2 0 .4.1.5.2.1.1.2.2.2.4s-.1.3-.2.4c-.1.1-.3.2-.5.2H113c-.3 0-.5-.1-.7-.2-.1-.1-.2-.4-.2-.7v-5.2c0-.2 0-.4.1-.5l.3-.3c.1-.1.3-.1.5-.1h3.7c.2 0 .4 0 .5.1.1.1.2.2.2.4s-.1.3-.2.4c-.2.2-.3.2-.5.2zm7.1 3.8c0 .4-.1.8-.3 1.1-.2.3-.5.6-.9.8-.4.2-.9.3-1.5.3-.7 0-1.2-.1-1.7-.4-.3-.2-.6-.4-.8-.7-.2-.3-.3-.6-.3-.9 0-.2.1-.3.2-.4.1-.1.3-.2.4-.2.1 0 .3 0 .4.1.1.1.2.2.3.4.1.2.2.4.3.5.1.1.2.3.4.4.2.1.4.1.7.1.4 0 .7-.1 1-.3.3-.2.4-.4.4-.7 0-.2-.1-.4-.2-.6-.1-.1-.3-.2-.5-.3-.2-.1-.5-.2-.9-.2-.5-.1-.9-.2-1.2-.4-.3-.2-.6-.4-.8-.6-.2-.3-.3-.6-.3-1s.1-.7.3-1c.2-.3.5-.5.9-.7.4-.2.8-.2 1.4-.2.4 0 .8.1 1.1.2.3.1.6.2.8.4.2.2.4.4.4.5.1.2.1.4.1.6 0 .2-.1.3-.2.4-.1.1-.3.2-.4.2-.2 0-.3 0-.4-.1-.1-.1-.2-.2-.3-.4-.1-.3-.3-.5-.4-.6-.2-.1-.5-.2-.8-.2-.4 0-.6.1-.9.2-.2.2-.3.3-.3.6 0 .1 0 .3.1.4l.3.3c.1.1.3.1.4.2.1 0 .4.1.7.2.4.1.7.2 1.1.3.3.1.6.2.8.4.2.2.4.4.5.6 0 0 .1.3.1.7zm5.9 1l-1.1-4.4v4.7c0 .3-.1.5-.2.6-.1.1-.3.2-.5.2s-.3-.1-.5-.2c-.1-.1-.2-.3-.2-.6v-5.4c0-.3.1-.5.2-.6.2-.1.4-.2.6-.2h.4c.3 0 .4 0 .6.1.1 0 .2.1.3.3.1.1.1.3.2.6l1 3.8 1-3.8c.1-.3.1-.5.2-.6.1-.1.1-.2.3-.3.1 0 .3-.1.6-.1h.4c.3 0 .5.1.6.2.2.1.2.3.2.6v5.4c0 .3-.1.5-.2.6-.1.1-.3.2-.5.2s-.3-.1-.5-.2c-.1-.1-.2-.3-.2-.6v-4.7l-1.1 4.4c-.1.3-.1.5-.2.6 0 .1-.1.3-.2.4-.1.1-.3.2-.5.2s-.3 0-.4-.1l-.3-.3c-.1-.1-.1-.2-.1-.4.1-.1.1-.3.1-.4zm10.1-4.8h-3.1v1.7h2.9c.2 0 .4 0 .5.1.1.1.2.2.2.4s-.1.3-.2.4c-.1.1-.3.1-.5.1h-2.9v2h3.2c.2 0 .4.1.5.2.1.1.2.2.2.4s-.1.3-.2.4c-.1.1-.3.2-.5.2h-3.8c-.3 0-.5-.1-.7-.2-.1-.1-.2-.4-.2-.7v-5.2c0-.2 0-.4.1-.5l.3-.3c.1-.1.3-.1.5-.1h3.7c.2 0 .4 0 .5.1.1.1.2.2.2.4s-.1.3-.2.4c-.1.2-.2.2-.5.2zm-1.6-2.8h.6c.2 0 .2 0 .2.1l-.3.3c-.2.2-.4.3-.5.5-.2.2-.3.3-.4.3-.2.1-.4.1-.6.1-.1 0-.2 0-.2-.1s0-.1.1-.3l.2-.4c.1-.2.2-.4.3-.4.2-.1.4-.1.6-.1zm8 2.9h-1.5v5c0 .3-.1.5-.2.6-.1.1-.3.2-.5.2s-.4-.1-.5-.2c-.1-.1-.2-.4-.2-.6v-5h-1.5c-.2 0-.4-.1-.5-.2-.1-.1-.2-.2-.2-.4s.1-.3.2-.4c.1-.1.3-.2.5-.2h4.4c.2 0 .4.1.5.2.1.1.2.2.2.4s-.1.3-.2.4c-.1.1-.3.2-.5.2zm3.4 2.8h-.5v2.2c0 .3-.1.5-.2.6-.1.1-.3.2-.5.2s-.4-.1-.5-.2c-.1-.1-.2-.4-.2-.6v-5.3c0-.3.1-.5.2-.7.1-.1.4-.2.7-.2h3.1c.2 0 .4.1.6.2.2.1.4.2.6.4.2.2.3.4.4.6.1.2.1.5.1.7 0 .5-.1.9-.4 1.2-.3.3-.7.5-1.3.7.2.1.5.3.7.6.2.3.4.5.6.8.2.3.3.5.4.8.1.2.1.4.1.5 0 .1 0 .2-.1.3-.1.1-.1.2-.2.2-.1.1-.2.1-.3.1-.2 0-.3 0-.4-.1l-.3-.3c-.1-.1-.2-.3-.3-.5l-.6-.9c-.2-.3-.4-.6-.5-.8-.2-.2-.3-.3-.5-.4-.3-.1-.5-.1-.7-.1zm.8-2.9h-1.3v1.9h1.2c.3 0 .6 0 .8-.1.2-.1.4-.2.5-.3.1-.1.2-.3.2-.6 0-.2 0-.4-.1-.5-.1-.1-.2-.3-.4-.3-.1-.1-.4-.1-.9-.1zm7.2-1.2c.7 0 1.3.1 1.8.4.5.3.9.7 1.2 1.2.3.5.4 1.2.4 1.9 0 .5-.1 1-.2 1.4-.1.4-.4.8-.6 1.1-.3.3-.6.6-1.1.7-.4.2-.9.3-1.4.3-.5 0-1-.1-1.4-.3-.4-.2-.8-.4-1.1-.7-.3-.3-.5-.7-.6-1.1-.1-.4-.2-.9-.2-1.4 0-.5.1-1 .2-1.5.2-.4.4-.8.7-1.1.3-.3.6-.5 1-.7.3-.1.8-.2 1.3-.2zm2 3.6c0-.5-.1-.9-.2-1.3-.2-.4-.4-.6-.7-.8-.3-.2-.6-.3-1-.3-.3 0-.5.1-.8.2-.2.1-.4.3-.6.5-.2.2-.3.5-.4.8-.1.3-.1.7-.1 1 0 .4 0 .7.1 1.1.1.3.2.6.4.8.2.2.4.4.6.5.2.1.5.2.8.2.4 0 .7-.1 1-.3.3-.2.5-.5.7-.8.1-.6.2-1.1.2-1.6zm5.3.7h-1.3v1.9c0 .3-.1.5-.2.6-.1.1-.3.2-.5.2s-.4-.1-.5-.2c-.1-.1-.2-.4-.2-.6v-5.3c0-.3.1-.5.2-.7.1-.1.4-.2.7-.2h1.8c.5 0 .9 0 1.2.1.3.1.5.2.7.4.2.2.4.4.5.7.1.3.2.6.2.9 0 .7-.2 1.2-.6 1.6-.5.5-1.2.6-2 .6zm-.4-3.1h-.9v2.1h.9c.3 0 .6 0 .8-.1.2-.1.4-.2.5-.3.1-.2.2-.4.2-.6 0-.3-.1-.5-.3-.7-.1-.3-.5-.4-1.2-.4zm7.1-1.2c.7 0 1.3.1 1.8.4.5.3.9.7 1.2 1.2.3.5.4 1.2.4 1.9 0 .5-.1 1-.2 1.4-.1.4-.4.8-.6 1.1-.3.3-.6.6-1.1.7-.4.2-.9.3-1.4.3-.5 0-1-.1-1.4-.3-.4-.2-.8-.4-1.1-.7-.3-.3-.5-.7-.6-1.1-.1-.4-.2-.9-.2-1.4 0-.5.1-1 .2-1.5.2-.4.4-.8.7-1.1.3-.3.6-.5 1-.7.3-.1.8-.2 1.3-.2zm2 3.6c0-.5-.1-.9-.2-1.3-.2-.4-.4-.6-.7-.8-.3-.2-.6-.3-1-.3-.3 0-.5.1-.8.2-.2.1-.4.3-.6.5-.2.2-.3.5-.4.8-.1.3-.1.7-.1 1 0 .4 0 .7.1 1.1.1.3.2.6.4.8.2.2.4.4.6.5.2.1.5.2.8.2.4 0 .7-.1 1-.3.3-.2.5-.5.7-.8.1-.6.2-1.1.2-1.6zm4-2.7v5h2.8c.2 0 .4.1.5.2.1.1.2.2.2.4s-.1.3-.2.4c-.1.1-.3.2-.5.2H177c-.3 0-.5-.1-.7-.2-.1-.1-.2-.4-.2-.7v-5.3c0-.3.1-.5.2-.6.1-.1.3-.2.5-.2s.4.1.5.2c.2.1.3.3.3.6zm4.5 5.4v-5.4c0-.3.1-.5.2-.6.1-.1.3-.2.5-.2s.4.1.5.2c.1.1.2.4.2.6v5.4c0 .3-.1.5-.2.6-.1.1-.3.2-.5.2s-.4-.1-.5-.2c-.2-.1-.2-.3-.2-.6zm7.4-5H188v5c0 .3-.1.5-.2.6-.1.1-.3.2-.5.2s-.4-.1-.5-.2c-.1-.1-.2-.4-.2-.6v-5h-1.5c-.2 0-.4-.1-.5-.2-.1-.1-.2-.2-.2-.4s.1-.3.2-.4c.1-.1.3-.2.5-.2h4.4c.2 0 .4.1.5.2.1.1.2.2.2.4s-.1.3-.2.4c-.1.1-.3.2-.5.2zm5.3 4.9l-.3-.9h-2.8l-.3.9c-.1.3-.2.6-.3.7-.1.1-.2.2-.4.2s-.3-.1-.5-.2c-.1-.1-.2-.3-.2-.4v-.3c0-.1.1-.2.2-.4l1.8-4.5c0-.1.1-.3.2-.5s.1-.3.2-.4l.3-.3c.1-.1.3-.1.5-.1s.4 0 .5.1l.3.3c.1.1.1.2.2.4.1.1.1.3.2.5l1.8 4.4c.1.3.2.6.2.7 0 .2-.1.3-.2.4-.1.1-.3.2-.5.2-.1 0-.2 0-.3-.1-.1 0-.1-.1-.2-.2s-.1-.2-.2-.3c-.1.1-.2-.1-.2-.2zm-2.8-1.9h2.1l-1-2.8-1.1 2.8zm5.4 2v-5.4c0-.3.1-.5.2-.6.1-.1.3-.2.5-.2s.4.1.5.2c.1.1.2.4.2.6v5.4c0 .3-.1.5-.2.6-.1.1-.3.2-.5.2s-.4-.1-.5-.2c-.2-.1-.2-.3-.2-.6zm4.7-5.4l2.7 4v-4.1c0-.3.1-.5.2-.6.1-.1.3-.2.5-.2s.4.1.5.2c.1.1.2.3.2.6v5.4c0 .6-.2.9-.8.9-.1 0-.2 0-.3-.1-.1 0-.2-.1-.3-.2-.1-.1-.2-.2-.2-.3-.1-.1-.1-.2-.2-.3l-2.6-4v4c0 .3-.1.5-.2.6-.1.1-.3.2-.5.2s-.4-.1-.5-.2c-.1-.1-.2-.3-.2-.6v-5.3c0-.2 0-.4.1-.5.1-.1.2-.3.3-.3.1-.1.3-.1.4-.1.1 0 .2 0 .3.1.1 0 .2.1.2.2.1.1.1.2.2.3s.1.1.2.3zm10.7 4.1c0 .4-.1.8-.3 1.1-.2.3-.5.6-.9.8-.4.2-.9.3-1.5.3-.7 0-1.2-.1-1.7-.4-.3-.2-.6-.4-.8-.7-.2-.3-.3-.6-.3-.9 0-.2.1-.3.2-.4.1-.1.3-.2.4-.2.1 0 .3 0 .4.1.1.1.2.2.3.4.1.2.2.4.3.5.1.1.2.3.4.4.2.1.4.1.7.1.4 0 .7-.1 1-.3.3-.2.4-.4.4-.7 0-.2-.1-.4-.2-.6-.1-.1-.3-.2-.5-.3-.2-.1-.5-.2-.9-.2-.5-.1-.9-.2-1.2-.4-.3-.2-.6-.4-.8-.6-.2-.3-.3-.6-.3-1s.1-.7.3-1c.2-.3.5-.5.9-.7.4-.2.8-.2 1.4-.2.4 0 .8.1 1.1.2.3.1.6.2.8.4.2.2.4.4.4.5.1.2.1.4.1.6 0 .2-.1.3-.2.4-.1.1-.3.2-.4.2-.2 0-.3 0-.4-.1-.1-.1-.2-.2-.3-.4-.1-.3-.3-.5-.4-.6s-.5-.2-.8-.2c-.4 0-.6.1-.9.2-.2.2-.3.3-.3.6 0 .1 0 .3.1.4l.3.3c.1.1.3.1.4.2.1 0 .4.1.7.2.4.1.7.2 1.1.3.3.1.6.2.8.4.2.2.4.4.5.6.1 0 .1.3.1.7z"/></svg>