<svg xmlns="http://www.w3.org/2000/svg" fill="none" height="366" width="763.389"><g fill="#fff"><path d="M0 .58h14.186c5.02 0 8.604 1.352 10.749 4.058 2.193 2.705 3.29 6.546 3.29 11.521 0 4.541-1.145 8.237-3.437 11.087-2.242 2.85-5.752 4.276-10.53 4.276h-8.7v27.753H0zM12.65 27.39c3.656 0 6.24-.821 7.751-2.463 1.56-1.691 2.34-4.614 2.34-8.769 0-3.043-.292-5.362-.877-6.956-.585-1.643-1.585-2.802-2.998-3.478-1.414-.677-3.462-1.015-6.143-1.015H5.557v22.681zM49.387 60c-5.558 0-9.506-1.57-11.846-4.71-2.291-3.14-3.437-7.585-3.437-13.334V17.61c0-5.7 1.17-10.049 3.51-13.044C39.954 1.522 43.878 0 49.387 0c5.41 0 9.286 1.522 11.626 4.565 2.34 3.044 3.51 7.391 3.51 13.044v24.42c0 5.749-1.146 10.193-3.437 13.333-2.291 3.092-6.19 4.638-11.7 4.638zm0-4.42c3.607 0 6.093-1.039 7.458-3.116 1.365-2.126 2.048-5.218 2.048-9.276V16.594c0-4.058-.683-7.101-2.048-9.13-1.316-2.03-3.802-3.044-7.458-3.044-3.705 0-6.24 1.015-7.605 3.044-1.365 1.98-2.047 5.024-2.047 9.13v26.594c0 4.107.682 7.198 2.047 9.276 1.365 2.077 3.9 3.116 7.605 3.116zM73.765.58h13.381c5.314 0 9.092 1.28 11.334 3.84 2.243 2.512 3.364 6.208 3.364 11.087 0 3.72-.61 6.788-1.828 9.203-1.219 2.416-3.34 3.937-6.362 4.565l9.067 30h-5.41l-8.702-28.84h-9.287v28.84h-5.557zm13.089 25.797c3.558 0 6.045-.87 7.458-2.609 1.414-1.739 2.12-4.493 2.12-8.26 0-3.817-.682-6.57-2.047-8.262C93.07 5.556 90.607 4.71 87 4.71h-7.678v21.667zM117.781 4.855h-11.188V.58h27.641v4.275h-10.896v54.42h-5.557zM153.323 60c-4.631 0-8.165-1.401-10.603-4.203-2.437-2.85-3.826-6.763-4.168-11.739l4.9-1.45c.438 4.155 1.364 7.344 2.778 9.566 1.463 2.222 3.851 3.333 7.166 3.333 5.557 0 8.336-2.826 8.336-8.478 0-2.416-.585-4.541-1.755-6.377-1.121-1.836-2.949-3.937-5.484-6.304l-10.457-9.928c-1.901-1.739-3.29-3.55-4.167-5.435-.829-1.932-1.244-4.058-1.244-6.376 0-4.01 1.195-7.102 3.583-9.276C144.646 1.111 147.912 0 152.007 0c4.387 0 7.751 1.16 10.091 3.478 2.34 2.32 3.705 6.111 4.095 11.377l-4.753 1.232c-.293-3.961-1.146-6.908-2.56-8.84-1.365-1.933-3.656-2.9-6.873-2.9-2.535 0-4.558.653-6.069 1.957-1.512 1.305-2.267 3.237-2.267 5.797 0 1.643.317 3.116.95 4.42.634 1.305 1.707 2.682 3.218 4.131l10.456 9.783c2.681 2.512 4.778 5.096 6.289 7.753a16.226 16.226 0 012.34 8.479c0 4.25-1.243 7.536-3.73 9.855-2.486 2.319-5.776 3.478-9.871 3.478zM203.343 60c-5.557 0-9.506-1.57-11.846-4.71-2.291-3.14-3.436-7.585-3.436-13.333V17.609c0-5.7 1.17-10.049 3.509-13.044C193.91 1.522 197.835 0 203.343 0c5.411 0 9.287 1.522 11.627 4.565 2.339 3.044 3.509 7.391 3.509 13.044v24.42c0 5.749-1.145 10.193-3.436 13.333-2.291 3.092-6.191 4.638-11.7 4.638zm0-4.42c3.608 0 6.094-1.039 7.459-3.116 1.365-2.126 2.047-5.218 2.047-9.276V16.594c0-4.058-.682-7.101-2.047-9.13-1.317-2.03-3.803-3.044-7.459-3.044-3.705 0-6.24 1.015-7.605 3.044-1.364 1.98-2.047 5.024-2.047 9.13v26.594c0 4.107.683 7.198 2.047 9.276 1.365 2.077 3.9 3.116 7.605 3.116zM227.721.58H249v4.13h-15.721v22.102h13.089v4.058h-13.089v28.405h-5.558zM391 153.58h5.58v26.014h18.478V153.58h5.507v58.695h-5.507v-28.55H396.58v28.55H391zM444.756 213c-5.508 0-9.421-1.57-11.739-4.71-2.271-3.14-3.406-7.585-3.406-13.333v-24.348c0-5.701 1.159-10.049 3.478-13.044 2.319-3.043 6.208-4.565 11.667-4.565 5.362 0 9.203 1.522 11.521 4.565 2.319 3.044 3.479 7.392 3.479 13.044v24.42c0 5.749-1.136 10.193-3.406 13.333-2.271 3.092-6.135 4.638-11.594 4.638zm0-4.42c3.575 0 6.038-1.039 7.391-3.116 1.353-2.126 2.029-5.218 2.029-9.276v-26.594c0-4.058-.676-7.101-2.029-9.13-1.304-2.029-3.768-3.044-7.391-3.044-3.672 0-6.184 1.015-7.537 3.044-1.352 1.98-2.029 5.024-2.029 9.13v26.594c0 4.107.677 7.198 2.029 9.276 1.353 2.077 3.865 3.116 7.537 3.116zM469.856 153.58h5.508l11.594 50.942 11.811-50.942h5.508l1.449 58.695h-4.565l-1.16-46.739-11.232 46.739h-3.55l-11.087-46.666-1.16 46.666h-4.565zM515.406 153.58h21.231v4.275h-15.652v22.029h12.754v4.058h-12.754v24.203h15.797v4.13h-21.376zM0 227.849h30.084v55.126h21.008v-55.126h30.252v136.134H51.093v-59.496H30.084v59.496H0zM121.236 227.849h34.285l25.378 136.134h-27.731l-4.537-28.739h-20l-4.706 28.739H95.521zm24.537 89.411l-7.227-53.109-7.226 53.109zM194.644 227.849h37.479c14.902 0 26.163 2.633 33.782 7.899 7.619 5.266 11.428 14.622 11.428 28.067 0 9.076-1.176 16.303-3.529 21.681-2.353 5.378-6.723 9.58-13.109 12.605l18.655 65.882h-31.092L233.3 302.975h-8.572v61.008h-30.084zm38.488 57.815c6.05 0 10.252-1.569 12.605-4.706 2.465-3.249 3.697-8.067 3.697-14.454 0-6.162-1.12-10.756-3.361-13.781-2.241-3.138-6.107-4.706-11.597-4.706h-9.748v37.647zM295.419 227.849h35.462c8.852 0 16.359.952 22.521 2.857 6.275 1.793 11.317 5.322 15.126 10.588 3.81 5.266 5.714 12.661 5.714 22.185 0 8.067-1.736 14.342-5.21 18.824-3.473 4.481-8.403 7.338-14.79 8.571 7.844 1.008 13.838 4.314 17.984 9.916 4.145 5.602 6.218 13.221 6.218 22.857 0 26.891-13.725 40.336-41.176 40.336h-41.849zm35.966 54.454c6.387 0 10.7-1.457 12.941-4.37 2.353-2.913 3.53-7.451 3.53-13.614 0-5.378-1.457-9.411-4.37-12.101-2.913-2.801-7.171-4.201-12.773-4.201h-5.21v34.286zm.504 60.672c6.387 0 10.869-1.569 13.446-4.706 2.689-3.249 4.033-8.291 4.033-15.126 0-7.731-1.344-13.165-4.033-16.303-2.577-3.137-7.115-4.706-13.614-4.706h-6.218v40.841zM433.216 366c-14.678 0-25.154-3.753-31.429-11.26-6.274-7.62-9.412-18.824-9.412-33.614v-50.588c0-14.79 3.138-25.883 9.412-33.277 6.275-7.507 16.751-11.261 31.429-11.261 14.789 0 25.322 3.754 31.596 11.261 6.387 7.507 9.58 18.599 9.58 33.277v50.588c0 14.79-3.193 25.994-9.58 33.614-6.274 7.507-16.807 11.26-31.596 11.26zm0-21.345c4.257 0 7.058-1.4 8.403-4.201 1.344-2.913 2.017-6.835 2.017-11.765v-65.546c0-5.042-.673-8.964-2.017-11.765-1.345-2.801-4.146-4.202-8.403-4.202-4.034 0-6.723 1.457-8.068 4.37-1.344 2.801-2.016 6.667-2.016 11.597v65.546c0 4.93.616 8.852 1.848 11.765 1.233 2.801 3.978 4.201 8.236 4.201zM532.029 366c-10.196 0-18.264-1.625-24.202-4.874-5.938-3.361-10.14-8.235-12.605-14.622-2.353-6.498-3.53-14.734-3.53-24.706v-93.949h29.748v98.487c0 5.49.673 9.86 2.017 13.109 1.457 3.25 4.314 4.874 8.572 4.874 4.257 0 7.058-1.624 8.403-4.874 1.344-3.249 2.017-7.619 2.017-13.109v-98.487h29.916v93.949c0 9.972-1.233 18.208-3.698 24.706-2.465 6.387-6.666 11.261-12.605 14.622-5.826 3.249-13.837 4.874-24.033 4.874zM591.506 227.849h37.479c14.902 0 26.162 2.633 33.781 7.899 7.62 5.266 11.429 14.622 11.429 28.067 0 9.076-1.176 16.303-3.529 21.681-2.353 5.378-6.723 9.58-13.11 12.605l18.656 65.882h-31.093l-14.958-61.008h-8.571v61.008h-30.084zm38.487 57.815c6.051 0 10.253-1.569 12.605-4.706 2.465-3.249 3.698-8.067 3.698-14.454 0-6.162-1.12-10.756-3.361-13.781-2.241-3.138-6.107-4.706-11.597-4.706h-9.748v37.647zM727.759 366c-12.998 0-22.689-3.417-29.076-10.252-6.275-6.947-9.636-17.927-10.084-32.941l25.714-3.866c.112 8.628 1.121 14.846 3.025 18.656 2.017 3.697 4.986 5.546 8.908 5.546 5.042 0 7.563-3.305 7.563-9.916 0-5.266-1.232-9.804-3.697-13.614-2.353-3.809-6.107-7.899-11.261-12.268l-11.765-10.253c-5.826-4.93-10.364-10.14-13.613-15.63-3.137-5.602-4.706-12.213-4.706-19.832 0-11.428 3.361-20.224 10.084-26.386 6.835-6.163 16.191-9.244 28.067-9.244 12.885 0 21.625 3.754 26.219 11.261 4.706 7.507 7.227 16.638 7.563 27.394l-25.882 3.194c-.225-7.059-.897-12.101-2.017-15.126-1.009-3.138-3.306-4.706-6.891-4.706-2.577 0-4.594 1.12-6.051 3.361-1.344 2.129-2.016 4.538-2.016 7.227 0 4.594 1.008 8.459 3.025 11.597 2.129 3.137 5.49 6.722 10.084 10.756l11.26 9.916c6.723 5.714 11.933 11.765 15.631 18.151 3.697 6.387 5.546 13.95 5.546 22.689 0 6.387-1.513 12.213-4.538 17.479-2.913 5.154-7.059 9.244-12.437 12.269-5.378 3.025-11.597 4.538-18.655 4.538z"/></g><g fill="#fff"><path d="M0 73h62.914v21.086H30.938v34.741h24.37v21.432h-24.37v41.827H63.26V213H0zM95.28 137.642L69.356 73h29.21l15.382 37.852L126.392 73h25.753l-24.544 72.765L154.91 213h-29.037l-17.111-41.827L93.725 213h-25.58zM166.43 73h30.938v140H166.43zM218.244 73h30.938v119.086h32.148V213h-63.086zM294.874 73h62.913v21.086h-31.975v34.741h24.37v21.432h-24.37v41.827h32.321V213h-63.259z"/></g></svg>