<svg fill="none" height="155" viewBox="0 0 2255 155" width="2255" xmlns="http://www.w3.org/2000/svg"><g fill="#fff"><path d="m1638.76 2.03794h37.79l27.98 150.06706h-30.57l-5-31.681h-22.05l-5.19 31.681h-31.31zm27.05 98.56206-7.97-58.5442-7.96 58.5442z"/><path d="m1725.24 26.6786h-22.6v-24.64066h78.37v24.64066h-22.42v125.4264h-33.35z"/><path d="m1807.75 26.6786h-22.61v-24.64066h78.37v24.64066h-22.42v125.4264h-33.34z"/><path d="m1891.15 2.03794h37.79l27.98 150.06706h-30.57l-5-31.681h-22.05l-5.19 31.681h-31.31zm27.05 98.56206-7.97-58.5442-7.96 58.5442z"/><path d="m2012.7 154.328c-16.3 0-27.91-4.261-34.83-12.783-6.79-8.646-10.19-21.059-10.19-37.239v-54.0984c0-16.5506 3.4-29.0253 10.19-37.4241 6.79-8.52234 18.4-12.7835 34.83-12.7835 15.69 0 26.8 3.76711 33.35 11.3013 6.55 7.5343 9.82 18.218 9.82 32.0514v12.9687h-32.42v-15.0067c0-5.805-.62-10.2515-1.86-13.3393-1.23-3.0878-4.19-4.6317-8.89-4.6317-4.69 0-7.78 1.6674-9.26 5.0023-1.48 3.2113-2.22 7.7195-2.22 13.5245v70.5875c0 5.928.74 10.498 2.22 13.709 1.6 3.088 4.69 4.632 9.26 4.632s7.47-1.544 8.71-4.632c1.36-3.211 2.04-7.781 2.04-13.709v-15.7482h32.42v12.9692c0 14.08-3.27 25.072-9.82 32.977-6.55 7.781-17.66 11.672-33.35 11.672z"/><path d="m2074.67 2.03794h33.16v60.76786h23.16v-60.76786h33.35v150.06706h-33.35v-65.585h-23.16v65.585h-33.16z"/><path d="m2187.19 2.03794h67.44v22.60266h-34.28v37.2388h26.13v22.9732h-26.13v44.8344h34.65v22.418h-67.81z"/><path d="m1015.48 1.67344h35.35c12.78 0 21.77 3.40885 26.98 10.22656 5.33 6.8177 8 16.3625 8 28.6344 0 11.5281-2.73 21.0729-8.19 28.6343-5.33 7.4375-14.2 11.1563-26.6 11.1563h-25.49v71.958h-10.05zm33.3 70.84216c9.31 0 16.07-2.4172 20.28-7.2516 4.22-4.9583 6.33-13.2015 6.33-24.7296 0-8.0573-.87-14.3172-2.6-18.7797-1.74-4.4625-4.53-7.6235-8.38-9.4828-3.72-1.8594-8.87-2.78908-15.44-2.78908h-23.44v63.03278z"/><path d="m1139.83 154.328c-13.77 0-23.44-3.905-29.02-11.714-5.46-7.933-8.19-18.966-8.19-33.097v-65.8217c0-13.8833 2.79-24.6057 8.37-32.1672 5.71-7.68539 15.32-11.5281 28.84-11.5281 13.4 0 22.95 3.84271 28.66 11.5281 5.7 7.6854 8.55 18.4078 8.55 32.1672v66.0077c0 14.131-2.79 25.102-8.37 32.911-5.46 7.809-15.07 11.714-28.84 11.714zm0-8.367c10.17 0 17.18-2.913 21.03-8.739 3.97-5.826 5.95-14.317 5.95-25.474v-69.5402c0-11.1563-1.98-19.5854-5.95-25.2875-3.85-5.7021-10.86-8.55312-21.03-8.55312s-17.24 2.85102-21.21 8.55312c-3.84 5.7021-5.77 14.1312-5.77 25.2875v69.5402c0 11.281 1.93 19.834 5.77 25.66 3.97 5.702 11.04 8.553 21.21 8.553z"/><path d="m1201.72 1.67344h36.47c12.4 0 21.02 3.28489 25.86 9.85466 4.84 6.5698 7.26 15.6807 7.26 27.3328 0 9.7927-1.61 17.85-4.84 24.1719-3.1 6.3218-8.87 10.1646-17.3 11.5281l24.18 77.7221h-10.04l-23.45-75.8627h-28.09v75.8627h-10.05zm36.1 66.93746c9.05 0 15.25-2.4172 18.6-7.2516 3.35-4.9583 5.03-12.4578 5.03-22.4984 0-10.1646-1.74-17.5401-5.21-22.1265-3.35-4.7104-9.55-7.06565-18.61-7.06565h-25.86v58.94215z"/><path d="m1313.21 9.85469h-30.15v-8.18125h69.59v8.18125h-29.4v142.42831h-10.04z"/><path d="m1400.48 154.142c-22.2 0-34.3-13.016-36.28-39.047l8.74-2.789c1.49 11.156 4.16 19.524 8 25.102 3.97 5.578 10.55 8.367 19.73 8.367 16 0 24-8.057 24-24.172 0-6.198-1.55-11.838-4.65-16.92-3.1-5.0825-8.07-11.0325-14.89-17.8502l-27.53-27.3328c-8.81-8.8011-13.21-18.3459-13.21-28.6344 0-9.7927 2.97-17.3541 8.93-22.68435 6.07-5.45417 14.14-8.18125 24.18-8.18125 10.8 0 19.11 2.91302 24.94 8.73907 5.83 5.70203 9.18 15.37083 10.04 29.00623l-8.56 2.0453c-.86-11.0323-3.28-19.0276-7.25-23.9859-3.85-5.0823-10.17-7.62345-18.98-7.62345-7.19 0-13.02 1.85935-17.49 5.57815-4.34 3.5948-6.51 9.0489-6.51 16.3625 0 3.9666.8 7.8093 2.42 11.5281 1.73 3.5948 4.59 7.3755 8.56 11.3422l27.16 26.7749c6.95 6.8177 12.4 13.5735 16.37 20.2669 3.97 6.694 5.96 13.698 5.96 21.011 0 10.909-3.04 19.152-9.12 24.73s-14.26 8.367-24.56 8.367z"/><path d="m1489.72 1.67344h32.93c14.02 0 23.94 3.90468 29.77 11.71406 5.83 7.6854 8.74 18.2219 8.74 31.6093v62.4752c0 14.131-2.85 25.163-8.56 33.097-5.58 7.809-15.25 11.714-29.02 11.714h-33.86zm33.3 142.61356c7.69 0 13.58-1.611 17.68-4.834 4.09-3.347 6.82-7.747 8.18-13.202 1.37-5.454 2.05-12.085 2.05-19.895v-60.6154c0-12.0239-2.05-21.0109-6.14-26.9609-3.97-5.95-11.35-8.92501-22.14-8.92501h-22.89v134.43231z"/><path d="m1580.44 36.8156c3.23-1.9833 5.27-4.2146 6.14-6.6937.99-2.6032 1.49-6.5078 1.49-11.7141h-5.96v-16.73436h12.1v14.13126c0 6.9416-.75 12.2719-2.23 15.9906-1.49 3.5948-4.28 6.3838-8.38 8.3672z"/><path d="m604.194 0h69.353v23.2445h-35.248v38.2962h26.864v23.6255h-26.864v46.1078h35.629v23.054h-69.734z"/><path d="m709.226 71.2576-28.579-71.2576h32.199l16.957 41.7257 13.718-41.7257h28.389l-27.055 80.2125 30.103 74.1155h-32.008l-18.863-46.108-16.576 46.108h-28.198z"/><path d="m787.657 0h34.104v154.328h-34.104z"/><path d="m844.774 0h34.104v131.274h35.438v23.054h-69.542z"/><path d="m0 1.67344h35.3516c12.7762 0 21.7692 3.40885 26.9789 10.22656 5.3337 6.8177 8.0006 16.3625 8.0006 28.6344 0 11.5281-2.7289 21.0729-8.1867 28.6343-5.3337 7.4375-14.2026 11.1563-26.6067 11.1563h-25.4904v71.958h-10.0473zm33.3049 70.84216c9.3031 0 16.0633-2.4172 20.2807-7.2516 4.2174-4.9583 6.3261-13.2015 6.3261-24.7296 0-8.0573-.8683-14.3172-2.6049-18.7797-1.7365-4.4625-4.5275-7.6235-8.3727-9.4828-3.7212-1.8594-8.8689-2.78908-15.4431-2.78908h-23.4437v63.03278z"/><path d="m124.354 154.328c-13.768 0-23.443-3.905-29.0253-11.714-5.4578-7.933-8.1867-18.966-8.1867-33.097v-65.8217c0-13.8833 2.7909-24.6057 8.3728-32.1672 5.7062-7.68539 15.3192-11.5281 28.8392-11.5281 13.397 0 22.948 3.84271 28.654 11.5281 5.706 7.6854 8.558 18.4078 8.558 32.1672v66.0077c0 14.131-2.79 25.102-8.372 32.911-5.458 7.809-15.071 11.714-28.84 11.714zm0-8.367c10.172 0 17.18-2.913 21.025-8.739 3.969-5.826 5.954-14.317 5.954-25.474v-69.5402c0-11.1563-1.985-19.5854-5.954-25.2875-3.845-5.7021-10.853-8.55312-21.025-8.55312-10.171 0-17.241 2.85102-21.211 8.55312-3.845 5.7021-5.7676 14.1312-5.7676 25.2875v69.5402c0 11.281 1.9226 19.834 5.7676 25.66 3.97 5.702 11.04 8.553 21.211 8.553z"/><path d="m186.243 1.67344h36.468c12.404 0 21.025 3.28489 25.862 9.85466 4.838 6.5698 7.257 15.6807 7.257 27.3328 0 9.7927-1.613 17.85-4.838 24.1719-3.101 6.3219-8.869 10.1646-17.304 11.5281l24.188 77.7221h-10.047l-23.444-75.8627h-28.095v75.8627h-10.047zm36.096 66.93746c9.055 0 15.257-2.4172 18.606-7.2516 3.349-4.9583 5.023-12.4578 5.023-22.4984 0-10.1646-1.736-17.5401-5.209-22.1265-3.349-4.7104-9.551-7.06565-18.606-7.06565h-25.863v58.94215z"/><path d="m297.728 9.85469h-30.142v-8.18125h69.587v8.18125h-29.397v142.42831h-10.048z"/><path d="m385.003 154.142c-22.204 0-34.298-13.016-36.282-39.047l8.745-2.789c1.488 11.156 4.155 19.524 8 25.102 3.97 5.578 10.544 8.367 19.723 8.367 16.001 0 24.002-8.057 24.002-24.172 0-6.198-1.551-11.838-4.652-16.92-3.101-5.0825-8.063-11.0325-14.885-17.8502l-27.537-27.3328c-8.807-8.8011-13.21-18.3459-13.21-28.6344 0-9.7927 2.977-17.3541 8.931-22.68435 6.078-5.45417 14.14-8.18125 24.188-8.18125 10.791 0 19.102 2.91302 24.932 8.73907 5.83 5.70203 9.179 15.37083 10.047 29.00623l-8.559 2.0453c-.868-11.0323-3.287-19.0276-7.256-23.9859-3.845-5.0823-10.171-7.62345-18.978-7.62345-7.195 0-13.025 1.85935-17.49 5.57815-4.341 3.5948-6.512 9.0489-6.512 16.3625 0 3.9666.806 7.8093 2.419 11.5281 1.736 3.5948 4.589 7.3755 8.558 11.3422l27.165 26.7749c6.947 6.8178 12.404 13.5735 16.374 20.2669 3.969 6.694 5.954 13.698 5.954 21.011 0 10.909-3.039 19.152-9.117 24.73s-14.265 8.367-24.56 8.367z"/><path d="m474.238 1.67344h32.933c14.016 0 23.94 3.90468 29.769 11.71406 5.83 7.6854 8.745 18.2219 8.745 31.6094v62.4751c0 14.131-2.853 25.163-8.558 33.097-5.582 7.809-15.258 11.714-29.026 11.714h-33.863zm33.305 142.61356c7.69 0 13.582-1.611 17.676-4.834 4.093-3.347 6.822-7.747 8.186-13.202 1.365-5.454 2.047-12.085 2.047-19.895v-60.6154c0-12.0239-2.047-21.0109-6.14-26.9609-3.969-5.95-11.35-8.92501-22.141-8.92501h-22.886v134.43231z"/><path d="m564.962 36.8156c3.225-1.9833 5.271-4.2146 6.14-6.6937.992-2.6032 1.488-6.5078 1.488-11.7141h-5.954v-16.73436h12.094v14.13126c0 6.9416-.744 12.2719-2.233 15.9906-1.488 3.5948-4.279 6.3838-8.372 8.3672z"/></g></svg>