<svg xmlns="http://www.w3.org/2000/svg" fill="none" height="402.777" width="647.368"><g fill="#fff"><path d="M28.468 249.959h37.958l28.096 150.587H63.821l-5.024-31.79H36.655l-5.21 31.79H0zm27.166 98.904l-8-58.747-8.002 58.747zM115.327 274.685h-22.7v-24.726h78.706v24.726h-22.514v125.861h-33.492zM198.185 274.685h-22.701v-24.726h78.707v24.726h-22.514v125.861h-33.492zM281.948 249.959h37.958l28.096 150.587h-30.701l-5.024-31.79h-22.142l-5.21 31.79H253.48zm27.166 98.904l-8.001-58.747-8.001 58.747zM404.024 402.777c-16.374 0-28.034-4.276-34.98-12.828-6.823-8.676-10.234-21.131-10.234-37.368v-54.285c0-16.608 3.411-29.126 10.234-37.554 6.822-8.552 18.482-12.828 34.98-12.828 15.754 0 26.918 3.78 33.492 11.34 6.575 7.561 9.862 18.282 9.862 32.163v13.014h-32.562v-15.059c0-5.825-.62-10.287-1.861-13.386-1.24-3.098-4.217-4.647-8.931-4.647-4.713 0-7.815 1.673-9.303 5.019-1.489 3.223-2.233 7.746-2.233 13.572v70.831c0 5.95.744 10.535 2.233 13.758 1.612 3.098 4.714 4.648 9.303 4.648 4.59 0 7.505-1.55 8.745-4.648 1.365-3.223 2.047-7.808 2.047-13.758v-15.802h32.562v13.014c0 14.129-3.287 25.16-9.862 33.092-6.574 7.808-17.738 11.712-33.492 11.712zM466.259 249.959h33.306v60.978h23.259v-60.978h33.492v150.587h-33.492v-65.812h-23.259v65.812h-33.306zM579.267 249.959h67.729v22.681h-34.423v37.368h26.236v23.053h-26.236v44.99h34.795v22.495h-68.101zM24.592 89.728h66.291v22.223H57.191v36.615H82.87v22.588H57.191v44.084h34.056v22.042H24.593zM124.988 157.856L97.67 89.728h30.778l16.209 39.893 13.112-39.894h27.136l-25.861 76.691 28.775 70.862h-30.596l-18.03-44.084-15.844 44.084H96.395zM199.956 89.728h32.6V237.28h-32.6zM254.552 89.728h32.599v125.51h33.874v22.042h-66.473zM24.592.858H42.7c6.544 0 11.15 1.747 13.819 5.24 2.732 3.495 4.098 8.387 4.098 14.676 0 5.908-1.398 10.8-4.194 14.675-2.732 3.812-7.275 5.718-13.628 5.718H29.738v36.878h-5.146zm17.06 36.306c4.764 0 8.227-1.239 10.387-3.716 2.16-2.541 3.24-6.766 3.24-12.674 0-4.13-.444-7.338-1.334-9.625-.89-2.287-2.319-3.907-4.288-4.86-1.906-.953-4.543-1.429-7.91-1.429H29.738v32.304zM88.288 79.093c-7.052 0-12.008-2.001-14.867-6.003-2.796-4.066-4.194-9.72-4.194-16.962V22.394c0-7.115 1.43-12.61 4.289-16.486C76.439 1.97 81.363 0 88.288 0c6.862 0 11.754 1.97 14.677 5.908 2.922 3.939 4.384 9.434 4.384 16.486v33.829c0 7.242-1.43 12.864-4.289 16.867-2.796 4.002-7.72 6.003-14.772 6.003zm0-4.288c5.21 0 8.8-1.493 10.77-4.479 2.032-2.986 3.049-7.337 3.049-13.055v-35.64c0-5.717-1.017-10.037-3.05-12.96-1.97-2.922-5.56-4.383-10.769-4.383-5.21 0-8.831 1.461-10.864 4.384-1.97 2.922-2.955 7.242-2.955 12.96v35.64c0 5.78.985 10.164 2.954 13.15 2.034 2.922 5.655 4.383 10.865 4.383zM119.988.858h18.68c6.353 0 10.769 1.683 13.247 5.05 2.478 3.367 3.717 8.037 3.717 14.008 0 5.019-.826 9.148-2.478 12.388-1.589 3.24-4.543 5.21-8.864 5.908l12.39 39.833h-5.147l-12.008-38.88h-14.39v38.88h-5.147zm18.489 34.305c4.638 0 7.815-1.239 9.53-3.716 1.716-2.541 2.573-6.385 2.573-11.53 0-5.21-.889-8.99-2.668-11.34-1.715-2.415-4.892-3.622-9.53-3.622h-13.247v30.208zM177.093 5.05h-15.44V.859h35.644V5.05h-15.058v72.994h-5.146zM221.796 78.998c-11.373 0-17.568-6.67-18.584-20.012l4.479-1.429c.762 5.718 2.128 10.006 4.098 12.864 2.033 2.86 5.4 4.289 10.102 4.289 8.196 0 12.294-4.13 12.294-12.388 0-3.177-.794-6.067-2.383-8.672-1.588-2.605-4.129-5.654-7.624-9.148l-14.105-14.008c-4.511-4.51-6.766-9.402-6.766-14.675 0-5.02 1.525-8.894 4.574-11.626C210.995 1.398 215.124 0 220.271 0c5.527 0 9.784 1.493 12.77 4.479 2.987 2.922 4.702 7.877 5.147 14.866l-4.384 1.048c-.445-5.654-1.684-9.752-3.717-12.293-1.97-2.605-5.21-3.907-9.721-3.907-3.685 0-6.671.953-8.958 2.859-2.224 1.842-3.336 4.637-3.336 8.386 0 2.032.413 4.002 1.239 5.908.889 1.842 2.351 3.78 4.384 5.813l13.914 13.722c3.558 3.494 6.354 6.956 8.387 10.387 2.033 3.43 3.049 7.02 3.049 10.768 0 5.59-1.556 9.815-4.669 12.674-3.114 2.859-7.307 4.288-12.58 4.288zM267.503.858h16.869c7.179 0 12.262 2 15.248 6.003 2.986 3.939 4.479 9.339 4.479 16.2v32.018c0 7.243-1.461 12.897-4.383 16.963-2.86 4.002-7.815 6.003-14.868 6.003h-17.345zm17.059 73.09c3.94 0 6.957-.826 9.054-2.478 2.097-1.715 3.495-3.97 4.193-6.766.699-2.795 1.049-6.194 1.049-10.196V23.442c0-6.162-1.049-10.768-3.145-13.817-2.033-3.05-5.814-4.574-11.341-4.574h-11.723v68.896zM313.973 18.868c1.652-1.016 2.7-2.16 3.145-3.43.508-1.335.762-3.336.762-6.004h-3.049V.858h6.194V8.1c0 3.557-.381 6.29-1.143 8.195-.763 1.842-2.192 3.272-4.289 4.288zM350.935 159.044h18.107c6.544 0 11.151 1.747 13.819 5.241 2.732 3.494 4.098 8.386 4.098 14.675 0 5.908-1.398 10.8-4.193 14.675-2.732 3.812-7.275 5.718-13.629 5.718h-13.056v36.878h-5.146zm17.059 36.307c4.765 0 8.228-1.239 10.388-3.717 2.16-2.541 3.24-6.766 3.24-12.674 0-4.129-.445-7.337-1.334-9.624-.89-2.287-2.319-3.907-4.289-4.86-1.906-.953-4.543-1.43-7.91-1.43h-12.008v32.305zM414.63 237.28c-7.052 0-12.008-2.002-14.867-6.004-2.795-4.066-4.193-9.72-4.193-16.962V180.58c0-7.115 1.429-12.61 4.289-16.485 2.922-3.939 7.846-5.909 14.771-5.909 6.862 0 11.755 1.97 14.677 5.909 2.923 3.938 4.384 9.434 4.384 16.485v33.829c0 7.242-1.429 12.865-4.289 16.867-2.795 4.002-7.719 6.004-14.772 6.004zm0-4.289c5.21 0 8.8-1.493 10.77-4.478 2.033-2.986 3.049-7.338 3.049-13.056v-35.639c0-5.718-1.016-10.038-3.049-12.96-1.97-2.922-5.56-4.383-10.77-4.383-5.209 0-8.831 1.461-10.864 4.383-1.97 2.922-2.954 7.242-2.954 12.96v35.639c0 5.782.984 10.165 2.954 13.151 2.033 2.922 5.655 4.383 10.864 4.383zM446.331 159.044h18.679c6.354 0 10.769 1.683 13.247 5.051 2.478 3.367 3.717 8.036 3.717 14.008 0 5.018-.826 9.148-2.478 12.388-1.588 3.24-4.543 5.209-8.863 5.908l12.389 39.832h-5.146l-12.008-38.879h-14.391v38.879h-5.146zm18.488 34.305c4.639 0 7.815-1.238 9.531-3.716 1.715-2.541 2.573-6.385 2.573-11.53 0-5.21-.89-8.99-2.669-11.34-1.715-2.414-4.892-3.621-9.53-3.621h-13.247v30.207zM503.435 163.237h-15.439v-4.193h35.643v4.193h-15.058v72.994h-5.146zM548.138 237.184c-11.373 0-17.567-6.67-18.584-20.011l4.479-1.43c.763 5.718 2.129 10.006 4.098 12.865 2.033 2.859 5.401 4.288 10.102 4.288 8.196 0 12.294-4.129 12.294-12.388 0-3.176-.794-6.067-2.382-8.672-1.588-2.604-4.13-5.654-7.624-9.148l-14.105-14.008c-4.511-4.51-6.767-9.402-6.767-14.675 0-5.019 1.525-8.894 4.575-11.626 3.113-2.795 7.243-4.193 12.389-4.193 5.528 0 9.785 1.493 12.771 4.479 2.986 2.922 4.701 7.878 5.146 14.866l-4.384 1.048c-.444-5.654-1.683-9.752-3.717-12.293-1.969-2.604-5.209-3.907-9.72-3.907-3.686 0-6.672.953-8.959 2.859-2.224 1.842-3.336 4.638-3.336 8.386 0 2.033.413 4.002 1.239 5.908.89 1.842 2.351 3.78 4.384 5.813l13.915 13.722c3.558 3.494 6.353 6.956 8.386 10.387 2.033 3.431 3.05 7.02 3.05 10.768 0 5.591-1.557 9.815-4.67 12.674s-7.306 4.288-12.58 4.288zM593.846 159.044h16.868c7.18 0 12.263 2.001 15.249 6.003 2.986 3.939 4.479 9.339 4.479 16.2v32.019c0 7.242-1.461 12.896-4.384 16.962-2.859 4.002-7.815 6.003-14.867 6.003h-17.345zm17.059 73.09c3.939 0 6.957-.826 9.054-2.478 2.096-1.715 3.494-3.97 4.193-6.766.699-2.795 1.048-6.194 1.048-10.196v-31.066c0-6.162-1.048-10.768-3.145-13.817-2.033-3.049-5.813-4.574-11.341-4.574h-11.722v68.897zM640.315 177.054c1.652-1.016 2.701-2.16 3.145-3.43.509-1.334.763-3.335.763-6.004h-3.05v-8.576h6.195v7.242c0 3.558-.381 6.29-1.144 8.195-.762 1.843-2.192 3.272-4.288 4.289z"/></g></svg>